<svg width="163" height="215" viewBox="0 0 163 215" fill="none" xmlns="http://www.w3.org/2000/svg">
<mask id="path-1-outside-1_781_2546" maskUnits="userSpaceOnUse" x="45" y="44" width="77" height="61" fill="black">
<rect fill="white" x="45" y="44" width="77" height="61"/>
<path d="M46.5881 76.4957L56.6023 66.446L73.044 82.6037L109.514 46.2756L119.599 56.3253L73.044 102.632L46.5881 76.4957Z"/>
</mask>
<path d="M46.5881 76.4957L45.8797 75.7899L45.1708 76.5013L45.8853 77.2071L46.5881 76.4957ZM56.6023 66.446L57.3032 65.7328L56.5949 65.0367L55.8939 65.7402L56.6023 66.446ZM73.044 82.6037L72.3431 83.3169L73.0488 84.0104L73.7498 83.3122L73.044 82.6037ZM109.514 46.2756L110.22 45.5672L109.514 44.864L108.808 45.5671L109.514 46.2756ZM119.599 56.3253L120.305 57.0343L121.017 56.3259L120.305 55.6169L119.599 56.3253ZM73.044 102.632L72.3412 103.343L73.0464 104.04L73.7492 103.341L73.044 102.632ZM47.2964 77.2016L57.3106 67.1519L55.8939 65.7402L45.8797 75.7899L47.2964 77.2016ZM55.9014 67.1593L72.3431 83.3169L73.745 81.8904L57.3032 65.7328L55.9014 67.1593ZM73.7498 83.3122L110.22 46.9841L108.808 45.5671L72.3383 81.8952L73.7498 83.3122ZM108.808 46.9839L118.894 57.0336L120.305 55.6169L110.22 45.5672L108.808 46.9839ZM118.894 55.6163L72.3388 101.923L73.7492 103.341L120.305 57.0343L118.894 55.6163ZM73.7468 101.921L47.2909 75.7843L45.8853 77.2071L72.3412 103.343L73.7468 101.921Z" fill="#35DC32" mask="url(#path-1-outside-1_781_2546)"/>
<mask id="path-3-outside-2_781_2546" maskUnits="userSpaceOnUse" x="10" y="146" width="143" height="32" fill="black">
<rect fill="white" x="10" y="146" width="143" height="32"/>
<path d="M31.147 155.82H26.4808C26.3956 155.217 26.2216 154.68 25.9588 154.212C25.696 153.736 25.3587 153.331 24.9467 152.997C24.5348 152.663 24.0589 152.408 23.5192 152.23C22.9865 152.053 22.4077 151.964 21.7827 151.964C20.6534 151.964 19.6697 152.244 18.8317 152.805C17.9936 153.359 17.3438 154.169 16.8821 155.234C16.4205 156.293 16.1896 157.578 16.1896 159.091C16.1896 160.646 16.4205 161.953 16.8821 163.011C17.3509 164.07 18.0043 164.869 18.8423 165.408C19.6804 165.948 20.6499 166.218 21.7507 166.218C22.3686 166.218 22.9403 166.136 23.4659 165.973C23.9986 165.81 24.4709 165.572 24.8828 165.259C25.2947 164.94 25.6357 164.553 25.9055 164.098C26.1825 163.643 26.3743 163.125 26.4808 162.543L31.147 162.564C31.0263 163.565 30.7244 164.531 30.2415 165.462C29.7656 166.385 29.1229 167.212 28.3132 167.944C27.5107 168.668 26.5518 169.244 25.4368 169.67C24.3288 170.089 23.0753 170.298 21.6761 170.298C19.7301 170.298 17.9901 169.858 16.456 168.977C14.929 168.097 13.7216 166.822 12.8338 165.153C11.9531 163.484 11.5128 161.463 11.5128 159.091C11.5128 156.712 11.9602 154.688 12.8551 153.018C13.75 151.349 14.9645 150.078 16.4986 149.205C18.0327 148.324 19.7585 147.884 21.6761 147.884C22.9403 147.884 24.1122 148.061 25.1918 148.416C26.2784 148.771 27.2408 149.29 28.0788 149.972C28.9169 150.646 29.5987 151.474 30.1243 152.454C30.657 153.434 30.9979 154.556 31.147 155.82ZM41.7631 170.32C40.1083 170.32 38.6772 169.968 37.4698 169.265C36.2695 168.555 35.3427 167.567 34.6893 166.303C34.0359 165.032 33.7092 163.558 33.7092 161.882C33.7092 160.192 34.0359 158.714 34.6893 157.45C35.3427 156.179 36.2695 155.192 37.4698 154.489C38.6772 153.778 40.1083 153.423 41.7631 153.423C43.418 153.423 44.8455 153.778 46.0458 154.489C47.2532 155.192 48.1836 156.179 48.837 157.45C49.4904 158.714 49.8171 160.192 49.8171 161.882C49.8171 163.558 49.4904 165.032 48.837 166.303C48.1836 167.567 47.2532 168.555 46.0458 169.265C44.8455 169.968 43.418 170.32 41.7631 170.32ZM41.7844 166.804C42.5373 166.804 43.1658 166.591 43.6701 166.165C44.1744 165.732 44.5543 165.142 44.81 164.396C45.0728 163.651 45.2042 162.802 45.2042 161.85C45.2042 160.898 45.0728 160.05 44.81 159.304C44.5543 158.558 44.1744 157.969 43.6701 157.536C43.1658 157.102 42.5373 156.886 41.7844 156.886C41.0245 156.886 40.3853 157.102 39.8668 157.536C39.3555 157.969 38.9684 158.558 38.7056 159.304C38.4499 160.05 38.3221 160.898 38.3221 161.85C38.3221 162.802 38.4499 163.651 38.7056 164.396C38.9684 165.142 39.3555 165.732 39.8668 166.165C40.3853 166.591 41.0245 166.804 41.7844 166.804ZM52.7681 170V153.636H57.0934V156.523H57.2852C57.6261 155.565 58.1942 154.808 58.9897 154.254C59.7852 153.7 60.7369 153.423 61.8448 153.423C62.967 153.423 63.9222 153.704 64.7106 154.265C65.4989 154.819 66.0245 155.572 66.2873 156.523H66.4577C66.7915 155.586 67.3952 154.837 68.2688 154.276C69.1495 153.707 70.19 153.423 71.3903 153.423C72.9173 153.423 74.1566 153.91 75.1083 154.883C76.0671 155.849 76.5465 157.219 76.5465 158.995V170H72.0188V159.89C72.0188 158.981 71.7773 158.299 71.2944 157.844C70.8114 157.39 70.2077 157.163 69.4833 157.163C68.6594 157.163 68.0167 157.425 67.555 157.951C67.0934 158.469 66.8626 159.155 66.8626 160.007V170H62.4627V159.794C62.4627 158.991 62.2319 158.352 61.7702 157.876C61.3157 157.401 60.7156 157.163 59.9698 157.163C59.4656 157.163 59.011 157.29 58.6062 157.546C58.2085 157.795 57.8924 158.146 57.658 158.601C57.4237 159.048 57.3065 159.574 57.3065 160.178V170H52.7681ZM80.1314 176.136V153.636H84.6058V156.385H84.8082C85.0071 155.945 85.2947 155.497 85.6712 155.043C86.0547 154.581 86.5518 154.197 87.1626 153.892C87.7805 153.58 88.5476 153.423 89.4638 153.423C90.657 153.423 91.7578 153.736 92.7663 154.361C93.7749 154.979 94.581 155.913 95.1847 157.163C95.7884 158.406 96.0902 159.964 96.0902 161.839C96.0902 163.665 95.7955 165.206 95.206 166.463C94.6236 167.713 93.8281 168.661 92.8196 169.308C91.8182 169.947 90.696 170.266 89.4531 170.266C88.5724 170.266 87.8232 170.121 87.2053 169.83C86.5945 169.538 86.0938 169.173 85.7031 168.732C85.3125 168.285 85.0142 167.834 84.8082 167.379H84.6697V176.136H80.1314ZM84.5739 161.818C84.5739 162.791 84.7088 163.64 84.9787 164.364C85.2486 165.089 85.6392 165.653 86.1506 166.058C86.6619 166.456 87.2834 166.655 88.0149 166.655C88.7536 166.655 89.3786 166.452 89.8899 166.048C90.4013 165.636 90.7884 165.067 91.0511 164.343C91.321 163.612 91.456 162.77 91.456 161.818C91.456 160.874 91.3246 160.043 91.0618 159.325C90.799 158.608 90.4119 158.047 89.9006 157.642C89.3892 157.237 88.7607 157.035 88.0149 157.035C87.2763 157.035 86.6513 157.23 86.1399 157.621C85.6357 158.011 85.2486 158.565 84.9787 159.283C84.7088 160 84.5739 160.845 84.5739 161.818ZM103.654 148.182V170H99.1158V148.182H103.654ZM114.747 170.32C113.064 170.32 111.615 169.979 110.4 169.297C109.193 168.608 108.263 167.635 107.609 166.378C106.956 165.114 106.629 163.619 106.629 161.893C106.629 160.21 106.956 158.732 107.609 157.461C108.263 156.19 109.182 155.199 110.368 154.489C111.562 153.778 112.961 153.423 114.566 153.423C115.645 153.423 116.65 153.597 117.581 153.945C118.518 154.286 119.335 154.801 120.031 155.49C120.734 156.179 121.281 157.045 121.672 158.089C122.062 159.126 122.258 160.341 122.258 161.733V162.979H108.44V160.167H117.986C117.986 159.513 117.844 158.935 117.559 158.43C117.275 157.926 116.881 157.532 116.377 157.248C115.88 156.957 115.301 156.811 114.64 156.811C113.952 156.811 113.341 156.971 112.808 157.29C112.282 157.603 111.871 158.026 111.572 158.558C111.274 159.084 111.121 159.67 111.114 160.316V162.99C111.114 163.8 111.263 164.499 111.562 165.089C111.867 165.678 112.297 166.133 112.851 166.452C113.405 166.772 114.062 166.932 114.822 166.932C115.326 166.932 115.787 166.861 116.206 166.719C116.626 166.577 116.984 166.364 117.282 166.08C117.581 165.795 117.808 165.447 117.964 165.036L122.162 165.312C121.949 166.321 121.512 167.202 120.851 167.955C120.198 168.7 119.353 169.283 118.316 169.702C117.286 170.114 116.096 170.32 114.747 170.32ZM133.923 153.636V157.045H124.069V153.636H133.923ZM126.306 149.716H130.844V164.972C130.844 165.391 130.908 165.717 131.036 165.952C131.164 166.179 131.341 166.339 131.569 166.431C131.803 166.523 132.073 166.57 132.378 166.57C132.591 166.57 132.805 166.552 133.018 166.516C133.231 166.474 133.394 166.442 133.508 166.42L134.221 169.798C133.994 169.869 133.675 169.95 133.263 170.043C132.851 170.142 132.35 170.202 131.76 170.224C130.667 170.266 129.708 170.121 128.884 169.787C128.067 169.453 127.432 168.935 126.977 168.232C126.523 167.528 126.299 166.641 126.306 165.568V149.716ZM144.161 170.32C142.478 170.32 141.029 169.979 139.814 169.297C138.607 168.608 137.677 167.635 137.023 166.378C136.37 165.114 136.043 163.619 136.043 161.893C136.043 160.21 136.37 158.732 137.023 157.461C137.677 156.19 138.596 155.199 139.782 154.489C140.976 153.778 142.375 153.423 143.98 153.423C145.059 153.423 146.064 153.597 146.995 153.945C147.932 154.286 148.749 154.801 149.445 155.49C150.148 156.179 150.695 157.045 151.086 158.089C151.476 159.126 151.672 160.341 151.672 161.733V162.979H137.854V160.167H147.4C147.4 159.513 147.258 158.935 146.974 158.43C146.689 157.926 146.295 157.532 145.791 157.248C145.294 156.957 144.715 156.811 144.055 156.811C143.366 156.811 142.755 156.971 142.222 157.29C141.697 157.603 141.285 158.026 140.986 158.558C140.688 159.084 140.535 159.67 140.528 160.316V162.99C140.528 163.8 140.677 164.499 140.976 165.089C141.281 165.678 141.711 166.133 142.265 166.452C142.819 166.772 143.476 166.932 144.236 166.932C144.74 166.932 145.202 166.861 145.621 166.719C146.04 166.577 146.398 166.364 146.697 166.08C146.995 165.795 147.222 165.447 147.378 165.036L151.576 165.312C151.363 166.321 150.926 167.202 150.265 167.955C149.612 168.7 148.767 169.283 147.73 169.702C146.7 170.114 145.51 170.32 144.161 170.32Z"/>
</mask>
<path d="M31.147 155.82V156.82H32.2719L32.1401 155.703L31.147 155.82ZM26.4808 155.82L25.4906 155.96L25.6121 156.82H26.4808V155.82ZM25.9588 154.212L25.0834 154.695L25.0865 154.701L25.9588 154.212ZM24.9467 152.997L24.3171 153.774L24.3172 153.774L24.9467 152.997ZM23.5192 152.23L23.2029 153.179L23.2067 153.18L23.5192 152.23ZM18.8317 152.805L19.3831 153.64L19.388 153.636L18.8317 152.805ZM16.8821 155.234L17.7987 155.634L17.7997 155.632L16.8821 155.234ZM16.8821 163.011L15.9655 163.411L15.9678 163.416L16.8821 163.011ZM18.8423 165.408L18.3009 166.249L18.8423 165.408ZM23.4659 165.973L23.1727 165.017L23.1691 165.018L23.4659 165.973ZM24.8828 165.259L25.4872 166.056L25.4958 166.049L24.8828 165.259ZM25.9055 164.098L25.0515 163.578L25.0457 163.587L25.9055 164.098ZM26.4808 162.543L26.4854 161.543L25.6479 161.539L25.4971 162.363L26.4808 162.543ZM31.147 162.564L32.1398 162.684L32.2742 161.569L31.1516 161.564L31.147 162.564ZM30.2415 165.462L29.3539 165.001L29.3526 165.004L30.2415 165.462ZM28.3132 167.944L28.9833 168.686L28.9836 168.686L28.3132 167.944ZM25.4368 169.67L25.7905 170.605L25.7938 170.604L25.4368 169.67ZM16.456 168.977L15.9564 169.844L15.9581 169.845L16.456 168.977ZM12.8338 165.153L11.9494 165.619L11.9509 165.622L12.8338 165.153ZM12.8551 153.018L13.7364 153.491L13.7364 153.491L12.8551 153.018ZM16.4986 149.205L16.9934 150.074L16.9964 150.072L16.4986 149.205ZM25.1918 148.416L24.8793 149.366L24.8811 149.367L25.1918 148.416ZM28.0788 149.972L27.4477 150.747L27.4517 150.751L28.0788 149.972ZM30.1243 152.454L29.243 152.926L29.2457 152.931L30.1243 152.454ZM31.147 154.82H26.4808V156.82H31.147V154.82ZM27.471 155.681C27.3708 154.97 27.1621 154.313 26.8311 153.723L25.0865 154.701C25.2811 155.048 25.4204 155.463 25.4906 155.96L27.471 155.681ZM26.8342 153.728C26.5107 153.143 26.0909 152.637 25.5763 152.22L24.3172 153.774C24.6265 154.025 24.8813 154.329 25.0834 154.695L26.8342 153.728ZM25.5763 152.22C25.0635 151.805 24.4784 151.493 23.8317 151.28L23.2067 153.18C23.6395 153.322 24.0061 153.522 24.3171 153.774L25.5763 152.22ZM23.8354 151.281C23.1899 151.066 22.5031 150.964 21.7827 150.964V152.964C22.3122 152.964 22.7831 153.039 23.2029 153.179L23.8354 151.281ZM21.7827 150.964C20.4799 150.964 19.2973 151.29 18.2754 151.974L19.388 153.636C20.0422 153.198 20.8269 152.964 21.7827 152.964V150.964ZM18.2802 151.971C17.2564 152.648 16.491 153.622 15.9645 154.837L17.7997 155.632C18.1965 154.716 18.7309 154.071 19.3831 153.64L18.2802 151.971ZM15.9655 154.835C15.4346 156.052 15.1896 157.481 15.1896 159.091H17.1896C17.1896 157.675 17.4063 156.534 17.7987 155.634L15.9655 154.835ZM15.1896 159.091C15.1896 160.739 15.4333 162.191 15.9655 163.411L17.7987 162.612C17.4076 161.715 17.1896 160.554 17.1896 159.091H15.1896ZM15.9678 163.416C16.5026 164.624 17.2735 165.587 18.3009 166.249L19.3838 164.568C18.735 164.15 18.1991 163.516 17.7964 162.606L15.9678 163.416ZM18.3009 166.249C19.317 166.904 20.4786 167.218 21.7507 167.218V165.218C20.8211 165.218 20.0438 164.993 19.3838 164.568L18.3009 166.249ZM21.7507 167.218C22.4571 167.218 23.1301 167.125 23.7627 166.928L23.1691 165.018C22.7506 165.148 22.2801 165.218 21.7507 165.218V167.218ZM23.7591 166.929C24.3953 166.734 24.9747 166.445 25.4872 166.056L24.2784 164.463C23.9671 164.699 23.6018 164.885 23.1727 165.017L23.7591 166.929ZM25.4958 166.049C26.0082 165.652 26.4324 165.169 26.7654 164.609L25.0457 163.587C24.8389 163.936 24.5813 164.228 24.2698 164.469L25.4958 166.049ZM26.7595 164.618C27.107 164.048 27.3384 163.412 27.4645 162.723L25.4971 162.363C25.4102 162.838 25.2581 163.239 25.0516 163.578L26.7595 164.618ZM26.4763 163.543L31.1425 163.564L31.1516 161.564L26.4854 161.543L26.4763 163.543ZM30.1542 162.444C30.0484 163.322 29.7838 164.173 29.3539 165.001L31.129 165.922C31.665 164.89 32.0042 163.809 32.1398 162.684L30.1542 162.444ZM29.3526 165.004C28.9346 165.814 28.3677 166.547 27.6428 167.202L28.9836 168.686C29.878 167.878 30.5966 166.955 31.1304 165.92L29.3526 165.004ZM27.6432 167.202C26.9413 167.835 26.0916 168.349 25.0798 168.736L25.7938 170.604C27.0121 170.138 28.08 169.502 28.9833 168.686L27.6432 167.202ZM25.083 168.734C24.1066 169.104 22.9759 169.298 21.6761 169.298V171.298C23.1747 171.298 24.5511 171.074 25.7905 170.605L25.083 168.734ZM21.6761 169.298C19.8869 169.298 18.3216 168.895 16.9538 168.11L15.9581 169.845C17.6585 170.821 19.5734 171.298 21.6761 171.298V169.298ZM16.9556 168.111C15.6028 167.331 14.5231 166.199 13.7167 164.683L11.9509 165.622C12.9201 167.444 14.2551 168.862 15.9564 169.844L16.9556 168.111ZM13.7182 164.686C12.9305 163.193 12.5128 161.341 12.5128 159.091H10.5128C10.5128 161.585 10.9758 163.774 11.9494 165.619L13.7182 164.686ZM12.5128 159.091C12.5128 156.835 12.9369 154.982 13.7364 153.491L11.9738 152.546C10.9835 154.393 10.5128 156.588 10.5128 159.091H12.5128ZM13.7364 153.491C14.5491 151.975 15.6349 150.847 16.9934 150.074L16.0037 148.336C14.2941 149.309 12.9509 150.724 11.9738 152.546L13.7364 153.491ZM16.9964 150.072C18.3664 149.285 19.9181 148.884 21.6761 148.884V146.884C19.599 146.884 17.6989 147.362 16.0007 148.337L16.9964 150.072ZM21.6761 148.884C22.846 148.884 23.9112 149.048 24.8793 149.366L25.5042 147.466C24.3132 147.074 23.0347 146.884 21.6761 146.884V148.884ZM24.8811 149.367C25.858 149.686 26.7103 150.147 27.4478 150.747L28.7099 149.196C27.7712 148.432 26.6988 147.857 25.5024 147.466L24.8811 149.367ZM27.4517 150.751C28.1819 151.338 28.7786 152.06 29.243 152.926L31.0056 151.981C30.4188 150.887 29.6519 149.954 28.7059 149.193L27.4517 150.751ZM29.2457 152.931C29.7096 153.785 30.0176 154.782 30.1539 155.937L32.1401 155.703C31.9782 154.33 31.6043 153.083 31.0029 151.976L29.2457 152.931ZM37.4698 169.265L36.9606 170.126L36.9666 170.129L37.4698 169.265ZM34.6893 166.303L33.7999 166.76L33.8009 166.762L34.6893 166.303ZM34.6893 157.45L35.5776 157.909L35.5787 157.907L34.6893 157.45ZM37.4698 154.489L37.9753 155.351L37.9768 155.351L37.4698 154.489ZM46.0458 154.489L45.5366 155.349L45.5426 155.353L46.0458 154.489ZM48.837 157.45L47.9476 157.907L47.9486 157.909L48.837 157.45ZM48.837 166.303L49.7254 166.762L49.7264 166.76L48.837 166.303ZM46.0458 169.265L46.5513 170.128L46.5528 170.127L46.0458 169.265ZM43.6701 166.165L44.3156 166.929L44.3218 166.923L43.6701 166.165ZM44.81 164.396L43.8668 164.064L43.8641 164.072L44.81 164.396ZM44.81 159.304L43.864 159.628L43.8669 159.636L44.81 159.304ZM39.8668 157.536L39.2256 156.768L39.2204 156.773L39.8668 157.536ZM38.7056 159.304L37.7624 158.972L37.7597 158.98L38.7056 159.304ZM38.7056 164.396L37.7596 164.721L37.7625 164.729L38.7056 164.396ZM39.8668 166.165L39.2204 166.928L39.2261 166.933L39.2319 166.937L39.8668 166.165ZM41.7631 169.32C40.2523 169.32 39.0016 169 37.9731 168.401L36.9666 170.129C38.3528 170.936 39.9643 171.32 41.7631 171.32V169.32ZM37.9791 168.404C36.9438 167.792 36.1467 166.945 35.5776 165.844L33.8009 166.762C34.5387 168.19 35.5953 169.318 36.9606 170.126L37.9791 168.404ZM35.5787 165.846C35.0095 164.739 34.7092 163.427 34.7092 161.882H32.7092C32.7092 163.69 33.0622 165.325 33.7999 166.76L35.5787 165.846ZM34.7092 161.882C34.7092 160.322 35.0102 159.007 35.5776 157.909L33.8009 156.991C33.0616 158.422 32.7092 160.062 32.7092 161.882H34.7092ZM35.5787 157.907C36.1478 156.8 36.9436 155.956 37.9753 155.351L36.9644 153.626C35.5954 154.428 34.5376 155.558 33.7999 156.993L35.5787 157.907ZM37.9768 155.351C39.0047 154.746 40.254 154.423 41.7631 154.423V152.423C39.9626 152.423 38.3497 152.811 36.9628 153.627L37.9768 155.351ZM41.7631 154.423C43.2724 154.423 44.5171 154.746 45.5366 155.349L46.5551 153.628C45.174 152.811 43.5635 152.423 41.7631 152.423V154.423ZM45.5426 155.353C46.5811 155.958 47.3793 156.802 47.9476 157.907L49.7264 156.993C48.9879 155.556 47.9253 154.426 46.549 153.624L45.5426 155.353ZM47.9486 157.909C48.5161 159.007 48.8171 160.322 48.8171 161.882H50.8171C50.8171 160.062 50.4647 158.422 49.7254 156.991L47.9486 157.909ZM48.8171 161.882C48.8171 163.427 48.5168 164.739 47.9476 165.846L49.7264 166.76C50.4641 165.325 50.8171 163.69 50.8171 161.882H48.8171ZM47.9486 165.844C47.3804 166.944 46.5809 167.79 45.5388 168.403L46.5528 170.127C47.9255 169.319 48.9868 168.191 49.7254 166.762L47.9486 165.844ZM45.5404 168.402C44.5202 169 43.2741 169.32 41.7631 169.32V171.32C43.5618 171.32 45.1709 170.936 46.5513 170.128L45.5404 168.402ZM41.7844 167.804C42.7384 167.804 43.6057 167.528 44.3156 166.929L43.0246 165.401C42.726 165.653 42.3362 165.804 41.7844 165.804V167.804ZM44.3218 166.923C44.9842 166.354 45.4534 165.603 45.756 164.721L43.8641 164.072C43.6553 164.681 43.3645 165.109 43.0184 165.406L44.3218 166.923ZM45.7532 164.729C46.0604 163.857 46.2042 162.893 46.2042 161.85H44.2042C44.2042 162.711 44.0852 163.444 43.8669 164.064L45.7532 164.729ZM46.2042 161.85C46.2042 160.808 46.0604 159.843 45.7532 158.972L43.8669 159.636C44.0852 160.256 44.2042 160.989 44.2042 161.85H46.2042ZM45.756 158.98C45.4534 158.097 44.9842 157.346 44.3218 156.777L43.0184 158.294C43.3645 158.591 43.6553 159.019 43.8641 159.628L45.756 158.98ZM44.3218 156.777C43.6121 156.167 42.7427 155.886 41.7844 155.886V157.886C42.3319 157.886 42.7196 158.037 43.0184 158.294L44.3218 156.777ZM41.7844 155.886C40.8212 155.886 39.9464 156.166 39.2256 156.768L40.5081 158.303C40.8241 158.039 41.2278 157.886 41.7844 157.886V155.886ZM39.2204 156.773C38.5511 157.34 38.0735 158.089 37.7625 158.972L39.6488 159.636C39.8633 159.028 40.1598 158.598 40.5133 158.298L39.2204 156.773ZM37.7597 158.98C37.4617 159.849 37.3221 160.81 37.3221 161.85H39.3221C39.3221 160.987 39.4382 160.251 39.6516 159.628L37.7597 158.98ZM37.3221 161.85C37.3221 162.89 37.4617 163.851 37.7597 164.721L39.6516 164.072C39.4382 163.45 39.3221 162.714 39.3221 161.85H37.3221ZM37.7625 164.729C38.0735 165.611 38.5511 166.361 39.2204 166.928L40.5133 165.402C40.1598 165.102 39.8633 164.673 39.6488 164.064L37.7625 164.729ZM39.2319 166.937C39.9528 167.53 40.8254 167.804 41.7844 167.804V165.804C41.2237 165.804 40.8178 165.652 40.5018 165.392L39.2319 166.937ZM52.7681 170H51.7681V171H52.7681V170ZM52.7681 153.636V152.636H51.7681V153.636H52.7681ZM57.0934 153.636H58.0934V152.636H57.0934V153.636ZM57.0934 156.523H56.0934V157.523H57.0934V156.523ZM57.2852 156.523V157.523H57.9909L58.2274 156.858L57.2852 156.523ZM58.9897 154.254L58.4182 153.434V153.434L58.9897 154.254ZM64.7106 154.265L64.1307 155.08L64.1356 155.083L64.7106 154.265ZM66.2873 156.523L65.3234 156.79L65.526 157.523H66.2873V156.523ZM66.4577 156.523V157.523H67.1632L67.3998 156.859L66.4577 156.523ZM68.2688 154.276L68.8092 155.117L68.8109 155.116L68.2688 154.276ZM75.1083 154.883L74.3934 155.582L74.3986 155.587L75.1083 154.883ZM76.5465 170V171H77.5465V170H76.5465ZM72.0188 170H71.0188V171H72.0188V170ZM71.2944 157.844L70.609 158.573L71.2944 157.844ZM67.555 157.951L68.3019 158.616L68.3064 158.611L67.555 157.951ZM66.8626 170V171H67.8626V170H66.8626ZM62.4627 170H61.4627V171H62.4627V170ZM61.7702 157.876L61.0471 158.567L61.0525 158.573L61.7702 157.876ZM58.6062 157.546L59.1362 158.394L59.1402 158.392L58.6062 157.546ZM57.658 158.601L58.5439 159.065L58.5468 159.059L57.658 158.601ZM57.3065 170V171H58.3065V170H57.3065ZM53.7681 170V153.636H51.7681V170H53.7681ZM52.7681 154.636H57.0934V152.636H52.7681V154.636ZM56.0934 153.636V156.523H58.0934V153.636H56.0934ZM57.0934 157.523H57.2852V155.523H57.0934V157.523ZM58.2274 156.858C58.5021 156.086 58.9458 155.503 59.5612 155.075L58.4182 153.434C57.4427 154.113 56.75 155.043 56.3429 156.188L58.2274 156.858ZM59.5612 155.075C60.1657 154.654 60.911 154.423 61.8448 154.423V152.423C60.5627 152.423 59.4046 152.747 58.4182 153.434L59.5612 155.075ZM61.8448 154.423C62.7934 154.423 63.5377 154.658 64.1307 155.08L65.2904 153.45C64.3068 152.75 63.1405 152.423 61.8448 152.423V154.423ZM64.1356 155.083C64.7292 155.5 65.1206 156.055 65.3234 156.79L67.2512 156.257C66.9284 155.088 66.2687 154.138 65.2855 153.447L64.1356 155.083ZM66.2873 157.523H66.4577V155.523H66.2873V157.523ZM67.3998 156.859C67.656 156.139 68.1132 155.564 68.8092 155.117L67.7284 153.434C66.6773 154.109 65.9271 155.033 65.5157 156.188L67.3998 156.859ZM68.8109 155.116C69.5075 154.666 70.3536 154.423 71.3903 154.423V152.423C70.0263 152.423 68.7915 152.748 67.7267 153.435L68.8109 155.116ZM71.3903 154.423C72.6842 154.423 73.6536 154.826 74.3934 155.582L75.8232 154.184C74.6596 152.994 73.1504 152.423 71.3903 152.423V154.423ZM74.3986 155.587C75.1199 156.314 75.5465 157.4 75.5465 158.995H77.5465C77.5465 157.039 77.0144 155.384 75.818 154.178L74.3986 155.587ZM75.5465 158.995V170H77.5465V158.995H75.5465ZM76.5465 169H72.0188V171H76.5465V169ZM73.0188 170V159.89H71.0188V170H73.0188ZM73.0188 159.89C73.0188 158.811 72.7292 157.822 71.9798 157.116L70.609 158.573C70.8255 158.776 71.0188 159.151 71.0188 159.89H73.0188ZM71.9798 157.116C71.2934 156.47 70.4368 156.163 69.4833 156.163V158.163C69.9787 158.163 70.3294 158.31 70.609 158.573L71.9798 157.116ZM69.4833 156.163C68.428 156.163 67.4894 156.51 66.8037 157.291L68.3064 158.611C68.5439 158.34 68.8909 158.163 69.4833 158.163V156.163ZM66.8082 157.286C66.1485 158.027 65.8626 158.968 65.8626 160.007H67.8626C67.8626 159.342 68.0383 158.912 68.3019 158.616L66.8082 157.286ZM65.8626 160.007V170H67.8626V160.007H65.8626ZM66.8626 169H62.4627V171H66.8626V169ZM63.4627 170V159.794H61.4627V170H63.4627ZM63.4627 159.794C63.4627 158.79 63.1675 157.88 62.488 157.18L61.0525 158.573C61.2963 158.824 61.4627 159.193 61.4627 159.794H63.4627ZM62.4934 157.186C61.8242 156.485 60.9488 156.163 59.9698 156.163V158.163C60.4823 158.163 60.8072 158.316 61.0471 158.567L62.4934 157.186ZM59.9698 156.163C59.2871 156.163 58.6455 156.339 58.0722 156.701L59.1402 158.392C59.3765 158.242 59.644 158.163 59.9698 158.163V156.163ZM58.0762 156.698C57.5124 157.051 57.0783 157.543 56.7692 158.143L58.5468 159.059C58.7065 158.749 58.9045 158.539 59.1362 158.394L58.0762 156.698ZM56.7722 158.137C56.4495 158.753 56.3065 159.444 56.3065 160.178H58.3065C58.3065 159.704 58.3978 159.344 58.5439 159.065L56.7722 158.137ZM56.3065 160.178V170H58.3065V160.178H56.3065ZM57.3065 169H52.7681V171H57.3065V169ZM80.1314 176.136H79.1314V177.136H80.1314V176.136ZM80.1314 153.636V152.636H79.1314V153.636H80.1314ZM84.6058 153.636H85.6058V152.636H84.6058V153.636ZM84.6058 156.385H83.6058V157.385H84.6058V156.385ZM84.8082 156.385V157.385H85.4539L85.7196 156.797L84.8082 156.385ZM85.6712 155.043L84.902 154.404L84.901 154.405L85.6712 155.043ZM87.1626 153.892L87.6099 154.786L87.614 154.784L87.1626 153.892ZM92.7663 154.361L92.2396 155.211L92.2439 155.213L92.7663 154.361ZM95.1847 157.163L94.2842 157.598L94.2851 157.6L95.1847 157.163ZM95.206 166.463L94.3006 166.039L94.2995 166.041L95.206 166.463ZM92.8196 169.308L93.3576 170.15L93.3592 170.149L92.8196 169.308ZM87.2053 169.83L86.7749 170.732L86.779 170.734L87.2053 169.83ZM85.7031 168.732L84.9498 169.39L84.955 169.396L85.7031 168.732ZM84.8082 167.379L85.7191 166.967L85.453 166.379H84.8082V167.379ZM84.6697 167.379V166.379H83.6697V167.379H84.6697ZM84.6697 176.136V177.136H85.6697V176.136H84.6697ZM86.1506 166.058L85.5298 166.842L85.5366 166.848L86.1506 166.058ZM89.8899 166.048L90.5106 166.832L90.5172 166.826L89.8899 166.048ZM91.0511 164.343L90.1129 163.997L90.1111 164.002L91.0511 164.343ZM91.0618 159.325L92.0008 158.981L91.0618 159.325ZM89.9006 157.642L90.5213 156.858L89.9006 157.642ZM86.1399 157.621L85.5329 156.826L85.5275 156.83L86.1399 157.621ZM84.9787 159.283L84.0427 158.931L84.9787 159.283ZM81.1314 176.136V153.636H79.1314V176.136H81.1314ZM80.1314 154.636H84.6058V152.636H80.1314V154.636ZM83.6058 153.636V156.385H85.6058V153.636H83.6058ZM84.6058 157.385H84.8082V155.385H84.6058V157.385ZM85.7196 156.797C85.8747 156.453 86.1098 156.081 86.4414 155.68L84.901 154.405C84.4797 154.914 84.1395 155.436 83.8969 155.973L85.7196 156.797ZM86.4404 155.682C86.724 155.34 87.1059 155.038 87.6099 154.786L86.7154 152.998C85.9978 153.356 85.3854 153.822 84.902 154.404L86.4404 155.682ZM87.614 154.784C88.0542 154.562 88.6558 154.423 89.4638 154.423V152.423C88.4394 152.423 87.5069 152.597 86.7113 153L87.614 154.784ZM89.4638 154.423C90.4719 154.423 91.3902 154.684 92.2396 155.211L93.2931 153.511C92.1254 152.787 90.842 152.423 89.4638 152.423V154.423ZM92.2439 155.213C93.0623 155.715 93.7491 156.49 94.2842 157.598L96.0851 156.728C95.4128 155.336 94.4874 154.242 93.2888 153.508L92.2439 155.213ZM94.2851 157.6C94.8035 158.667 95.0902 160.065 95.0902 161.839H97.0902C97.0902 159.864 96.7732 158.144 96.0842 156.726L94.2851 157.6ZM95.0902 161.839C95.0902 163.562 94.8114 164.949 94.3006 166.039L96.1114 166.888C96.7795 165.463 97.0902 163.767 97.0902 161.839H95.0902ZM94.2995 166.041C93.7848 167.145 93.106 167.936 92.28 168.466L93.3592 170.149C94.5503 169.386 95.4624 168.281 96.1124 166.885L94.2995 166.041ZM92.2816 168.465C91.4485 168.996 90.5146 169.266 89.4531 169.266V171.266C90.8774 171.266 92.1879 170.897 93.3576 170.15L92.2816 168.465ZM89.4531 169.266C88.6788 169.266 88.0834 169.138 87.6316 168.925L86.779 170.734C87.5629 171.104 88.4661 171.266 89.4531 171.266V169.266ZM87.6356 168.927C87.1277 168.685 86.7407 168.395 86.4512 168.069L84.955 169.396C85.4468 169.95 86.0612 170.392 86.7749 170.732L87.6356 168.927ZM86.4564 168.075C86.1182 167.687 85.878 167.317 85.7191 166.967L83.8974 167.792C84.1504 168.35 84.5068 168.882 84.9498 169.39L86.4564 168.075ZM84.8082 166.379H84.6697V168.379H84.8082V166.379ZM83.6697 167.379V176.136H85.6697V167.379H83.6697ZM84.6697 175.136H80.1314V177.136H84.6697V175.136ZM83.5739 161.818C83.5739 162.881 83.7209 163.853 84.0416 164.713L85.9158 164.015C85.6967 163.427 85.5739 162.702 85.5739 161.818H83.5739ZM84.0416 164.713C84.3633 165.577 84.8507 166.305 85.5299 166.842L86.7713 165.274C86.4277 165.002 86.1338 164.601 85.9158 164.015L84.0416 164.713ZM85.5366 166.848C86.246 167.399 87.0912 167.655 88.0149 167.655V165.655C87.4755 165.655 87.0779 165.513 86.7645 165.269L85.5366 166.848ZM88.0149 167.655C88.9474 167.655 89.7994 167.395 90.5106 166.832L89.2692 165.264C88.9577 165.51 88.5597 165.655 88.0149 165.655V167.655ZM90.5172 166.826C91.194 166.281 91.6771 165.55 91.9912 164.684L90.1111 164.002C89.8996 164.585 89.6086 164.99 89.2626 165.269L90.5172 166.826ZM91.9893 164.689C92.308 163.825 92.456 162.863 92.456 161.818H90.456C90.456 162.677 90.3341 163.398 90.1129 163.997L91.9893 164.689ZM92.456 161.818C92.456 160.783 92.3122 159.831 92.0008 158.981L90.1228 159.669C90.337 160.254 90.456 160.964 90.456 161.818H92.456ZM92.0008 158.981C91.6855 158.121 91.2005 157.396 90.5213 156.858L89.2799 158.426C89.6234 158.698 89.9125 159.095 90.1228 159.669L92.0008 158.981ZM90.5213 156.858C89.8083 156.294 88.952 156.035 88.0149 156.035V158.035C88.5693 158.035 88.9701 158.181 89.2799 158.426L90.5213 156.858ZM88.0149 156.035C87.0908 156.035 86.2437 156.283 85.5329 156.826L86.747 158.415C87.0588 158.177 87.4618 158.035 88.0149 158.035V156.035ZM85.5275 156.83C84.8498 157.355 84.3646 158.075 84.0427 158.931L85.9146 159.635C86.1326 159.056 86.4215 158.668 86.7523 158.411L85.5275 156.83ZM84.0427 158.931C83.7208 159.786 83.5739 160.756 83.5739 161.818H85.5739C85.5739 160.934 85.6968 160.214 85.9146 159.635L84.0427 158.931ZM103.654 148.182H104.654V147.182H103.654V148.182ZM103.654 170V171H104.654V170H103.654ZM99.1158 170H98.1158V171H99.1158V170ZM99.1158 148.182V147.182H98.1158V148.182H99.1158ZM102.654 148.182V170H104.654V148.182H102.654ZM103.654 169H99.1158V171H103.654V169ZM100.116 170V148.182H98.1158V170H100.116ZM99.1158 149.182H103.654V147.182H99.1158V149.182ZM110.4 169.297L109.905 170.165L109.911 170.169L110.4 169.297ZM107.609 166.378L106.721 166.837L106.722 166.839L107.609 166.378ZM107.609 157.461L106.72 157.004L107.609 157.461ZM110.368 154.489L109.857 153.629L109.855 153.631L110.368 154.489ZM117.581 153.945L117.23 154.882L117.239 154.885L117.581 153.945ZM120.031 155.49L119.328 156.201L119.331 156.204L120.031 155.49ZM121.672 158.089L120.735 158.44L120.736 158.442L121.672 158.089ZM122.258 162.979V163.979H123.258V162.979H122.258ZM108.44 162.979H107.44V163.979H108.44V162.979ZM108.44 160.167V159.167H107.44V160.167H108.44ZM117.986 160.167V161.167H118.986V160.167H117.986ZM117.559 158.43L116.688 158.921L117.559 158.43ZM116.377 157.248L115.872 158.111L115.879 158.115L115.886 158.119L116.377 157.248ZM112.808 157.29L113.319 158.15L113.323 158.148L112.808 157.29ZM111.572 158.558L112.442 159.052L112.445 159.047L111.572 158.558ZM111.114 160.316L110.114 160.305V160.316H111.114ZM111.562 165.089L110.669 165.54L110.674 165.549L111.562 165.089ZM116.206 166.719L115.885 165.772L116.206 166.719ZM117.282 166.08L116.593 165.355L117.282 166.08ZM117.964 165.036L118.03 164.038L117.292 163.989L117.029 164.681L117.964 165.036ZM122.162 165.312L123.14 165.519L123.379 164.391L122.228 164.315L122.162 165.312ZM120.851 167.955L120.1 167.295L120.099 167.296L120.851 167.955ZM118.316 169.702L118.687 170.63L118.691 170.629L118.316 169.702ZM114.747 169.32C113.2 169.32 111.927 169.007 110.89 168.425L109.911 170.169C111.303 170.95 112.928 171.32 114.747 171.32V169.32ZM110.896 168.428C109.859 167.837 109.063 167.007 108.496 165.917L106.722 166.839C107.462 168.263 108.527 169.379 109.905 170.165L110.896 168.428ZM108.498 165.919C107.932 164.824 107.629 163.492 107.629 161.893H105.629C105.629 163.745 105.98 165.404 106.721 166.837L108.498 165.919ZM107.629 161.893C107.629 160.34 107.93 159.025 108.499 157.918L106.72 157.004C105.982 158.44 105.629 160.079 105.629 161.893H107.629ZM108.499 157.918C109.07 156.807 109.862 155.958 110.882 155.347L109.855 153.631C108.503 154.44 107.456 155.572 106.72 157.004L108.499 157.918ZM110.88 155.348C111.896 154.743 113.112 154.423 114.566 154.423V152.423C112.809 152.423 111.228 152.813 109.857 153.629L110.88 155.348ZM114.566 154.423C115.536 154.423 116.421 154.579 117.23 154.882L117.931 153.009C116.879 152.615 115.755 152.423 114.566 152.423V154.423ZM117.239 154.885C118.043 155.178 118.736 155.615 119.328 156.201L120.735 154.779C119.934 153.987 118.993 153.395 117.923 153.006L117.239 154.885ZM119.331 156.204C119.917 156.778 120.389 157.515 120.735 158.44L122.608 157.739C122.173 156.576 121.552 155.58 120.731 154.776L119.331 156.204ZM120.736 158.442C121.075 159.342 121.258 160.432 121.258 161.733H123.258C123.258 160.25 123.05 158.911 122.607 157.737L120.736 158.442ZM121.258 161.733V162.979H123.258V161.733H121.258ZM122.258 161.979H108.44V163.979H122.258V161.979ZM109.44 162.979V160.167H107.44V162.979H109.44ZM108.44 161.167H117.986V159.167H108.44V161.167ZM118.986 160.167C118.986 159.364 118.81 158.612 118.431 157.94L116.688 158.921C116.877 159.257 116.986 159.663 116.986 160.167H118.986ZM118.431 157.94C118.057 157.276 117.531 156.75 116.868 156.377L115.886 158.119C116.231 158.314 116.494 158.576 116.688 158.921L118.431 157.94ZM116.882 156.385C116.211 155.992 115.452 155.811 114.64 155.811V157.811C115.15 157.811 115.549 157.922 115.872 158.111L116.882 156.385ZM114.64 155.811C113.791 155.811 112.998 156.01 112.294 156.433L113.323 158.148C113.683 157.932 114.112 157.811 114.64 157.811V155.811ZM112.297 156.431C111.621 156.833 111.084 157.383 110.7 158.07L112.445 159.047C112.657 158.668 112.944 158.373 113.319 158.15L112.297 156.431ZM110.703 158.065C110.315 158.748 110.123 159.502 110.114 160.305L112.114 160.327C112.119 159.838 112.233 159.42 112.442 159.052L110.703 158.065ZM110.114 160.316V162.99H112.114V160.316H110.114ZM110.114 162.99C110.114 163.922 110.286 164.783 110.669 165.54L112.454 164.637C112.241 164.216 112.114 163.678 112.114 162.99H110.114ZM110.674 165.549C111.063 166.301 111.625 166.9 112.351 167.319L113.35 165.586C112.968 165.366 112.671 165.055 112.45 164.629L110.674 165.549ZM112.351 167.319C113.083 167.741 113.919 167.932 114.822 167.932V165.932C114.204 165.932 113.726 165.803 113.35 165.586L112.351 167.319ZM114.822 167.932C115.42 167.932 115.992 167.847 116.528 167.666L115.885 165.772C115.583 165.874 115.232 165.932 114.822 165.932V167.932ZM116.528 167.666C117.074 167.481 117.561 167.195 117.972 166.804L116.593 165.355C116.407 165.532 116.177 165.673 115.885 165.772L116.528 167.666ZM117.972 166.804C118.386 166.409 118.694 165.932 118.899 165.39L117.029 164.681C116.922 164.963 116.775 165.182 116.593 165.355L117.972 166.804ZM117.898 166.033L122.096 166.31L122.228 164.315L118.03 164.038L117.898 166.033ZM121.183 165.106C121.005 165.952 120.644 166.675 120.1 167.295L121.603 168.614C122.38 167.728 122.893 166.69 123.14 165.519L121.183 165.106ZM120.099 167.296C119.561 167.909 118.852 168.407 117.941 168.775L118.691 170.629C119.854 170.159 120.834 169.491 121.604 168.614L120.099 167.296ZM117.944 168.773C117.055 169.129 115.996 169.32 114.747 169.32V171.32C116.197 171.32 117.517 171.098 118.687 170.63L117.944 168.773ZM133.923 153.636H134.923V152.636H133.923V153.636ZM133.923 157.045V158.045H134.923V157.045H133.923ZM124.069 157.045H123.069V158.045H124.069V157.045ZM124.069 153.636V152.636H123.069V153.636H124.069ZM126.306 149.716V148.716H125.306V149.716H126.306ZM130.844 149.716H131.844V148.716H130.844V149.716ZM131.036 165.952L130.158 166.431L130.164 166.442L131.036 165.952ZM131.569 166.431L131.192 167.358L131.202 167.362L131.569 166.431ZM133.018 166.516L133.182 167.503L133.198 167.5L133.214 167.497L133.018 166.516ZM133.508 166.42L134.486 166.214L134.284 165.257L133.323 165.438L133.508 166.42ZM134.221 169.798L134.52 170.752L135.388 170.481L135.2 169.591L134.221 169.798ZM133.263 170.043L133.044 169.067L133.036 169.069L133.028 169.071L133.263 170.043ZM131.76 170.224L131.724 169.224L131.722 169.224L131.76 170.224ZM128.884 169.787L128.506 170.713L128.509 170.714L128.884 169.787ZM126.977 168.232L127.817 167.689L126.977 168.232ZM126.306 165.568L127.306 165.575V165.568H126.306ZM132.923 153.636V157.045H134.923V153.636H132.923ZM133.923 156.045H124.069V158.045H133.923V156.045ZM125.069 157.045V153.636H123.069V157.045H125.069ZM124.069 154.636H133.923V152.636H124.069V154.636ZM126.306 150.716H130.844V148.716H126.306V150.716ZM129.844 149.716V164.972H131.844V149.716H129.844ZM129.844 164.972C129.844 165.472 129.917 165.989 130.158 166.431L131.914 165.473C131.899 165.446 131.844 165.31 131.844 164.972H129.844ZM130.164 166.442C130.396 166.853 130.742 167.174 131.192 167.358L131.945 165.505C131.94 165.502 131.937 165.501 131.936 165.5C131.935 165.5 131.935 165.5 131.934 165.499C131.933 165.498 131.923 165.489 131.908 165.461L130.164 166.442ZM131.202 167.362C131.575 167.508 131.973 167.57 132.378 167.57V165.57C132.173 165.57 132.031 165.538 131.935 165.501L131.202 167.362ZM132.378 167.57C132.647 167.57 132.915 167.547 133.182 167.503L132.853 165.53C132.694 165.557 132.536 165.57 132.378 165.57V167.57ZM133.214 167.497C133.426 167.455 133.584 167.424 133.692 167.403L133.323 165.438C133.204 165.46 133.036 165.493 132.821 165.536L133.214 167.497ZM132.529 166.627L133.243 170.004L135.2 169.591L134.486 166.214L132.529 166.627ZM133.923 168.843C133.735 168.902 133.446 168.977 133.044 169.067L133.481 171.018C133.903 170.924 134.254 170.835 134.52 170.752L133.923 168.843ZM133.028 169.071C132.701 169.149 132.271 169.205 131.724 169.224L131.797 171.223C132.429 171.2 133 171.135 133.497 171.015L133.028 169.071ZM131.722 169.224C130.738 169.263 129.925 169.13 129.26 168.86L128.509 170.714C129.491 171.112 130.596 171.27 131.799 171.223L131.722 169.224ZM129.262 168.861C128.624 168.6 128.154 168.21 127.817 167.689L126.137 168.774C126.709 169.659 127.51 170.306 128.506 170.713L129.262 168.861ZM127.817 167.689C127.494 167.189 127.3 166.507 127.306 165.575L125.306 165.562C125.298 166.775 125.551 167.867 126.137 168.774L127.817 167.689ZM127.306 165.568V149.716H125.306V165.568H127.306ZM139.814 169.297L139.319 170.165L139.325 170.169L139.814 169.297ZM137.023 166.378L136.135 166.837L136.136 166.839L137.023 166.378ZM137.023 157.461L136.134 157.004L137.023 157.461ZM139.782 154.489L139.271 153.629L139.269 153.631L139.782 154.489ZM146.995 153.945L146.645 154.882L146.653 154.885L146.995 153.945ZM149.445 155.49L148.742 156.201L148.745 156.204L149.445 155.49ZM151.086 158.089L150.149 158.44L150.15 158.442L151.086 158.089ZM151.672 162.979V163.979H152.672V162.979H151.672ZM137.854 162.979H136.854V163.979H137.854V162.979ZM137.854 160.167V159.167H136.854V160.167H137.854ZM147.4 160.167V161.167H148.4V160.167H147.4ZM146.974 158.43L146.102 158.921L146.974 158.43ZM145.791 157.248L145.286 158.111L145.293 158.115L145.3 158.119L145.791 157.248ZM142.222 157.29L142.733 158.15L142.737 158.148L142.222 157.29ZM140.986 158.558L141.856 159.052L141.859 159.047L140.986 158.558ZM140.528 160.316L139.528 160.305V160.316H140.528ZM140.976 165.089L140.083 165.54L140.088 165.549L140.976 165.089ZM145.621 166.719L145.3 165.772L145.621 166.719ZM146.697 166.08L146.007 165.355L146.697 166.08ZM147.378 165.036L147.444 164.038L146.706 163.989L146.443 164.681L147.378 165.036ZM151.576 165.312L152.554 165.519L152.793 164.391L151.642 164.315L151.576 165.312ZM150.265 167.955L149.514 167.295L149.513 167.296L150.265 167.955ZM147.73 169.702L148.101 170.63L148.105 170.629L147.73 169.702ZM144.161 169.32C142.614 169.32 141.341 169.007 140.304 168.425L139.325 170.169C140.717 170.95 142.342 171.32 144.161 171.32V169.32ZM140.31 168.428C139.273 167.837 138.477 167.007 137.911 165.917L136.136 166.839C136.876 168.263 137.941 169.379 139.319 170.165L140.31 168.428ZM137.912 165.919C137.346 164.824 137.043 163.492 137.043 161.893H135.043C135.043 163.745 135.394 165.404 136.135 166.837L137.912 165.919ZM137.043 161.893C137.043 160.34 137.344 159.025 137.913 157.918L136.134 157.004C135.396 158.44 135.043 160.079 135.043 161.893H137.043ZM137.913 157.918C138.484 156.807 139.276 155.958 140.296 155.347L139.269 153.631C137.917 154.44 136.87 155.572 136.134 157.004L137.913 157.918ZM140.294 155.348C141.31 154.743 142.526 154.423 143.98 154.423V152.423C142.223 152.423 140.642 152.813 139.271 153.629L140.294 155.348ZM143.98 154.423C144.95 154.423 145.836 154.579 146.645 154.882L147.345 153.009C146.293 152.615 145.169 152.423 143.98 152.423V154.423ZM146.653 154.885C147.458 155.178 148.15 155.615 148.742 156.201L150.149 154.779C149.348 153.987 148.407 153.395 147.337 153.006L146.653 154.885ZM148.745 156.204C149.331 156.778 149.803 157.515 150.149 158.44L152.022 157.739C151.587 156.576 150.966 155.58 150.145 154.776L148.745 156.204ZM150.15 158.442C150.489 159.342 150.672 160.432 150.672 161.733H152.672C152.672 160.25 152.464 158.911 152.022 157.737L150.15 158.442ZM150.672 161.733V162.979H152.672V161.733H150.672ZM151.672 161.979H137.854V163.979H151.672V161.979ZM138.854 162.979V160.167H136.854V162.979H138.854ZM137.854 161.167H147.4V159.167H137.854V161.167ZM148.4 160.167C148.4 159.364 148.224 158.612 147.845 157.94L146.102 158.921C146.292 159.257 146.4 159.663 146.4 160.167H148.4ZM147.845 157.94C147.471 157.276 146.945 156.75 146.282 156.377L145.3 158.119C145.645 158.314 145.908 158.576 146.102 158.921L147.845 157.94ZM146.296 156.385C145.625 155.992 144.866 155.811 144.055 155.811V157.811C144.564 157.811 144.963 157.922 145.286 158.111L146.296 156.385ZM144.055 155.811C143.205 155.811 142.412 156.01 141.708 156.433L142.737 158.148C143.097 157.932 143.527 157.811 144.055 157.811V155.811ZM141.711 156.431C141.035 156.833 140.498 157.383 140.114 158.07L141.859 159.047C142.071 158.668 142.358 158.373 142.733 158.15L141.711 156.431ZM140.117 158.065C139.729 158.748 139.537 159.502 139.528 160.305L141.528 160.327C141.534 159.838 141.647 159.42 141.856 159.052L140.117 158.065ZM139.528 160.316V162.99H141.528V160.316H139.528ZM139.528 162.99C139.528 163.922 139.7 164.783 140.083 165.54L141.868 164.637C141.655 164.216 141.528 163.678 141.528 162.99H139.528ZM140.088 165.549C140.478 166.301 141.039 166.9 141.765 167.319L142.764 165.586C142.383 165.366 142.085 165.055 141.864 164.629L140.088 165.549ZM141.765 167.319C142.497 167.741 143.333 167.932 144.236 167.932V165.932C143.618 165.932 143.14 165.803 142.764 165.586L141.765 167.319ZM144.236 167.932C144.834 167.932 145.406 167.847 145.942 167.666L145.3 165.772C144.997 165.874 144.646 165.932 144.236 165.932V167.932ZM145.942 167.666C146.488 167.481 146.975 167.195 147.386 166.804L146.007 165.355C145.821 165.532 145.591 165.673 145.3 165.772L145.942 167.666ZM147.386 166.804C147.8 166.409 148.108 165.932 148.313 165.39L146.443 164.681C146.336 164.963 146.189 165.182 146.007 165.355L147.386 166.804ZM147.313 166.033L151.51 166.31L151.642 164.315L147.444 164.038L147.313 166.033ZM150.597 165.106C150.419 165.952 150.058 166.675 149.514 167.295L151.017 168.614C151.794 167.728 152.307 166.69 152.554 165.519L150.597 165.106ZM149.513 167.296C148.976 167.909 148.266 168.407 147.355 168.775L148.105 170.629C149.268 170.159 150.249 169.491 151.018 168.614L149.513 167.296ZM147.359 168.773C146.469 169.129 145.41 169.32 144.161 169.32V171.32C145.611 171.32 146.931 171.098 148.101 170.63L147.359 168.773Z" fill="#35DC32" mask="url(#path-3-outside-2_781_2546)"/>
<path d="M42.598 196.398C42.598 195.055 42.772 193.821 43.12 192.696C43.4716 191.566 43.9723 190.528 44.6222 189.58H45.7301C45.4744 189.931 45.2347 190.364 45.011 190.879C44.7908 191.391 44.5973 191.953 44.4304 192.568C44.2635 193.179 44.1321 193.811 44.0362 194.464C43.9439 195.118 43.8977 195.762 43.8977 196.398C43.8977 197.243 43.9794 198.1 44.1428 198.971C44.3061 199.841 44.5263 200.648 44.8033 201.394C45.0803 202.14 45.3892 202.747 45.7301 203.216H44.6222C43.9723 202.268 43.4716 201.231 43.12 200.105C42.772 198.976 42.598 197.74 42.598 196.398ZM51.1434 192.818V193.884H46.9033V192.818H51.1434ZM48.1391 190.858H49.3962V198.656C49.3962 199.011 49.4477 199.278 49.5507 199.455C49.6572 199.629 49.7922 199.746 49.9555 199.807C50.1224 199.864 50.2982 199.892 50.4829 199.892C50.6214 199.892 50.735 199.885 50.8238 199.871C50.9126 199.853 50.9836 199.839 51.0368 199.828L51.2925 200.957C51.2073 200.989 51.0883 201.021 50.9356 201.053C50.7829 201.089 50.5894 201.107 50.355 201.107C49.9999 201.107 49.6519 201.03 49.311 200.877C48.9736 200.725 48.6931 200.492 48.4694 200.18C48.2492 199.867 48.1391 199.473 48.1391 198.997V190.858ZM54.4672 196.078V201H53.2101V190.091H54.4672V194.097H54.5738C54.7655 193.674 55.0532 193.338 55.4367 193.09C55.8238 192.838 56.3387 192.712 56.9814 192.712C57.539 192.712 58.0273 192.824 58.4463 193.047C58.8653 193.267 59.1903 193.607 59.4211 194.065C59.6555 194.519 59.7726 195.098 59.7726 195.801V201H58.5155V195.886C58.5155 195.237 58.3469 194.734 58.0095 194.379C57.6757 194.02 57.2123 193.841 56.6192 193.841C56.2073 193.841 55.838 193.928 55.5113 194.102C55.1881 194.276 54.9324 194.53 54.7442 194.864C54.5596 195.197 54.4672 195.602 54.4672 196.078ZM64.4801 201.192C63.9616 201.192 63.4911 201.094 63.0685 200.899C62.646 200.7 62.3104 200.414 62.0618 200.041C61.8132 199.665 61.6889 199.21 61.6889 198.678C61.6889 198.209 61.7813 197.829 61.9659 197.538C62.1506 197.243 62.3974 197.012 62.7063 196.845C63.0153 196.678 63.3562 196.554 63.729 196.472C64.1055 196.387 64.4837 196.32 64.8636 196.27C65.3608 196.206 65.7638 196.158 66.0728 196.126C66.3853 196.091 66.6126 196.032 66.7546 195.95C66.9002 195.869 66.973 195.727 66.973 195.524V195.482C66.973 194.956 66.8292 194.548 66.5415 194.256C66.2575 193.965 65.826 193.82 65.2472 193.82C64.647 193.82 64.1765 193.951 63.8356 194.214C63.4947 194.477 63.255 194.757 63.1165 195.055L61.9233 194.629C62.1364 194.132 62.4205 193.745 62.7756 193.468C63.1342 193.187 63.5249 192.992 63.9474 192.882C64.3736 192.768 64.7926 192.712 65.2045 192.712C65.4673 192.712 65.7692 192.744 66.1101 192.808C66.4545 192.868 66.7866 192.994 67.1062 193.186C67.4293 193.377 67.6974 193.667 67.9105 194.054C68.1236 194.441 68.2301 194.96 68.2301 195.609V201H66.973V199.892H66.9091C66.8239 200.07 66.6818 200.26 66.483 200.462C66.2841 200.664 66.0195 200.837 65.6893 200.979C65.359 201.121 64.956 201.192 64.4801 201.192ZM64.6719 200.062C65.169 200.062 65.5881 199.965 65.929 199.77C66.2734 199.574 66.5327 199.322 66.7067 199.013C66.8842 198.704 66.973 198.379 66.973 198.038V196.888C66.9197 196.952 66.8026 197.01 66.6214 197.064C66.4439 197.113 66.2379 197.158 66.0036 197.197C65.7727 197.232 65.5472 197.264 65.3271 197.293C65.1104 197.317 64.9347 197.339 64.7997 197.357C64.473 197.399 64.1676 197.468 63.8835 197.564C63.603 197.657 63.3757 197.797 63.2017 197.985C63.0313 198.17 62.946 198.422 62.946 198.741C62.946 199.178 63.1076 199.509 63.4308 199.732C63.7575 199.952 64.1712 200.062 64.6719 200.062ZM71.7817 196.078V201H70.5246V192.818H71.7391V194.097H71.8456C72.0374 193.681 72.3286 193.347 72.7192 193.095C73.1098 192.839 73.6141 192.712 74.232 192.712C74.786 192.712 75.2707 192.825 75.6862 193.053C76.1017 193.276 76.4248 193.617 76.6556 194.075C76.8865 194.53 77.0019 195.105 77.0019 195.801V201H75.7448V195.886C75.7448 195.244 75.5779 194.743 75.2441 194.384C74.9102 194.022 74.4521 193.841 73.8698 193.841C73.4685 193.841 73.1098 193.928 72.7938 194.102C72.4813 194.276 72.2345 194.53 72.0534 194.864C71.8722 195.197 71.7817 195.602 71.7817 196.078ZM80.4709 198.017L80.4496 196.462H80.7053L84.2848 192.818H85.8402L82.0263 196.675H81.9197L80.4709 198.017ZM79.299 201V190.091H80.5561V201H79.299ZM84.4979 201L81.3018 196.952L82.1967 196.078L86.0959 201H84.4979ZM92.4866 204.068C92.2735 204.068 92.0835 204.05 91.9166 204.015C91.7497 203.983 91.6343 203.951 91.5704 203.919L91.89 202.811C92.1954 202.889 92.4653 202.918 92.6997 202.896C92.934 202.875 93.1418 202.77 93.3229 202.582C93.5075 202.397 93.6762 202.097 93.8289 201.682L94.0633 201.043L91.0377 192.818H92.4014L94.6599 199.338H94.7451L97.0036 192.818H98.3673L94.8943 202.193C94.738 202.616 94.5445 202.966 94.3137 203.243C94.0828 203.523 93.8147 203.731 93.5093 203.866C93.2075 204.001 92.8666 204.068 92.4866 204.068ZM103.057 201.17C102.319 201.17 101.671 200.995 101.113 200.643C100.559 200.292 100.126 199.8 99.8135 199.168C99.5045 198.536 99.3501 197.797 99.3501 196.952C99.3501 196.099 99.5045 195.355 99.8135 194.72C100.126 194.084 100.559 193.591 101.113 193.239C101.671 192.887 102.319 192.712 103.057 192.712C103.796 192.712 104.442 192.887 104.996 193.239C105.554 193.591 105.987 194.084 106.296 194.72C106.609 195.355 106.765 196.099 106.765 196.952C106.765 197.797 106.609 198.536 106.296 199.168C105.987 199.8 105.554 200.292 104.996 200.643C104.442 200.995 103.796 201.17 103.057 201.17ZM103.057 200.041C103.619 200.041 104.08 199.897 104.442 199.61C104.805 199.322 105.073 198.944 105.247 198.475C105.421 198.006 105.508 197.499 105.508 196.952C105.508 196.405 105.421 195.895 105.247 195.423C105.073 194.951 104.805 194.569 104.442 194.278C104.08 193.987 103.619 193.841 103.057 193.841C102.496 193.841 102.035 193.987 101.672 194.278C101.31 194.569 101.042 194.951 100.868 195.423C100.694 195.895 100.607 196.405 100.607 196.952C100.607 197.499 100.694 198.006 100.868 198.475C101.042 198.944 101.31 199.322 101.672 199.61C102.035 199.897 102.496 200.041 103.057 200.041ZM113.84 197.655V192.818H115.097V201H113.84V199.615H113.755C113.563 200.031 113.265 200.384 112.86 200.675C112.455 200.963 111.944 201.107 111.326 201.107C110.814 201.107 110.36 200.995 109.962 200.771C109.564 200.544 109.252 200.203 109.025 199.748C108.797 199.29 108.684 198.713 108.684 198.017V192.818H109.941V197.932C109.941 198.528 110.108 199.004 110.442 199.359C110.779 199.714 111.209 199.892 111.731 199.892C112.043 199.892 112.361 199.812 112.684 199.652C113.011 199.493 113.284 199.248 113.504 198.917C113.728 198.587 113.84 198.166 113.84 197.655ZM120.084 196.398C120.084 197.74 119.908 198.976 119.557 200.105C119.209 201.231 118.71 202.268 118.06 203.216H116.952C117.208 202.864 117.446 202.431 117.666 201.916C117.89 201.405 118.085 200.844 118.252 200.233C118.419 199.619 118.548 198.985 118.641 198.331C118.737 197.674 118.785 197.03 118.785 196.398C118.785 195.553 118.703 194.695 118.54 193.825C118.376 192.955 118.156 192.147 117.879 191.401C117.602 190.656 117.293 190.048 116.952 189.58H118.06C118.71 190.528 119.209 191.566 119.557 192.696C119.908 193.821 120.084 195.055 120.084 196.398Z" fill="white"/>
</svg>
