<svg width="25" height="24" viewBox="0 0 25 24" fill="none" xmlns="http://www.w3.org/2000/svg">
<path fill-rule="evenodd" clip-rule="evenodd" d="M18.7929 19L15.1662 15.3733L13.4762 16.8218C12.9145 17.3033 12.0855 17.3033 11.5238 16.8218L9.83384 15.3733L6.20711 19H18.7929ZM19.5 18.2929V11.6586L15.9277 14.7206L19.5 18.2929ZM5.5 18.2929L9.07234 14.7206L5.5 11.6586V18.2929ZM5.59042 10.4203L12.1746 16.0626C12.3618 16.2231 12.6382 16.2231 12.8254 16.0626L19.4096 10.4203L12.8293 4.61688C12.6407 4.45193 12.3593 4.45193 12.1707 4.61688L5.59042 10.4203ZM20.5 19C20.5 19.5523 20.0523 20 19.5 20H5.5C4.94772 20 4.5 19.5523 4.5 19V10.4538C4.5 10.1654 4.62448 9.89109 4.8415 9.7012L11.5122 3.8643C12.0778 3.36945 12.9222 3.36945 13.4878 3.8643L20.1585 9.7012C20.3755 9.89109 20.5 10.1654 20.5 10.4538V19Z" fill="#C8EF9F"/>
</svg>
