<svg width="24" height="24" viewBox="0 0 24 24" fill="none" xmlns="http://www.w3.org/2000/svg">
<g clip-path="url(#clip0_422_1576)">
<path d="M8.35355 18.6464C8.52712 18.82 8.5464 19.0894 8.41141 19.2843L8.35355 19.3536L6.35355 21.3536C6.15829 21.5488 5.84171 21.5488 5.64645 21.3536C5.47288 21.18 5.4536 20.9106 5.58859 20.7157L5.64645 20.6464L7.64645 18.6464C7.84171 18.4512 8.15829 18.4512 8.35355 18.6464ZM20 4V4.5C20 7.82039 19.3514 10.2183 18.017 11.6824L17.8536 11.8536L14.999 14.707L15 17.0858C15 18.044 14.6486 18.9661 14.0172 19.6796L13.8536 19.8536L12.9243 20.7828C12.716 20.9911 12.3927 21.0143 12.1588 20.8523L12.0757 20.7828L3.21716 11.9243C3.00888 11.716 2.98574 11.3927 3.14773 11.1588L3.21716 11.0757L4.14645 10.1464C4.82404 9.46885 5.72448 9.06535 6.6755 9.00728L6.91421 9H9.292L12.1464 6.14645C13.5358 4.75713 15.8594 4.05507 19.106 4.00312L19.5 4H20ZM7.35355 16.6464C7.52712 16.82 7.5464 17.0894 7.41141 17.2843L7.35355 17.3536L4.35355 20.3536C4.15829 20.5488 3.84171 20.5488 3.64645 20.3536C3.47288 20.18 3.4536 19.9106 3.58859 19.7157L3.64645 19.6464L6.64645 16.6464C6.84171 16.4512 7.15829 16.4512 7.35355 16.6464ZM13.999 15.707L11.206 18.5L12.5 19.793L13.1464 19.1464C13.6433 18.6496 13.9422 17.9918 13.9924 17.2957L14 17.0858L13.999 15.707ZM5.35355 15.6464C5.52712 15.82 5.5464 16.0894 5.41141 16.2843L5.35355 16.3536L3.35355 18.3536C3.15829 18.5488 2.84171 18.5488 2.64645 18.3536C2.47288 18.18 2.4536 17.9106 2.58859 17.7157L2.64645 17.6464L4.64645 15.6464C4.84171 15.4512 5.15829 15.4512 5.35355 15.6464ZM18.993 5.006L18.748 5.01211C16.0612 5.10083 14.1498 5.6762 13.0049 6.70977L12.8536 6.85355L6.207 13.5L10.5 17.793L17.1464 11.1464C18.2216 10.0713 18.8399 8.2299 18.9728 5.61357L18.9879 5.25199L18.993 5.006ZM8.292 10H6.91421C6.21158 10 5.53511 10.2537 5.00731 10.7105L4.85355 10.8536L4.207 11.5L5.499 12.793L8.292 10ZM14.5 8C15.3284 8 16 8.67157 16 9.5C16 10.3284 15.3284 11 14.5 11C13.6716 11 13 10.3284 13 9.5C13 8.67157 13.6716 8 14.5 8ZM14.5 9C14.2239 9 14 9.22386 14 9.5C14 9.77614 14.2239 10 14.5 10C14.7761 10 15 9.77614 15 9.5C15 9.22386 14.7761 9 14.5 9Z" fill="#C8EF9F"/>
</g>
<defs>
<clipPath id="clip0_422_1576">
<rect width="24" height="24" fill="white"/>
</clipPath>
</defs>
</svg>
