<svg width="24" height="25" viewBox="0 0 24 25" fill="none" xmlns="http://www.w3.org/2000/svg">
<path fill-rule="evenodd" clip-rule="evenodd" d="M3 12.3333C3 17.3038 7.02944 21.3333 12 21.3333C16.9706 21.3333 21 17.3038 21 12.3333C21 7.36269 16.9706 3.33325 12 3.33325C7.02944 3.33325 3 7.36269 3 12.3333ZM14.9395 9.33325C15.2323 9.04036 15.7072 9.04036 16.0001 9.33325C16.293 9.62615 16.293 10.101 16.0001 10.3939L11.0001 15.3939L8.00011 12.3939C7.70722 12.101 7.70722 11.6261 8.00011 11.3333C8.29301 11.0404 8.76788 11.0404 9.06078 11.3333L11.0001 13.2726L14.9395 9.33325Z" fill="#C8EF9F"/>
</svg>
