<svg width="25" height="24" viewBox="0 0 25 24" fill="none" xmlns="http://www.w3.org/2000/svg">
<path d="M9.5 10C8.948 10 8.5 9.553 8.5 9C8.5 8.447 8.948 8 9.5 8C10.052 8 10.5 8.447 10.5 9C10.5 9.553 10.052 10 9.5 10Z" fill="#C8EF9F"/>
<path fill-rule="evenodd" clip-rule="evenodd" d="M5.5 5C4.94772 5 4.5 5.44772 4.5 6V18C4.5 18.5523 4.94772 19 5.5 19H19.5C20.0523 19 20.5 18.5523 20.5 18V6C20.5 5.44772 20.0523 5 19.5 5H5.5ZM15.5746 9.577L19.5 14.123V6H5.5V14.282L7.69262 12.63C7.87785 12.49 8.13846 12.482 8.33554 12.605L10.18 13.88L14.7745 9.535C14.8832 9.435 15.0351 9.374 15.1848 9.391C15.3377 9.398 15.4788 9.466 15.5746 9.577ZM19.5 18H5.5V15.57L8.05877 13.642L9.84 14.837C10.0543 14.973 10.4458 14.948 10.63 14.778L15.1094 10.637L19.5 15.722V18Z" fill="#C8EF9F"/>
</svg>
