<svg width="25" height="24" viewBox="0 0 25 24" fill="none" xmlns="http://www.w3.org/2000/svg">
<path fill-rule="evenodd" clip-rule="evenodd" d="M10.562 9.23L12.6396 3H13.5C14.6046 3 15.5 3.89543 15.5 5V9H19.5174C20.622 9 21.5174 9.89543 21.5174 11C21.5174 11.1317 21.5044 11.2631 21.4786 11.3922L20.0786 18.3922C19.8916 19.3271 19.0708 20 18.1174 20H10.7929L9.5 18.707V10.292L10.562 9.23ZM5.5 10H7.5C8.05228 10 8.5 10.4477 8.5 11V20C8.5 20.5523 8.05228 21 7.5 21H5.5C4.94772 21 4.5 20.5523 4.5 20V11C4.5 10.4477 4.94772 10 5.5 10Z" fill="#C8EF9F"/>
</svg>
