<?xml version="1.0" standalone="no"?>
<!DOCTYPE svg PUBLIC "-//W3C//DTD SVG 20010904//EN"
 "http://www.w3.org/TR/2001/REC-SVG-20010904/DTD/svg10.dtd">
<svg version="1.0" xmlns="http://www.w3.org/2000/svg"
 width="624.000000pt" height="624.000000pt" viewBox="0 0 624.000000 624.000000"
 preserveAspectRatio="xMidYMid meet">
<metadata>
Created by potrace 1.14, written by Peter Selinger 2001-2017
</metadata>
<g transform="translate(0.000000,624.000000) scale(0.100000,-0.100000)"
fill="#000000" stroke="none">
<path d="M6005 5902 c-2 -2 -39 -17 -82 -32 -88 -31 -197 -73 -260 -101 -23
-11 -44 -19 -48 -19 -6 0 -228 -98 -335 -148 -36 -17 -69 -30 -74 -30 -5 0
-12 -4 -15 -9 -3 -5 -49 -30 -101 -57 -83 -42 -267 -144 -325 -179 -195 -120
-407 -262 -413 -279 -2 -4 -8 -8 -14 -8 -5 0 -15 -6 -22 -12 -7 -7 -31 -26
-52 -43 -21 -16 -54 -44 -74 -61 -19 -17 -50 -44 -69 -60 -115 -99 -371 -383
-371 -412 0 -6 -4 -12 -8 -14 -9 -3 -92 -126 -92 -135 0 -3 -10 -20 -23 -37
-13 -17 -34 -51 -48 -76 -13 -25 -26 -47 -30 -50 -7 -7 -98 -166 -197 -345
-114 -207 -178 -332 -385 -745 -116 -234 -212 -427 -213 -430 0 -3 -22 -50
-48 -105 -105 -219 -111 -231 -121 -262 -4 -13 -11 -23 -16 -23 -5 0 -9 -5 -9
-11 0 -7 -21 -57 -46 -113 -26 -56 -62 -135 -81 -176 -19 -41 -40 -88 -48
-105 -7 -16 -29 -64 -48 -106 -63 -137 -97 -217 -97 -228 0 -6 -4 -11 -10 -11
-5 0 -10 -6 -10 -14 0 -8 -6 -27 -14 -43 -8 -15 -27 -57 -43 -91 l-29 -64 -33
84 c-18 45 -39 97 -46 113 -7 17 -28 66 -45 110 -18 44 -37 84 -41 90 -5 5 -9
15 -9 23 0 15 -41 116 -67 164 -8 16 -12 28 -9 28 3 0 -7 26 -21 58 -24 55
-45 104 -63 147 -4 11 -28 70 -54 132 -25 62 -46 115 -46 118 0 3 -8 25 -19
48 -10 23 -29 67 -41 97 -12 30 -26 66 -32 80 -6 14 -26 63 -44 110 -19 47
-38 94 -43 105 -5 11 -16 36 -24 55 -18 42 -142 347 -167 410 -33 85 -152 375
-171 417 -10 23 -19 45 -19 48 0 7 -26 68 -40 97 -5 9 -25 57 -44 108 -20 50
-42 106 -50 123 -8 18 -62 151 -121 297 -59 146 -124 303 -144 350 l-36 86
-328 0 c-180 0 -327 -4 -327 -8 0 -8 143 -390 169 -453 44 -104 71 -177 71
-190 0 -8 4 -15 8 -15 5 0 9 -6 9 -12 0 -7 21 -66 47 -130 25 -65 46 -120 46
-124 0 -3 6 -20 14 -37 12 -27 54 -136 171 -442 12 -33 26 -69 30 -80 5 -11 9
-22 9 -25 1 -5 57 -147 76 -195 7 -18 26 -65 114 -297 14 -38 37 -96 50 -130
14 -35 66 -171 116 -303 50 -132 95 -249 100 -260 5 -11 23 -58 40 -105 17
-47 35 -94 40 -105 5 -11 50 -128 100 -260 51 -132 107 -278 125 -325 72 -185
165 -429 165 -435 0 -3 8 -25 18 -48 11 -23 29 -69 42 -102 12 -33 37 -98 55
-145 18 -47 44 -113 57 -148 14 -38 30 -65 42 -68 24 -8 548 -8 572 0 11 3 25
20 33 38 8 18 32 70 53 116 21 46 45 100 54 120 8 20 20 44 25 52 5 8 12 22
15 30 17 42 71 161 149 325 26 55 60 127 75 160 47 102 95 205 155 330 31 66
70 147 85 180 15 33 71 150 125 260 163 335 198 410 196 414 -2 2 1 7 6 10 4
3 50 92 102 196 161 328 273 550 282 560 5 5 9 17 9 26 0 10 3 19 8 21 4 2 25
39 48 83 64 127 205 396 232 445 14 25 37 68 52 95 25 47 141 257 167 300 6
11 20 36 31 55 51 94 125 216 135 222 7 4 9 8 5 8 -5 0 7 20 25 44 17 23 39
53 47 66 34 52 166 204 262 302 164 165 344 318 563 475 55 40 109 79 120 87
11 8 24 15 29 15 5 -1 12 3 15 9 7 10 187 128 241 158 19 10 37 22 38 27 2 4
7 7 11 7 5 0 46 22 92 49 46 27 130 73 187 103 113 58 111 56 77 133 -7 17
-15 38 -19 47 -3 12 -14 17 -31 16 -14 -1 -28 -4 -30 -6z"/>
</g>
</svg>
