<svg width="19" height="20" viewBox="0 0 19 20" fill="none" xmlns="http://www.w3.org/2000/svg">
<g clip-path="url(#clip0_373_56)">
<path fill-rule="evenodd" clip-rule="evenodd" d="M9.05469 0.636028C9.00366 0.644043 8.77823 0.675772 8.55371 0.706498C6.42015 0.998512 4.37883 2.07394 2.99814 3.63335C0.972676 5.92096 0.190819 8.70613 0.747868 11.6495C1.10371 13.5298 2.31251 15.6028 3.76315 16.8205C4.75947 17.6569 5.75953 18.2273 6.89504 18.6069C8.04301 18.9906 9.37932 19.1597 10.4648 19.0584C12.4173 18.8764 14.1082 18.2025 15.5674 17.025C15.9597 16.7084 16.657 16.0198 16.9317 15.6777C17.371 15.1306 17.8509 14.3698 18.0961 13.8319C18.1682 13.6735 18.2584 13.4756 18.2964 13.3921C18.5174 12.9072 18.6807 12.3589 18.8538 11.5214C18.9606 11.0049 18.9746 10.8623 18.9911 10.1232C19.016 9.00839 18.9355 8.32112 18.6645 7.33241C18.3952 6.35032 17.8003 5.17699 17.1102 4.26692C16.7576 3.80198 16.0556 3.07552 15.6052 2.70948C13.9303 1.34853 11.8123 0.597211 9.70433 0.616323C9.39806 0.619106 9.10572 0.627975 9.05469 0.636028ZM9.17659 1.13151C8.35373 1.18755 7.83624 1.2886 7.0798 1.54101C4.29493 2.47031 2.15988 4.72771 1.37713 7.57055C1.13317 8.45649 1.07617 8.89142 1.07617 9.86669C1.07617 10.4818 1.13933 11.1734 1.23062 11.5581C1.68636 13.4785 2.48874 14.9254 3.79622 16.1848C5.15301 17.4916 6.95582 18.3355 8.82027 18.5366C9.38148 18.597 10.737 18.5649 11.207 18.48C12.9577 18.1636 14.4859 17.404 15.769 16.2122C16.5707 15.4677 17.3648 14.3256 17.8011 13.2897C18.0145 12.783 18.0642 12.6371 18.2173 12.0691C18.445 11.2238 18.4954 10.8215 18.4951 9.85151C18.4947 8.74398 18.4149 8.21554 18.0917 7.17964C17.5203 5.34818 16.187 3.60697 14.5159 2.50983C13.7785 2.0257 12.6123 1.52788 11.7266 1.31906C11.0247 1.15363 9.98042 1.07681 9.17659 1.13151ZM6.51834 2.89109C6.42891 3.17479 6.37413 3.69725 6.40141 4.00678C6.48609 4.96922 7.02477 6.15968 8.25684 8.10737C8.46985 8.44414 8.64467 8.73849 8.64534 8.76146C8.64656 8.80621 8.53854 9.05923 8.31458 9.53608C8.23788 9.69936 8.10309 9.98815 8.01503 10.1779C7.88953 10.4482 7.84222 10.5173 7.79613 10.4978C6.91675 10.1261 5.88106 10.1405 5.02435 10.5363C3.20555 11.3767 2.51212 13.7913 3.61375 15.4483C3.95946 15.9684 4.42741 16.3598 4.95711 16.5719C5.40951 16.753 5.70368 16.801 6.23438 16.7803C6.6526 16.7639 6.74151 16.7474 7.13784 16.6126C7.84448 16.3723 8.43712 15.9135 8.84903 15.288C9.26833 14.6513 9.42326 14.175 9.45261 13.4326C9.47328 12.9101 9.43321 12.5518 9.30796 12.1393L9.23077 11.8852L9.51633 11.3063C9.73246 10.8682 9.81072 10.7404 9.83818 10.7811C9.85811 10.8107 9.99081 11.0648 10.1331 11.3457L10.3916 11.8565L10.2993 12.1806C9.91207 13.5409 10.2508 14.8648 11.2385 15.8518C11.8855 16.4984 12.7205 16.8202 13.6521 16.7821C14.3895 16.752 15.0035 16.4994 15.5232 16.0126C16.1932 15.3849 16.5223 14.6161 16.5244 13.6738C16.526 12.9292 16.3531 12.3315 15.9678 11.7504C15.3652 10.8416 14.4247 10.2858 13.4016 10.2342C12.9213 10.21 12.5191 10.263 12.1069 10.4051L11.7962 10.5122L11.7652 10.4323C11.7481 10.3884 11.5765 10.0185 11.3837 9.6103C11.191 9.2021 11.0252 8.84347 11.0153 8.8133C11.0054 8.78317 11.1198 8.56983 11.2696 8.33923C12.3313 6.70389 12.9334 5.53068 13.1788 4.61909C13.3014 4.1635 13.3033 3.38119 13.1826 2.99745C13.1364 2.85049 13.0844 2.7215 13.0671 2.71078C13.0497 2.70005 12.6999 3.19602 12.2896 3.81292C11.8793 4.42979 11.1604 5.50797 10.6919 6.20882L9.84007 7.48312L9.58328 7.09944C9.44204 6.88844 8.74579 5.84741 8.03611 4.78608C7.3264 3.72475 6.70904 2.81824 6.66422 2.77164L6.58272 2.68688L6.51834 2.89109ZM9.58372 8.20552C9.30856 8.34116 9.21103 8.74914 9.39083 9.01262C9.6035 9.32426 10.1045 9.31532 10.2928 8.99651C10.3742 8.8588 10.3719 8.54003 10.2886 8.39716C10.1589 8.17491 9.8282 8.08499 9.58372 8.20552ZM5.9375 11.2273C5.50666 11.3038 4.91944 11.6616 4.61578 12.0327C4.27322 12.4513 4.04411 13.0856 4.04556 13.6112C4.04767 14.3632 4.47202 15.1812 5.03244 15.5139C5.63076 15.8691 6.29646 15.9337 6.90398 15.6956C7.49728 15.4631 7.93803 15.0354 8.24181 14.3974C8.5899 13.6664 8.56707 12.8706 8.17909 12.2128C8.04075 11.9782 8.04153 11.9739 8.24274 11.8561C8.27576 11.8367 8.33132 11.7608 8.36613 11.6875C8.42424 11.565 8.42457 11.5467 8.3705 11.4641C8.25836 11.2929 8.03396 11.3074 7.7785 11.5023L7.65248 11.5984L7.46069 11.4853C7.35523 11.4232 7.16876 11.3385 7.04633 11.2973C6.78426 11.209 6.23579 11.1744 5.9375 11.2273ZM12.8027 11.2269C12.6905 11.2466 12.4503 11.3364 12.269 11.4264L11.9394 11.5901L11.7546 11.463C11.5327 11.3103 11.3882 11.2998 11.261 11.427C11.2109 11.4771 11.1699 11.5359 11.1699 11.5577C11.1699 11.5795 11.233 11.6679 11.3101 11.7542C11.5693 12.0442 11.5627 12.0193 11.434 12.2198C11.2863 12.45 11.193 12.7249 11.1349 13.1012C11.053 13.6319 11.2015 14.181 11.588 14.7769C11.957 15.3458 12.5288 15.7201 13.1902 15.8258C13.8143 15.9255 14.5939 15.6332 15.0058 15.1449C15.3637 14.7209 15.509 14.349 15.5384 13.7824C15.5658 13.2533 15.5101 12.9571 15.3026 12.5279C15.0153 11.9336 14.4375 11.4302 13.8653 11.2753C13.6141 11.2074 13.0585 11.1821 12.8027 11.2269ZM6.02805 12.222C5.64389 12.3214 5.26233 12.6615 5.11764 13.0338C5.00238 13.3303 5.00075 13.7625 5.11386 14.0478C5.40086 14.772 6.20591 15.0247 6.86616 14.598C7.24052 14.356 7.45294 13.9651 7.46429 13.4971C7.47428 13.084 7.36551 12.7782 7.11907 12.5268C6.87362 12.2765 6.36582 12.1346 6.02805 12.222ZM12.9883 12.2219C12.3938 12.4174 12.0313 13.0119 12.1306 13.6286C12.1786 13.9266 12.3342 14.2463 12.5235 14.4355C12.89 14.802 13.4554 14.9123 13.8864 14.7013C14.8352 14.237 14.8028 12.8459 13.8309 12.3169C13.6794 12.2345 13.5834 12.2111 13.3608 12.2024C13.2069 12.1963 13.0393 12.2051 12.9883 12.2219Z" fill="#35DC32"/>
</g>
<defs>
<clipPath id="clip0_373_56">
<rect width="19" height="19" fill="white" transform="translate(0 0.5)"/>
</clipPath>
</defs>
</svg>
