<svg width="314" height="121" viewBox="0 0 314 121" fill="none" xmlns="http://www.w3.org/2000/svg">
<g opacity="0.5">
<mask id="path-1-outside-1_880_1611" maskUnits="userSpaceOnUse" x="-1" y="-1" width="316" height="123" fill="black">
<rect fill="white" x="-1" y="-1" width="316" height="123"/>
<path d="M0.670455 97.5455V78.1705L49.25 1.63636H65.9545V28.4545H56.0682L25.4432 76.9205V77.8295H94.4773V97.5455H0.670455ZM56.5227 118V91.6364L56.9773 83.0568V1.63636H80.0455V118H56.5227ZM156.494 120.557C146.722 120.519 138.313 118.114 131.267 113.341C124.259 108.568 118.862 101.655 115.074 92.6023C111.324 83.5492 109.468 72.6591 109.506 59.9318C109.506 47.2424 111.381 36.428 115.131 27.4886C118.919 18.5492 124.316 11.75 131.324 7.09091C138.369 2.39394 146.759 0.0454502 156.494 0.0454502C166.229 0.0454502 174.6 2.39394 181.608 7.09091C188.653 11.7879 194.07 18.6061 197.858 27.5455C201.646 36.447 203.521 47.2424 203.483 59.9318C203.483 72.697 201.589 83.6061 197.801 92.6591C194.051 101.712 188.672 108.625 181.665 113.398C174.657 118.17 166.267 120.557 156.494 120.557ZM156.494 100.159C163.161 100.159 168.483 96.8068 172.46 90.1023C176.438 83.3977 178.407 73.3409 178.369 59.9318C178.369 51.1061 177.46 43.7576 175.642 37.8864C173.862 32.0151 171.324 27.6023 168.028 24.6477C164.771 21.6932 160.926 20.2159 156.494 20.2159C149.866 20.2159 144.563 23.5303 140.585 30.1591C136.608 36.7879 134.6 46.7121 134.562 59.9318C134.562 68.8712 135.453 76.3333 137.233 82.3182C139.051 88.2652 141.608 92.7348 144.903 95.7273C148.199 98.6818 152.062 100.159 156.494 100.159ZM219.264 97.5455V78.1705L267.844 1.63636H284.548V28.4545H274.662L244.037 76.9205V77.8295H313.071V97.5455H219.264ZM275.116 118V91.6364L275.571 83.0568V1.63636H298.639V118H275.116Z"/>
</mask>
<path d="M0.670455 97.5455V78.1705L49.25 1.63636H65.9545V28.4545H56.0682L25.4432 76.9205V77.8295H94.4773V97.5455H0.670455ZM56.5227 118V91.6364L56.9773 83.0568V1.63636H80.0455V118H56.5227ZM156.494 120.557C146.722 120.519 138.313 118.114 131.267 113.341C124.259 108.568 118.862 101.655 115.074 92.6023C111.324 83.5492 109.468 72.6591 109.506 59.9318C109.506 47.2424 111.381 36.428 115.131 27.4886C118.919 18.5492 124.316 11.75 131.324 7.09091C138.369 2.39394 146.759 0.0454502 156.494 0.0454502C166.229 0.0454502 174.6 2.39394 181.608 7.09091C188.653 11.7879 194.07 18.6061 197.858 27.5455C201.646 36.447 203.521 47.2424 203.483 59.9318C203.483 72.697 201.589 83.6061 197.801 92.6591C194.051 101.712 188.672 108.625 181.665 113.398C174.657 118.17 166.267 120.557 156.494 120.557ZM156.494 100.159C163.161 100.159 168.483 96.8068 172.46 90.1023C176.438 83.3977 178.407 73.3409 178.369 59.9318C178.369 51.1061 177.46 43.7576 175.642 37.8864C173.862 32.0151 171.324 27.6023 168.028 24.6477C164.771 21.6932 160.926 20.2159 156.494 20.2159C149.866 20.2159 144.563 23.5303 140.585 30.1591C136.608 36.7879 134.6 46.7121 134.562 59.9318C134.562 68.8712 135.453 76.3333 137.233 82.3182C139.051 88.2652 141.608 92.7348 144.903 95.7273C148.199 98.6818 152.062 100.159 156.494 100.159ZM219.264 97.5455V78.1705L267.844 1.63636H284.548V28.4545H274.662L244.037 76.9205V77.8295H313.071V97.5455H219.264ZM275.116 118V91.6364L275.571 83.0568V1.63636H298.639V118H275.116Z" fill="#010C0F"/>
<path d="M0.670455 97.5455H-0.329545V98.5455H0.670455V97.5455ZM0.670455 78.1705L-0.173825 77.6346L-0.329545 77.8799V78.1705H0.670455ZM49.25 1.63636V0.63636H48.7003L48.4057 1.10046L49.25 1.63636ZM65.9545 1.63636H66.9545V0.63636H65.9545V1.63636ZM65.9545 28.4545V29.4545H66.9545V28.4545H65.9545ZM56.0682 28.4545V27.4545H55.5172L55.2228 27.9204L56.0682 28.4545ZM25.4432 76.9205L24.5978 76.3863L24.4432 76.631V76.9205H25.4432ZM25.4432 77.8295H24.4432V78.8295H25.4432V77.8295ZM94.4773 77.8295H95.4773V76.8295H94.4773V77.8295ZM94.4773 97.5455V98.5455H95.4773V97.5455H94.4773ZM56.5227 118H55.5227V119H56.5227V118ZM56.5227 91.6364L55.5241 91.5835L55.5227 91.6099V91.6364H56.5227ZM56.9773 83.0568L57.9759 83.1097L57.9773 83.0833V83.0568H56.9773ZM56.9773 1.63636V0.63636H55.9773V1.63636H56.9773ZM80.0455 1.63636H81.0455V0.63636H80.0455V1.63636ZM80.0455 118V119H81.0455V118H80.0455ZM1.67045 97.5455V78.1705H-0.329545V97.5455H1.67045ZM1.51474 78.7064L50.0943 2.17226L48.4057 1.10046L-0.173825 77.6346L1.51474 78.7064ZM49.25 2.63636H65.9545V0.63636H49.25V2.63636ZM64.9545 1.63636V28.4545H66.9545V1.63636H64.9545ZM65.9545 27.4545H56.0682V29.4545H65.9545V27.4545ZM55.2228 27.9204L24.5978 76.3863L26.2886 77.4546L56.9136 28.9887L55.2228 27.9204ZM24.4432 76.9205V77.8295H26.4432V76.9205H24.4432ZM25.4432 78.8295H94.4773V76.8295H25.4432V78.8295ZM93.4773 77.8295V97.5455H95.4773V77.8295H93.4773ZM94.4773 96.5455H0.670455V98.5455H94.4773V96.5455ZM57.5227 118V91.6364H55.5227V118H57.5227ZM57.5213 91.6893L57.9759 83.1097L55.9787 83.0039L55.5241 91.5835L57.5213 91.6893ZM57.9773 83.0568V1.63636H55.9773V83.0568H57.9773ZM56.9773 2.63636H80.0455V0.63636H56.9773V2.63636ZM79.0455 1.63636V118H81.0455V1.63636H79.0455ZM80.0455 117H56.5227V119H80.0455V117ZM156.494 120.557L156.49 121.557H156.494V120.557ZM131.267 113.341L130.704 114.167L130.706 114.169L131.267 113.341ZM115.074 92.6023L114.15 92.985L114.151 92.9883L115.074 92.6023ZM109.506 59.9318L110.506 59.9348V59.9318H109.506ZM115.131 27.4886L114.21 27.0985L114.209 27.1018L115.131 27.4886ZM131.324 7.09091L131.878 7.92365L131.879 7.92296L131.324 7.09091ZM181.608 7.09091L181.051 7.92158L181.053 7.92296L181.608 7.09091ZM197.858 27.5455L196.937 27.9356L196.938 27.937L197.858 27.5455ZM203.483 59.9318L202.483 59.9288V59.9318H203.483ZM197.801 92.6591L196.879 92.2731L196.877 92.2764L197.801 92.6591ZM181.665 113.398L182.228 114.224L182.228 114.224L181.665 113.398ZM172.46 90.1023L173.32 90.6125L173.32 90.6125L172.46 90.1023ZM178.369 59.9318L177.369 59.9318L177.369 59.9346L178.369 59.9318ZM175.642 37.8864L174.685 38.1765L174.687 38.1822L175.642 37.8864ZM168.028 24.6477L167.357 25.3885L167.361 25.3923L168.028 24.6477ZM140.585 30.1591L139.728 29.6446L139.728 29.6446L140.585 30.1591ZM134.562 59.9318L133.562 59.9289V59.9318H134.562ZM137.233 82.3182L136.274 82.6033L136.277 82.6106L137.233 82.3182ZM144.903 95.7273L144.231 96.4676L144.236 96.4718L144.903 95.7273ZM156.498 119.557C146.894 119.52 138.685 117.158 131.828 112.513L130.706 114.169C137.94 119.069 146.549 121.518 156.49 121.557L156.498 119.557ZM131.83 112.514C125.006 107.867 119.722 101.12 115.996 92.2163L114.151 92.9883C118.002 102.191 123.513 109.269 130.704 114.167L131.83 112.514ZM115.998 92.2196C112.311 83.3194 110.468 72.5675 110.506 59.9348L108.506 59.9288C108.468 72.7507 110.337 83.7791 114.15 92.985L115.998 92.2196ZM110.506 59.9318C110.506 47.3362 112.367 36.6609 116.053 27.8755L114.209 27.1018C110.394 36.1952 108.506 47.1487 108.506 59.9318H110.506ZM116.051 27.8788C119.775 19.0912 125.057 12.4584 131.878 7.92365L130.77 6.25817C123.576 11.0416 118.062 18.0072 114.21 27.0985L116.051 27.8788ZM131.879 7.92296C138.736 3.35122 146.927 1.04545 156.494 1.04545V-0.95455C146.592 -0.95455 138.002 1.43666 130.769 6.25886L131.879 7.92296ZM156.494 1.04545C166.062 1.04545 174.233 3.35126 181.051 7.92158L182.165 6.26024C174.968 1.43662 166.396 -0.95455 156.494 -0.95455V1.04545ZM181.053 7.92296C187.913 12.4963 193.214 19.149 196.937 27.9356L198.779 27.1553C194.926 18.0631 189.394 11.0795 182.163 6.25886L181.053 7.92296ZM196.938 27.937C200.659 36.6814 202.521 47.3348 202.483 59.9288L204.483 59.9348C204.521 47.1501 202.633 36.2125 198.778 27.1539L196.938 27.937ZM202.483 59.9318C202.483 72.6025 200.602 83.3731 196.879 92.2731L198.724 93.0451C202.576 83.839 204.483 72.7915 204.483 59.9318H202.483ZM196.877 92.2764C193.19 101.178 187.925 107.924 181.102 112.571L182.228 114.224C189.42 109.326 194.912 102.246 198.725 93.0418L196.877 92.2764ZM181.102 112.571C174.285 117.214 166.098 119.557 156.494 119.557V121.557C166.436 121.557 175.03 119.127 182.228 114.224L181.102 112.571ZM156.494 101.159C163.58 101.159 169.199 97.5598 173.32 90.6125L171.6 89.5921C167.767 96.0539 162.742 99.1591 156.494 99.1591V101.159ZM173.32 90.6125C177.434 83.6775 179.407 73.4045 179.369 59.929L177.369 59.9346C177.407 73.2773 175.441 83.1179 171.6 89.5921L173.32 90.6125ZM179.369 59.9318C179.369 51.0455 178.455 43.5893 176.597 37.5905L174.687 38.1822C176.465 43.9258 177.369 51.1666 177.369 59.9318H179.369ZM176.599 37.5962C174.785 31.6146 172.17 27.0182 168.696 23.9032L167.361 25.3923C170.477 28.1863 172.938 32.4157 174.685 38.1765L176.599 37.5962ZM168.7 23.907C165.257 20.7842 161.172 19.2159 156.494 19.2159V21.2159C160.68 21.2159 164.285 22.6022 167.357 25.3884L168.7 23.907ZM156.494 19.2159C149.45 19.2159 143.85 22.7738 139.728 29.6446L141.443 30.6736C145.275 24.2868 150.281 21.2159 156.494 21.2159V19.2159ZM139.728 29.6446C135.613 36.5022 133.601 46.6416 133.563 59.9289L135.562 59.9347C135.6 46.7827 137.603 37.0736 141.443 30.6736L139.728 29.6446ZM133.562 59.9318C133.562 68.9299 134.458 76.4955 136.274 82.6033L138.191 82.0331C136.448 76.1712 135.562 68.8126 135.562 59.9318H133.562ZM136.277 82.6106C138.128 88.6645 140.76 93.3153 144.231 96.4676L145.576 94.9869C142.456 92.1544 139.975 87.8658 138.189 82.0258L136.277 82.6106ZM144.236 96.4718C147.715 99.5911 151.816 101.159 156.494 101.159V99.1591C152.309 99.1591 148.683 97.7725 145.571 94.9827L144.236 96.4718ZM219.264 97.5455H218.264V98.5455H219.264V97.5455ZM219.264 78.1705L218.42 77.6346L218.264 77.8799V78.1705H219.264ZM267.844 1.63636V0.63636H267.294L266.999 1.10046L267.844 1.63636ZM284.548 1.63636H285.548V0.63636H284.548V1.63636ZM284.548 28.4545V29.4545H285.548V28.4545H284.548ZM274.662 28.4545V27.4545H274.111L273.817 27.9204L274.662 28.4545ZM244.037 76.9205L243.192 76.3863L243.037 76.631V76.9205H244.037ZM244.037 77.8295H243.037V78.8295H244.037V77.8295ZM313.071 77.8295H314.071V76.8295H313.071V77.8295ZM313.071 97.5455V98.5455H314.071V97.5455H313.071ZM275.116 118H274.116V119H275.116V118ZM275.116 91.6364L274.118 91.5835L274.116 91.6099V91.6364H275.116ZM275.571 83.0568L276.57 83.1097L276.571 83.0833V83.0568H275.571ZM275.571 1.63636V0.63636H274.571V1.63636H275.571ZM298.639 1.63636H299.639V0.63636H298.639V1.63636ZM298.639 118V119H299.639V118H298.639ZM220.264 97.5455V78.1705H218.264V97.5455H220.264ZM220.108 78.7064L268.688 2.17226L266.999 1.10046L218.42 77.6346L220.108 78.7064ZM267.844 2.63636H284.548V0.63636H267.844V2.63636ZM283.548 1.63636V28.4545H285.548V1.63636H283.548ZM284.548 27.4545H274.662V29.4545H284.548V27.4545ZM273.817 27.9204L243.192 76.3863L244.882 77.4546L275.507 28.9887L273.817 27.9204ZM243.037 76.9205V77.8295H245.037V76.9205H243.037ZM244.037 78.8295H313.071V76.8295H244.037V78.8295ZM312.071 77.8295V97.5455H314.071V77.8295H312.071ZM313.071 96.5455H219.264V98.5455H313.071V96.5455ZM276.116 118V91.6364H274.116V118H276.116ZM276.115 91.6893L276.57 83.1097L274.572 83.0039L274.118 91.5835L276.115 91.6893ZM276.571 83.0568V1.63636H274.571V83.0568H276.571ZM275.571 2.63636H298.639V0.63636H275.571V2.63636ZM297.639 1.63636V118H299.639V1.63636H297.639ZM298.639 117H275.116V119H298.639V117Z" fill="#12DC00" mask="url(#path-1-outside-1_880_1611)"/>
</g>
</svg>
