<svg width="1035" height="60" viewBox="0 0 1035 60" fill="none" xmlns="http://www.w3.org/2000/svg">
<g opacity="0.5">
<mask id="path-1-outside-1_880_1611" maskUnits="userSpaceOnUse" x="-1" y="-1" width="1038" height="62" fill="black">
<rect fill="white" x="-1" y="-1" width="1038" height="62"/>
<path d="M14.0852 59H0.903409L20.9886 0.81818H36.8409L56.8977 59H43.7159L29.142 14.1136H28.6875L14.0852 59ZM13.2614 36.1307H44.3977V45.733H13.2614V36.1307ZM84.5256 59H63.9006V0.81818H84.696C90.5483 0.81818 95.5862 1.98295 99.8097 4.3125C104.033 6.6231 107.281 9.94697 109.554 14.2841C111.846 18.6212 112.991 23.8106 112.991 29.8523C112.991 35.9129 111.846 41.1212 109.554 45.4773C107.281 49.8333 104.014 53.1761 99.7528 55.5057C95.5104 57.8352 90.4347 59 84.5256 59ZM76.2017 48.4602H84.0142C87.6506 48.4602 90.7093 47.8163 93.1903 46.5284C95.6903 45.2216 97.5653 43.2045 98.8153 40.4773C100.084 37.7311 100.719 34.1894 100.719 29.8523C100.719 25.553 100.084 22.0398 98.8153 19.3125C97.5653 16.5852 95.6998 14.5777 93.2188 13.2898C90.7377 12.0019 87.679 11.358 84.0426 11.358H76.2017V48.4602ZM129.334 0.81818L143.396 45.0227H143.936L158.027 0.81818H171.663L151.607 59H135.754L115.669 0.81818H129.334ZM180.96 59H167.778L187.864 0.81818H203.716L223.773 59H210.591L196.017 14.1136H195.562L180.96 59ZM180.136 36.1307H211.273V45.733H180.136V36.1307ZM279.44 0.81818V59H268.815L243.503 22.3807H243.077V59H230.776V0.81818H241.571L266.685 37.4091H267.196V0.81818H279.44ZM340.939 21.1875H328.496C328.268 19.5777 327.804 18.1477 327.104 16.8977C326.403 15.6288 325.503 14.5492 324.405 13.6591C323.306 12.7689 322.037 12.0871 320.598 11.6136C319.178 11.1402 317.634 10.9034 315.967 10.9034C312.956 10.9034 310.333 11.6515 308.098 13.1477C305.863 14.625 304.13 16.7841 302.899 19.625C301.668 22.447 301.053 25.875 301.053 29.9091C301.053 34.0568 301.668 37.5417 302.899 40.3636C304.149 43.1856 305.892 45.3163 308.126 46.7557C310.361 48.1951 312.946 48.9148 315.882 48.9148C317.53 48.9148 319.054 48.697 320.456 48.2614C321.876 47.8258 323.136 47.1913 324.234 46.358C325.333 45.5057 326.242 44.4735 326.962 43.2614C327.7 42.0492 328.212 40.6667 328.496 39.1136L340.939 39.1705C340.617 41.8409 339.812 44.4167 338.524 46.8977C337.255 49.3598 335.541 51.5663 333.382 53.517C331.242 55.4489 328.685 56.983 325.712 58.1193C322.757 59.2367 319.414 59.7955 315.683 59.7955C310.494 59.7955 305.854 58.6212 301.763 56.2727C297.691 53.9242 294.471 50.5246 292.104 46.0739C289.755 41.6231 288.581 36.2348 288.581 29.9091C288.581 23.5644 289.774 18.1667 292.161 13.7159C294.547 9.26515 297.786 5.875 301.876 3.54545C305.967 1.19697 310.57 0.0227251 315.683 0.0227251C319.054 0.0227251 322.179 0.49621 325.058 1.44318C327.956 2.39015 330.522 3.77273 332.757 5.59091C334.992 7.39015 336.81 9.59659 338.212 12.2102C339.632 14.8239 340.541 17.8163 340.939 21.1875ZM349.76 59V0.81818H388.964V10.9602H362.061V24.8239H386.947V34.9659H362.061V48.858H389.078V59H349.76ZM419.369 59H398.744V0.81818H419.54C425.392 0.81818 430.43 1.98295 434.653 4.3125C438.877 6.6231 442.125 9.94697 444.398 14.2841C446.689 18.6212 447.835 23.8106 447.835 29.8523C447.835 35.9129 446.689 41.1212 444.398 45.4773C442.125 49.8333 438.858 53.1761 434.597 55.5057C430.354 57.8352 425.278 59 419.369 59ZM411.045 48.4602H418.858C422.494 48.4602 425.553 47.8163 428.034 46.5284C430.534 45.2216 432.409 43.2045 433.659 40.4773C434.928 37.7311 435.562 34.1894 435.562 29.8523C435.562 25.553 434.928 22.0398 433.659 19.3125C432.409 16.5852 430.544 14.5777 428.062 13.2898C425.581 12.0019 422.523 11.358 418.886 11.358H411.045V48.4602ZM473.247 10.9602V0.81818H521.031V10.9602H503.219V59H491.06V10.9602H473.247ZM528.901 59V0.81818H568.105V10.9602H541.202V24.8239H566.088V34.9659H541.202V48.858H568.219V59H528.901ZM629.22 21.1875H616.777C616.55 19.5777 616.086 18.1477 615.385 16.8977C614.684 15.6288 613.785 14.5492 612.686 13.6591C611.588 12.7689 610.319 12.0871 608.879 11.6136C607.459 11.1402 605.915 10.9034 604.249 10.9034C601.237 10.9034 598.614 11.6515 596.379 13.1477C594.144 14.625 592.411 16.7841 591.18 19.625C589.949 22.447 589.334 25.875 589.334 29.9091C589.334 34.0568 589.949 37.5417 591.18 40.3636C592.43 43.1856 594.173 45.3163 596.408 46.7557C598.643 48.1951 601.228 48.9148 604.163 48.9148C605.811 48.9148 607.336 48.697 608.737 48.2614C610.158 47.8258 611.417 47.1913 612.516 46.358C613.614 45.5057 614.523 44.4735 615.243 43.2614C615.982 42.0492 616.493 40.6667 616.777 39.1136L629.22 39.1705C628.898 41.8409 628.093 44.4167 626.805 46.8977C625.536 49.3598 623.822 51.5663 621.663 53.517C619.523 55.4489 616.966 56.983 613.993 58.1193C611.038 59.2367 607.696 59.7955 603.964 59.7955C598.775 59.7955 594.135 58.6212 590.044 56.2727C585.972 53.9242 582.752 50.5246 580.385 46.0739C578.036 41.6231 576.862 36.2348 576.862 29.9091C576.862 23.5644 578.055 18.1667 580.442 13.7159C582.828 9.26515 586.067 5.875 590.158 3.54545C594.249 1.19697 598.851 0.0227251 603.964 0.0227251C607.336 0.0227251 610.461 0.49621 613.339 1.44318C616.237 2.39015 618.804 3.77273 621.038 5.59091C623.273 7.39015 625.091 9.59659 626.493 12.2102C627.913 14.8239 628.822 17.8163 629.22 21.1875ZM638.041 59V0.81818H650.342V24.8239H675.314V0.81818H687.587V59H675.314V34.9659H650.342V59H638.041ZM746.393 0.81818V59H735.768L710.456 22.3807H710.03V59H697.729V0.81818H708.524L733.638 37.4091H734.149V0.81818H746.393ZM810.023 29.9091C810.023 36.2538 808.82 41.6515 806.415 46.1023C804.028 50.553 800.771 53.9527 796.642 56.3011C792.532 58.6307 787.911 59.7955 782.778 59.7955C777.608 59.7955 772.968 58.6212 768.858 56.2727C764.748 53.9242 761.5 50.5246 759.114 46.0739C756.727 41.6231 755.534 36.2348 755.534 29.9091C755.534 23.5644 756.727 18.1667 759.114 13.7159C761.5 9.26515 764.748 5.875 768.858 3.54545C772.968 1.19697 777.608 0.0227251 782.778 0.0227251C787.911 0.0227251 792.532 1.19697 796.642 3.54545C800.771 5.875 804.028 9.26515 806.415 13.7159C808.82 18.1667 810.023 23.5644 810.023 29.9091ZM797.551 29.9091C797.551 25.7992 796.936 22.3333 795.705 19.5114C794.492 16.6894 792.778 14.5492 790.562 13.0909C788.347 11.6326 785.752 10.9034 782.778 10.9034C779.805 10.9034 777.21 11.6326 774.994 13.0909C772.778 14.5492 771.055 16.6894 769.824 19.5114C768.612 22.3333 768.006 25.7992 768.006 29.9091C768.006 34.0189 768.612 37.4848 769.824 40.3068C771.055 43.1288 772.778 45.2689 774.994 46.7273C777.21 48.1856 779.805 48.9148 782.778 48.9148C785.752 48.9148 788.347 48.1856 790.562 46.7273C792.778 45.2689 794.492 43.1288 795.705 40.3068C796.936 37.4848 797.551 34.0189 797.551 29.9091ZM819.135 59V0.81818H831.436V48.858H856.379V59H819.135ZM915.726 29.9091C915.726 36.2538 914.523 41.6515 912.118 46.1023C909.732 50.553 906.474 53.9527 902.345 56.3011C898.235 58.6307 893.614 59.7955 888.482 59.7955C883.311 59.7955 878.671 58.6212 874.561 56.2727C870.451 53.9242 867.203 50.5246 864.817 46.0739C862.43 41.6231 861.237 36.2348 861.237 29.9091C861.237 23.5644 862.43 18.1667 864.817 13.7159C867.203 9.26515 870.451 5.875 874.561 3.54545C878.671 1.19697 883.311 0.0227251 888.482 0.0227251C893.614 0.0227251 898.235 1.19697 902.345 3.54545C906.474 5.875 909.732 9.26515 912.118 13.7159C914.523 18.1667 915.726 23.5644 915.726 29.9091ZM903.254 29.9091C903.254 25.7992 902.639 22.3333 901.408 19.5114C900.196 16.6894 898.482 14.5492 896.266 13.0909C894.05 11.6326 891.455 10.9034 888.482 10.9034C885.508 10.9034 882.913 11.6326 880.697 13.0909C878.482 14.5492 876.758 16.6894 875.527 19.5114C874.315 22.3333 873.709 25.7992 873.709 29.9091C873.709 34.0189 874.315 37.4848 875.527 40.3068C876.758 43.1288 878.482 45.2689 880.697 46.7273C882.913 48.1856 885.508 48.9148 888.482 48.9148C891.455 48.9148 894.05 48.1856 896.266 46.7273C898.482 45.2689 900.196 43.1288 901.408 40.3068C902.639 37.4848 903.254 34.0189 903.254 29.9091ZM963.418 19.625C963.02 18.2424 962.461 17.0208 961.741 15.9602C961.022 14.8807 960.141 13.9716 959.099 13.233C958.077 12.4754 956.902 11.8977 955.577 11.5C954.27 11.1023 952.821 10.9034 951.23 10.9034C948.257 10.9034 945.643 11.642 943.389 13.1193C941.154 14.5966 939.412 16.7462 938.162 19.5682C936.912 22.3712 936.287 25.7992 936.287 29.8523C936.287 33.9053 936.902 37.3523 938.134 40.1932C939.365 43.0341 941.107 45.2027 943.361 46.6989C945.615 48.1761 948.276 48.9148 951.344 48.9148C954.128 48.9148 956.505 48.4223 958.474 47.4375C960.463 46.4337 961.978 45.0227 963.02 43.2045C964.08 41.3864 964.611 39.2367 964.611 36.7557L967.111 37.125H952.111V27.8636H976.457V35.1932C976.457 40.3068 975.378 44.7008 973.219 48.375C971.06 52.0303 968.086 54.8523 964.298 56.8409C960.51 58.8106 956.173 59.7955 951.287 59.7955C945.832 59.7955 941.041 58.5928 936.912 56.1875C932.783 53.7633 929.563 50.3258 927.253 45.875C924.961 41.4053 923.815 36.1023 923.815 29.9659C923.815 25.25 924.497 21.0455 925.861 17.3523C927.243 13.6402 929.175 10.4962 931.656 7.92045C934.137 5.3447 937.026 3.38447 940.321 2.03977C943.616 0.695073 947.187 0.0227251 951.031 0.0227251C954.327 0.0227251 957.395 0.50568 960.236 1.47159C963.077 2.41856 965.596 3.76326 967.793 5.50568C970.009 7.2481 971.817 9.32197 973.219 11.7273C974.62 14.1136 975.52 16.7462 975.918 19.625H963.418ZM979.945 0.81818H993.723L1006.99 25.875H1007.56L1020.83 0.81818H1034.6L1013.38 38.4318V59H1001.17V38.4318L979.945 0.81818Z"/>
</mask>
<path d="M14.0852 59H0.903409L20.9886 0.81818H36.8409L56.8977 59H43.7159L29.142 14.1136H28.6875L14.0852 59ZM13.2614 36.1307H44.3977V45.733H13.2614V36.1307ZM84.5256 59H63.9006V0.81818H84.696C90.5483 0.81818 95.5862 1.98295 99.8097 4.3125C104.033 6.6231 107.281 9.94697 109.554 14.2841C111.846 18.6212 112.991 23.8106 112.991 29.8523C112.991 35.9129 111.846 41.1212 109.554 45.4773C107.281 49.8333 104.014 53.1761 99.7528 55.5057C95.5104 57.8352 90.4347 59 84.5256 59ZM76.2017 48.4602H84.0142C87.6506 48.4602 90.7093 47.8163 93.1903 46.5284C95.6903 45.2216 97.5653 43.2045 98.8153 40.4773C100.084 37.7311 100.719 34.1894 100.719 29.8523C100.719 25.553 100.084 22.0398 98.8153 19.3125C97.5653 16.5852 95.6998 14.5777 93.2188 13.2898C90.7377 12.0019 87.679 11.358 84.0426 11.358H76.2017V48.4602ZM129.334 0.81818L143.396 45.0227H143.936L158.027 0.81818H171.663L151.607 59H135.754L115.669 0.81818H129.334ZM180.96 59H167.778L187.864 0.81818H203.716L223.773 59H210.591L196.017 14.1136H195.562L180.96 59ZM180.136 36.1307H211.273V45.733H180.136V36.1307ZM279.44 0.81818V59H268.815L243.503 22.3807H243.077V59H230.776V0.81818H241.571L266.685 37.4091H267.196V0.81818H279.44ZM340.939 21.1875H328.496C328.268 19.5777 327.804 18.1477 327.104 16.8977C326.403 15.6288 325.503 14.5492 324.405 13.6591C323.306 12.7689 322.037 12.0871 320.598 11.6136C319.178 11.1402 317.634 10.9034 315.967 10.9034C312.956 10.9034 310.333 11.6515 308.098 13.1477C305.863 14.625 304.13 16.7841 302.899 19.625C301.668 22.447 301.053 25.875 301.053 29.9091C301.053 34.0568 301.668 37.5417 302.899 40.3636C304.149 43.1856 305.892 45.3163 308.126 46.7557C310.361 48.1951 312.946 48.9148 315.882 48.9148C317.53 48.9148 319.054 48.697 320.456 48.2614C321.876 47.8258 323.136 47.1913 324.234 46.358C325.333 45.5057 326.242 44.4735 326.962 43.2614C327.7 42.0492 328.212 40.6667 328.496 39.1136L340.939 39.1705C340.617 41.8409 339.812 44.4167 338.524 46.8977C337.255 49.3598 335.541 51.5663 333.382 53.517C331.242 55.4489 328.685 56.983 325.712 58.1193C322.757 59.2367 319.414 59.7955 315.683 59.7955C310.494 59.7955 305.854 58.6212 301.763 56.2727C297.691 53.9242 294.471 50.5246 292.104 46.0739C289.755 41.6231 288.581 36.2348 288.581 29.9091C288.581 23.5644 289.774 18.1667 292.161 13.7159C294.547 9.26515 297.786 5.875 301.876 3.54545C305.967 1.19697 310.57 0.0227251 315.683 0.0227251C319.054 0.0227251 322.179 0.49621 325.058 1.44318C327.956 2.39015 330.522 3.77273 332.757 5.59091C334.992 7.39015 336.81 9.59659 338.212 12.2102C339.632 14.8239 340.541 17.8163 340.939 21.1875ZM349.76 59V0.81818H388.964V10.9602H362.061V24.8239H386.947V34.9659H362.061V48.858H389.078V59H349.76ZM419.369 59H398.744V0.81818H419.54C425.392 0.81818 430.43 1.98295 434.653 4.3125C438.877 6.6231 442.125 9.94697 444.398 14.2841C446.689 18.6212 447.835 23.8106 447.835 29.8523C447.835 35.9129 446.689 41.1212 444.398 45.4773C442.125 49.8333 438.858 53.1761 434.597 55.5057C430.354 57.8352 425.278 59 419.369 59ZM411.045 48.4602H418.858C422.494 48.4602 425.553 47.8163 428.034 46.5284C430.534 45.2216 432.409 43.2045 433.659 40.4773C434.928 37.7311 435.562 34.1894 435.562 29.8523C435.562 25.553 434.928 22.0398 433.659 19.3125C432.409 16.5852 430.544 14.5777 428.062 13.2898C425.581 12.0019 422.523 11.358 418.886 11.358H411.045V48.4602ZM473.247 10.9602V0.81818H521.031V10.9602H503.219V59H491.06V10.9602H473.247ZM528.901 59V0.81818H568.105V10.9602H541.202V24.8239H566.088V34.9659H541.202V48.858H568.219V59H528.901ZM629.22 21.1875H616.777C616.55 19.5777 616.086 18.1477 615.385 16.8977C614.684 15.6288 613.785 14.5492 612.686 13.6591C611.588 12.7689 610.319 12.0871 608.879 11.6136C607.459 11.1402 605.915 10.9034 604.249 10.9034C601.237 10.9034 598.614 11.6515 596.379 13.1477C594.144 14.625 592.411 16.7841 591.18 19.625C589.949 22.447 589.334 25.875 589.334 29.9091C589.334 34.0568 589.949 37.5417 591.18 40.3636C592.43 43.1856 594.173 45.3163 596.408 46.7557C598.643 48.1951 601.228 48.9148 604.163 48.9148C605.811 48.9148 607.336 48.697 608.737 48.2614C610.158 47.8258 611.417 47.1913 612.516 46.358C613.614 45.5057 614.523 44.4735 615.243 43.2614C615.982 42.0492 616.493 40.6667 616.777 39.1136L629.22 39.1705C628.898 41.8409 628.093 44.4167 626.805 46.8977C625.536 49.3598 623.822 51.5663 621.663 53.517C619.523 55.4489 616.966 56.983 613.993 58.1193C611.038 59.2367 607.696 59.7955 603.964 59.7955C598.775 59.7955 594.135 58.6212 590.044 56.2727C585.972 53.9242 582.752 50.5246 580.385 46.0739C578.036 41.6231 576.862 36.2348 576.862 29.9091C576.862 23.5644 578.055 18.1667 580.442 13.7159C582.828 9.26515 586.067 5.875 590.158 3.54545C594.249 1.19697 598.851 0.0227251 603.964 0.0227251C607.336 0.0227251 610.461 0.49621 613.339 1.44318C616.237 2.39015 618.804 3.77273 621.038 5.59091C623.273 7.39015 625.091 9.59659 626.493 12.2102C627.913 14.8239 628.822 17.8163 629.22 21.1875ZM638.041 59V0.81818H650.342V24.8239H675.314V0.81818H687.587V59H675.314V34.9659H650.342V59H638.041ZM746.393 0.81818V59H735.768L710.456 22.3807H710.03V59H697.729V0.81818H708.524L733.638 37.4091H734.149V0.81818H746.393ZM810.023 29.9091C810.023 36.2538 808.82 41.6515 806.415 46.1023C804.028 50.553 800.771 53.9527 796.642 56.3011C792.532 58.6307 787.911 59.7955 782.778 59.7955C777.608 59.7955 772.968 58.6212 768.858 56.2727C764.748 53.9242 761.5 50.5246 759.114 46.0739C756.727 41.6231 755.534 36.2348 755.534 29.9091C755.534 23.5644 756.727 18.1667 759.114 13.7159C761.5 9.26515 764.748 5.875 768.858 3.54545C772.968 1.19697 777.608 0.0227251 782.778 0.0227251C787.911 0.0227251 792.532 1.19697 796.642 3.54545C800.771 5.875 804.028 9.26515 806.415 13.7159C808.82 18.1667 810.023 23.5644 810.023 29.9091ZM797.551 29.9091C797.551 25.7992 796.936 22.3333 795.705 19.5114C794.492 16.6894 792.778 14.5492 790.562 13.0909C788.347 11.6326 785.752 10.9034 782.778 10.9034C779.805 10.9034 777.21 11.6326 774.994 13.0909C772.778 14.5492 771.055 16.6894 769.824 19.5114C768.612 22.3333 768.006 25.7992 768.006 29.9091C768.006 34.0189 768.612 37.4848 769.824 40.3068C771.055 43.1288 772.778 45.2689 774.994 46.7273C777.21 48.1856 779.805 48.9148 782.778 48.9148C785.752 48.9148 788.347 48.1856 790.562 46.7273C792.778 45.2689 794.492 43.1288 795.705 40.3068C796.936 37.4848 797.551 34.0189 797.551 29.9091ZM819.135 59V0.81818H831.436V48.858H856.379V59H819.135ZM915.726 29.9091C915.726 36.2538 914.523 41.6515 912.118 46.1023C909.732 50.553 906.474 53.9527 902.345 56.3011C898.235 58.6307 893.614 59.7955 888.482 59.7955C883.311 59.7955 878.671 58.6212 874.561 56.2727C870.451 53.9242 867.203 50.5246 864.817 46.0739C862.43 41.6231 861.237 36.2348 861.237 29.9091C861.237 23.5644 862.43 18.1667 864.817 13.7159C867.203 9.26515 870.451 5.875 874.561 3.54545C878.671 1.19697 883.311 0.0227251 888.482 0.0227251C893.614 0.0227251 898.235 1.19697 902.345 3.54545C906.474 5.875 909.732 9.26515 912.118 13.7159C914.523 18.1667 915.726 23.5644 915.726 29.9091ZM903.254 29.9091C903.254 25.7992 902.639 22.3333 901.408 19.5114C900.196 16.6894 898.482 14.5492 896.266 13.0909C894.05 11.6326 891.455 10.9034 888.482 10.9034C885.508 10.9034 882.913 11.6326 880.697 13.0909C878.482 14.5492 876.758 16.6894 875.527 19.5114C874.315 22.3333 873.709 25.7992 873.709 29.9091C873.709 34.0189 874.315 37.4848 875.527 40.3068C876.758 43.1288 878.482 45.2689 880.697 46.7273C882.913 48.1856 885.508 48.9148 888.482 48.9148C891.455 48.9148 894.05 48.1856 896.266 46.7273C898.482 45.2689 900.196 43.1288 901.408 40.3068C902.639 37.4848 903.254 34.0189 903.254 29.9091ZM963.418 19.625C963.02 18.2424 962.461 17.0208 961.741 15.9602C961.022 14.8807 960.141 13.9716 959.099 13.233C958.077 12.4754 956.902 11.8977 955.577 11.5C954.27 11.1023 952.821 10.9034 951.23 10.9034C948.257 10.9034 945.643 11.642 943.389 13.1193C941.154 14.5966 939.412 16.7462 938.162 19.5682C936.912 22.3712 936.287 25.7992 936.287 29.8523C936.287 33.9053 936.902 37.3523 938.134 40.1932C939.365 43.0341 941.107 45.2027 943.361 46.6989C945.615 48.1761 948.276 48.9148 951.344 48.9148C954.128 48.9148 956.505 48.4223 958.474 47.4375C960.463 46.4337 961.978 45.0227 963.02 43.2045C964.08 41.3864 964.611 39.2367 964.611 36.7557L967.111 37.125H952.111V27.8636H976.457V35.1932C976.457 40.3068 975.378 44.7008 973.219 48.375C971.06 52.0303 968.086 54.8523 964.298 56.8409C960.51 58.8106 956.173 59.7955 951.287 59.7955C945.832 59.7955 941.041 58.5928 936.912 56.1875C932.783 53.7633 929.563 50.3258 927.253 45.875C924.961 41.4053 923.815 36.1023 923.815 29.9659C923.815 25.25 924.497 21.0455 925.861 17.3523C927.243 13.6402 929.175 10.4962 931.656 7.92045C934.137 5.3447 937.026 3.38447 940.321 2.03977C943.616 0.695073 947.187 0.0227251 951.031 0.0227251C954.327 0.0227251 957.395 0.50568 960.236 1.47159C963.077 2.41856 965.596 3.76326 967.793 5.50568C970.009 7.2481 971.817 9.32197 973.219 11.7273C974.62 14.1136 975.52 16.7462 975.918 19.625H963.418ZM979.945 0.81818H993.723L1006.99 25.875H1007.56L1020.83 0.81818H1034.6L1013.38 38.4318V59H1001.17V38.4318L979.945 0.81818Z" fill="#010C0F"/>
<path d="M14.0852 59V60H14.8115L15.0362 59.3094L14.0852 59ZM0.903409 59L-0.0418509 58.6737L-0.499716 60H0.903409V59ZM20.9886 0.81818V-0.18182H20.2759L20.0434 0.491862L20.9886 0.81818ZM36.8409 0.81818L37.7863 0.492275L37.5539 -0.18182H36.8409V0.81818ZM56.8977 59V60H58.3002L57.8431 58.6741L56.8977 59ZM43.7159 59L42.7648 59.3088L42.9892 60H43.7159V59ZM29.142 14.1136L30.0932 13.8048L29.8688 13.1136H29.142V14.1136ZM28.6875 14.1136V13.1136H27.9612L27.7366 13.8043L28.6875 14.1136ZM13.2614 36.1307V35.1307H12.2614V36.1307H13.2614ZM44.3977 36.1307H45.3977V35.1307H44.3977V36.1307ZM44.3977 45.733V46.733H45.3977V45.733H44.3977ZM13.2614 45.733H12.2614V46.733H13.2614V45.733ZM14.0852 58H0.903409V60H14.0852V58ZM1.84867 59.3263L21.9339 1.1445L20.0434 0.491862L-0.0418509 58.6737L1.84867 59.3263ZM20.9886 1.81818H36.8409V-0.18182H20.9886V1.81818ZM35.8955 1.14409L55.9523 59.3259L57.8431 58.6741L37.7863 0.492275L35.8955 1.14409ZM56.8977 58H43.7159V60H56.8977V58ZM44.667 58.6912L30.0932 13.8048L28.1909 14.4224L42.7648 59.3088L44.667 58.6912ZM29.142 13.1136H28.6875V15.1136H29.142V13.1136ZM27.7366 13.8043L13.1343 58.6906L15.0362 59.3094L29.6384 14.423L27.7366 13.8043ZM13.2614 37.1307H44.3977V35.1307H13.2614V37.1307ZM43.3977 36.1307V45.733H45.3977V36.1307H43.3977ZM44.3977 44.733H13.2614V46.733H44.3977V44.733ZM14.2614 45.733V36.1307H12.2614V45.733H14.2614ZM63.9006 59H62.9006V60H63.9006V59ZM63.9006 0.81818V-0.18182H62.9006V0.81818H63.9006ZM99.8097 4.3125L99.3267 5.18814L99.3297 5.18979L99.8097 4.3125ZM109.554 14.2841L108.668 14.7482L108.67 14.7513L109.554 14.2841ZM109.554 45.4773L108.669 45.0117L108.667 45.0147L109.554 45.4773ZM99.7528 55.5057L99.2732 54.6282L99.2715 54.6291L99.7528 55.5057ZM76.2017 48.4602H75.2017V49.4602H76.2017V48.4602ZM93.1903 46.5284L93.6511 47.416L93.6536 47.4146L93.1903 46.5284ZM98.8153 40.4773L97.9076 40.0578L97.9063 40.0606L98.8153 40.4773ZM98.8153 19.3125L97.9063 19.7292L97.9087 19.7344L98.8153 19.3125ZM93.2188 13.2898L93.6795 12.4022L93.6795 12.4022L93.2188 13.2898ZM76.2017 11.358V10.358H75.2017V11.358H76.2017ZM84.5256 58H63.9006V60H84.5256V58ZM64.9006 59V0.81818H62.9006V59H64.9006ZM63.9006 1.81818H84.696V-0.18182H63.9006V1.81818ZM84.696 1.81818C90.4152 1.81818 95.2796 2.95587 99.3267 5.18813L100.293 3.43687C95.8928 1.01004 90.6814 -0.18182 84.696 -0.18182V1.81818ZM99.3297 5.18979C103.377 7.40401 106.485 10.5827 108.668 14.7482L110.44 13.8199C108.077 9.31127 104.689 5.84219 100.29 3.43521L99.3297 5.18979ZM108.67 14.7513C110.87 18.9148 111.991 23.9363 111.991 29.8523H113.991C113.991 23.685 112.822 18.3276 110.438 13.8169L108.67 14.7513ZM111.991 29.8523C111.991 35.7876 110.87 40.8287 108.669 45.0117L110.439 45.9429C112.822 41.4137 113.991 36.0381 113.991 29.8523H111.991ZM108.667 45.0147C106.485 49.1974 103.359 52.3948 99.2732 54.6282L100.233 56.3831C104.67 53.9574 108.077 50.4692 110.441 45.9398L108.667 45.0147ZM99.2715 54.6291C95.2058 56.8616 90.3032 58 84.5256 58V60C90.5661 60 95.815 58.8088 100.234 56.3822L99.2715 54.6291ZM76.2017 49.4602H84.0142V47.4602H76.2017V49.4602ZM84.0142 49.4602C87.7643 49.4602 90.9913 48.7966 93.6511 47.416L92.7296 45.6409C90.4272 46.836 87.5368 47.4602 84.0142 47.4602V49.4602ZM93.6536 47.4146C96.3631 45.9983 98.3883 43.8091 99.7244 40.8939L97.9063 40.0606C96.7424 42.6 95.0176 44.4449 92.7271 45.6422L93.6536 47.4146ZM99.7231 40.8967C101.073 37.9748 101.719 34.276 101.719 29.8523H99.7188C99.7188 34.1028 99.0953 37.4873 97.9076 40.0578L99.7231 40.8967ZM101.719 29.8523C101.719 25.4654 101.073 21.7942 99.722 18.8906L97.9087 19.7344C99.0956 22.2854 99.7188 25.6407 99.7188 29.8523H101.719ZM99.7244 18.8958C98.3888 15.9819 96.3732 13.8005 93.6795 12.4022L92.758 14.1773C95.0264 15.3548 96.7418 17.1886 97.9063 19.7292L99.7244 18.8958ZM93.6795 12.4022C91.0198 11.0216 87.7927 10.358 84.0426 10.358V12.358C87.5653 12.358 90.4556 12.9822 92.758 14.1773L93.6795 12.4022ZM84.0426 10.358H76.2017V12.358H84.0426V10.358ZM75.2017 11.358V48.4602H77.2017V11.358H75.2017ZM129.334 0.81818L130.287 0.515027L130.065 -0.18182H129.334V0.81818ZM143.396 45.0227L142.443 45.3259L142.665 46.0227H143.396V45.0227ZM143.936 45.0227V46.0227H144.667L144.889 45.3264L143.936 45.0227ZM158.027 0.81818V-0.18182H157.296L157.074 0.514471L158.027 0.81818ZM171.663 0.81818L172.609 1.14409L173.066 -0.18182H171.663V0.81818ZM151.607 59V60H152.32L152.552 59.3259L151.607 59ZM135.754 59L134.809 59.3263L135.042 60H135.754V59ZM115.669 0.81818V-0.18182H114.266L114.724 1.1445L115.669 0.81818ZM128.381 1.12133L142.443 45.3259L144.349 44.7196L130.287 0.515027L128.381 1.12133ZM143.396 46.0227H143.936V44.0227H143.396V46.0227ZM144.889 45.3264L158.98 1.12189L157.074 0.514471L142.983 44.719L144.889 45.3264ZM158.027 1.81818H171.663V-0.18182H158.027V1.81818ZM170.718 0.492275L150.661 58.6741L152.552 59.3259L172.609 1.14409L170.718 0.492275ZM151.607 58H135.754V60H151.607V58ZM136.7 58.6737L116.614 0.491862L114.724 1.1445L134.809 59.3263L136.7 58.6737ZM115.669 1.81818H129.334V-0.18182H115.669V1.81818ZM180.96 59V60H181.686L181.911 59.3094L180.96 59ZM167.778 59L166.833 58.6737L166.375 60H167.778V59ZM187.864 0.81818V-0.18182H187.151L186.918 0.491862L187.864 0.81818ZM203.716 0.81818L204.661 0.492275L204.429 -0.18182H203.716V0.81818ZM223.773 59V60H225.175L224.718 58.6741L223.773 59ZM210.591 59L209.64 59.3088L209.864 60H210.591V59ZM196.017 14.1136L196.968 13.8048L196.744 13.1136H196.017V14.1136ZM195.562 14.1136V13.1136H194.836L194.612 13.8043L195.562 14.1136ZM180.136 36.1307V35.1307H179.136V36.1307H180.136ZM211.273 36.1307H212.273V35.1307H211.273V36.1307ZM211.273 45.733V46.733H212.273V45.733H211.273ZM180.136 45.733H179.136V46.733H180.136V45.733ZM180.96 58H167.778V60H180.96V58ZM168.724 59.3263L188.809 1.1445L186.918 0.491862L166.833 58.6737L168.724 59.3263ZM187.864 1.81818H203.716V-0.18182H187.864V1.81818ZM202.771 1.14409L222.827 59.3259L224.718 58.6741L204.661 0.492275L202.771 1.14409ZM223.773 58H210.591V60H223.773V58ZM211.542 58.6912L196.968 13.8048L195.066 14.4224L209.64 59.3088L211.542 58.6912ZM196.017 13.1136H195.562V15.1136H196.017V13.1136ZM194.612 13.8043L180.009 58.6906L181.911 59.3094L196.513 14.423L194.612 13.8043ZM180.136 37.1307H211.273V35.1307H180.136V37.1307ZM210.273 36.1307V45.733H212.273V36.1307H210.273ZM211.273 44.733H180.136V46.733H211.273V44.733ZM181.136 45.733V36.1307H179.136V45.733H181.136ZM279.44 0.81818H280.44V-0.18182H279.44V0.81818ZM279.44 59V60H280.44V59H279.44ZM268.815 59L267.993 59.5686L268.291 60H268.815V59ZM243.503 22.3807L244.325 21.8121L244.027 21.3807H243.503V22.3807ZM243.077 22.3807V21.3807H242.077V22.3807H243.077ZM243.077 59V60H244.077V59H243.077ZM230.776 59H229.776V60H230.776V59ZM230.776 0.81818V-0.18182H229.776V0.81818H230.776ZM241.571 0.81818L242.396 0.252303L242.098 -0.18182H241.571V0.81818ZM266.685 37.4091L265.86 37.975L266.158 38.4091H266.685V37.4091ZM267.196 37.4091V38.4091H268.196V37.4091H267.196ZM267.196 0.81818V-0.18182H266.196V0.81818H267.196ZM278.44 0.81818V59H280.44V0.81818H278.44ZM279.44 58H268.815V60H279.44V58ZM269.638 58.4314L244.325 21.8121L242.68 22.9493L267.993 59.5686L269.638 58.4314ZM243.503 21.3807H243.077V23.3807H243.503V21.3807ZM242.077 22.3807V59H244.077V22.3807H242.077ZM243.077 58H230.776V60H243.077V58ZM231.776 59V0.81818H229.776V59H231.776ZM230.776 1.81818H241.571V-0.18182H230.776V1.81818ZM240.747 1.38406L265.86 37.975L267.509 36.8432L242.396 0.252303L240.747 1.38406ZM266.685 38.4091H267.196V36.4091H266.685V38.4091ZM268.196 37.4091V0.81818H266.196V37.4091H268.196ZM267.196 1.81818H279.44V-0.18182H267.196V1.81818ZM340.939 21.1875V22.1875H342.064L341.932 21.0703L340.939 21.1875ZM328.496 21.1875L327.506 21.3273L327.627 22.1875H328.496V21.1875ZM327.104 16.8977L326.228 17.3812L326.231 17.3867L327.104 16.8977ZM324.405 13.6591L323.775 14.436L323.775 14.436L324.405 13.6591ZM320.598 11.6136L320.282 12.5623L320.286 12.5636L320.598 11.6136ZM308.098 13.1477L308.649 13.982L308.654 13.9787L308.098 13.1477ZM302.899 19.625L303.816 20.0249L303.817 20.0226L302.899 19.625ZM302.899 40.3636L301.983 40.7635L301.985 40.7686L302.899 40.3636ZM308.126 46.7557L307.585 47.5964L307.585 47.5964L308.126 46.7557ZM320.456 48.2614L320.163 47.3053L320.159 47.3064L320.456 48.2614ZM324.234 46.358L324.839 47.1547L324.847 47.148L324.234 46.358ZM326.962 43.2614L326.108 42.741L326.102 42.7508L326.962 43.2614ZM328.496 39.1136L328.5 38.1136L327.663 38.1098L327.512 38.9337L328.496 39.1136ZM340.939 39.1705L341.932 39.2902L342.066 38.1756L340.943 38.1705L340.939 39.1705ZM338.524 46.8977L337.637 46.437L337.635 46.4396L338.524 46.8977ZM333.382 53.517L334.052 54.2594L334.053 54.259L333.382 53.517ZM325.712 58.1193L326.065 59.0547L326.069 59.0534L325.712 58.1193ZM301.763 56.2727L301.263 57.139L301.265 57.14L301.763 56.2727ZM292.104 46.0739L291.219 46.5405L291.221 46.5435L292.104 46.0739ZM292.161 13.7159L293.042 14.1884L293.042 14.1884L292.161 13.7159ZM301.876 3.54545L302.371 4.41445L302.374 4.41271L301.876 3.54545ZM325.058 1.44318L324.746 2.39311L324.748 2.39371L325.058 1.44318ZM332.757 5.59091L332.126 6.36663L332.13 6.36984L332.757 5.59091ZM338.212 12.2102L337.33 12.6828L337.333 12.6877L338.212 12.2102ZM340.939 20.1875H328.496V22.1875H340.939V20.1875ZM329.486 21.0477C329.244 19.3315 328.745 17.7804 327.976 16.4087L326.231 17.3867C326.864 18.5151 327.293 19.8238 327.506 21.3273L329.486 21.0477ZM327.979 16.4143C327.218 15.0355 326.236 13.8555 325.034 12.8822L323.775 14.436C324.771 15.243 325.588 16.2221 326.228 17.3811L327.979 16.4143ZM325.034 12.8822C323.835 11.9102 322.457 11.1724 320.91 10.6637L320.286 12.5636C321.618 13.0018 322.778 13.6276 323.775 14.436L325.034 12.8822ZM320.914 10.665C319.381 10.1539 317.729 9.90341 315.967 9.90341V11.9034C317.539 11.9034 318.974 12.1264 320.282 12.5623L320.914 10.665ZM315.967 9.90341C312.782 9.90341 309.96 10.6974 307.542 12.3168L308.654 13.9787C310.705 12.6056 313.129 11.9034 315.967 11.9034V9.90341ZM307.547 12.3135C305.126 13.9136 303.277 16.2369 301.982 19.2274L303.817 20.0226C304.983 17.3313 306.6 15.3364 308.649 13.9819L307.547 12.3135ZM301.983 19.2251C300.682 22.2059 300.053 25.7781 300.053 29.9091H302.053C302.053 25.9719 302.654 22.6881 303.816 20.0249L301.983 19.2251ZM300.053 29.9091C300.053 34.1493 300.681 37.7797 301.983 40.7635L303.816 39.9638C302.655 37.3036 302.053 33.9643 302.053 29.9091H300.053ZM301.985 40.7686C303.301 43.7397 305.161 46.0351 307.585 47.5964L308.668 45.915C306.622 44.5975 304.997 42.6315 303.813 39.9586L301.985 40.7686ZM307.585 47.5964C309.998 49.1505 312.775 49.9148 315.882 49.9148V47.9148C313.118 47.9148 310.725 47.2397 308.668 45.915L307.585 47.5964ZM315.882 49.9148C317.618 49.9148 319.244 49.6852 320.753 49.2163L320.159 47.3064C318.865 47.7088 317.441 47.9148 315.882 47.9148V49.9148ZM320.749 49.2174C322.273 48.7501 323.64 48.0643 324.839 47.1546L323.63 45.5613C322.632 46.3183 321.48 46.9015 320.163 47.3053L320.749 49.2174ZM324.847 47.148C326.046 46.2178 327.039 45.0903 327.822 43.7719L326.102 42.7508C325.445 43.8566 324.619 44.7936 323.621 45.5679L324.847 47.148ZM327.816 43.7817C328.625 42.4539 329.176 40.9536 329.479 39.2936L327.512 38.9337C327.248 40.3797 326.776 41.6445 326.108 42.741L327.816 43.7817ZM328.491 40.1136L340.934 40.1704L340.943 38.1705L328.5 38.1136L328.491 40.1136ZM339.946 39.0508C339.639 41.5975 338.871 44.0582 337.637 46.437L339.412 47.3584C340.753 44.7752 341.595 42.0843 341.932 39.2902L339.946 39.0508ZM337.635 46.4396C336.424 48.7894 334.786 50.9009 332.712 52.775L334.053 54.259C336.296 52.2317 338.086 49.9303 339.413 47.3558L337.635 46.4396ZM332.712 52.7747C330.673 54.6157 328.225 56.0883 325.355 57.1852L326.069 59.0534C329.145 57.8776 331.811 56.2821 334.052 54.2594L332.712 52.7747ZM325.358 57.184C322.535 58.2517 319.315 58.7955 315.683 58.7955V60.7955C319.514 60.7955 322.979 60.2218 326.065 59.0547L325.358 57.184ZM315.683 58.7955C310.651 58.7955 306.185 57.6585 302.261 55.4055L301.265 57.14C305.522 59.584 310.337 60.7955 315.683 60.7955V58.7955ZM302.262 55.4065C298.365 53.1585 295.273 49.902 292.987 45.6043L291.221 46.5435C293.67 51.1473 297.017 54.69 301.263 57.139L302.262 55.4065ZM292.988 45.6072C290.733 41.3326 289.581 36.1131 289.581 29.9091H287.581C287.581 36.3566 288.778 41.9136 291.219 46.5405L292.988 45.6072ZM289.581 29.9091C289.581 23.6878 290.751 18.4613 293.042 14.1884L291.279 13.2434C288.797 17.872 287.581 23.4409 287.581 29.9091H289.581ZM293.042 14.1884C295.346 9.89099 298.456 6.64402 302.371 4.41444L301.382 2.67647C297.115 5.10598 293.748 8.63931 291.279 13.2434L293.042 14.1884ZM302.374 4.41271C306.301 2.15844 310.729 1.02273 315.683 1.02273V-0.977275C310.41 -0.977275 305.634 0.235497 301.379 2.6782L302.374 4.41271ZM315.683 1.02273C318.96 1.02273 321.978 1.48281 324.746 2.39311L325.371 0.493254C322.38 -0.490389 319.149 -0.977275 315.683 -0.977275V1.02273ZM324.748 2.39371C327.536 3.3048 329.992 4.6303 332.126 6.36662L333.388 4.81519C331.053 2.91515 328.376 1.4755 325.369 0.49265L324.748 2.39371ZM332.13 6.36984C334.257 8.08218 335.99 10.1832 337.33 12.6828L339.093 11.7376C337.63 9.00996 335.727 6.69811 333.384 4.81197L332.13 6.36984ZM337.333 12.6877C338.685 15.175 339.561 18.0421 339.946 21.3047L341.932 21.0703C341.521 17.5905 340.579 14.4727 339.09 11.7327L337.333 12.6877ZM349.76 59H348.76V60H349.76V59ZM349.76 0.81818V-0.18182H348.76V0.81818H349.76ZM388.964 0.81818H389.964V-0.18182H388.964V0.81818ZM388.964 10.9602V11.9602H389.964V10.9602H388.964ZM362.061 10.9602V9.96023H361.061V10.9602H362.061ZM362.061 24.8239H361.061V25.8239H362.061V24.8239ZM386.947 24.8239H387.947V23.8239H386.947V24.8239ZM386.947 34.9659V35.9659H387.947V34.9659H386.947ZM362.061 34.9659V33.9659H361.061V34.9659H362.061ZM362.061 48.858H361.061V49.858H362.061V48.858ZM389.078 48.858H390.078V47.858H389.078V48.858ZM389.078 59V60H390.078V59H389.078ZM350.76 59V0.81818H348.76V59H350.76ZM349.76 1.81818H388.964V-0.18182H349.76V1.81818ZM387.964 0.81818V10.9602H389.964V0.81818H387.964ZM388.964 9.96023H362.061V11.9602H388.964V9.96023ZM361.061 10.9602V24.8239H363.061V10.9602H361.061ZM362.061 25.8239H386.947V23.8239H362.061V25.8239ZM385.947 24.8239V34.9659H387.947V24.8239H385.947ZM386.947 33.9659H362.061V35.9659H386.947V33.9659ZM361.061 34.9659V48.858H363.061V34.9659H361.061ZM362.061 49.858H389.078V47.858H362.061V49.858ZM388.078 48.858V59H390.078V48.858H388.078ZM389.078 58H349.76V60H389.078V58ZM398.744 59H397.744V60H398.744V59ZM398.744 0.81818V-0.18182H397.744V0.81818H398.744ZM434.653 4.3125L434.17 5.18814L434.173 5.18979L434.653 4.3125ZM444.398 14.2841L443.512 14.7482L443.514 14.7513L444.398 14.2841ZM444.398 45.4773L443.513 45.0117L443.511 45.0147L444.398 45.4773ZM434.597 55.5057L434.117 54.6282L434.115 54.6291L434.597 55.5057ZM411.045 48.4602H410.045V49.4602H411.045V48.4602ZM428.034 46.5284L428.495 47.416L428.497 47.4146L428.034 46.5284ZM433.659 40.4773L432.751 40.0578L432.75 40.0606L433.659 40.4773ZM433.659 19.3125L432.75 19.7292L432.752 19.7344L433.659 19.3125ZM428.062 13.2898L428.523 12.4022L428.523 12.4022L428.062 13.2898ZM411.045 11.358V10.358H410.045V11.358H411.045ZM419.369 58H398.744V60H419.369V58ZM399.744 59V0.81818H397.744V59H399.744ZM398.744 1.81818H419.54V-0.18182H398.744V1.81818ZM419.54 1.81818C425.259 1.81818 430.123 2.95587 434.17 5.18813L435.136 3.43687C430.737 1.01004 425.525 -0.18182 419.54 -0.18182V1.81818ZM434.173 5.18979C438.221 7.40401 441.329 10.5827 443.512 14.7482L445.283 13.8199C442.921 9.31127 439.533 5.84219 435.133 3.43521L434.173 5.18979ZM443.514 14.7513C445.714 18.9148 446.835 23.9363 446.835 29.8523H448.835C448.835 23.685 447.665 18.3276 445.282 13.8169L443.514 14.7513ZM446.835 29.8523C446.835 35.7876 445.713 40.8287 443.513 45.0117L445.283 45.9429C447.665 41.4137 448.835 36.0381 448.835 29.8523H446.835ZM443.511 45.0147C441.329 49.1974 438.202 52.3948 434.117 54.6282L435.076 56.3831C439.513 53.9574 442.921 50.4692 445.284 45.9398L443.511 45.0147ZM434.115 54.6291C430.05 56.8616 425.147 58 419.369 58V60C425.41 60 430.659 58.8088 435.078 56.3822L434.115 54.6291ZM411.045 49.4602H418.858V47.4602H411.045V49.4602ZM418.858 49.4602C422.608 49.4602 425.835 48.7966 428.495 47.416L427.573 45.6409C425.271 46.836 422.381 47.4602 418.858 47.4602V49.4602ZM428.497 47.4146C431.207 45.9983 433.232 43.8091 434.568 40.8939L432.75 40.0606C431.586 42.6 429.861 44.4449 427.571 45.6422L428.497 47.4146ZM434.567 40.8967C435.917 37.9748 436.562 34.276 436.562 29.8523H434.562C434.562 34.1028 433.939 37.4873 432.751 40.0578L434.567 40.8967ZM436.562 29.8523C436.562 25.4654 435.917 21.7942 434.566 18.8906L432.752 19.7344C433.939 22.2854 434.562 25.6407 434.562 29.8523H436.562ZM434.568 18.8958C433.233 15.9819 431.217 13.8005 428.523 12.4022L427.602 14.1773C429.87 15.3548 431.586 17.1886 432.75 19.7292L434.568 18.8958ZM428.523 12.4022C425.864 11.0216 422.636 10.358 418.886 10.358V12.358C422.409 12.358 425.299 12.9822 427.602 14.1773L428.523 12.4022ZM418.886 10.358H411.045V12.358H418.886V10.358ZM410.045 11.358V48.4602H412.045V11.358H410.045ZM473.247 10.9602H472.247V11.9602H473.247V10.9602ZM473.247 0.81818V-0.18182H472.247V0.81818H473.247ZM521.031 0.81818H522.031V-0.18182H521.031V0.81818ZM521.031 10.9602V11.9602H522.031V10.9602H521.031ZM503.219 10.9602V9.96023H502.219V10.9602H503.219ZM503.219 59V60H504.219V59H503.219ZM491.06 59H490.06V60H491.06V59ZM491.06 10.9602H492.06V9.96023H491.06V10.9602ZM474.247 10.9602V0.81818H472.247V10.9602H474.247ZM473.247 1.81818H521.031V-0.18182H473.247V1.81818ZM520.031 0.81818V10.9602H522.031V0.81818H520.031ZM521.031 9.96023H503.219V11.9602H521.031V9.96023ZM502.219 10.9602V59H504.219V10.9602H502.219ZM503.219 58H491.06V60H503.219V58ZM492.06 59V10.9602H490.06V59H492.06ZM491.06 9.96023H473.247V11.9602H491.06V9.96023ZM528.901 59H527.901V60H528.901V59ZM528.901 0.81818V-0.18182H527.901V0.81818H528.901ZM568.105 0.81818H569.105V-0.18182H568.105V0.81818ZM568.105 10.9602V11.9602H569.105V10.9602H568.105ZM541.202 10.9602V9.96023H540.202V10.9602H541.202ZM541.202 24.8239H540.202V25.8239H541.202V24.8239ZM566.088 24.8239H567.088V23.8239H566.088V24.8239ZM566.088 34.9659V35.9659H567.088V34.9659H566.088ZM541.202 34.9659V33.9659H540.202V34.9659H541.202ZM541.202 48.858H540.202V49.858H541.202V48.858ZM568.219 48.858H569.219V47.858H568.219V48.858ZM568.219 59V60H569.219V59H568.219ZM529.901 59V0.81818H527.901V59H529.901ZM528.901 1.81818H568.105V-0.18182H528.901V1.81818ZM567.105 0.81818V10.9602H569.105V0.81818H567.105ZM568.105 9.96023H541.202V11.9602H568.105V9.96023ZM540.202 10.9602V24.8239H542.202V10.9602H540.202ZM541.202 25.8239H566.088V23.8239H541.202V25.8239ZM565.088 24.8239V34.9659H567.088V24.8239H565.088ZM566.088 33.9659H541.202V35.9659H566.088V33.9659ZM540.202 34.9659V48.858H542.202V34.9659H540.202ZM541.202 49.858H568.219V47.858H541.202V49.858ZM567.219 48.858V59H569.219V48.858H567.219ZM568.219 58H528.901V60H568.219V58ZM629.22 21.1875V22.1875H630.345L630.213 21.0703L629.22 21.1875ZM616.777 21.1875L615.787 21.3273L615.908 22.1875H616.777V21.1875ZM615.385 16.8977L614.51 17.3812L614.513 17.3867L615.385 16.8977ZM612.686 13.6591L612.056 14.436L612.056 14.436L612.686 13.6591ZM608.879 11.6136L608.563 12.5623L608.567 12.5636L608.879 11.6136ZM596.379 13.1477L596.931 13.982L596.936 13.9787L596.379 13.1477ZM591.18 19.625L592.097 20.0249L592.098 20.0226L591.18 19.625ZM591.18 40.3636L590.264 40.7635L590.266 40.7686L591.18 40.3636ZM596.408 46.7557L595.866 47.5964L595.866 47.5964L596.408 46.7557ZM608.737 48.2614L608.444 47.3053L608.44 47.3064L608.737 48.2614ZM612.516 46.358L613.12 47.1547L613.129 47.148L612.516 46.358ZM615.243 43.2614L614.389 42.741L614.383 42.7508L615.243 43.2614ZM616.777 39.1136L616.782 38.1136L615.944 38.1098L615.793 38.9337L616.777 39.1136ZM629.22 39.1705L630.213 39.2902L630.347 38.1756L629.225 38.1705L629.22 39.1705ZM626.805 46.8977L625.918 46.437L625.917 46.4396L626.805 46.8977ZM621.663 53.517L622.333 54.2594L622.334 54.259L621.663 53.517ZM613.993 58.1193L614.347 59.0547L614.35 59.0534L613.993 58.1193ZM590.044 56.2727L589.544 57.139L589.546 57.14L590.044 56.2727ZM580.385 46.0739L579.501 46.5405L579.502 46.5435L580.385 46.0739ZM580.442 13.7159L581.323 14.1884L581.323 14.1884L580.442 13.7159ZM590.158 3.54545L590.653 4.41445L590.656 4.41271L590.158 3.54545ZM613.339 1.44318L613.027 2.39311L613.029 2.39371L613.339 1.44318ZM621.038 5.59091L620.407 6.36663L620.411 6.36984L621.038 5.59091ZM626.493 12.2102L625.612 12.6828L625.614 12.6877L626.493 12.2102ZM629.22 20.1875H616.777V22.1875H629.22V20.1875ZM617.767 21.0477C617.525 19.3315 617.026 17.7804 616.257 16.4087L614.513 17.3867C615.145 18.5151 615.575 19.8238 615.787 21.3273L617.767 21.0477ZM616.26 16.4143C615.499 15.0355 614.517 13.8555 613.316 12.8822L612.056 14.436C613.052 15.243 613.869 16.2221 614.51 17.3811L616.26 16.4143ZM613.316 12.8822C612.116 11.9102 610.738 11.1724 609.192 10.6637L608.567 12.5636C609.899 13.0018 611.059 13.6276 612.056 14.436L613.316 12.8822ZM609.195 10.665C607.662 10.1539 606.011 9.90341 604.249 9.90341V11.9034C605.82 11.9034 607.255 12.1264 608.563 12.5623L609.195 10.665ZM604.249 9.90341C601.064 9.90341 598.242 10.6974 595.823 12.3168L596.936 13.9787C598.987 12.6056 601.411 11.9034 604.249 11.9034V9.90341ZM595.828 12.3135C593.407 13.9136 591.559 16.2369 590.263 19.2274L592.098 20.0226C593.264 17.3313 594.882 15.3364 596.931 13.9819L595.828 12.3135ZM590.264 19.2251C588.964 22.2059 588.334 25.7781 588.334 29.9091H590.334C590.334 25.9719 590.935 22.6881 592.097 20.0249L590.264 19.2251ZM588.334 29.9091C588.334 34.1493 588.962 37.7797 590.264 40.7635L592.097 39.9638C590.936 37.3036 590.334 33.9643 590.334 29.9091H588.334ZM590.266 40.7686C591.582 43.7397 593.442 46.0351 595.866 47.5964L596.949 45.915C594.904 44.5975 593.279 42.6315 592.095 39.9586L590.266 40.7686ZM595.866 47.5964C598.279 49.1505 601.056 49.9148 604.163 49.9148V47.9148C601.399 47.9148 599.006 47.2397 596.949 45.915L595.866 47.5964ZM604.163 49.9148C605.9 49.9148 607.525 49.6852 609.034 49.2163L608.44 47.3064C607.146 47.7088 605.723 47.9148 604.163 47.9148V49.9148ZM609.03 49.2174C610.554 48.7501 611.921 48.0643 613.12 47.1546L611.911 45.5613C610.913 46.3183 609.761 46.9015 608.444 47.3053L609.03 49.2174ZM613.129 47.148C614.328 46.2178 615.32 45.0903 616.103 43.7719L614.383 42.7508C613.726 43.8566 612.901 44.7936 611.903 45.5679L613.129 47.148ZM616.097 43.7817C616.906 42.4539 617.457 40.9536 617.761 39.2936L615.793 38.9337C615.529 40.3797 615.057 41.6445 614.389 42.741L616.097 43.7817ZM616.772 40.1136L629.216 40.1704L629.225 38.1705L616.782 38.1136L616.772 40.1136ZM628.227 39.0508C627.92 41.5975 627.153 44.0582 625.918 46.437L627.693 47.3584C629.034 44.7752 629.876 42.0843 630.213 39.2902L628.227 39.0508ZM625.917 46.4396C624.705 48.7894 623.067 50.9009 620.993 52.775L622.334 54.259C624.578 52.2317 626.367 49.9303 627.694 47.3558L625.917 46.4396ZM620.993 52.7747C618.954 54.6157 616.506 56.0883 613.636 57.1852L614.35 59.0534C617.427 57.8776 620.093 56.2821 622.333 54.2594L620.993 52.7747ZM613.639 57.184C610.816 58.2517 607.596 58.7955 603.964 58.7955V60.7955C607.795 60.7955 611.261 60.2218 614.347 59.0547L613.639 57.184ZM603.964 58.7955C598.932 58.7955 594.466 57.6585 590.542 55.4055L589.546 57.14C593.803 59.584 598.618 60.7955 603.964 60.7955V58.7955ZM590.544 55.4065C586.646 53.1585 583.554 49.902 581.268 45.6043L579.502 46.5435C581.951 51.1473 585.298 54.69 589.544 57.139L590.544 55.4065ZM581.269 45.6072C579.014 41.3326 577.862 36.1131 577.862 29.9091H575.862C575.862 36.3566 577.059 41.9136 579.501 46.5405L581.269 45.6072ZM577.862 29.9091C577.862 23.6878 579.032 18.4613 581.323 14.1884L579.56 13.2434C577.079 17.872 575.862 23.4409 575.862 29.9091H577.862ZM581.323 14.1884C583.627 9.89099 586.737 6.64402 590.653 4.41444L589.663 2.67647C585.396 5.10598 582.029 8.63931 579.56 13.2434L581.323 14.1884ZM590.656 4.41271C594.582 2.15844 599.01 1.02273 603.964 1.02273V-0.977275C598.691 -0.977275 593.915 0.235497 589.66 2.6782L590.656 4.41271ZM603.964 1.02273C607.241 1.02273 610.26 1.48281 613.027 2.39311L613.652 0.493254C610.662 -0.490389 607.43 -0.977275 603.964 -0.977275V1.02273ZM613.029 2.39371C615.817 3.3048 618.273 4.6303 620.407 6.36662L621.669 4.81519C619.334 2.91515 616.658 1.4755 613.65 0.49265L613.029 2.39371ZM620.411 6.36984C622.538 8.08218 624.271 10.1832 625.612 12.6828L627.374 11.7376C625.912 9.00996 624.008 6.69811 621.665 4.81197L620.411 6.36984ZM625.614 12.6877C626.966 15.175 627.842 18.0421 628.227 21.3047L630.213 21.0703C629.803 17.5905 628.861 14.4727 627.372 11.7327L625.614 12.6877ZM638.041 59H637.041V60H638.041V59ZM638.041 0.81818V-0.18182H637.041V0.81818H638.041ZM650.342 0.81818H651.342V-0.18182H650.342V0.81818ZM650.342 24.8239H649.342V25.8239H650.342V24.8239ZM675.314 24.8239V25.8239H676.314V24.8239H675.314ZM675.314 0.81818V-0.18182H674.314V0.81818H675.314ZM687.587 0.81818H688.587V-0.18182H687.587V0.81818ZM687.587 59V60H688.587V59H687.587ZM675.314 59H674.314V60H675.314V59ZM675.314 34.9659H676.314V33.9659H675.314V34.9659ZM650.342 34.9659V33.9659H649.342V34.9659H650.342ZM650.342 59V60H651.342V59H650.342ZM639.041 59V0.81818H637.041V59H639.041ZM638.041 1.81818H650.342V-0.18182H638.041V1.81818ZM649.342 0.81818V24.8239H651.342V0.81818H649.342ZM650.342 25.8239H675.314V23.8239H650.342V25.8239ZM676.314 24.8239V0.81818H674.314V24.8239H676.314ZM675.314 1.81818H687.587V-0.18182H675.314V1.81818ZM686.587 0.81818V59H688.587V0.81818H686.587ZM687.587 58H675.314V60H687.587V58ZM676.314 59V34.9659H674.314V59H676.314ZM675.314 33.9659H650.342V35.9659H675.314V33.9659ZM649.342 34.9659V59H651.342V34.9659H649.342ZM650.342 58H638.041V60H650.342V58ZM746.393 0.81818H747.393V-0.18182H746.393V0.81818ZM746.393 59V60H747.393V59H746.393ZM735.768 59L734.946 59.5686L735.244 60H735.768V59ZM710.456 22.3807L711.279 21.8121L710.98 21.3807H710.456V22.3807ZM710.03 22.3807V21.3807H709.03V22.3807H710.03ZM710.03 59V60H711.03V59H710.03ZM697.729 59H696.729V60H697.729V59ZM697.729 0.81818V-0.18182H696.729V0.81818H697.729ZM708.524 0.81818L709.349 0.252303L709.051 -0.18182H708.524V0.81818ZM733.638 37.4091L732.813 37.975L733.111 38.4091H733.638V37.4091ZM734.149 37.4091V38.4091H735.149V37.4091H734.149ZM734.149 0.81818V-0.18182H733.149V0.81818H734.149ZM745.393 0.81818V59H747.393V0.81818H745.393ZM746.393 58H735.768V60H746.393V58ZM736.591 58.4314L711.279 21.8121L709.633 22.9493L734.946 59.5686L736.591 58.4314ZM710.456 21.3807H710.03V23.3807H710.456V21.3807ZM709.03 22.3807V59H711.03V22.3807H709.03ZM710.03 58H697.729V60H710.03V58ZM698.729 59V0.81818H696.729V59H698.729ZM697.729 1.81818H708.524V-0.18182H697.729V1.81818ZM707.7 1.38406L732.813 37.975L734.462 36.8432L709.349 0.252303L707.7 1.38406ZM733.638 38.4091H734.149V36.4091H733.638V38.4091ZM735.149 37.4091V0.81818H733.149V37.4091H735.149ZM734.149 1.81818H746.393V-0.18182H734.149V1.81818ZM806.415 46.1023L805.535 45.6268L805.533 45.6297L806.415 46.1023ZM796.642 56.3011L797.135 57.1711L797.136 57.1704L796.642 56.3011ZM768.858 56.2727L769.354 55.4045L769.354 55.4045L768.858 56.2727ZM759.114 46.0739L758.232 46.5464L758.232 46.5464L759.114 46.0739ZM759.114 13.7159L759.995 14.1884L759.995 14.1884L759.114 13.7159ZM768.858 3.54545L769.351 4.41543L769.354 4.4137L768.858 3.54545ZM796.642 3.54545L796.146 4.41371L796.151 4.41639L796.642 3.54545ZM806.415 13.7159L805.533 14.1884L805.535 14.1913L806.415 13.7159ZM795.705 19.5114L794.786 19.906L794.788 19.9112L795.705 19.5114ZM790.562 13.0909L790.013 13.9262L790.013 13.9262L790.562 13.0909ZM774.994 13.0909L775.544 13.9262L775.544 13.9262L774.994 13.0909ZM769.824 19.5114L768.907 19.1115L768.905 19.1167L769.824 19.5114ZM769.824 40.3068L768.905 40.7015L768.907 40.7067L769.824 40.3068ZM774.994 46.7273L775.544 45.8919L775.544 45.8919L774.994 46.7273ZM790.562 46.7273L790.013 45.8919L790.013 45.8919L790.562 46.7273ZM795.705 40.3068L794.788 39.907L794.786 39.9122L795.705 40.3068ZM809.023 29.9091C809.023 36.1292 807.844 41.3547 805.535 45.6268L807.295 46.5777C809.796 41.9484 811.023 36.3784 811.023 29.9091H809.023ZM805.533 45.6297C803.23 49.9254 800.102 53.1825 796.148 55.4319L797.136 57.1704C801.44 54.7228 804.827 51.1806 807.296 46.5748L805.533 45.6297ZM796.149 55.4312C792.202 57.6682 787.754 58.7955 782.778 58.7955V60.7955C788.068 60.7955 792.862 59.5932 797.135 57.1711L796.149 55.4312ZM782.778 58.7955C777.765 58.7955 773.299 57.6588 769.354 55.4045L768.362 57.141C772.636 59.5836 777.45 60.7955 782.778 60.7955V58.7955ZM769.354 55.4045C765.418 53.1554 762.299 49.8982 759.995 45.6013L758.232 46.5464C760.701 51.151 764.078 54.6931 768.362 57.141L769.354 55.4045ZM759.995 45.6013C757.704 41.3281 756.534 36.1108 756.534 29.9091H754.534C754.534 36.3589 755.751 41.9181 758.232 46.5464L759.995 45.6013ZM756.534 29.9091C756.534 23.6878 757.704 18.4613 759.995 14.1884L758.232 13.2434C755.751 17.872 754.534 23.4409 754.534 29.9091H756.534ZM759.995 14.1884C762.298 9.89217 765.417 6.64532 769.351 4.41542L768.365 2.67549C764.079 5.10468 760.702 8.63813 758.232 13.2434L759.995 14.1884ZM769.354 4.4137C773.299 2.15939 777.765 1.02273 782.778 1.02273V-0.977275C777.45 -0.977275 772.636 0.234542 768.362 2.67721L769.354 4.4137ZM782.778 1.02273C787.752 1.02273 792.2 2.15876 796.146 4.4137L797.138 2.67721C792.865 0.235181 788.07 -0.977275 782.778 -0.977275V1.02273ZM796.151 4.41639C800.103 6.64662 803.231 9.89336 805.533 14.1884L807.296 13.2434C804.826 8.63694 801.438 5.10338 797.133 2.67452L796.151 4.41639ZM805.535 14.1913C807.844 18.4635 809.023 23.689 809.023 29.9091H811.023C811.023 23.4398 809.796 17.8698 807.295 13.2405L805.535 14.1913ZM798.551 29.9091C798.551 25.7053 797.922 22.0943 796.621 19.1115L794.788 19.9112C795.949 22.5724 796.551 25.8932 796.551 29.9091H798.551ZM796.623 19.1167C795.346 16.144 793.516 13.8377 791.112 12.2556L790.013 13.9262C792.041 15.2608 793.638 17.2348 794.786 19.906L796.623 19.1167ZM791.112 12.2556C788.714 10.6771 785.923 9.90341 782.778 9.90341V11.9034C785.581 11.9034 787.979 12.588 790.013 13.9262L791.112 12.2556ZM782.778 9.90341C779.634 9.90341 776.843 10.6771 774.445 12.2556L775.544 13.9262C777.577 12.588 779.976 11.9034 782.778 11.9034V9.90341ZM774.445 12.2556C772.042 13.8367 770.203 16.1411 768.907 19.1115L770.74 19.9112C771.907 17.2377 773.515 15.2618 775.544 13.9262L774.445 12.2556ZM768.905 19.1167C767.625 22.0979 767.006 25.7069 767.006 29.9091H769.006C769.006 25.8915 769.599 22.5688 770.743 19.906L768.905 19.1167ZM767.006 29.9091C767.006 34.1112 767.625 37.7203 768.905 40.7015L770.743 39.9122C769.599 37.2494 769.006 33.9266 769.006 29.9091H767.006ZM768.907 40.7067C770.203 43.6771 772.042 45.9815 774.445 47.5626L775.544 45.8919C773.515 44.5564 771.907 42.5805 770.74 39.907L768.907 40.7067ZM774.445 47.5626C776.843 49.1411 779.634 49.9148 782.778 49.9148V47.9148C779.976 47.9148 777.577 47.2302 775.544 45.8919L774.445 47.5626ZM782.778 49.9148C785.923 49.9148 788.714 49.1411 791.112 47.5626L790.013 45.8919C787.979 47.2302 785.581 47.9148 782.778 47.9148V49.9148ZM791.112 47.5626C793.516 45.9805 795.346 43.6742 796.623 40.7015L794.786 39.9122C793.638 42.5834 792.041 44.5574 790.013 45.8919L791.112 47.5626ZM796.621 40.7067C797.922 37.7239 798.551 34.1129 798.551 29.9091H796.551C796.551 33.925 795.949 37.2458 794.788 39.907L796.621 40.7067ZM819.135 59H818.135V60H819.135V59ZM819.135 0.81818V-0.18182H818.135V0.81818H819.135ZM831.436 0.81818H832.436V-0.18182H831.436V0.81818ZM831.436 48.858H830.436V49.858H831.436V48.858ZM856.379 48.858H857.379V47.858H856.379V48.858ZM856.379 59V60H857.379V59H856.379ZM820.135 59V0.81818H818.135V59H820.135ZM819.135 1.81818H831.436V-0.18182H819.135V1.81818ZM830.436 0.81818V48.858H832.436V0.81818H830.436ZM831.436 49.858H856.379V47.858H831.436V49.858ZM855.379 48.858V59H857.379V48.858H855.379ZM856.379 58H819.135V60H856.379V58ZM912.118 46.1023L911.238 45.6268L911.237 45.6297L912.118 46.1023ZM902.345 56.3011L902.838 57.1711L902.84 57.1704L902.345 56.3011ZM874.561 56.2727L875.057 55.4045L875.057 55.4045L874.561 56.2727ZM864.817 46.0739L863.935 46.5464L863.935 46.5464L864.817 46.0739ZM864.817 13.7159L865.698 14.1884L865.698 14.1884L864.817 13.7159ZM874.561 3.54545L875.054 4.41543L875.057 4.4137L874.561 3.54545ZM902.345 3.54545L901.849 4.41371L901.854 4.41639L902.345 3.54545ZM912.118 13.7159L911.237 14.1884L911.238 14.1913L912.118 13.7159ZM901.408 19.5114L900.489 19.906L900.491 19.9112L901.408 19.5114ZM896.266 13.0909L895.716 13.9262L895.716 13.9262L896.266 13.0909ZM880.697 13.0909L881.247 13.9262L881.247 13.9262L880.697 13.0909ZM875.527 19.5114L874.61 19.1115L874.608 19.1167L875.527 19.5114ZM875.527 40.3068L874.608 40.7015L874.61 40.7067L875.527 40.3068ZM880.697 46.7273L881.247 45.8919L881.247 45.8919L880.697 46.7273ZM896.266 46.7273L895.716 45.8919L895.716 45.8919L896.266 46.7273ZM901.408 40.3068L900.491 39.907L900.489 39.9122L901.408 40.3068ZM914.726 29.9091C914.726 36.1292 913.547 41.3547 911.238 45.6268L912.998 46.5777C915.499 41.9484 916.726 36.3784 916.726 29.9091H914.726ZM911.237 45.6297C908.933 49.9254 905.805 53.1825 901.851 55.4319L902.84 57.1704C907.143 54.7228 910.53 51.1806 912.999 46.5748L911.237 45.6297ZM901.852 55.4312C897.905 57.6682 893.457 58.7955 888.482 58.7955V60.7955C893.772 60.7955 898.565 59.5932 902.838 57.1711L901.852 55.4312ZM888.482 58.7955C883.469 58.7955 879.002 57.6588 875.057 55.4045L874.065 57.141C878.34 59.5836 883.154 60.7955 888.482 60.7955V58.7955ZM875.057 55.4045C871.121 53.1554 868.002 49.8982 865.698 45.6013L863.935 46.5464C866.404 51.151 869.781 54.6931 874.065 57.141L875.057 55.4045ZM865.698 45.6013C863.407 41.3281 862.237 36.1108 862.237 29.9091H860.237C860.237 36.3589 861.454 41.9181 863.935 46.5464L865.698 45.6013ZM862.237 29.9091C862.237 23.6878 863.407 18.4613 865.698 14.1884L863.935 13.2434C861.454 17.872 860.237 23.4409 860.237 29.9091H862.237ZM865.698 14.1884C868.002 9.89217 871.12 6.64532 875.054 4.41542L874.068 2.67549C869.782 5.10468 866.405 8.63813 863.935 13.2434L865.698 14.1884ZM875.057 4.4137C879.002 2.15939 883.469 1.02273 888.482 1.02273V-0.977275C883.154 -0.977275 878.34 0.234542 874.065 2.67721L875.057 4.4137ZM888.482 1.02273C893.455 1.02273 897.903 2.15876 901.849 4.4137L902.841 2.67721C898.568 0.235181 893.773 -0.977275 888.482 -0.977275V1.02273ZM901.854 4.41639C905.807 6.64662 908.934 9.89336 911.237 14.1884L912.999 13.2434C910.529 8.63694 907.141 5.10338 902.837 2.67452L901.854 4.41639ZM911.238 14.1913C913.547 18.4635 914.726 23.689 914.726 29.9091H916.726C916.726 23.4398 915.499 17.8698 912.998 13.2405L911.238 14.1913ZM904.254 29.9091C904.254 25.7053 903.625 22.0943 902.324 19.1115L900.491 19.9112C901.652 22.5724 902.254 25.8932 902.254 29.9091H904.254ZM902.326 19.1167C901.05 16.144 899.219 13.8377 896.815 12.2556L895.716 13.9262C897.744 15.2608 899.341 17.2348 900.489 19.906L902.326 19.1167ZM896.815 12.2556C894.417 10.6771 891.626 9.90341 888.482 9.90341V11.9034C891.284 11.9034 893.682 12.588 895.716 13.9262L896.815 12.2556ZM888.482 9.90341C885.337 9.90341 882.546 10.6771 880.148 12.2556L881.247 13.9262C883.281 12.588 885.679 11.9034 888.482 11.9034V9.90341ZM880.148 12.2556C877.745 13.8367 875.906 16.1411 874.61 19.1115L876.444 19.9112C877.61 17.2377 879.218 15.2618 881.247 13.9262L880.148 12.2556ZM874.608 19.1167C873.328 22.0979 872.709 25.7069 872.709 29.9091H874.709C874.709 25.8915 875.302 22.5688 876.446 19.906L874.608 19.1167ZM872.709 29.9091C872.709 34.1112 873.328 37.7203 874.608 40.7015L876.446 39.9122C875.302 37.2494 874.709 33.9266 874.709 29.9091H872.709ZM874.61 40.7067C875.906 43.6771 877.745 45.9815 880.148 47.5626L881.247 45.8919C879.218 44.5564 877.61 42.5805 876.444 39.907L874.61 40.7067ZM880.148 47.5626C882.546 49.1411 885.337 49.9148 888.482 49.9148V47.9148C885.679 47.9148 883.281 47.2302 881.247 45.8919L880.148 47.5626ZM888.482 49.9148C891.626 49.9148 894.417 49.1411 896.815 47.5626L895.716 45.8919C893.682 47.2302 891.284 47.9148 888.482 47.9148V49.9148ZM896.815 47.5626C899.219 45.9805 901.05 43.6742 902.326 40.7015L900.489 39.9122C899.341 42.5834 897.744 44.5574 895.716 45.8919L896.815 47.5626ZM902.324 40.7067C903.625 37.7239 904.254 34.1129 904.254 29.9091H902.254C902.254 33.925 901.652 37.2458 900.491 39.907L902.324 40.7067ZM963.418 19.625L962.457 19.9015L962.665 20.625H963.418V19.625ZM961.741 15.9602L960.909 16.5149L960.914 16.5217L961.741 15.9602ZM959.099 13.233L958.504 14.0365L958.513 14.0427L958.521 14.0487L959.099 13.233ZM955.577 11.5L955.286 12.4567L955.289 12.4578L955.577 11.5ZM943.389 13.1193L942.841 12.283L942.838 12.2851L943.389 13.1193ZM938.162 19.5682L939.075 19.9755L939.076 19.9732L938.162 19.5682ZM943.361 46.6989L942.808 47.532L942.813 47.5352L943.361 46.6989ZM958.474 47.4375L958.922 48.3319L958.925 48.3302L958.474 47.4375ZM963.02 43.2045L962.156 42.7007L962.152 42.7074L963.02 43.2045ZM964.611 36.7557L964.757 35.7664L963.611 35.5971V36.7557H964.611ZM967.111 37.125V38.125L967.257 36.1357L967.111 37.125ZM952.111 37.125H951.111V38.125H952.111V37.125ZM952.111 27.8636V26.8636H951.111V27.8636H952.111ZM976.457 27.8636H977.457V26.8636H976.457V27.8636ZM973.219 48.375L974.08 48.8836L974.081 48.8816L973.219 48.375ZM964.298 56.8409L964.76 57.7281L964.763 57.7263L964.298 56.8409ZM936.912 56.1875L936.406 57.0498L936.409 57.0516L936.912 56.1875ZM927.253 45.875L926.363 46.3312L926.365 46.3358L927.253 45.875ZM925.861 17.3523L924.924 17.0032L924.923 17.0059L925.861 17.3523ZM931.656 7.92045L932.376 8.6142L932.376 8.6142L931.656 7.92045ZM940.321 2.03977L939.943 1.11388L939.943 1.11388L940.321 2.03977ZM960.236 1.47159L959.914 2.41838L959.92 2.42027L960.236 1.47159ZM967.793 5.50568L967.171 6.28918L967.174 6.29177L967.793 5.50568ZM973.219 11.7273L972.355 12.2307L972.356 12.2337L973.219 11.7273ZM975.918 19.625V20.625H977.065L976.908 19.4881L975.918 19.625ZM964.379 19.3485C963.955 17.8768 963.355 16.5567 962.569 15.3987L960.914 16.5217C961.568 17.485 962.085 18.6081 962.457 19.9015L964.379 19.3485ZM962.574 15.4055C961.787 14.2259 960.821 13.2278 959.678 12.4172L958.521 14.0487C959.461 14.7154 960.256 15.5355 960.909 16.5149L962.574 15.4055ZM959.695 12.4294C958.571 11.5972 957.291 10.9702 955.864 10.5422L955.289 12.4578C956.514 12.8252 957.582 13.3536 958.504 14.0365L959.695 12.4294ZM955.868 10.5433C954.453 10.1126 952.904 9.90341 951.23 9.90341V11.9034C952.738 11.9034 954.087 12.0919 955.286 12.4567L955.868 10.5433ZM951.23 9.90341C948.083 9.90341 945.274 10.688 942.841 12.283L943.937 13.9557C946.012 12.5961 948.43 11.9034 951.23 11.9034V9.90341ZM942.838 12.2851C940.42 13.8831 938.563 16.1936 937.248 19.1632L939.076 19.9732C940.261 17.2988 941.888 15.3101 943.941 13.9535L942.838 12.2851ZM937.249 19.1609C935.926 22.1262 935.287 25.7017 935.287 29.8523H937.287C937.287 25.8967 937.898 22.6163 939.075 19.9755L937.249 19.1609ZM935.287 29.8523C935.287 34.0018 935.917 37.592 937.216 40.5908L939.051 39.7956C937.888 37.1125 937.287 33.8088 937.287 29.8523H935.287ZM937.216 40.5908C938.512 43.5827 940.371 45.914 942.808 47.532L943.914 45.8657C941.843 44.4913 940.217 42.4855 939.051 39.7956L937.216 40.5908ZM942.813 47.5352C945.251 49.1335 948.109 49.9148 951.344 49.9148V47.9148C948.443 47.9148 945.978 47.2187 943.909 45.8625L942.813 47.5352ZM951.344 49.9148C954.243 49.9148 956.781 49.4021 958.922 48.3319L958.027 46.5431C956.228 47.4426 954.013 47.9148 951.344 47.9148V49.9148ZM958.925 48.3302C961.077 47.2441 962.742 45.7006 963.888 43.7017L962.152 42.7074C961.214 44.3449 959.849 45.6234 958.024 46.5448L958.925 48.3302ZM963.884 43.7084C965.048 41.7119 965.611 39.3819 965.611 36.7557H963.611C963.611 39.0916 963.113 41.0608 962.156 42.7007L963.884 43.7084ZM964.465 37.7449L966.965 38.1143L967.257 36.1357L964.757 35.7664L964.465 37.7449ZM967.111 36.125H952.111V38.125H967.111V36.125ZM953.111 37.125V27.8636H951.111V37.125H953.111ZM952.111 28.8636H976.457V26.8636H952.111V28.8636ZM975.457 27.8636V35.1932H977.457V27.8636H975.457ZM975.457 35.1932C975.457 40.1644 974.409 44.3758 972.357 47.8684L974.081 48.8816C976.347 45.0257 977.457 40.4493 977.457 35.1932H975.457ZM972.358 47.8664C970.294 51.3604 967.458 54.0525 963.833 55.9555L964.763 57.7263C968.714 55.652 971.825 52.7002 974.08 48.8836L972.358 47.8664ZM963.837 55.9537C960.211 57.8392 956.036 58.7955 951.287 58.7955V60.7955C956.311 60.7955 960.81 59.782 964.76 57.7281L963.837 55.9537ZM951.287 58.7955C945.984 58.7955 941.371 57.6277 937.415 55.3234L936.409 57.0516C940.711 59.5579 945.681 60.7955 951.287 60.7955V58.7955ZM937.418 55.3252C933.46 53.0009 930.369 49.7062 928.14 45.4142L926.365 46.3358C928.758 50.9453 932.107 54.5257 936.406 57.0498L937.418 55.3252ZM928.143 45.4188C925.938 41.1182 924.815 35.9783 924.815 29.9659H922.815C922.815 36.2263 923.985 41.6924 926.363 46.3312L928.143 45.4188ZM924.815 29.9659C924.815 25.3454 925.483 21.2614 926.799 17.6986L924.923 17.0059C923.511 20.8295 922.815 25.1546 922.815 29.9659H924.815ZM926.798 17.7013C928.138 14.1038 930 11.081 932.376 8.6142L930.936 7.22671C928.35 9.91143 926.349 13.1765 924.924 17.0032L926.798 17.7013ZM932.376 8.6142C934.761 6.13834 937.533 4.25742 940.699 2.96566L939.943 1.11388C936.518 2.51151 933.513 4.55105 930.936 7.22671L932.376 8.6142ZM940.699 2.96566C943.865 1.67371 947.306 1.02273 951.031 1.02273V-0.977275C947.067 -0.977275 943.368 -0.283563 939.943 1.11388L940.699 2.96566ZM951.031 1.02273C954.228 1.02273 957.186 1.49099 959.914 2.41836L960.558 0.524817C957.603 -0.479628 954.425 -0.977275 951.031 -0.977275V1.02273ZM959.92 2.42027C962.657 3.33291 965.072 4.62397 967.171 6.28918L968.414 4.72218C966.12 2.90254 963.496 1.50421 960.552 0.522907L959.92 2.42027ZM967.174 6.29177C969.293 7.95731 971.017 9.93567 972.355 12.2307L974.083 11.2238C972.617 8.70826 970.724 6.53889 968.411 4.71959L967.174 6.29177ZM972.356 12.2337C973.688 14.5009 974.546 17.0069 974.927 19.7619L976.908 19.4881C976.493 16.4856 975.553 13.7264 974.081 11.2208L972.356 12.2337ZM975.918 18.625H963.418V20.625H975.918V18.625ZM979.945 0.81818V-0.18182H978.232L979.074 1.30957L979.945 0.81818ZM993.723 0.81818L994.607 0.350246L994.325 -0.18182H993.723V0.81818ZM1006.99 25.875L1006.11 26.3429L1006.39 26.875H1006.99V25.875ZM1007.56 25.875V26.875H1008.16L1008.44 26.3429L1007.56 25.875ZM1020.83 0.81818V-0.18182H1020.22L1019.94 0.350246L1020.83 0.81818ZM1034.6 0.81818L1035.47 1.30957L1036.32 -0.18182H1034.6V0.81818ZM1013.38 38.4318L1012.51 37.9404L1012.38 38.1692V38.4318H1013.38ZM1013.38 59V60H1014.38V59H1013.38ZM1001.17 59H1000.17V60H1001.17V59ZM1001.17 38.4318H1002.17V38.1692L1002.04 37.9404L1001.17 38.4318ZM979.945 1.81818H993.723V-0.18182H979.945V1.81818ZM992.839 1.28611L1006.11 26.3429L1007.87 25.4071L994.607 0.350246L992.839 1.28611ZM1006.99 26.875H1007.56V24.875H1006.99V26.875ZM1008.44 26.3429L1021.71 1.28611L1019.94 0.350246L1006.67 25.4071L1008.44 26.3429ZM1020.83 1.81818H1034.6V-0.18182H1020.83V1.81818ZM1033.73 0.326795L1012.51 37.9404L1014.25 38.9232L1035.47 1.30957L1033.73 0.326795ZM1012.38 38.4318V59H1014.38V38.4318H1012.38ZM1013.38 58H1001.17V60H1013.38V58ZM1002.17 59V38.4318H1000.17V59H1002.17ZM1002.04 37.9404L980.816 0.326795L979.074 1.30957L1000.3 38.9232L1002.04 37.9404Z" fill="#12DC00" mask="url(#path-1-outside-1_880_1611)"/>
</g>
</svg>
