 <svg  version="1.0" xmlns="http://www.w3.org/2000/svg"  width="300.000000pt" height="300.000000pt" viewBox="0 0 300.000000 300.000000"  preserveAspectRatio="xMidYMid meet">  <g transform="translate(0.000000,300.000000) scale(0.050000,-0.050000)" fill="#ffffff" stroke="none"> <path d="M1726 5191 c-121 -38 -316 -149 -644 -367 -158 -106 -303 -193 -322 -194 -45 -4 -205 -98 -242 -142 -17 -21 3 -15 52 17 126 82 190 92 190 28 0 -78 74 -260 151 -372 84 -123 85 -110 -11 -174 -122 -80 -81 -78 58 3 125 74 150 120 100 190 -16 23 -19 18 -10 -24 21 -94 -19 -77 -45 20 -14 51 -18 96 -9 99 36 13 74 43 65 52 -5 5 -44 -8 -88 -29 -97 -47 -126 -8 -162 222 l-11 70 336 223 c495 329 686 412 849 367 61 -17 64 -16 28 11 -47 35 -172 36 -285 0z"/> <path d="M1900 5118 c-124 -24 -260 -77 -260 -102 0 -12 14 -14 35 -5 211 92 440 108 576 40 112 -57 138 -54 53 6 -102 73 -238 93 -404 61z"/> <path d="M1900 5021 c-76 -23 -185 -83 -173 -94 6 -6 61 8 122 31 210 78 447 40 548 -88 89 -114 54 -137 -77 -50 -119 79 -195 91 -317 51 -169 -56 -173 -91 -10 -92 214 -1 393 -89 448 -220 36 -88 10 -94 -81 -21 -153 123 -288 151 -438 90 -183 -73 -191 -204 -22 -380 195 -202 139 -262 -85 -91 -192 148 -228 162 -407 159 -87 -2 -189 3 -228 10 l-70 14 60 -29 c37 -18 125 -30 233 -30 164 -1 177 -4 270 -70 292 -208 351 -232 377 -152 17 54 -30 134 -138 240 -180 175 -48 362 218 312 87 -16 89 -8 -30 -163 -128 -167 -130 -207 -3 -54 159 191 137 188 337 33 290 -224 486 -392 486 -415 0 -28 -237 -332 -258 -332 -9 0 -124 79 -254 176 -326 241 -422 280 -123 50 120 -92 144 -136 42 -76 l-57 34 60 -53 c33 -29 126 -104 208 -167 l147 -114 99 110 c219 245 250 330 155 431 -21 23 -39 64 -39 92 0 63 -58 118 -122 115 -41 -2 -42 -4 -8 -12 59 -15 90 -46 90 -90 0 -34 -15 -27 -100 44 -75 63 -100 97 -100 139 0 57 -53 121 -101 121 -17 0 -10 -12 17 -31 24 -17 44 -50 44 -73 0 -40 -2 -40 -65 9 -49 38 -63 63 -59 103 19 149 -223 330 -444 333 -76 1 -78 3 -32 22 80 32 201 8 316 -64 117 -73 159 -63 135 33 -42 170 -341 279 -571 209z"/> <path d="M5109 3832 c-33 -34 -92 -87 -130 -116 -67 -53 -68 -56 -31 -85 37 -29 37 -32 3 -70 -98 -108 -246 -89 -608 78 -246 113 -354 137 -413 93 -56 -42 2 -97 145 -138 136 -38 136 -8 1 42 -57 21 -108 50 -113 64 -16 48 153 7 334 -80 371 -180 539 -205 666 -100 l73 59 67 -74 c108 -120 133 -198 80 -251 l-43 -43 0 45 c0 52 -69 62 -88 12 -17 -45 -16 -48 26 -64 91 -33 -140 -254 -392 -375 -190 -90 -232 -120 -275 -188 -65 -102 -111 -107 -111 -12 0 56 22 94 110 193 168 188 137 278 -96 278 -139 0 -178 -18 -285 -133 -134 -143 -170 -109 -70 65 68 118 121 158 266 197 l105 28 -82 2 c-123 2 -239 -48 -352 -149 -110 -99 -136 -109 -136 -53 0 107 252 301 394 305 130 3 194 34 76 36 -190 3 -326 -67 -452 -233 -121 -160 -22 -236 123 -94 l74 72 -59 -118 c-102 -207 -35 -244 140 -77 128 122 208 149 341 113 112 -30 109 -81 -14 -220 l-97 -109 -104 66 c-132 85 -150 72 -26 -19 76 -56 95 -83 101 -139 11 -122 75 -157 138 -76 97 123 167 174 323 238 151 61 182 84 313 225 129 141 215 189 182 103 -13 -32 40 -57 58 -28 7 12 24 16 38 11 34 -13 168 50 246 116 74 62 82 91 27 91 -57 0 -92 57 -95 155 -2 99 -21 126 -113 157 -54 18 -65 32 -70 95 -5 57 -19 80 -63 103 -32 16 -60 37 -64 47 -4 9 -34 -11 -68 -45z"/> <path d="M4804 3594 c-29 -34 3 -83 44 -68 39 15 43 94 4 94 -15 0 -37 -12 -48 -26z"/> <path d="M3985 3510 c-158 -68 -333 -287 -255 -317 23 -9 28 -1 19 33 -25 100 226 274 395 274 74 0 114 8 106 20 -18 29 -190 23 -265 -10z"/> <path d="M4952 3448 c-16 -42 2 -68 48 -68 50 0 69 35 39 71 -31 38 -72 37 -87 -3z"/> <path d="M2714 3446 c-29 -45 -70 -206 -53 -206 31 0 82 120 75 176 -4 35 -12 45 -22 30z"/> <path d="M2840 3422 c0 -22 90 -82 123 -82 13 0 3 23 -23 50 -46 49 -100 67 -100 32z"/> <path d="M5113 2987 c-7 -8 -13 -30 -13 -50 0 -42 71 -52 85 -12 20 55 -33 100 -72 62z"/> <path d="M3950 2800 c-32 -33 -77 -60 -101 -60 -59 0 -97 -50 -98 -127 -1 -52 -10 -64 -51 -70 -76 -10 -100 -40 -100 -125 0 -77 -43 -110 -68 -53 -10 24 -2 -36 18 -135 18 -83 298 -282 359 -254 47 21 322 349 370 441 43 82 10 66 -58 -29 -141 -195 -304 -368 -348 -367 -24 0 -103 48 -176 105 l-132 105 203 254 c261 326 364 505 182 315z m-62 -105 c-25 -44 -74 -95 -91 -95 -25 0 -20 69 7 96 33 33 103 32 84 -1z m-168 -191 c0 -31 -63 -104 -81 -93 -27 17 -23 42 12 78 34 33 69 41 69 15z"/> <path d="M1040 2576 c-123 -34 -342 -283 -460 -522 -196 -398 -279 -1019 -125 -937 44 24 94 -1 161 -80 54 -65 165 -77 233 -26 47 35 164 38 178 4 5 -14 11 48 11 137 2 167 -34 246 -102 223 -17 -5 -11 -17 19 -32 87 -47 44 -60 -55 -17 -94 41 -99 48 -89 104 9 45 6 53 -9 30 -12 -16 -26 -67 -33 -113 -15 -94 -11 -93 -224 -22 -143 48 -140 42 -94 269 100 482 386 888 689 976 33 9 20 -6 -40 -47 -50 -33 -113 -85 -140 -116 -42 -46 -34 -43 53 19 148 107 236 139 335 123 53 -8 75 -6 62 6 -29 29 -288 43 -370 21z"/> <path d="M1149 2429 c-125 -75 -209 -145 -209 -172 0 -9 43 16 95 56 232 179 323 192 500 73 161 -108 108 -169 -66 -77 -52 28 -111 51 -130 51 -47 0 -274 -154 -301 -204 -15 -27 12 -15 85 40 185 137 233 147 349 71 63 -41 21 -87 -80 -87 -83 0 -193 -85 -232 -180 -38 -93 -7 -114 190 -124 277 -14 338 -106 80 -119 -126 -7 -159 -18 -307 -105 -106 -62 -197 -101 -254 -107 -49 -6 -89 -19 -89 -30 0 -48 186 3 341 93 88 51 186 98 217 105 l56 11 -10 -257 c-7 -197 -17 -262 -40 -279 -80 -59 189 -88 858 -93 l551 -5 144 116 143 116 -3 204 c-2 112 -7 173 -10 134 -15 -147 -30 -200 -56 -200 -79 0 -72 225 9 273 70 41 76 67 20 81 -36 10 -40 29 -42 203 -3 175 -4 183 -18 87 -19 -124 -28 -139 -70 -104 -53 44 -40 189 20 216 28 13 50 31 50 41 0 25 -166 45 -189 22 -12 -12 7 -19 50 -20 l69 0 -47 -40 c-46 -38 -1006 -43 -1183 -6 l-50 10 48 39 c58 47 33 85 -117 181 -125 80 -220 77 -372 -14z m1426 -281 l205 -12 0 -226 0 -227 -135 -14 c-253 -28 -1221 18 -1085 51 67 16 77 98 20 150 -35 32 -68 38 -181 33 -236 -10 -276 34 -152 166 90 95 212 104 214 16 3 -112 36 -141 38 -33 0 56 8 108 16 116 15 15 651 3 1060 -20z m-908 -488 c109 -11 394 -21 635 -22 l438 -3 0 -212 c0 -117 -6 -235 -13 -261 l-13 -48 -605 11 c-392 7 -619 19 -647 34 -51 27 -67 522 -17 520 14 0 114 -9 222 -19z"/> <path d="M1740 1377 l-90 -82 97 67 c97 68 129 99 99 97 -9 0 -56 -37 -106 -82z"/> <path d="M1946 1374 c-57 -45 -101 -86 -96 -90 7 -8 230 155 230 168 0 21 -39 -2 -134 -78z"/> <path d="M1834 2324 c-58 -64 -42 -84 67 -84 63 0 97 8 89 20 -7 11 -41 20 -75 20 -58 0 -61 3 -32 32 27 26 40 28 77 8 36 -19 43 -19 36 3 -14 43 -123 44 -162 1z"/> <path d="M2131 2321 c-49 -54 -23 -81 78 -81 62 0 90 9 99 33 32 81 -112 120 -177 48z m140 -10 c36 -28 34 -30 -38 -30 -67 -1 -74 3 -53 29 31 37 43 37 91 1z"/> <path d="M2460 2320 c-63 -63 -48 -80 65 -77 86 3 92 5 30 12 -41 4 -75 16 -75 27 0 33 63 46 103 21 41 -26 50 -4 13 33 -36 36 -91 29 -136 -16z"/> <path d="M4260 1673 c0 -34 57 -149 81 -164 28 -17 23 43 -10 122 -29 68 -71 94 -71 42z"/> <path d="M4505 1549 c-39 -39 -65 -76 -58 -82 18 -19 153 91 153 124 0 43 -17 36 -95 -42z"/> <path d="M3604 1396 c-13 -13 -24 -40 -24 -60 0 -55 151 -52 166 4 17 65 -91 107 -142 56z"/> <path d="M3855 1398 c-65 -38 -44 -98 35 -98 39 0 70 9 70 20 0 11 -18 20 -40 20 -22 0 -40 9 -40 20 0 27 47 25 76 -4 13 -13 30 -16 39 -8 40 40 -82 84 -140 50z"/> <path d="M4084 1396 c-53 -53 -14 -96 85 -96 54 0 82 53 49 93 -28 33 -102 35 -134 3z"/> <path d="M3333 1327 c-7 -8 -13 -89 -13 -180 0 -135 -6 -167 -30 -167 -63 0 -4 -62 145 -152 l86 -52 404 7 c223 4 420 16 439 27 22 14 -120 19 -435 16 l-469 -3 0 178 c0 106 -8 179 -20 179 -11 0 -20 -29 -20 -64 0 -88 -40 -46 -54 57 l-10 77 507 -5 c525 -6 608 4 528 65 -50 39 -83 39 -51 0 22 -27 -29 -30 -440 -30 -411 0 -462 3 -440 30 26 32 -96 48 -127 17z"/> <path d="M4420 1076 c0 -91 9 -179 20 -196 13 -21 19 28 20 154 0 101 -9 189 -20 196 -13 8 -20 -48 -20 -154z"/> </g> </svg> 