 <svg  version="1.0" xmlns="http://www.w3.org/2000/svg"  width="300.000000pt" height="300.000000pt" viewBox="0 0 300.000000 300.000000"  preserveAspectRatio="xMidYMid meet">  <g transform="translate(0.000000,300.000000) scale(0.050000,-0.050000)" fill="#ffffff" stroke="none"> <path d="M2444 4756 c-32 -32 -30 -49 5 -63 42 -16 79 36 45 64 -20 16 -33 16 -50 -1z"/> <path d="M1708 3702 c-46 -21 -97 -59 -115 -84 -55 -78 -37 -90 32 -23 78 75 153 106 251 102 l74 -2 -80 -14 c-99 -17 -185 -61 -247 -128 -42 -44 -52 -47 -77 -22 -35 35 -149 38 -182 5 -29 -29 -32 -96 -4 -96 11 0 20 13 20 29 0 129 148 51 179 -94 37 -174 143 -297 220 -256 48 26 96 9 112 -41 17 -55 -7 -114 -53 -129 -27 -8 -37 -23 -29 -44 7 -18 22 -73 33 -123 11 -51 43 -131 70 -178 l51 -86 -47 -37 c-25 -21 -39 -44 -31 -53 9 -8 26 -5 39 8 30 30 109 31 127 2 29 -47 220 -118 317 -118 555 -1 664 704 140 907 -108 42 -121 53 -189 180 -161 298 -376 402 -611 295z"/> <path d="M4366 3629 c-239 -119 -321 -276 -234 -447 31 -61 60 -118 64 -126 4 -8 -41 -17 -100 -20 -156 -9 -153 -60 44 -686 112 -359 128 -433 96 -453 -43 -27 -50 -20 -63 58 -49 292 -276 506 -548 517 -110 5 -133 13 -186 66 -154 154 -421 102 -605 -117 -97 -115 -81 -238 22 -183 62 33 64 30 60 -83 -2 -58 3 -125 11 -150 34 -98 -184 -12 -294 117 -72 83 -93 95 -93 49 0 -42 157 -163 284 -219 140 -62 140 -64 82 -292 -26 -104 -54 -269 -60 -365 l-12 -174 -52 11 c-29 6 -131 38 -228 71 -221 77 -247 64 -39 -19 l155 -63 -122 0 c-67 -1 -206 -7 -310 -14 l-188 -14 97 108 c108 120 195 280 266 488 70 205 55 227 -20 31 -312 -808 -628 -784 -899 70 -127 401 -134 379 146 460 105 30 192 56 194 58 2 2 -10 51 -27 109 -30 104 -23 160 14 102 15 -24 18 -23 19 7 0 19 -16 41 -35 48 -19 7 -60 34 -92 59 -31 26 -79 47 -106 47 -27 0 -91 24 -141 53 -86 51 -93 52 -117 19 -32 -43 -47 -19 -89 133 -22 82 -21 101 5 130 16 19 58 96 93 170 63 134 141 185 168 110 5 -14 17 -17 26 -8 10 9 -1 32 -26 52 -33 26 -38 41 -21 58 17 17 17 23 -2 23 -46 0 -124 -99 -185 -235 -33 -74 -77 -148 -99 -165 -38 -30 -38 -32 9 -165 36 -105 41 -135 19 -135 -15 0 -27 -8 -27 -17 0 -10 -23 -13 -50 -8 -73 14 -64 -38 18 -111 65 -57 184 -106 327 -134 36 -7 74 -28 86 -47 18 -29 20 -28 15 7 -5 31 -44 52 -175 95 -93 30 -188 73 -210 96 l-41 43 70 -42 c138 -82 297 -40 185 49 -94 75 -80 99 22 40 47 -28 110 -51 140 -51 74 0 124 -58 153 -178 30 -126 48 -108 -189 -191 -239 -84 -223 -67 -192 -206 75 -342 229 -717 354 -864 l70 -81 -706 -2 c-431 -2 -676 -9 -627 -19 233 -48 4960 -9 5078 43 26 11 -170 14 -518 8 -479 -8 -544 -6 -450 16 415 94 442 421 128 1509 -108 375 -116 385 -318 385 l-149 0 -60 105 c-92 161 -41 287 166 413 183 110 201 57 43 -129 -60 -71 -110 -139 -110 -150 0 -39 58 -134 89 -146 24 -9 22 3 -9 62 -52 97 -57 82 80 233 123 137 137 167 96 208 -34 34 -55 31 -170 -27z m-1041 -1050 c44 -20 47 -32 46 -195 -1 -96 6 -199 15 -230 14 -50 11 -55 -20 -37 -28 16 -49 6 -102 -49 -252 -259 -408 -84 -264 297 80 213 181 279 325 214z m486 -186 c162 -76 329 -317 329 -476 0 -47 -51 -43 -323 25 -85 21 -176 38 -203 38 -75 0 -97 39 -71 130 19 72 11 230 -16 300 -19 50 165 38 284 -17z m-385 -335 c55 -28 113 -98 114 -137 0 -20 -8 -17 -28 10 -26 36 -28 34 -20 -21 8 -57 7 -58 -15 -15 -13 25 -31 45 -41 45 -9 0 -7 -19 5 -42 50 -94 -47 -69 -128 33 -83 104 -8 189 113 127z m-166 -107 c0 -25 -128 -151 -153 -151 -6 0 -6 20 0 45 11 44 10 44 -30 -5 l-40 -50 10 50 c11 48 10 48 -18 11 -28 -38 -29 -38 -29 3 0 31 17 45 69 54 37 7 89 30 114 51 49 39 77 36 77 -8z"/> <path d="M3062 2305 c-2 -68 29 -86 74 -41 19 19 24 14 24 -21 0 -60 87 -53 96 7 5 37 4 37 -16 5 -30 -47 -67 -45 -55 4 14 50 -34 68 -69 27 -23 -29 -27 -26 -39 26 l-12 58 -3 -65z"/> <path d="M3032 2103 c-11 -17 7 -103 22 -103 21 0 66 60 66 89 0 32 -70 44 -88 14z"/> <path d="M3816 2145 c-16 -19 -36 -51 -42 -70 -8 -23 -34 -35 -73 -35 -90 0 -74 -35 19 -43 70 -7 80 -3 80 33 0 23 14 62 32 87 39 55 27 77 -16 28z"/> <path d="M594 3579 c-19 -26 -34 -66 -34 -88 1 -34 8 -29 42 24 49 77 42 136 -8 64z"/> <path d="M380 3546 c0 -23 18 -63 40 -89 l39 -47 -22 70 c-28 89 -57 122 -57 66z"/> <path d="M5168 3502 c-40 -18 -128 -188 -128 -250 0 -27 -8 -27 -70 -1 -83 35 -73 51 -169 -257 -75 -242 -76 -206 16 -521 43 -145 98 -373 124 -508 26 -135 53 -245 61 -245 47 0 358 1091 358 1258 0 47 -16 68 -85 109 -47 28 -111 72 -143 98 l-58 48 35 104 c53 158 190 184 411 77 125 -61 98 -84 -100 -84 -167 0 -170 -1 -176 -50 -4 -43 -2 -45 16 -15 18 29 52 35 199 35 263 0 283 60 54 161 -108 47 -282 68 -345 41z"/> <path d="M403 3262 c-22 -14 -23 -31 -4 -89 18 -54 18 -99 0 -190 -44 -224 24 -420 205 -588 l146 -136 -78 -66 -78 -66 76 -118 c362 -568 712 -893 871 -808 61 32 45 58 -20 33 -142 -53 -469 253 -778 731 -105 162 -105 165 86 293 184 124 169 123 252 7 90 -126 199 -245 223 -245 20 0 -146 221 -249 333 l-59 63 -114 -65 -114 -64 -51 51 c-28 29 -91 89 -141 134 -121 108 -156 269 -60 268 27 -1 28 -4 7 -18 -34 -21 -14 -93 30 -110 22 -9 28 -4 20 16 -18 49 41 52 63 3 24 -52 124 -83 124 -38 0 58 -289 687 -316 687 -8 0 -26 -8 -41 -18z m297 -591 c11 -32 15 -52 8 -46 -17 17 -228 478 -226 493 2 16 192 -373 218 -447z m-254 184 c5 -52 1 -89 -8 -83 -10 5 -17 57 -16 114 1 119 11 107 24 -31z"/> <path d="M1452 3108 c-9 -23 -27 -29 -64 -19 -38 9 -50 6 -43 -13 19 -58 155 -17 155 47 0 30 -35 18 -48 -15z"/> <path d="M750 2832 c-43 -102 -21 -143 26 -47 18 38 20 30 12 -45 -7 -64 2 -119 32 -190 l42 -100 -15 80 c-8 44 -15 142 -16 218 -1 161 -35 195 -81 84z"/> <path d="M1373 2841 c-63 -40 -48 -66 22 -39 25 9 45 31 45 47 0 37 4 37 -67 -8z"/> <path d="M1865 2235 c5 -14 34 -110 64 -214 30 -104 68 -212 84 -240 16 -28 24 -35 18 -14 -6 20 -29 110 -52 200 -58 233 -79 293 -103 293 -11 0 -16 -11 -11 -25z"/> </g> </svg> 