<svg width="171" height="242" viewBox="0 0 171 242" fill="none" xmlns="http://www.w3.org/2000/svg">
<path d="M58.3996 209.396C73.8181 189.866 72.7902 181.643 77.4158 181.643C79.129 182.842 82.5553 185.755 82.5553 187.81C82.5553 190.38 75.8739 198.603 61.9972 215.564C48.1206 232.524 46.5787 239.72 44.5229 240.747C42.4671 241.775 39.3834 240.747 38.3555 238.178C37.3276 235.608 42.9811 228.927 58.3996 209.396Z" fill="white" stroke="white"/>
<path d="M87.6948 135.388C85.639 128.706 96.9459 116.886 100.03 115.858C103.113 114.83 105.169 117.502 105.169 119.969C105.169 123.053 93.8623 131.276 95.9181 133.332C97.9739 135.388 109.795 127.678 115.448 124.081C121.102 120.483 126.755 113.802 125.727 111.746C124.699 109.69 125.727 107.634 127.269 106.093C128.811 104.551 132.923 104.037 134.978 110.718C137.034 117.399 123.157 128.706 111.337 135.388C99.5157 142.069 89.7506 142.069 87.6948 135.388Z" fill="white" stroke="white"/>
<path d="M167.871 29.5136C160.676 24.374 130.353 59.3227 119.046 73.1994C118.532 75.5978 118.018 80.6001 120.074 81.4225C122.643 82.4504 158.62 39.7924 161.19 41.3343C163.76 42.8761 121.616 94.2712 120.074 97.8689C118.532 101.467 121.616 101.981 126.241 101.467C130.867 100.953 149.883 73.1994 156.05 64.4621C162.218 55.7247 175.066 34.6531 167.871 29.5136Z" fill="white" stroke="white"/>
<path d="M84.6111 73.7136C83.0693 77.3112 83.0693 85.5344 88.7227 85.5344C97.1172 60.8647 114.831 11.7308 118.532 12.5532C123.157 13.5811 100.544 81.9366 102.085 83.9924C103.627 86.0482 106.711 85.5344 110.309 79.8808C113.906 74.2271 132.923 5.35806 120.588 1.24645C108.253 -2.86515 86.153 70.1159 84.6111 73.7136Z" fill="white" stroke="white"/>
<path d="M6.49042 207.855C1.86485 212.994 -0.190987 223.274 2.89275 223.787C5.97649 224.301 29.1043 193.259 37.3275 182.157C47.6065 168.281 58.9135 147.209 60.4553 136.93C61.9972 126.651 58.9135 114.316 58.9135 105.065C58.9135 95.8133 68.6785 94.7856 80.4994 95.2995C92.3203 95.8135 99.0017 100.439 99.0017 101.981C99.0017 103.523 89.2366 105.579 84.0971 106.606C78.9576 107.634 73.3041 110.718 74.332 113.288C75.3599 115.858 86.1529 114.316 93.3482 113.288C100.544 112.26 106.711 104.551 106.711 100.439C106.711 96.3274 102.599 93.7578 93.3482 90.1601C84.0971 86.5625 67.6506 86.0485 58.9135 89.1322C50.1763 92.2159 49.1484 103.009 51.7181 114.316C54.2879 125.623 50.6902 143.097 45.0368 156.974C39.3833 170.85 11.116 202.715 6.49042 207.855Z" fill="white" stroke="white"/>
<path d="M102.599 152.348C95.918 148.236 102.085 137.443 106.197 136.929C107.568 137.272 110.411 138.677 110.823 141.555C111.337 145.153 105.169 144.125 107.739 146.181C110.309 148.236 125.213 138.985 130.867 133.846C136.52 128.706 144.229 119.455 139.604 119.455C134.978 119.455 136.006 115.344 137.034 113.288C138.062 111.232 144.743 109.176 147.313 115.344C149.883 121.511 143.715 132.304 133.436 141.555C123.157 150.806 109.281 156.46 102.599 152.348Z" fill="white" stroke="white"/>
</svg>
