<svg width="166" height="236" viewBox="0 0 166 236" fill="none" xmlns="http://www.w3.org/2000/svg">
<path d="M110 204C95 185 96 177 91.5 177C89.8333 178.167 86.5 181 86.5 183C86.5 185.5 93 193.5 106.5 210C120 226.5 121.5 233.5 123.5 234.5C125.5 235.5 128.5 234.5 129.5 232C130.5 229.5 125 223 110 204Z" fill="white" stroke="white"/>
<path d="M81.5 132C83.5 125.5 72.5001 114 69.5 113C66.5 112 64.5 114.6 64.5 117C64.5 120 75.5 128 73.5 130C71.5 132 60 124.5 54.5 121C49 117.5 43.5 111 44.5 109C45.5 107 44.5 105 43 103.5C41.5 102 37.5 101.5 35.5 108C33.5 114.5 47 125.5 58.5 132C70 138.5 79.5 138.5 81.5 132Z" fill="white" stroke="white"/>
<path d="M3.49999 29.0002C10.5 24.0002 40 58.0002 51 71.5002C51.5 73.8334 52 78.7 50 79.5C47.5 80.5 12.5 39 10 40.5C7.5 42 48.5 92 50 95.5C51.5 99 48.5 99.5 44 99C39.5 98.5 21 71.5002 15 63C8.99999 54.4998 -3.50001 34.0002 3.49999 29.0002Z" fill="white" stroke="white"/>
<path d="M84.5 72.0002C86 75.5002 86 83.5002 80.5 83.5002C72.3333 59.5001 55.1 11.7 51.5 12.5C47 13.5 69 80 67.5 82C66 84 62.9999 83.5002 59.4999 78C55.9999 72.4998 37.4999 5.50021 49.4999 1.50021C61.4999 -2.49979 83 68.5002 84.5 72.0002Z" fill="white" stroke="white"/>
<path d="M160.5 202.5C165 207.5 167 217.5 164 218C161 218.5 138.5 188.3 130.5 177.5C120.5 164 109.5 143.5 108 133.5C106.5 123.5 109.5 111.5 109.5 102.5C109.5 93.4999 100 92.5 88.5 93C77 93.5 70.5 98 70.5 99.5C70.5 101 80 103 85 104C90 105 95.5 108 94.5 110.5C93.5 113 83 111.5 76 110.5C69 109.5 63 102 63 98C63 94 67 91.5001 76 88.0001C85 84.5001 101 84.0001 109.5 87.0001C118 90.0001 119 100.5 116.5 111.5C114 122.5 117.5 139.5 123 153C128.5 166.5 156 197.5 160.5 202.5Z" fill="white" stroke="white"/>
<path d="M67 148.5C73.5 144.5 67.5 134 63.5 133.5C62.1667 133.833 59.4 135.2 59 138C58.5 141.5 64.5 140.5 62 142.5C59.5 144.5 45 135.5 39.5 130.5C34 125.5 26.5 116.5 31 116.5C35.5 116.5 34.5 112.5 33.5 110.5C32.5 108.5 26 106.5 23.5 112.5C21 118.5 27 129 37 138C47 147 60.5 152.5 67 148.5Z" fill="white" stroke="white"/>
</svg>
