 <svg  version="1.0" xmlns="http://www.w3.org/2000/svg"  width="300.000000pt" height="300.000000pt" viewBox="0 0 300.000000 300.000000"  preserveAspectRatio="xMidYMid meet">  <g transform="translate(0.000000,300.000000) scale(0.050000,-0.050000)" fill="#ffffff" stroke="none"> <path d="M1240 5764 c0 -28 134 -40 600 -53 341 -10 1256 -62 1815 -103 l185 -14 2 -102 c4 -241 33 -311 35 -87 3 251 41 223 -337 254 -870 72 -2300 137 -2300 105z"/> <path d="M1192 5683 c-40 -62 -15 -2243 25 -2243 12 0 9 1850 -2 2150 -3 77 -11 110 -23 93z"/> <path d="M1370 5663 c22 -9 238 -23 480 -30 508 -15 1441 -69 1814 -106 l114 -11 7 -113 7 -113 4 124 4 124 -65 11 c-346 56 -2465 159 -2365 114z"/> <path d="M1252 5450 c-35 -354 12 -2000 55 -1934 9 15 10 69 2 120 -8 52 -20 522 -27 1044 -10 733 -17 909 -30 770z"/> <path d="M3420 5395 c0 -41 78 -155 106 -155 74 0 93 81 34 140 -44 44 -140 54 -140 15z"/> <path d="M1764 5287 c-272 -135 -231 -451 67 -510 66 -13 159 -45 207 -71 213 -112 502 29 502 246 0 109 -45 135 -213 122 l-146 -11 -73 99 c-112 154 -212 190 -344 125z m291 -140 l104 -112 143 10 c217 15 265 -58 144 -220 -98 -132 -251 -162 -382 -75 -41 27 -120 58 -174 68 -181 35 -230 85 -230 233 0 219 229 275 395 96z"/> <path d="M1780 5160 c-41 -41 -55 -140 -20 -140 11 0 20 17 20 38 0 21 28 62 62 90 54 46 56 52 20 52 -23 0 -60 -18 -82 -40z"/> <path d="M4015 5118 c-30 -23 -55 -54 -55 -70 0 -37 -7 -36 -85 12 -178 109 -391 -37 -308 -212 18 -38 46 -74 63 -81 47 -18 35 -67 -16 -67 -82 0 -115 -56 -64 -107 23 -23 25 -42 10 -83 -70 -185 36 -406 253 -523 80 -43 86 -78 17 -95 -60 -15 -67 -82 -19 -174 30 -58 28 -68 -38 -224 -137 -323 -233 -705 -233 -930 0 -154 14 -124 40 87 31 252 124 595 230 846 97 231 101 246 68 238 -31 -7 -67 54 -52 91 15 39 122 70 300 87 88 8 127 19 110 30 -14 10 -82 12 -151 5 -236 -24 -641 344 -478 436 41 23 43 56 3 56 -69 0 3 156 89 192 64 27 69 77 5 54 -22 -8 -27 -5 -14 8 11 11 62 16 114 11 l93 -9 -38 -63 c-80 -130 -40 -206 94 -181 57 11 67 7 67 -26 0 -51 -38 -86 -93 -86 -24 0 -50 -9 -57 -20 -7 -12 12 -20 46 -20 51 0 58 -7 60 -64 10 -358 654 -333 654 26 0 89 6 102 63 137 122 74 129 267 10 329 -45 24 -51 39 -46 110 10 132 -100 232 -238 216 -77 -10 -99 -6 -99 16 0 87 -208 120 -305 48z m240 -23 c46 -37 26 -53 -30 -24 -66 35 -114 36 -169 7 -31 -17 -37 -16 -26 1 35 57 162 66 225 16z m-500 -59 c-41 -11 -97 -47 -125 -79 -35 -42 -50 -50 -50 -28 0 63 92 131 174 129 l76 -2 -75 -20z"/> <path d="M4975 5009 c-84 -46 -66 -70 25 -34 44 17 80 39 80 48 0 25 -43 19 -105 -14z"/> <path d="M2963 4843 c-29 -32 -69 -80 -88 -108 -20 -31 -75 -65 -134 -85 -358 -119 -216 -434 155 -342 231 57 324 151 324 331 0 221 -138 331 -257 204z m158 -20 c38 -30 47 -60 53 -165 l6 -128 -30 79 c-44 113 -89 156 -153 146 -61 -9 -50 44 18 84 48 27 54 26 106 -16z"/> <path d="M5080 4822 c0 -9 20 -23 45 -29 72 -20 88 -14 46 18 -43 32 -91 38 -91 11z"/> <path d="M2080 4283 c0 -9 23 -37 50 -63 91 -86 46 -175 -77 -152 -123 23 -150 80 -65 136 114 73 93 107 -23 36 -126 -76 -41 -220 130 -220 138 0 178 101 83 209 -60 68 -98 89 -98 54z"/> <path d="M4300 3874 c0 -42 50 -142 237 -471 77 -136 169 -318 204 -406 70 -173 100 -201 48 -45 -68 200 -489 995 -489 922z"/> <path d="M2790 3843 c-121 -27 -71 -143 61 -143 75 0 115 39 106 104 -8 50 -60 63 -167 39z"/> <path d="M4207 3725 c-4 -72 29 -110 84 -97 63 16 489 -852 449 -915 -27 -44 19 -100 67 -82 18 7 90 -90 129 -174 3 -7 -26 -18 -66 -26 -39 -7 -131 -44 -204 -82 -73 -38 -148 -65 -167 -59 -54 17 -127 205 -124 316 3 82 -3 98 -42 113 -33 12 -63 63 -110 184 -66 168 -173 357 -203 357 -26 0 -12 -47 33 -111 86 -121 328 -695 303 -719 -5 -6 -107 0 -227 12 -409 41 -648 3 -570 -91 14 -17 39 -31 56 -31 26 0 26 5 2 34 -24 29 -23 32 10 20 20 -8 40 -14 45 -14 34 0 -59 -469 -235 -1185 -161 -657 -164 -614 45 -666 222 -54 196 -189 -30 -158 -198 27 -326 104 -152 92 83 -6 160 10 160 33 0 8 -70 10 -155 4 -177 -11 -205 -46 -84 -105 170 -83 575 -106 469 -27 -62 47 -14 112 83 112 106 0 113 13 159 297 41 259 48 253 48 -42 0 -299 -29 -275 333 -275 l269 0 -6 -75 -6 -75 -110 -6 c-134 -8 -280 12 -280 37 0 11 43 19 95 19 52 0 109 9 125 20 21 14 -10 19 -103 20 -192 0 -236 -81 -65 -121 113 -26 516 -22 443 4 -48 18 -55 31 -55 105 l0 85 123 23 c202 37 203 -3 -25 1067 -89 418 -138 687 -128 710 12 29 21 15 42 -63 38 -146 221 -240 282 -145 9 14 34 35 56 47 97 53 41 268 -70 268 -62 0 -47 34 20 47 73 15 74 31 11 131 -26 42 -165 311 -308 597 -285 568 -407 742 -416 590z m597 -1412 c-80 -89 -61 -224 36 -259 20 -7 15 -11 -14 -12 -145 -6 -210 209 -89 291 80 55 123 41 67 -20z m152 -18 c75 -91 23 -197 -95 -193 -48 1 -48 3 14 30 66 29 95 85 30 58 -86 -35 -119 -36 -76 -1 21 17 46 31 55 31 9 0 16 10 16 22 0 13 -21 19 -50 13 -62 -12 -65 12 -5 41 61 29 86 29 111 -1z"/> <path d="M2060 3515 c-404 -11 -678 -26 -690 -39 -14 -14 134 -16 460 -7 934 27 1453 47 1465 59 15 15 -367 11 -1235 -13z"/> <path d="M2270 3447 c-528 -16 -978 -36 -1000 -46 -73 -33 2126 24 2241 58 78 23 -42 22 -1241 -12z"/> <path d="M4346 3333 c9 -24 1 -33 -31 -33 -39 0 -40 -3 -13 -31 41 -40 102 -17 94 37 -3 22 -19 45 -34 50 -20 7 -24 -1 -16 -23z"/> <path d="M3931 2995 c-17 -39 18 -95 59 -95 42 0 70 48 47 81 -15 22 -23 23 -30 4 -15 -36 -43 -31 -52 10 -8 33 -10 33 -24 0z"/> <path d="M3700 2661 c0 -11 9 -21 20 -21 11 0 20 -10 20 -22 0 -12 -15 -17 -33 -10 -27 11 -28 8 -8 -16 33 -40 85 -17 77 35 -6 43 -76 74 -76 34z"/> <path d="M1507 2510 c-19 -51 13 -110 34 -60 9 22 17 51 18 65 2 35 -38 31 -52 -5z"/> <path d="M1364 2447 c7 -39 68 -81 88 -61 16 15 -48 94 -77 94 -10 0 -15 -15 -11 -33z"/> <path d="M1536 2232 c-289 -103 -622 -651 -443 -730 35 -15 73 -47 84 -70 19 -39 20 -39 22 -3 0 21 -31 68 -71 104 -85 78 -82 97 39 287 182 285 374 423 527 381 97 -27 153 -60 101 -61 -19 0 -35 -9 -35 -20 0 -25 65 -26 91 -3 10 10 57 24 104 31 118 17 119 -52 2 -178 -45 -50 -71 -90 -57 -90 88 0 246 294 185 344 -24 20 -34 18 -54 -10 -34 -46 -135 -44 -276 6 -132 46 -123 46 -219 12z"/> <path d="M1816 1947 c-17 -64 16 -214 78 -351 59 -133 35 -196 -63 -162 -23 7 -83 12 -135 9 -130 -7 -136 17 -87 387 l11 80 -31 -90 c-90 -261 -49 -465 85 -430 31 8 103 13 161 11 154 -4 172 46 87 232 -34 75 -69 187 -78 247 -11 77 -19 97 -28 67z"/> <path d="M1272 1547 c-64 -174 -136 -389 -159 -477 -30 -111 -60 -177 -98 -214 -30 -30 -55 -75 -55 -100 1 -53 70 -152 92 -131 8 8 -1 31 -19 51 -74 83 -15 190 80 146 46 -21 50 -20 37 12 -46 108 -27 197 159 722 51 146 91 275 87 287 -4 12 -60 -121 -124 -296z"/> <path d="M1231 1782 c-13 -21 45 -73 62 -56 17 17 -7 74 -31 74 -11 0 -25 -8 -31 -18z"/> <path d="M1380 1521 c0 -46 36 -73 62 -47 26 26 1 86 -34 86 -15 0 -28 -17 -28 -39z"/> <path d="M1850 1270 c33 -314 32 -348 -9 -384 -55 -47 -52 -70 6 -44 137 63 185 -114 65 -234 -59 -59 -81 -68 -169 -68 -55 0 -106 -9 -113 -20 -8 -13 57 -19 184 -17 108 1 176 6 151 11 -56 11 -56 22 -3 78 70 75 74 199 8 268 -48 50 -58 81 -71 224 -9 91 -25 189 -37 216 -18 44 -20 41 -12 -30z"/> <path d="M1922 1185 c20 -74 36 -155 37 -179 0 -24 9 -48 18 -54 16 -10 -21 247 -48 330 -32 101 -37 21 -7 -97z"/> <path d="M1651 1222 c-17 -28 10 -82 40 -82 40 0 55 38 28 71 -27 33 -52 37 -68 11z"/> <path d="M1240 679 c-31 -38 -100 -80 -180 -111 -172 -66 -189 -76 -197 -120 -4 -21 -18 -45 -30 -53 -13 -8 74 -15 193 -15 122 0 212 8 205 18 -6 10 10 23 35 29 115 29 308 228 263 270 -8 7 -19 0 -24 -17 -53 -157 -475 -338 -569 -244 -40 40 15 74 115 71 50 -2 89 5 89 17 0 11 37 54 83 94 46 41 79 85 75 98 -5 14 -29 -2 -58 -37z"/> </g> </svg> 