<svg width="609" height="60" viewBox="0 0 609 60" fill="none" xmlns="http://www.w3.org/2000/svg">
<g opacity="0.5">
<mask id="path-1-outside-1_466_1663" maskUnits="userSpaceOnUse" x="-1" y="-1" width="611" height="62" fill="black">
<rect fill="white" x="-1" y="-1" width="611" height="62"/>
<path d="M33.6193 17.5511C33.392 15.2595 32.4167 13.4792 30.6932 12.2102C28.9697 10.9413 26.6307 10.3068 23.6761 10.3068C21.6686 10.3068 19.9735 10.5909 18.5909 11.1591C17.2083 11.7083 16.1477 12.4754 15.4091 13.4602C14.6894 14.4451 14.3295 15.5625 14.3295 16.8125C14.2917 17.8542 14.5095 18.7633 14.983 19.5398C15.4754 20.3163 16.1477 20.9886 17 21.5568C17.8523 22.1061 18.8371 22.589 19.9545 23.0057C21.072 23.4034 22.2652 23.7443 23.5341 24.0284L28.7614 25.2784C31.2992 25.8466 33.6288 26.6042 35.75 27.5511C37.8712 28.4981 39.7083 29.6629 41.2614 31.0455C42.8144 32.428 44.017 34.0568 44.8693 35.9318C45.7405 37.8068 46.1856 39.9564 46.2045 42.3807C46.1856 45.9413 45.2765 49.0284 43.4773 51.642C41.697 54.2367 39.1212 56.2538 35.75 57.6932C32.3977 59.1136 28.3542 59.8239 23.6193 59.8239C18.9223 59.8239 14.8314 59.1042 11.3466 57.6648C7.88068 56.2254 5.17235 54.0947 3.22159 51.2727C1.28977 48.4318 0.276515 44.9186 0.181818 40.733H12.0852C12.2178 42.6837 12.7765 44.3125 13.7614 45.6193C14.7652 46.9072 16.1004 47.8826 17.767 48.5455C19.4527 49.1894 21.3561 49.5114 23.4773 49.5114C25.5606 49.5114 27.3693 49.2083 28.9034 48.6023C30.4564 47.9962 31.6591 47.1534 32.5114 46.0739C33.3636 44.9943 33.7898 43.7538 33.7898 42.3523C33.7898 41.0455 33.4015 39.947 32.625 39.0568C31.8674 38.1667 30.75 37.4091 29.2727 36.7841C27.8144 36.1591 26.0246 35.5909 23.9034 35.0795L17.5682 33.4886C12.6629 32.2955 8.78977 30.4299 5.94886 27.892C3.10795 25.3542 1.69697 21.9356 1.71591 17.6364C1.69697 14.1136 2.63447 11.036 4.52841 8.40341C6.44129 5.77083 9.06439 3.71591 12.3977 2.23864C15.7311 0.761362 19.5189 0.0227251 23.7614 0.0227251C28.0795 0.0227251 31.8485 0.761362 35.0682 2.23864C38.3068 3.71591 40.8258 5.77083 42.625 8.40341C44.4242 11.036 45.3523 14.0852 45.4091 17.5511H33.6193ZM54.4787 59V0.81818H77.4332C81.8461 0.81818 85.6056 1.66098 88.7116 3.34659C91.8177 5.01326 94.1851 7.33333 95.8139 10.3068C97.4616 13.2614 98.2855 16.6705 98.2855 20.5341C98.2855 24.3977 97.4522 27.8068 95.7855 30.7614C94.1188 33.7159 91.7041 36.017 88.5412 37.6648C85.3973 39.3125 81.5904 40.1364 77.1207 40.1364H62.4901V30.2784H75.1321C77.4995 30.2784 79.4503 29.8712 80.9844 29.0568C82.5374 28.2235 83.6927 27.0777 84.4503 25.6193C85.2268 24.142 85.6151 22.447 85.6151 20.5341C85.6151 18.6023 85.2268 16.9167 84.4503 15.4773C83.6927 14.0189 82.5374 12.892 80.9844 12.0966C79.4313 11.2822 77.4616 10.875 75.0753 10.875H66.7798V59H54.4787ZM159.741 29.9091C159.741 36.2538 158.539 41.6515 156.134 46.1023C153.747 50.553 150.49 53.9527 146.361 56.3011C142.251 58.6307 137.63 59.7955 132.497 59.7955C127.327 59.7955 122.687 58.6212 118.577 56.2727C114.467 53.9242 111.219 50.5246 108.832 46.0739C106.446 41.6231 105.253 36.2348 105.253 29.9091C105.253 23.5644 106.446 18.1667 108.832 13.7159C111.219 9.26515 114.467 5.875 118.577 3.54545C122.687 1.19697 127.327 0.0227251 132.497 0.0227251C137.63 0.0227251 142.251 1.19697 146.361 3.54545C150.49 5.875 153.747 9.26515 156.134 13.7159C158.539 18.1667 159.741 23.5644 159.741 29.9091ZM147.27 29.9091C147.27 25.7992 146.654 22.3333 145.423 19.5114C144.211 16.6894 142.497 14.5492 140.281 13.0909C138.065 11.6326 135.471 10.9034 132.497 10.9034C129.524 10.9034 126.929 11.6326 124.713 13.0909C122.497 14.5492 120.774 16.6894 119.543 19.5114C118.33 22.3333 117.724 25.7992 117.724 29.9091C117.724 34.0189 118.33 37.4848 119.543 40.3068C120.774 43.1288 122.497 45.2689 124.713 46.7273C126.929 48.1856 129.524 48.9148 132.497 48.9148C135.471 48.9148 138.065 48.1856 140.281 46.7273C142.497 45.2689 144.211 43.1288 145.423 40.3068C146.654 37.4848 147.27 34.0189 147.27 29.9091ZM181.155 0.81818V59H168.854V0.81818H181.155ZM191.276 59V0.81818H203.577V48.858H228.52V59H191.276ZM236.666 59V0.81818H275.871V10.9602H248.967V24.8239H273.854V34.9659H248.967V48.858H275.984V59H236.666ZM285.651 59V0.81818H308.605C312.999 0.81818 316.749 1.60417 319.855 3.17614C322.98 4.72917 325.357 6.93561 326.986 9.79545C328.634 12.6364 329.457 15.9792 329.457 19.8239C329.457 23.6875 328.624 27.0114 326.957 29.7955C325.291 32.5606 322.876 34.6818 319.713 36.1591C316.569 37.6364 312.762 38.375 308.293 38.375H292.923V28.4886H306.304C308.652 28.4886 310.603 28.1667 312.156 27.5227C313.709 26.8788 314.865 25.9129 315.622 24.625C316.399 23.3371 316.787 21.7367 316.787 19.8239C316.787 17.892 316.399 16.2633 315.622 14.9375C314.865 13.6117 313.7 12.608 312.128 11.9261C310.575 11.2254 308.615 10.875 306.247 10.875H297.952V59H285.651ZM317.071 32.5227L331.531 59H317.952L303.804 32.5227H317.071ZM366.695 59H353.513L373.598 0.81818H389.45L409.507 59H396.325L381.751 14.1136H381.297L366.695 59ZM365.871 36.1307H397.007V45.733H365.871V36.1307ZM416.51 59V0.81818H428.811V48.858H453.754V59H416.51ZM461.901 59V0.81818H501.105V10.9602H474.202V24.8239H499.088V34.9659H474.202V48.858H501.219V59H461.901ZM510.885 59V0.81818H533.839C538.233 0.81818 541.983 1.60417 545.089 3.17614C548.214 4.72917 550.591 6.93561 552.22 9.79545C553.868 12.6364 554.692 15.9792 554.692 19.8239C554.692 23.6875 553.858 27.0114 552.192 29.7955C550.525 32.5606 548.11 34.6818 544.947 36.1591C541.804 37.6364 537.997 38.375 533.527 38.375H518.158V28.4886H531.538C533.887 28.4886 535.838 28.1667 537.391 27.5227C538.944 26.8788 540.099 25.9129 540.857 24.625C541.633 23.3371 542.021 21.7367 542.021 19.8239C542.021 17.892 541.633 16.2633 540.857 14.9375C540.099 13.6117 538.934 12.608 537.362 11.9261C535.809 11.2254 533.849 10.875 531.482 10.875H523.186V59H510.885ZM542.305 32.5227L556.766 59H543.186L529.038 32.5227H542.305ZM561.169 10.9602V0.81818H608.953V10.9602H591.141V59H578.982V10.9602H561.169Z"/>
</mask>
<path d="M33.6193 17.5511C33.392 15.2595 32.4167 13.4792 30.6932 12.2102C28.9697 10.9413 26.6307 10.3068 23.6761 10.3068C21.6686 10.3068 19.9735 10.5909 18.5909 11.1591C17.2083 11.7083 16.1477 12.4754 15.4091 13.4602C14.6894 14.4451 14.3295 15.5625 14.3295 16.8125C14.2917 17.8542 14.5095 18.7633 14.983 19.5398C15.4754 20.3163 16.1477 20.9886 17 21.5568C17.8523 22.1061 18.8371 22.589 19.9545 23.0057C21.072 23.4034 22.2652 23.7443 23.5341 24.0284L28.7614 25.2784C31.2992 25.8466 33.6288 26.6042 35.75 27.5511C37.8712 28.4981 39.7083 29.6629 41.2614 31.0455C42.8144 32.428 44.017 34.0568 44.8693 35.9318C45.7405 37.8068 46.1856 39.9564 46.2045 42.3807C46.1856 45.9413 45.2765 49.0284 43.4773 51.642C41.697 54.2367 39.1212 56.2538 35.75 57.6932C32.3977 59.1136 28.3542 59.8239 23.6193 59.8239C18.9223 59.8239 14.8314 59.1042 11.3466 57.6648C7.88068 56.2254 5.17235 54.0947 3.22159 51.2727C1.28977 48.4318 0.276515 44.9186 0.181818 40.733H12.0852C12.2178 42.6837 12.7765 44.3125 13.7614 45.6193C14.7652 46.9072 16.1004 47.8826 17.767 48.5455C19.4527 49.1894 21.3561 49.5114 23.4773 49.5114C25.5606 49.5114 27.3693 49.2083 28.9034 48.6023C30.4564 47.9962 31.6591 47.1534 32.5114 46.0739C33.3636 44.9943 33.7898 43.7538 33.7898 42.3523C33.7898 41.0455 33.4015 39.947 32.625 39.0568C31.8674 38.1667 30.75 37.4091 29.2727 36.7841C27.8144 36.1591 26.0246 35.5909 23.9034 35.0795L17.5682 33.4886C12.6629 32.2955 8.78977 30.4299 5.94886 27.892C3.10795 25.3542 1.69697 21.9356 1.71591 17.6364C1.69697 14.1136 2.63447 11.036 4.52841 8.40341C6.44129 5.77083 9.06439 3.71591 12.3977 2.23864C15.7311 0.761362 19.5189 0.0227251 23.7614 0.0227251C28.0795 0.0227251 31.8485 0.761362 35.0682 2.23864C38.3068 3.71591 40.8258 5.77083 42.625 8.40341C44.4242 11.036 45.3523 14.0852 45.4091 17.5511H33.6193ZM54.4787 59V0.81818H77.4332C81.8461 0.81818 85.6056 1.66098 88.7116 3.34659C91.8177 5.01326 94.1851 7.33333 95.8139 10.3068C97.4616 13.2614 98.2855 16.6705 98.2855 20.5341C98.2855 24.3977 97.4522 27.8068 95.7855 30.7614C94.1188 33.7159 91.7041 36.017 88.5412 37.6648C85.3973 39.3125 81.5904 40.1364 77.1207 40.1364H62.4901V30.2784H75.1321C77.4995 30.2784 79.4503 29.8712 80.9844 29.0568C82.5374 28.2235 83.6927 27.0777 84.4503 25.6193C85.2268 24.142 85.6151 22.447 85.6151 20.5341C85.6151 18.6023 85.2268 16.9167 84.4503 15.4773C83.6927 14.0189 82.5374 12.892 80.9844 12.0966C79.4313 11.2822 77.4616 10.875 75.0753 10.875H66.7798V59H54.4787ZM159.741 29.9091C159.741 36.2538 158.539 41.6515 156.134 46.1023C153.747 50.553 150.49 53.9527 146.361 56.3011C142.251 58.6307 137.63 59.7955 132.497 59.7955C127.327 59.7955 122.687 58.6212 118.577 56.2727C114.467 53.9242 111.219 50.5246 108.832 46.0739C106.446 41.6231 105.253 36.2348 105.253 29.9091C105.253 23.5644 106.446 18.1667 108.832 13.7159C111.219 9.26515 114.467 5.875 118.577 3.54545C122.687 1.19697 127.327 0.0227251 132.497 0.0227251C137.63 0.0227251 142.251 1.19697 146.361 3.54545C150.49 5.875 153.747 9.26515 156.134 13.7159C158.539 18.1667 159.741 23.5644 159.741 29.9091ZM147.27 29.9091C147.27 25.7992 146.654 22.3333 145.423 19.5114C144.211 16.6894 142.497 14.5492 140.281 13.0909C138.065 11.6326 135.471 10.9034 132.497 10.9034C129.524 10.9034 126.929 11.6326 124.713 13.0909C122.497 14.5492 120.774 16.6894 119.543 19.5114C118.33 22.3333 117.724 25.7992 117.724 29.9091C117.724 34.0189 118.33 37.4848 119.543 40.3068C120.774 43.1288 122.497 45.2689 124.713 46.7273C126.929 48.1856 129.524 48.9148 132.497 48.9148C135.471 48.9148 138.065 48.1856 140.281 46.7273C142.497 45.2689 144.211 43.1288 145.423 40.3068C146.654 37.4848 147.27 34.0189 147.27 29.9091ZM181.155 0.81818V59H168.854V0.81818H181.155ZM191.276 59V0.81818H203.577V48.858H228.52V59H191.276ZM236.666 59V0.81818H275.871V10.9602H248.967V24.8239H273.854V34.9659H248.967V48.858H275.984V59H236.666ZM285.651 59V0.81818H308.605C312.999 0.81818 316.749 1.60417 319.855 3.17614C322.98 4.72917 325.357 6.93561 326.986 9.79545C328.634 12.6364 329.457 15.9792 329.457 19.8239C329.457 23.6875 328.624 27.0114 326.957 29.7955C325.291 32.5606 322.876 34.6818 319.713 36.1591C316.569 37.6364 312.762 38.375 308.293 38.375H292.923V28.4886H306.304C308.652 28.4886 310.603 28.1667 312.156 27.5227C313.709 26.8788 314.865 25.9129 315.622 24.625C316.399 23.3371 316.787 21.7367 316.787 19.8239C316.787 17.892 316.399 16.2633 315.622 14.9375C314.865 13.6117 313.7 12.608 312.128 11.9261C310.575 11.2254 308.615 10.875 306.247 10.875H297.952V59H285.651ZM317.071 32.5227L331.531 59H317.952L303.804 32.5227H317.071ZM366.695 59H353.513L373.598 0.81818H389.45L409.507 59H396.325L381.751 14.1136H381.297L366.695 59ZM365.871 36.1307H397.007V45.733H365.871V36.1307ZM416.51 59V0.81818H428.811V48.858H453.754V59H416.51ZM461.901 59V0.81818H501.105V10.9602H474.202V24.8239H499.088V34.9659H474.202V48.858H501.219V59H461.901ZM510.885 59V0.81818H533.839C538.233 0.81818 541.983 1.60417 545.089 3.17614C548.214 4.72917 550.591 6.93561 552.22 9.79545C553.868 12.6364 554.692 15.9792 554.692 19.8239C554.692 23.6875 553.858 27.0114 552.192 29.7955C550.525 32.5606 548.11 34.6818 544.947 36.1591C541.804 37.6364 537.997 38.375 533.527 38.375H518.158V28.4886H531.538C533.887 28.4886 535.838 28.1667 537.391 27.5227C538.944 26.8788 540.099 25.9129 540.857 24.625C541.633 23.3371 542.021 21.7367 542.021 19.8239C542.021 17.892 541.633 16.2633 540.857 14.9375C540.099 13.6117 538.934 12.608 537.362 11.9261C535.809 11.2254 533.849 10.875 531.482 10.875H523.186V59H510.885ZM542.305 32.5227L556.766 59H543.186L529.038 32.5227H542.305ZM561.169 10.9602V0.81818H608.953V10.9602H591.141V59H578.982V10.9602H561.169Z" fill="#010C0F"/>
<path d="M33.6193 17.5511L32.6242 17.6498L32.7136 18.5511H33.6193V17.5511ZM18.5909 11.1591L18.9601 12.0885L18.971 12.084L18.5909 11.1591ZM15.4091 13.4602L14.609 12.8602L14.6017 12.8702L15.4091 13.4602ZM14.3295 16.8125L15.3289 16.8488L15.3295 16.8307V16.8125H14.3295ZM14.983 19.5398L14.1292 20.0604L14.1337 20.0679L14.1384 20.0753L14.983 19.5398ZM17 21.5568L16.4453 22.3889L16.4518 22.3932L16.4583 22.3974L17 21.5568ZM19.9545 23.0057L19.6052 23.9427L19.6122 23.9453L19.6192 23.9478L19.9545 23.0057ZM23.5341 24.0284L23.7667 23.0558L23.7596 23.0541L23.7526 23.0526L23.5341 24.0284ZM28.7614 25.2784L28.5288 26.251L28.5358 26.2527L28.5429 26.2542L28.7614 25.2784ZM35.75 27.5511L35.3424 28.4643L35.75 27.5511ZM41.2614 31.0455L41.9263 30.2985L41.2614 31.0455ZM44.8693 35.9318L43.9589 36.3456L43.9624 36.3532L44.8693 35.9318ZM46.2045 42.3807L47.2046 42.386L47.2045 42.3729L46.2045 42.3807ZM43.4773 51.642L42.6536 51.075L42.6527 51.0763L43.4773 51.642ZM35.75 57.6932L36.1402 58.6139L36.1427 58.6129L35.75 57.6932ZM11.3466 57.6648L10.9631 58.5883L10.9648 58.589L11.3466 57.6648ZM3.22159 51.2727L2.39464 51.8351L2.399 51.8414L3.22159 51.2727ZM0.181818 40.733V39.733H-0.841062L-0.817926 40.7556L0.181818 40.733ZM12.0852 40.733L13.0829 40.6651L13.0196 39.733H12.0852V40.733ZM13.7614 45.6193L12.9628 46.2212L12.9676 46.2277L12.9726 46.2341L13.7614 45.6193ZM17.767 48.5455L17.3974 49.4747L17.4102 49.4796L17.767 48.5455ZM28.9034 48.6023L28.5399 47.6707L28.536 47.6722L28.9034 48.6023ZM32.5114 46.0739L33.2962 46.6935H33.2962L32.5114 46.0739ZM32.625 39.0568L31.8634 39.705L31.8714 39.7142L32.625 39.0568ZM29.2727 36.7841L28.8788 37.7032L28.8831 37.7051L29.2727 36.7841ZM23.9034 35.0795L23.6598 36.0495L23.6691 36.0517L23.9034 35.0795ZM17.5682 33.4886L17.8117 32.5187L17.8045 32.517L17.5682 33.4886ZM5.94886 27.892L5.28265 28.6378H5.28265L5.94886 27.892ZM1.71591 17.6364L2.71595 17.6408L2.71589 17.631L1.71591 17.6364ZM4.52841 8.40341L3.71941 7.81558L3.71665 7.81941L4.52841 8.40341ZM35.0682 2.23864L34.6512 3.14753L34.6532 3.14845L35.0682 2.23864ZM42.625 8.40341L41.7994 8.96767V8.96767L42.625 8.40341ZM45.4091 17.5511V18.5511H46.4256L46.409 17.5347L45.4091 17.5511ZM34.6144 17.4524C34.3616 14.903 33.2565 12.8557 31.2861 11.4049L30.1003 13.0155C31.5769 14.1027 32.4225 15.6159 32.6242 17.6498L34.6144 17.4524ZM31.2861 11.4049C29.3363 9.96938 26.7646 9.30682 23.6761 9.30682V11.3068C26.4968 11.3068 28.6031 11.9132 30.1003 13.0155L31.2861 11.4049ZM23.6761 9.30682C21.5803 9.30682 19.7476 9.60257 18.2108 10.2341L18.971 12.084C20.1993 11.5792 21.7568 11.3068 23.6761 11.3068V9.30682ZM18.2217 10.2297C16.7038 10.8328 15.4793 11.6999 14.6091 12.8602L16.2091 14.0602C16.8162 13.2508 17.7129 12.5839 18.9601 12.0884L18.2217 10.2297ZM14.6017 12.8702C13.7536 14.0308 13.3295 15.356 13.3295 16.8125H15.3295C15.3295 15.769 15.6252 14.8593 16.2165 14.0502L14.6017 12.8702ZM13.3302 16.7762C13.2863 17.9843 13.5393 19.093 14.1292 20.0604L15.8368 19.0192C15.4796 18.4335 15.2971 17.724 15.3289 16.8488L13.3302 16.7762ZM14.1384 20.0753C14.7138 20.9826 15.4901 21.7521 16.4453 22.3889L17.5547 20.7248C16.8054 20.2252 16.2369 19.65 15.8275 19.0042L14.1384 20.0753ZM16.4583 22.3974C17.3805 22.9917 18.4318 23.5051 19.6052 23.9427L20.3039 22.0687C19.2424 21.6729 18.324 21.2204 17.5417 20.7162L16.4583 22.3974ZM19.6192 23.9478C20.7783 24.3603 22.0108 24.7121 23.3156 25.0042L23.7526 23.0526C22.5195 22.7765 21.3656 22.4465 20.2899 22.0636L19.6192 23.9478ZM23.3015 25.001L28.5288 26.251L28.9939 24.3058L23.7667 23.0558L23.3015 25.001ZM28.5429 26.2542C31.0234 26.8096 33.2887 27.5475 35.3424 28.4643L36.1576 26.638C33.9689 25.6609 31.5751 24.8836 28.9798 24.3026L28.5429 26.2542ZM35.3424 28.4643C37.3806 29.3742 39.1285 30.4856 40.5964 31.7924L41.9263 30.2985C40.2881 28.8402 38.3618 27.622 36.1576 26.638L35.3424 28.4643ZM40.5964 31.7924C42.0464 33.0831 43.1649 34.5988 43.959 36.3456L45.7797 35.518C44.8692 33.5148 43.5824 31.7729 41.9263 30.2985L40.5964 31.7924ZM43.9624 36.3532C44.7639 38.0781 45.1866 40.0827 45.2046 42.3885L47.2045 42.3729C47.1847 39.8301 46.7172 37.5355 45.7762 35.5104L43.9624 36.3532ZM45.2046 42.3754C45.1866 45.7607 44.3254 48.6465 42.6536 51.075L44.301 52.2091C46.2276 49.4104 47.1847 46.1218 47.2045 42.386L45.2046 42.3754ZM42.6527 51.0763C40.9966 53.49 38.5832 55.3961 35.3573 56.7735L36.1427 58.6129C39.6592 57.1114 42.3974 54.9835 44.3018 52.2078L42.6527 51.0763ZM35.3599 56.7724C32.1621 58.1274 28.2586 58.8239 23.6193 58.8239V60.8239C28.4498 60.8239 32.6334 60.0998 36.1401 58.6139L35.3599 56.7724ZM23.6193 58.8239C19.0222 58.8239 15.0664 58.1193 11.7284 56.7405L10.9648 58.589C14.5965 60.0891 18.8225 60.8239 23.6193 60.8239V58.8239ZM11.7301 56.7412C8.42429 55.3683 5.87551 53.3533 4.04418 50.7041L2.399 51.8414C4.46919 54.8361 7.33707 57.0824 10.9631 58.5883L11.7301 56.7412ZM4.04852 50.7104C2.24677 48.0608 1.27286 44.7456 1.18156 40.7103L-0.817926 40.7556C-0.719827 45.0915 0.332774 48.8028 2.39466 51.835L4.04852 50.7104ZM0.181818 41.733H12.0852V39.733H0.181818V41.733ZM11.0875 40.8008C11.2307 42.9068 11.84 44.7314 12.9628 46.2212L14.56 45.0175C13.713 43.8936 13.2049 42.4606 13.0829 40.6651L11.0875 40.8008ZM12.9726 46.2341C14.0963 47.6757 15.5824 48.7527 17.3975 49.4747L18.1366 47.6162C16.6184 47.0124 15.434 46.1387 14.5501 45.0046L12.9726 46.2341ZM17.4102 49.4796C19.2278 50.174 21.2551 50.5114 23.4773 50.5114V48.5114C21.457 48.5114 19.6775 48.2048 18.1239 47.6113L17.4102 49.4796ZM23.4773 50.5114C25.6546 50.5114 27.5935 50.195 29.2708 49.5323L28.536 47.6722C27.1452 48.2217 25.4666 48.5114 23.4773 48.5114V50.5114ZM29.267 49.5339C30.9506 48.8768 32.3125 47.9395 33.2962 46.6935L31.7265 45.4542C31.0056 46.3673 29.9623 47.1156 28.5399 47.6707L29.267 49.5339ZM33.2962 46.6935C34.2907 45.4339 34.7898 43.974 34.7898 42.3523H32.7898C32.7898 43.5336 32.4366 44.5548 31.7265 45.4542L33.2962 46.6935ZM34.7898 42.3523C34.7898 40.8314 34.3312 39.4915 33.3786 38.3994L31.8714 39.7142C32.4718 40.4024 32.7898 41.2595 32.7898 42.3523H34.7898ZM33.3865 38.4087C32.4975 37.3641 31.2326 36.5274 29.6624 35.8631L28.8831 37.7051C30.2674 38.2907 31.2373 38.9692 31.8635 39.7049L33.3865 38.4087ZM29.6666 35.8649C28.1416 35.2114 26.2949 34.6274 24.1378 34.1074L23.6691 36.0517C25.7544 36.5544 27.4872 37.1068 28.8788 37.7032L29.6666 35.8649ZM24.147 34.1097L17.8117 32.5187L17.3246 34.4585L23.6599 36.0494L24.147 34.1097ZM17.8045 32.517C13.0089 31.3505 9.30008 29.5449 6.61508 27.1463L5.28265 28.6378C8.27946 31.315 12.3168 33.2404 17.3318 34.4603L17.8045 32.517ZM6.61508 27.1463C4.01644 24.8248 2.69804 21.6947 2.7159 17.6408L0.715919 17.632C0.695899 22.1765 2.19947 25.8835 5.28265 28.6378L6.61508 27.1463ZM2.71589 17.631C2.69799 14.3004 3.58048 11.4334 5.34017 8.98741L3.71665 7.81941C1.68846 10.6386 0.695951 13.9268 0.715924 17.6417L2.71589 17.631ZM5.3374 8.99124C7.13472 6.51769 9.61075 4.56758 12.8029 3.15287L11.9926 1.3244C8.51804 2.86424 5.74785 5.02398 3.71942 7.81558L5.3374 8.99124ZM12.8029 3.15287C15.9895 1.74065 19.6359 1.02272 23.7614 1.02272V-0.977276C19.402 -0.977276 15.4727 -0.217926 11.9926 1.3244L12.8029 3.15287ZM23.7614 1.02272C27.9665 1.02272 31.5877 1.74195 34.6512 3.14753L35.4852 1.32974C32.1093 -0.219225 28.1926 -0.977276 23.7614 -0.977276V1.02272ZM34.6532 3.14845C37.7458 4.55914 40.1146 6.50255 41.7994 8.96767L43.4506 7.83915C41.5369 5.03912 38.8678 2.87268 35.4832 1.32882L34.6532 3.14845ZM41.7994 8.96767C43.4785 11.4245 44.3553 14.2796 44.4092 17.5675L46.409 17.5347C46.3492 13.8909 45.3699 10.6474 43.4506 7.83915L41.7994 8.96767ZM45.4091 16.5511H33.6193V18.5511H45.4091V16.5511ZM54.4787 59H53.4787V60H54.4787V59ZM54.4787 0.81818V-0.18182H53.4787V0.81818H54.4787ZM88.7116 3.34659L88.2347 4.22552L88.2388 4.22775L88.7116 3.34659ZM95.8139 10.3068L94.9369 10.7872L94.9406 10.7939L95.8139 10.3068ZM88.5412 37.6648L88.0792 36.7779L88.077 36.779L88.5412 37.6648ZM62.4901 40.1364H61.4901V41.1364H62.4901V40.1364ZM62.4901 30.2784V29.2784H61.4901V30.2784H62.4901ZM80.9844 29.0568L81.4533 29.9401L81.4572 29.938L80.9844 29.0568ZM84.4503 25.6193L83.5651 25.154L83.5629 25.1583L84.4503 25.6193ZM84.4503 15.4773L83.5629 15.9383L83.5665 15.9452L83.5702 15.9521L84.4503 15.4773ZM80.9844 12.0966L80.5199 12.9823L80.5285 12.9866L80.9844 12.0966ZM66.7798 10.875V9.875H65.7798V10.875H66.7798ZM66.7798 59V60H67.7798V59H66.7798ZM55.4787 59V0.81818H53.4787V59H55.4787ZM54.4787 1.81818H77.4332V-0.18182H54.4787V1.81818ZM77.4332 1.81818C81.7203 1.81818 85.3071 2.63676 88.2347 4.22551L89.1886 2.46767C85.9041 0.685207 81.972 -0.18182 77.4332 -0.18182V1.81818ZM88.2388 4.22775C91.1813 5.80665 93.405 7.99065 94.9369 10.7872L96.691 9.8264C94.9653 6.67602 92.4541 4.21986 89.1845 2.46543L88.2388 4.22775ZM94.9406 10.7939C96.4941 13.5795 97.2855 16.8164 97.2855 20.5341H99.2855C99.2855 16.5245 98.4292 12.9433 96.6873 9.81975L94.9406 10.7939ZM97.2855 20.5341C97.2855 24.2499 96.4854 27.4853 94.9145 30.27L96.6565 31.2527C98.4189 28.1284 99.2855 24.5456 99.2855 20.5341H97.2855ZM94.9145 30.27C93.348 33.047 91.0796 35.2148 88.0792 36.7779L89.0032 38.5516C92.3286 36.8193 94.8897 34.3848 96.6565 31.2527L94.9145 30.27ZM88.077 36.779C85.1086 38.3347 81.4697 39.1364 77.1207 39.1364V41.1364C81.7111 41.1364 85.6859 40.2903 89.0054 38.5505L88.077 36.779ZM77.1207 39.1364H62.4901V41.1364H77.1207V39.1364ZM63.4901 40.1364V30.2784H61.4901V40.1364H63.4901ZM62.4901 31.2784H75.1321V29.2784H62.4901V31.2784ZM75.1321 31.2784C77.6065 31.2784 79.7319 30.8539 81.4533 29.9401L80.5155 28.1736C79.1686 28.8886 77.3926 29.2784 75.1321 29.2784V31.2784ZM81.4572 29.938C83.174 29.0167 84.4805 27.7304 85.3377 26.0803L83.5629 25.1583C82.9049 26.4249 81.9008 27.4302 80.5116 28.1757L81.4572 29.938ZM85.3354 26.0846C86.1978 24.4441 86.6151 22.5852 86.6151 20.5341H84.6151C84.6151 22.3087 84.2558 23.84 83.5651 25.154L85.3354 26.0846ZM86.6151 20.5341C86.6151 18.4666 86.1987 16.6121 85.3304 15.0025L83.5702 15.9521C84.2549 17.2212 84.6151 18.738 84.6151 20.5341H86.6151ZM85.3377 15.0163C84.4783 13.3619 83.1661 12.0905 81.4402 11.2065L80.5285 12.9866C81.9087 13.6936 82.9072 14.676 83.5629 15.9383L85.3377 15.0163ZM81.4488 11.211C79.7102 10.2993 77.5678 9.875 75.0753 9.875V11.875C77.3555 11.875 79.1525 12.2651 80.52 12.9822L81.4488 11.211ZM75.0753 9.875H66.7798V11.875H75.0753V9.875ZM65.7798 10.875V59H67.7798V10.875H65.7798ZM66.7798 58H54.4787V60H66.7798V58ZM156.134 46.1023L155.254 45.6268L155.252 45.6297L156.134 46.1023ZM146.361 56.3011L146.854 57.1711L146.855 57.1704L146.361 56.3011ZM118.577 56.2727L119.073 55.4045L118.577 56.2727ZM108.832 46.0739L107.951 46.5464L108.832 46.0739ZM108.832 13.7159L109.714 14.1884L108.832 13.7159ZM118.577 3.54546L119.07 4.41542L119.073 4.4137L118.577 3.54546ZM146.361 3.54546L145.865 4.41371L145.869 4.41639L146.361 3.54546ZM156.134 13.7159L155.252 14.1884L155.254 14.1913L156.134 13.7159ZM145.423 19.5114L144.504 19.906L144.507 19.9112L145.423 19.5114ZM140.281 13.0909L139.732 13.9262L140.281 13.0909ZM124.713 13.0909L125.263 13.9262L124.713 13.0909ZM119.543 19.5114L118.626 19.1115L118.624 19.1167L119.543 19.5114ZM119.543 40.3068L118.624 40.7015L118.626 40.7067L119.543 40.3068ZM124.713 46.7273L125.263 45.8919L124.713 46.7273ZM140.281 46.7273L139.732 45.8919L140.281 46.7273ZM145.423 40.3068L144.507 39.907L144.504 39.9122L145.423 40.3068ZM158.741 29.9091C158.741 36.1292 157.563 41.3547 155.254 45.6268L157.013 46.5777C159.515 41.9484 160.741 36.3784 160.741 29.9091H158.741ZM155.252 45.6297C152.949 49.9254 149.821 53.1825 145.866 55.4319L146.855 57.1704C151.158 54.7228 154.545 51.1806 157.015 46.5748L155.252 45.6297ZM145.868 55.4312C141.921 57.6682 137.472 58.7955 132.497 58.7955V60.7955C137.787 60.7955 142.581 59.5932 146.854 57.1711L145.868 55.4312ZM132.497 58.7955C127.484 58.7955 123.018 57.6588 119.073 55.4045L118.081 57.141C122.355 59.5836 127.169 60.7955 132.497 60.7955V58.7955ZM119.073 55.4045C115.137 53.1554 112.018 49.8982 109.714 45.6013L107.951 46.5464C110.42 51.151 113.797 54.6931 118.081 57.141L119.073 55.4045ZM109.714 45.6013C107.423 41.3281 106.253 36.1108 106.253 29.9091H104.253C104.253 36.3589 105.47 41.9181 107.951 46.5464L109.714 45.6013ZM106.253 29.9091C106.253 23.6878 107.423 18.4613 109.714 14.1884L107.951 13.2434C105.469 17.872 104.253 23.4409 104.253 29.9091H106.253ZM109.714 14.1884C112.017 9.89218 115.136 6.64532 119.07 4.41542L118.084 2.67549C113.798 5.10468 110.42 8.63812 107.951 13.2434L109.714 14.1884ZM119.073 4.4137C123.018 2.1594 127.484 1.02272 132.497 1.02272V-0.977276C127.169 -0.977276 122.355 0.234543 118.081 2.67721L119.073 4.4137ZM132.497 1.02272C137.471 1.02272 141.919 2.15876 145.865 4.4137L146.857 2.67721C142.583 0.235182 137.789 -0.977276 132.497 -0.977276V1.02272ZM145.869 4.41639C149.822 6.64662 152.949 9.89336 155.252 14.1884L157.015 13.2434C154.545 8.63694 151.157 5.10338 146.852 2.67452L145.869 4.41639ZM155.254 14.1913C157.563 18.4635 158.741 23.689 158.741 29.9091H160.741C160.741 23.4398 159.515 17.8698 157.013 13.2405L155.254 14.1913ZM148.27 29.9091C148.27 25.7053 147.641 22.0943 146.34 19.1115L144.507 19.9112C145.668 22.5724 146.27 25.8932 146.27 29.9091H148.27ZM146.342 19.1167C145.065 16.144 143.235 13.8377 140.831 12.2556L139.732 13.9262C141.759 15.2608 143.357 17.2348 144.504 19.906L146.342 19.1167ZM140.831 12.2556C138.433 10.6771 135.642 9.90341 132.497 9.90341V11.9034C135.3 11.9034 137.698 12.588 139.732 13.9262L140.831 12.2556ZM132.497 9.90341C129.353 9.90341 126.562 10.6771 124.163 12.2556L125.263 13.9262C127.296 12.588 129.695 11.9034 132.497 11.9034V9.90341ZM124.163 12.2556C121.761 13.8367 119.922 16.1411 118.626 19.1115L120.459 19.9112C121.625 17.2377 123.233 15.2618 125.263 13.9262L124.163 12.2556ZM118.624 19.1167C117.343 22.0979 116.724 25.7069 116.724 29.9091H118.724C118.724 25.8915 119.318 22.5688 120.461 19.906L118.624 19.1167ZM116.724 29.9091C116.724 34.1112 117.343 37.7203 118.624 40.7015L120.461 39.9122C119.318 37.2494 118.724 33.9266 118.724 29.9091H116.724ZM118.626 40.7067C119.922 43.6771 121.761 45.9815 124.163 47.5626L125.263 45.8919C123.233 44.5564 121.625 42.5805 120.459 39.907L118.626 40.7067ZM124.163 47.5626C126.562 49.1411 129.353 49.9148 132.497 49.9148V47.9148C129.695 47.9148 127.296 47.2302 125.263 45.8919L124.163 47.5626ZM132.497 49.9148C135.642 49.9148 138.433 49.1411 140.831 47.5626L139.732 45.8919C137.698 47.2302 135.3 47.9148 132.497 47.9148V49.9148ZM140.831 47.5626C143.235 45.9805 145.065 43.6742 146.342 40.7015L144.504 39.9122C143.357 42.5834 141.759 44.5574 139.732 45.8919L140.831 47.5626ZM146.34 40.7067C147.641 37.7239 148.27 34.1129 148.27 29.9091H146.27C146.27 33.925 145.668 37.2458 144.507 39.907L146.34 40.7067ZM181.155 0.81818H182.155V-0.18182H181.155V0.81818ZM181.155 59V60H182.155V59H181.155ZM168.854 59H167.854V60H168.854V59ZM168.854 0.81818V-0.18182H167.854V0.81818H168.854ZM180.155 0.81818V59H182.155V0.81818H180.155ZM181.155 58H168.854V60H181.155V58ZM169.854 59V0.81818H167.854V59H169.854ZM168.854 1.81818H181.155V-0.18182H168.854V1.81818ZM191.276 59H190.276V60H191.276V59ZM191.276 0.81818V-0.18182H190.276V0.81818H191.276ZM203.577 0.81818H204.577V-0.18182H203.577V0.81818ZM203.577 48.858H202.577V49.858H203.577V48.858ZM228.52 48.858H229.52V47.858H228.52V48.858ZM228.52 59V60H229.52V59H228.52ZM192.276 59V0.81818H190.276V59H192.276ZM191.276 1.81818H203.577V-0.18182H191.276V1.81818ZM202.577 0.81818V48.858H204.577V0.81818H202.577ZM203.577 49.858H228.52V47.858H203.577V49.858ZM227.52 48.858V59H229.52V48.858H227.52ZM228.52 58H191.276V60H228.52V58ZM236.666 59H235.666V60H236.666V59ZM236.666 0.81818V-0.18182H235.666V0.81818H236.666ZM275.871 0.81818H276.871V-0.18182H275.871V0.81818ZM275.871 10.9602V11.9602H276.871V10.9602H275.871ZM248.967 10.9602V9.96022H247.967V10.9602H248.967ZM248.967 24.8239H247.967V25.8239H248.967V24.8239ZM273.854 24.8239H274.854V23.8239H273.854V24.8239ZM273.854 34.9659V35.9659H274.854V34.9659H273.854ZM248.967 34.9659V33.9659H247.967V34.9659H248.967ZM248.967 48.858H247.967V49.858H248.967V48.858ZM275.984 48.858H276.984V47.858H275.984V48.858ZM275.984 59V60H276.984V59H275.984ZM237.666 59V0.81818H235.666V59H237.666ZM236.666 1.81818H275.871V-0.18182H236.666V1.81818ZM274.871 0.81818V10.9602H276.871V0.81818H274.871ZM275.871 9.96022H248.967V11.9602H275.871V9.96022ZM247.967 10.9602V24.8239H249.967V10.9602H247.967ZM248.967 25.8239H273.854V23.8239H248.967V25.8239ZM272.854 24.8239V34.9659H274.854V24.8239H272.854ZM273.854 33.9659H248.967V35.9659H273.854V33.9659ZM247.967 34.9659V48.858H249.967V34.9659H247.967ZM248.967 49.858H275.984V47.858H248.967V49.858ZM274.984 48.858V59H276.984V48.858H274.984ZM275.984 58H236.666V60H275.984V58ZM285.651 59H284.651V60H285.651V59ZM285.651 0.81818V-0.18182H284.651V0.81818H285.651ZM319.855 3.17614L319.404 4.0684L319.41 4.07165L319.855 3.17614ZM326.986 9.79546L326.117 10.2904L326.121 10.2972L326.986 9.79546ZM326.957 29.7955L327.814 30.3117L327.815 30.3091L326.957 29.7955ZM319.713 36.1591L319.29 35.253L319.288 35.254L319.713 36.1591ZM292.923 38.375H291.923V39.375H292.923V38.375ZM292.923 28.4886V27.4886H291.923V28.4886H292.923ZM312.156 27.5227L312.539 28.4465L312.156 27.5227ZM315.622 24.625L314.766 24.1086L314.76 24.118L315.622 24.625ZM315.622 14.9375L314.754 15.4337L314.759 15.4429L315.622 14.9375ZM312.128 11.9261L311.717 12.8376L311.723 12.8406L311.73 12.8436L312.128 11.9261ZM297.952 10.875V9.875H296.952V10.875H297.952ZM297.952 59V60H298.952V59H297.952ZM317.071 32.5227L317.949 32.0434L317.664 31.5227H317.071V32.5227ZM331.531 59V60H333.217L332.409 58.5207L331.531 59ZM317.952 59L317.07 59.4713L317.352 60H317.952V59ZM303.804 32.5227V31.5227H302.136L302.922 32.994L303.804 32.5227ZM286.651 59V0.81818H284.651V59H286.651ZM285.651 1.81818H308.605V-0.18182H285.651V1.81818ZM308.605 1.81818C312.882 1.81818 316.469 2.58337 319.404 4.06837L320.307 2.2839C317.029 0.624958 313.116 -0.18182 308.605 -0.18182V1.81818ZM319.41 4.07165C322.368 5.54185 324.592 7.61385 326.117 10.2904L327.855 9.30056C326.122 6.25736 323.592 3.91648 320.3 2.28062L319.41 4.07165ZM326.121 10.2972C327.666 12.9614 328.457 16.125 328.457 19.8239H330.457C330.457 15.8333 329.601 12.3113 327.851 9.29374L326.121 10.2972ZM328.457 19.8239C328.457 23.5413 327.657 26.6803 326.099 29.2818L327.815 30.3091C329.591 27.3425 330.457 23.8337 330.457 19.8239H328.457ZM326.101 29.2792C324.545 31.8604 322.288 33.8527 319.29 35.253L320.136 37.0651C323.464 35.511 326.036 33.2608 327.814 30.3117L326.101 29.2792ZM319.288 35.254C316.309 36.6535 312.656 37.375 308.293 37.375V39.375C312.869 39.375 316.829 38.6192 320.138 37.0642L319.288 35.254ZM308.293 37.375H292.923V39.375H308.293V37.375ZM293.923 38.375V28.4886H291.923V38.375H293.923ZM292.923 29.4886H306.304V27.4886H292.923V29.4886ZM306.304 29.4886C308.735 29.4886 310.827 29.1565 312.539 28.4465L311.773 26.599C310.38 27.1768 308.57 27.4886 306.304 27.4886V29.4886ZM312.539 28.4465C314.267 27.7303 315.603 26.6303 316.484 25.132L314.76 24.118C314.126 25.1954 313.152 26.0273 311.773 26.599L312.539 28.4465ZM316.479 25.1413C317.371 23.6605 317.787 21.8699 317.787 19.8239H315.787C315.787 21.6036 315.426 23.0137 314.766 24.1087L316.479 25.1413ZM317.787 19.8239C317.787 17.7595 317.372 15.9459 316.485 14.4321L314.759 15.4429C315.426 16.5806 315.787 18.0246 315.787 19.8239H317.787ZM316.49 14.4414C315.613 12.9054 314.27 11.7655 312.526 11.0087L311.73 12.8436C313.129 13.4504 314.116 14.3181 314.754 15.4336L316.49 14.4414ZM312.539 11.0146C310.817 10.2375 308.705 9.875 306.247 9.875V11.875C308.524 11.875 310.333 12.2133 311.717 12.8376L312.539 11.0146ZM306.247 9.875H297.952V11.875H306.247V9.875ZM296.952 10.875V59H298.952V10.875H296.952ZM297.952 58H285.651V60H297.952V58ZM316.193 33.002L330.654 59.4793L332.409 58.5207L317.949 32.0434L316.193 33.002ZM331.531 58H317.952V60H331.531V58ZM318.834 58.5287L304.686 32.0515L302.922 32.994L317.07 59.4713L318.834 58.5287ZM303.804 33.5227H317.071V31.5227H303.804V33.5227ZM366.695 59V60H367.421L367.646 59.3094L366.695 59ZM353.513 59L352.568 58.6737L352.11 60H353.513V59ZM373.598 0.81818V-0.18182H372.885L372.653 0.491861L373.598 0.81818ZM389.45 0.81818L390.396 0.492275L390.163 -0.18182H389.45V0.81818ZM409.507 59V60H410.91L410.453 58.6741L409.507 59ZM396.325 59L395.374 59.3088L395.599 60H396.325V59ZM381.751 14.1136L382.703 13.8048L382.478 13.1136H381.751V14.1136ZM381.297 14.1136V13.1136H380.571L380.346 13.8043L381.297 14.1136ZM365.871 36.1307V35.1307H364.871V36.1307H365.871ZM397.007 36.1307H398.007V35.1307H397.007V36.1307ZM397.007 45.733V46.733H398.007V45.733H397.007ZM365.871 45.733H364.871V46.733H365.871V45.733ZM366.695 58H353.513V60H366.695V58ZM354.458 59.3263L374.543 1.1445L372.653 0.491861L352.568 58.6737L354.458 59.3263ZM373.598 1.81818H389.45V-0.18182H373.598V1.81818ZM388.505 1.14408L408.562 59.3259L410.453 58.6741L390.396 0.492275L388.505 1.14408ZM409.507 58H396.325V60H409.507V58ZM397.276 58.6912L382.703 13.8048L380.8 14.4224L395.374 59.3088L397.276 58.6912ZM381.751 13.1136H381.297V15.1136H381.751V13.1136ZM380.346 13.8043L365.744 58.6906L367.646 59.3094L382.248 14.423L380.346 13.8043ZM365.871 37.1307H397.007V35.1307H365.871V37.1307ZM396.007 36.1307V45.733H398.007V36.1307H396.007ZM397.007 44.733H365.871V46.733H397.007V44.733ZM366.871 45.733V36.1307H364.871V45.733H366.871ZM416.51 59H415.51V60H416.51V59ZM416.51 0.81818V-0.18182H415.51V0.81818H416.51ZM428.811 0.81818H429.811V-0.18182H428.811V0.81818ZM428.811 48.858H427.811V49.858H428.811V48.858ZM453.754 48.858H454.754V47.858H453.754V48.858ZM453.754 59V60H454.754V59H453.754ZM417.51 59V0.81818H415.51V59H417.51ZM416.51 1.81818H428.811V-0.18182H416.51V1.81818ZM427.811 0.81818V48.858H429.811V0.81818H427.811ZM428.811 49.858H453.754V47.858H428.811V49.858ZM452.754 48.858V59H454.754V48.858H452.754ZM453.754 58H416.51V60H453.754V58ZM461.901 59H460.901V60H461.901V59ZM461.901 0.81818V-0.18182H460.901V0.81818H461.901ZM501.105 0.81818H502.105V-0.18182H501.105V0.81818ZM501.105 10.9602V11.9602H502.105V10.9602H501.105ZM474.202 10.9602V9.96022H473.202V10.9602H474.202ZM474.202 24.8239H473.202V25.8239H474.202V24.8239ZM499.088 24.8239H500.088V23.8239H499.088V24.8239ZM499.088 34.9659V35.9659H500.088V34.9659H499.088ZM474.202 34.9659V33.9659H473.202V34.9659H474.202ZM474.202 48.858H473.202V49.858H474.202V48.858ZM501.219 48.858H502.219V47.858H501.219V48.858ZM501.219 59V60H502.219V59H501.219ZM462.901 59V0.81818H460.901V59H462.901ZM461.901 1.81818H501.105V-0.18182H461.901V1.81818ZM500.105 0.81818V10.9602H502.105V0.81818H500.105ZM501.105 9.96022H474.202V11.9602H501.105V9.96022ZM473.202 10.9602V24.8239H475.202V10.9602H473.202ZM474.202 25.8239H499.088V23.8239H474.202V25.8239ZM498.088 24.8239V34.9659H500.088V24.8239H498.088ZM499.088 33.9659H474.202V35.9659H499.088V33.9659ZM473.202 34.9659V48.858H475.202V34.9659H473.202ZM474.202 49.858H501.219V47.858H474.202V49.858ZM500.219 48.858V59H502.219V48.858H500.219ZM501.219 58H461.901V60H501.219V58ZM510.885 59H509.885V60H510.885V59ZM510.885 0.81818V-0.18182H509.885V0.81818H510.885ZM545.089 3.17614L544.638 4.0684L544.644 4.07165L545.089 3.17614ZM552.22 9.79546L551.351 10.2904L551.355 10.2972L552.22 9.79546ZM552.192 29.7955L553.048 30.3117L553.05 30.3091L552.192 29.7955ZM544.947 36.1591L544.524 35.253L544.522 35.254L544.947 36.1591ZM518.158 38.375H517.158V39.375H518.158V38.375ZM518.158 28.4886V27.4886H517.158V28.4886H518.158ZM537.391 27.5227L537.774 28.4465L537.391 27.5227ZM540.857 24.625L540 24.1086L539.995 24.118L540.857 24.625ZM540.857 14.9375L539.988 15.4337L539.994 15.4429L540.857 14.9375ZM537.362 11.9261L536.951 12.8376L536.958 12.8406L536.964 12.8436L537.362 11.9261ZM523.186 10.875V9.875H522.186V10.875H523.186ZM523.186 59V60H524.186V59H523.186ZM542.305 32.5227L543.183 32.0434L542.899 31.5227H542.305V32.5227ZM556.766 59V60H558.451L557.643 58.5207L556.766 59ZM543.186 59L542.304 59.4713L542.587 60H543.186V59ZM529.038 32.5227V31.5227H527.37L528.156 32.994L529.038 32.5227ZM511.885 59V0.81818H509.885V59H511.885ZM510.885 1.81818H533.839V-0.18182H510.885V1.81818ZM533.839 1.81818C538.117 1.81818 541.704 2.58337 544.638 4.06837L545.541 2.2839C542.263 0.624958 538.35 -0.18182 533.839 -0.18182V1.81818ZM544.644 4.07165C547.603 5.54185 549.827 7.61385 551.351 10.2904L553.089 9.30056C551.356 6.25736 548.826 3.91648 545.535 2.28062L544.644 4.07165ZM551.355 10.2972C552.9 12.9614 553.692 16.125 553.692 19.8239H555.692C555.692 15.8333 554.835 12.3113 553.085 9.29374L551.355 10.2972ZM553.692 19.8239C553.692 23.5413 552.891 26.6803 551.334 29.2818L553.05 30.3091C554.826 27.3425 555.692 23.8337 555.692 19.8239H553.692ZM551.335 29.2792C549.78 31.8604 547.523 33.8527 544.524 35.253L545.371 37.0651C548.698 35.511 551.271 33.2608 553.048 30.3117L551.335 29.2792ZM544.522 35.254C541.544 36.6535 537.89 37.375 533.527 37.375V39.375C538.103 39.375 542.063 38.6192 545.373 37.0642L544.522 35.254ZM533.527 37.375H518.158V39.375H533.527V37.375ZM519.158 38.375V28.4886H517.158V38.375H519.158ZM518.158 29.4886H531.538V27.4886H518.158V29.4886ZM531.538 29.4886C533.97 29.4886 536.061 29.1565 537.774 28.4465L537.008 26.599C535.614 27.1768 533.804 27.4886 531.538 27.4886V29.4886ZM537.774 28.4465C539.501 27.7303 540.837 26.6303 541.718 25.132L539.995 24.118C539.361 25.1954 538.386 26.0273 537.008 26.599L537.774 28.4465ZM541.713 25.1413C542.606 23.6605 543.021 21.8699 543.021 19.8239H541.021C541.021 21.6036 540.66 23.0137 540 24.1087L541.713 25.1413ZM543.021 19.8239C543.021 17.7595 542.606 15.9459 541.719 14.4321L539.994 15.4429C540.66 16.5806 541.021 18.0246 541.021 19.8239H543.021ZM541.725 14.4414C540.847 12.9054 539.505 11.7655 537.76 11.0087L536.964 12.8436C538.364 13.4504 539.351 14.3181 539.988 15.4336L541.725 14.4414ZM537.773 11.0146C536.051 10.2375 533.939 9.875 531.482 9.875V11.875C533.759 11.875 535.567 12.2133 536.951 12.8376L537.773 11.0146ZM531.482 9.875H523.186V11.875H531.482V9.875ZM522.186 10.875V59H524.186V10.875H522.186ZM523.186 58H510.885V60H523.186V58ZM541.428 33.002L555.888 59.4793L557.643 58.5207L543.183 32.0434L541.428 33.002ZM556.766 58H543.186V60H556.766V58ZM544.068 58.5287L529.92 32.0515L528.156 32.994L542.304 59.4713L544.068 58.5287ZM529.038 33.5227H542.305V31.5227H529.038V33.5227ZM561.169 10.9602H560.169V11.9602H561.169V10.9602ZM561.169 0.81818V-0.18182H560.169V0.81818H561.169ZM608.953 0.81818H609.953V-0.18182H608.953V0.81818ZM608.953 10.9602V11.9602H609.953V10.9602H608.953ZM591.141 10.9602V9.96022H590.141V10.9602H591.141ZM591.141 59V60H592.141V59H591.141ZM578.982 59H577.982V60H578.982V59ZM578.982 10.9602H579.982V9.96022H578.982V10.9602ZM562.169 10.9602V0.81818H560.169V10.9602H562.169ZM561.169 1.81818H608.953V-0.18182H561.169V1.81818ZM607.953 0.81818V10.9602H609.953V0.81818H607.953ZM608.953 9.96022H591.141V11.9602H608.953V9.96022ZM590.141 10.9602V59H592.141V10.9602H590.141ZM591.141 58H578.982V60H591.141V58ZM579.982 59V10.9602H577.982V59H579.982ZM578.982 9.96022H561.169V11.9602H578.982V9.96022Z" fill="url(#paint0_linear_466_1663)" mask="url(#path-1-outside-1_466_1663)"/>
</g>
<defs>
<linearGradient id="paint0_linear_466_1663" x1="305" y1="45.5" x2="305" y2="-19" gradientUnits="userSpaceOnUse">
<stop stop-color="#000700"/>
<stop offset="1" stop-color="#35DC32"/>
</linearGradient>
</defs>
</svg>
