 <svg  version="1.0" xmlns="http://www.w3.org/2000/svg"  width="300.000000pt" height="300.000000pt" viewBox="0 0 300.000000 300.000000"  preserveAspectRatio="xMidYMid meet">  <g transform="translate(0.000000,300.000000) scale(0.050000,-0.050000)" fill="#ffffff" stroke="none"> <path d="M3143 5206 c-61 -61 -81 -106 -47 -106 31 0 128 117 120 143 -6 18 -29 7 -73 -37z"/> <path d="M2470 5104 c-44 -21 -93 -53 -109 -72 -20 -25 -2 -21 68 17 57 30 127 50 169 49 l72 -2 -75 -18 c-42 -10 -113 -36 -158 -59 l-82 -42 -52 49 c-127 118 -304 130 -499 33 -226 -113 -391 -320 -780 -982 -63 -106 -159 -250 -213 -320 -110 -140 -113 -160 -34 -245 97 -105 161 -134 216 -98 46 30 47 30 35 -28 -10 -49 -1 -68 50 -111 109 -92 419 -219 370 -151 -14 19 18 60 120 156 77 72 119 103 95 70 -271 -361 -520 -875 -584 -1203 -36 -186 -11 -200 30 -17 119 536 526 1228 826 1404 65 38 83 59 75 87 -25 77 54 119 199 105 99 -9 152 -3 223 24 127 48 164 -3 96 -133 -17 -34 -23 -56 -13 -50 26 16 222 -155 340 -297 197 -237 351 -522 476 -878 42 -120 80 -209 84 -197 23 68 -217 641 -362 865 -68 107 -69 110 -29 125 23 9 47 11 52 5 6 -5 0 -10 -13 -10 -13 0 -23 -10 -23 -21 0 -26 78 -6 115 29 18 17 19 41 6 88 -22 76 2 84 47 14 42 -64 123 -66 212 -5 113 77 114 90 5 265 -209 338 -270 509 -304 865 -55 558 -324 843 -651 689z m-20 -479 c52 -79 140 -154 279 -235 32 -19 32 -29 3 -156 -143 -616 -735 -639 -903 -34 -14 50 -26 74 -27 55 -1 -20 -18 -35 -39 -35 -98 0 -143 183 -48 196 25 4 45 -3 45 -15 0 -97 350 48 507 210 124 128 110 127 183 14z m422 -293 c18 -46 -48 -151 -95 -152 -13 0 -12 11 12 125 12 58 65 75 83 27z"/> <path d="M2093 4447 c-29 -30 -8 -37 90 -30 69 5 93 13 75 25 -33 21 -145 24 -165 5z"/> <path d="M2373 4447 c-28 -28 -10 -37 77 -38 50 0 90 6 90 13 0 32 -139 52 -167 25z"/> <path d="M2141 4278 c-2 -51 71 -104 128 -93 37 7 53 -1 62 -28 6 -20 20 -37 30 -37 10 0 13 14 6 30 -8 22 2 30 39 30 48 0 74 32 74 92 0 15 -9 28 -20 28 -11 0 -20 -17 -20 -39 0 -21 -8 -44 -18 -50 -21 -12 -82 41 -82 70 0 11 -9 19 -20 19 -11 0 -19 -7 -18 -15 13 -77 -79 -91 -129 -20 -23 34 -31 37 -32 13z"/> <path d="M2225 3996 c13 -41 67 -62 123 -48 72 18 50 48 -27 36 -37 -5 -61 0 -61 14 0 12 -10 22 -22 22 -12 0 -18 -11 -13 -24z"/> <path d="M3160 5042 c0 -24 112 -49 140 -32 11 7 15 21 9 31 -15 25 -149 25 -149 1z"/> <path d="M2220 3360 c-42 -42 -54 -100 -20 -100 11 0 20 13 20 29 0 90 142 98 171 9 9 -31 19 -36 35 -20 41 41 95 24 122 -39 22 -54 28 -58 52 -29 38 46 106 29 122 -30 l14 -50 2 53 c3 68 -43 105 -110 88 -41 -10 -60 -3 -82 29 -19 26 -47 40 -75 36 -24 -3 -60 10 -79 29 -46 47 -123 44 -172 -5z"/> <path d="M1830 3337 c-64 -36 -191 -162 -223 -224 -47 -89 -20 -81 47 14 177 252 404 251 487 -1 36 -107 11 -120 -46 -23 -29 50 -68 103 -87 118 -18 16 -5 -17 29 -74 35 -56 63 -107 63 -114 0 -34 -36 -4 -90 77 -74 111 -109 120 -40 10 55 -87 59 -100 32 -100 -10 0 -38 32 -62 70 -24 39 -51 70 -61 70 -10 0 -1 -29 21 -65 55 -91 49 -117 -12 -45 l-50 60 13 -54 c12 -52 8 -56 -69 -68 -142 -23 -201 -138 -114 -225 27 -27 28 -22 8 44 -43 138 159 188 654 163 545 -28 639 -55 596 -170 -27 -72 5 -82 37 -11 29 64 7 144 -43 157 -26 7 -36 21 -29 41 17 42 -26 113 -67 112 -32 0 -32 -2 1 -21 41 -23 45 -65 10 -94 -33 -27 -135 -7 -135 27 0 47 -63 93 -112 80 -25 -6 -51 -2 -58 9 -16 25 -110 26 -150 1 -20 -13 -40 -9 -64 13 -20 18 -63 31 -96 30 -39 -1 -60 9 -60 26 0 114 -222 226 -330 167z m469 -246 c19 -22 16 -33 -16 -50 -60 -32 -103 -25 -103 16 0 67 74 89 119 34z m228 -32 c18 -26 34 -34 42 -20 13 20 91 31 91 13 0 -5 6 -25 14 -45 12 -32 9 -33 -18 -11 -19 15 -53 20 -82 13 -28 -7 -56 -3 -63 9 -7 12 -41 22 -75 22 -52 0 -57 4 -36 30 35 42 93 37 127 -11z"/> <path d="M1870 2828 c-22 -5 -62 -14 -88 -20 -54 -12 -53 -164 4 -489 31 -177 27 -199 -39 -199 -45 0 -48 5 -37 75 10 59 0 46 -46 -63 l-57 -139 -139 5 c-298 10 -476 -283 -312 -512 83 -117 -6 -194 -218 -188 -153 5 -193 -26 -128 -97 33 -37 31 -39 -53 -45 -50 -4 11 -14 147 -24 185 -13 284 -10 466 17 220 32 240 31 396 -3 175 -38 912 -52 1090 -21 77 14 87 11 103 -30 17 -41 19 -40 20 19 5 257 344 487 556 377 52 -27 122 -60 155 -74 59 -24 58 -24 -60 -37 -114 -13 -273 -76 -300 -120 -18 -29 -6 -26 113 30 129 60 242 64 309 12 l49 -38 -58 -47 c-32 -26 -74 -78 -93 -117 -70 -141 -102 -160 -258 -158 -120 1 -163 -8 -276 -62 -109 -51 -141 -59 -175 -41 -62 34 -51 55 58 110 91 47 161 115 161 158 0 10 -34 -13 -75 -50 -41 -37 -113 -84 -160 -105 -134 -60 -140 -171 -10 -172 24 0 120 31 213 70 149 62 183 68 286 58 139 -15 197 20 262 157 22 47 68 105 102 130 160 118 148 189 -39 245 -169 51 -260 120 -227 174 35 57 198 149 271 153 86 4 90 -44 7 -86 -80 -41 -78 -40 -68 -50 24 -23 178 69 178 107 0 124 -259 69 -392 -82 -97 -111 -353 -196 -395 -132 -28 44 49 130 215 239 189 124 261 101 91 -28 -90 -69 -129 -135 -79 -135 11 0 18 10 15 23 -3 13 42 59 100 103 108 82 129 126 72 148 -29 11 -59 4 -168 -42 -22 -9 -39 3 -55 38 -36 78 -149 117 -299 103 -142 -13 -164 5 -167 141 0 42 -6 63 -11 46 -6 -16 -15 -43 -20 -60 -9 -27 -12 -27 -27 0 -26 47 0 140 39 140 54 0 107 -70 91 -120 -24 -77 53 -38 129 64 58 78 75 90 106 73 20 -11 48 -16 61 -11 13 4 -13 27 -58 50 -126 64 -227 211 -228 329 0 48 -75 175 -109 186 -48 16 -882 31 -941 17z m845 -41 l105 -13 0 -107 c0 -126 -14 -131 -160 -57 -122 62 -169 65 -154 10 6 -22 2 -40 -8 -40 -10 0 -19 38 -19 85 -2 124 -36 36 -38 -98 -1 -76 -10 -106 -34 -115 -30 -12 -30 -16 1 -50 36 -39 17 -567 -22 -603 -38 -36 -226 4 -228 49 -1 23 -18 236 -39 472 l-37 430 10 -380 c6 -209 17 -423 26 -475 18 -108 7 -114 -108 -66 -109 45 -193 333 -224 763 l-12 163 58 21 c64 23 715 31 883 11z m291 -427 c56 -58 45 -146 -23 -188 -27 -17 -109 82 -92 110 11 18 5 21 -23 9 -69 -28 -296 -49 -327 -30 -24 14 -20 18 19 19 136 2 127 42 -20 92 -121 40 -81 67 48 31 101 -28 103 -5 4 58 -116 73 -137 110 -39 68 141 -60 167 -68 167 -54 0 8 -41 41 -90 72 -130 82 -111 104 29 33 170 -86 198 -78 203 57 1 35 16 8 45 -82 24 -75 68 -162 99 -195z m-446 -40 c0 -17 -84 -43 -97 -30 -4 5 -3 21 3 38 12 29 94 23 94 -8z m74 -100 l111 0 -14 -91 c-39 -260 -91 -329 -247 -329 -49 0 -50 1 -37 135 7 74 13 174 13 222 0 71 6 85 32 75 17 -7 81 -12 142 -12z m-1371 -893 c15 -18 70 -53 123 -78 119 -55 94 -68 -156 -82 -189 -10 -370 22 -385 68 -6 18 28 25 130 25 122 0 143 6 181 50 51 59 69 62 107 17z"/> <path d="M2225 2290 c25 -38 57 -70 72 -70 17 0 5 26 -30 69 -74 89 -100 90 -42 1z"/> <path d="M4587 1781 c-72 -30 -107 -101 -107 -217 l0 -107 -53 42 c-78 61 -146 54 -173 -19 -16 -43 -32 -57 -54 -48 -67 28 -106 28 -46 1 35 -17 76 -49 90 -72 38 -61 56 -50 30 19 -20 52 -17 66 20 103 l43 43 64 -54 c89 -74 107 -59 119 96 11 150 43 192 144 192 74 0 71 -31 -6 -71 -78 -40 -74 -136 12 -265 41 -62 51 -97 42 -138 -14 -60 1 -48 77 64 26 39 27 39 52 -15 29 -63 51 -68 102 -22 35 32 37 30 37 -38 l0 -71 82 21 c109 28 131 -5 72 -107 l-43 -75 46 -50 c54 -57 48 -62 -97 -90 -60 -12 -154 -44 -208 -72 -104 -54 -142 -50 -125 13 6 25 2 36 -13 29 -96 -39 -94 -39 -94 26 0 51 -7 62 -35 53 -334 -103 -476 -83 -344 49 37 37 44 37 111 10 65 -28 70 -27 64 4 -16 82 -256 37 -256 -48 0 -13 -11 -27 -24 -32 -42 -14 -1 -69 62 -82 60 -12 187 6 316 45 60 17 64 15 70 -35 5 -45 15 -52 61 -47 44 4 55 -3 55 -35 0 -55 28 -51 168 19 81 41 174 67 300 85 100 13 157 27 127 31 -30 4 -55 17 -55 29 0 12 -18 42 -40 65 l-40 43 43 80 c64 116 43 155 -76 138 l-92 -14 13 70 c18 94 -20 116 -80 46 -57 -65 -61 -65 -76 -3 -14 57 -55 65 -93 19 -22 -27 -33 -20 -80 55 -93 145 -93 167 1 226 134 85 42 175 -113 111z"/> <path d="M3887 1556 c100 -44 104 -54 64 -166 -11 -30 -2 -26 38 17 75 82 24 148 -139 180 -42 8 -31 -1 37 -31z"/> <path d="M3524 1176 c-13 -13 -24 -36 -24 -50 0 -16 17 -9 44 18 l45 45 13 -50 c14 -49 14 -49 16 6 2 60 -49 76 -94 31z"/> <path d="M3966 1090 c-50 -62 -67 -70 -156 -73 l-100 -2 110 -15 c61 -7 130 -24 154 -37 24 -13 57 -23 75 -23 48 0 37 36 -14 44 -61 8 -68 70 -13 128 25 26 35 48 22 48 -12 0 -47 -31 -78 -70z"/> </g> </svg> 