<svg width="207" height="80" viewBox="0 0 207 80" fill="none" xmlns="http://www.w3.org/2000/svg">
<path d="M133.869 42.2375C134.225 40.1063 135.7 32.5188 134.356 25.0688C133.5 20.325 130.538 14.1313 127.231 11C120.85 4.95625 111.963 2.5 103.788 2.5C95.6126 2.5 87.1688 4.95625 80.7876 11C77.4813 14.1313 74.5188 20.3313 73.6626 25.0688C72.3188 32.5188 73.7938 40.1063 74.1501 42.2375C74.6313 45.1438 73.3563 48.3562 73.1063 51.25C72.8376 54.4 74.3251 56.8438 76.9876 58.575C79.2063 60.0188 81.7938 60.7813 84.1938 61.9C87.0501 63.2313 84.4563 68.0375 85.5126 70.4625C86.0438 71.6875 87.2063 72.5313 88.4063 73.125C89.9313 73.8875 91.6876 74.3625 93.3438 73.9437C93.0938 74.0062 93.8188 75.4625 94.7751 76.0563C95.6501 76.5938 96.7313 77.1437 97.7376 77.3625C99.7376 77.8 101.719 77.0625 102.956 76.425C103.631 76.075 104.419 76.075 105.088 76.425C106.325 77.0625 108.306 77.8 110.306 77.3625C111.813 77.0312 113.156 76.1375 114.119 74.9687C114.569 74.4187 115.269 74.1187 115.975 74.1687C118.075 74.3062 121.288 73.45 122.681 70.2812C123.463 68.5187 122.675 66.4438 123.194 64.6C124.075 61.475 127.15 60.7 129.625 59.2438C132.906 57.3188 134.844 55.1625 134.931 52.125C135.019 48.9 133.456 44.7313 133.869 42.2375Z" fill="url(#paint0_radial_1069_2565)"/>
<path d="M96.4329 42.115C97.6604 37.534 95.2796 32.9158 91.1153 31.8001C86.9511 30.6843 82.5802 33.4935 81.3528 38.0745C80.1254 42.6555 82.5062 47.2736 86.6704 48.3894C90.8347 49.5052 95.2055 46.696 96.4329 42.115Z" fill="black"/>
<path d="M121.345 48.3874C125.509 47.2717 127.89 42.6535 126.663 38.0725C125.435 33.4915 121.064 30.6823 116.9 31.7981C112.736 32.9139 110.355 37.532 111.583 42.113C112.81 46.694 117.181 49.5032 121.345 48.3874Z" fill="black"/>
<path d="M98.9875 54.1937C98.9875 51.425 101.231 44.5625 104.006 44.5625C106.781 44.5625 109.025 51.4187 109.025 54.1937C109.025 59.825 104.006 55.9875 104.006 55.9875C104.006 55.9875 98.9875 60.15 98.9875 54.1937Z" fill="black"/>
<path d="M90.6437 74.0192C89.8937 73.8754 89.1812 73.6442 88.5437 73.1754C89.075 73.0504 89.6062 72.9129 90.0937 72.6754C91.3062 72.0691 91.275 71.0942 91.5437 69.8942C91.775 68.8442 92 67.7942 92.2687 66.7504C92.45 66.0504 92.9125 65.3816 93.6312 65.4816C94.5312 65.6066 94.6187 66.2442 94.4687 67.2129C94.325 68.1129 93.2375 74.0442 93.2375 74.0504C93.1875 74.3192 91.3812 74.1379 91.2062 74.1129C91.0187 74.0879 90.8312 74.0567 90.6437 74.0192Z" fill="black"/>
<path d="M117.775 74.0192C118.525 73.8754 119.237 73.6442 119.875 73.1754C119.344 73.0504 118.812 72.9129 118.325 72.6754C117.112 72.0691 117.144 71.0942 116.875 69.8942C116.644 68.8442 116.419 67.7942 116.15 66.7504C115.969 66.0504 115.506 65.3816 114.787 65.4816C113.887 65.6066 113.8 66.2442 113.95 67.2129C114.094 68.1129 115.181 74.0442 115.181 74.0504C115.231 74.3192 117.037 74.1379 117.212 74.1129C117.4 74.0879 117.587 74.0567 117.775 74.0192Z" fill="black"/>
<path d="M101.169 77.1559C101.169 77.1559 102.587 75.2434 102.637 73.9371C102.731 71.6059 102.862 68.4559 102.862 66.6309C102.862 65.9059 103.3 65.3496 104.031 65.3496C104.756 65.3496 105.162 65.8371 105.162 66.5621C105.162 66.5934 105.331 70.8309 105.331 73.7809C105.331 75.1434 106.856 77.1496 106.856 77.1496C106.231 76.8684 105.137 76.3246 104.012 76.3746C102.587 76.4434 101.169 77.1559 101.169 77.1559Z" fill="black"/>
<path d="M41.0478 41.8145C41.2571 40.5624 42.1237 36.1048 41.3342 31.7279C40.8312 28.9409 39.0907 25.3021 37.1483 23.4625C33.3993 19.9118 28.1779 18.4688 23.3751 18.4688C18.5722 18.4688 13.6115 19.9118 9.86255 23.4625C7.92013 25.3021 6.17966 28.9446 5.67662 31.7279C4.88716 36.1048 5.75373 40.5624 5.96302 41.8145C6.24576 43.522 5.49669 45.4093 5.34982 47.1094C5.19193 48.96 6.06584 50.3957 7.63005 51.4128C8.93357 52.261 10.4537 52.709 11.8637 53.3662C13.5418 54.1484 12.0179 56.972 12.6385 58.3967C12.9506 59.1164 13.6336 59.6121 14.3386 59.9609C15.2345 60.4089 16.2663 60.688 17.2394 60.4419C17.0925 60.4787 17.5184 61.3342 18.0802 61.683C18.5943 61.9988 19.2295 62.3219 19.8207 62.4505C20.9957 62.7075 22.1597 62.2742 22.8867 61.8997C23.2833 61.6941 23.7459 61.6941 24.1388 61.8997C24.8658 62.2742 26.0298 62.7075 27.2048 62.4505C28.0897 62.2559 28.8792 61.7308 29.4447 61.0441C29.709 60.721 30.1203 60.5448 30.5352 60.5741C31.769 60.6549 33.6563 60.1519 34.4751 58.2902C34.9341 57.2548 34.4715 56.0357 34.7762 54.9525C35.294 53.1166 37.1005 52.6612 38.5546 51.8057C40.4823 50.6748 41.6206 49.408 41.672 47.6234C41.7234 45.7287 40.8054 43.2796 41.0478 41.8145Z" fill="url(#paint1_radial_1069_2565)"/>
<path d="M19.0544 41.7419C19.7755 39.0505 18.3768 36.3374 15.9303 35.6819C13.4838 35.0264 10.916 36.6767 10.1948 39.3681C9.47374 42.0594 10.8724 44.7726 13.3189 45.4281C15.7654 46.0836 18.3333 44.4332 19.0544 41.7419Z" fill="black"/>
<path d="M33.6903 45.4275C36.1368 44.772 37.5355 42.0588 36.8144 39.3675C36.0933 36.6761 33.5255 35.0258 31.079 35.6813C28.6325 36.3368 27.2337 39.0499 27.9549 41.7413C28.676 44.4326 31.2438 46.083 33.6903 45.4275Z" fill="black"/>
<path d="M20.5552 48.838C20.5552 47.2114 21.8734 43.1797 23.5037 43.1797C25.134 43.1797 26.4522 47.2077 26.4522 48.838C26.4522 52.1464 23.5037 49.8919 23.5037 49.8919C23.5037 49.8919 20.5552 52.3373 20.5552 48.838Z" fill="black"/>
<path d="M15.6532 60.4865C15.2126 60.402 14.794 60.2662 14.4194 59.9908C14.7315 59.9173 15.0437 59.8366 15.3301 59.697C16.0424 59.3409 16.024 58.768 16.1819 58.063C16.3178 57.4462 16.45 56.8293 16.6079 56.2161C16.7144 55.8048 16.9861 55.412 17.4083 55.4707C17.9371 55.5441 17.9885 55.9187 17.9004 56.4878C17.8159 57.0166 17.177 60.5012 17.177 60.5048C17.1476 60.6627 16.0865 60.5562 15.9837 60.5416C15.8735 60.5269 15.7633 60.5085 15.6532 60.4865Z" fill="black"/>
<path d="M31.5929 60.4865C32.0335 60.402 32.4521 60.2662 32.8267 59.9908C32.5145 59.9173 32.2024 59.8366 31.916 59.697C31.2037 59.3409 31.222 58.768 31.0642 58.063C30.9283 57.4462 30.7961 56.8293 30.6382 56.2161C30.5317 55.8048 30.26 55.412 29.8377 55.4707C29.309 55.5441 29.2576 55.9187 29.3457 56.4878C29.4302 57.0166 30.0691 60.5012 30.0691 60.5048C30.0984 60.6627 31.1596 60.5562 31.2624 60.5416C31.3726 60.5269 31.4827 60.5085 31.5929 60.4865Z" fill="black"/>
<path d="M21.8367 62.3297C21.8367 62.3297 22.6702 61.2061 22.6996 60.4387C22.7546 59.0691 22.8317 57.2185 22.8317 56.1463C22.8317 55.7204 23.0888 55.3936 23.5184 55.3936C23.9443 55.3936 24.183 55.68 24.183 56.1059C24.183 56.1243 24.2821 58.6138 24.2821 60.3469C24.2821 61.1474 25.1781 62.3261 25.1781 62.3261C24.8109 62.1608 24.1683 61.8414 23.5074 61.8707C22.6702 61.9111 21.8367 62.3297 21.8367 62.3297Z" fill="black"/>
<path d="M201.048 41.8145C201.257 40.5624 202.124 36.1048 201.334 31.7279C200.831 28.9409 199.091 25.3021 197.148 23.4625C193.399 19.9118 188.178 18.4688 183.375 18.4688C178.572 18.4688 173.612 19.9118 169.863 23.4625C167.92 25.3021 166.18 28.9446 165.677 31.7279C164.887 36.1048 165.754 40.5624 165.963 41.8145C166.246 43.522 165.497 45.4093 165.35 47.1094C165.192 48.96 166.066 50.3957 167.63 51.4128C168.934 52.261 170.454 52.709 171.864 53.3662C173.542 54.1484 172.018 56.972 172.638 58.3967C172.951 59.1164 173.634 59.6121 174.339 59.9609C175.235 60.4089 176.266 60.688 177.239 60.4419C177.092 60.4787 177.518 61.3342 178.08 61.683C178.594 61.9988 179.23 62.3219 179.821 62.4505C180.996 62.7075 182.16 62.2742 182.887 61.8997C183.283 61.6941 183.746 61.6941 184.139 61.8997C184.866 62.2742 186.03 62.7075 187.205 62.4505C188.09 62.2559 188.879 61.7308 189.445 61.0441C189.709 60.721 190.12 60.5448 190.535 60.5741C191.769 60.6549 193.656 60.1519 194.475 58.2902C194.934 57.2548 194.471 56.0357 194.776 54.9525C195.294 53.1166 197.101 52.6612 198.555 51.8057C200.482 50.6748 201.621 49.408 201.672 47.6234C201.723 45.7287 200.805 43.2796 201.048 41.8145Z" fill="url(#paint2_radial_1069_2565)"/>
<path d="M179.054 41.7419C179.776 39.0505 178.377 36.3374 175.93 35.6819C173.484 35.0264 170.916 36.6767 170.195 39.3681C169.474 42.0594 170.872 44.7726 173.319 45.4281C175.765 46.0836 178.333 44.4332 179.054 41.7419Z" fill="black"/>
<path d="M193.69 45.4275C196.137 44.772 197.536 42.0588 196.814 39.3675C196.093 36.6761 193.525 35.0258 191.079 35.6813C188.632 36.3368 187.234 39.0499 187.955 41.7413C188.676 44.4326 191.244 46.083 193.69 45.4275Z" fill="black"/>
<path d="M180.555 48.838C180.555 47.2114 181.873 43.1797 183.504 43.1797C185.134 43.1797 186.452 47.2077 186.452 48.838C186.452 52.1464 183.504 49.8919 183.504 49.8919C183.504 49.8919 180.555 52.3373 180.555 48.838Z" fill="black"/>
<path d="M175.653 60.4865C175.213 60.402 174.794 60.2662 174.419 59.9908C174.732 59.9173 175.044 59.8366 175.33 59.697C176.042 59.3409 176.024 58.768 176.182 58.063C176.318 57.4462 176.45 56.8293 176.608 56.2161C176.714 55.8048 176.986 55.412 177.408 55.4707C177.937 55.5441 177.988 55.9187 177.9 56.4878C177.816 57.0166 177.177 60.5012 177.177 60.5048C177.148 60.6627 176.086 60.5562 175.984 60.5416C175.873 60.5269 175.763 60.5085 175.653 60.4865Z" fill="black"/>
<path d="M191.593 60.4865C192.034 60.402 192.452 60.2662 192.827 59.9908C192.515 59.9173 192.202 59.8366 191.916 59.697C191.204 59.3409 191.222 58.768 191.064 58.063C190.928 57.4462 190.796 56.8293 190.638 56.2161C190.532 55.8048 190.26 55.412 189.838 55.4707C189.309 55.5441 189.258 55.9187 189.346 56.4878C189.43 57.0166 190.069 60.5012 190.069 60.5048C190.098 60.6627 191.16 60.5562 191.262 60.5416C191.373 60.5269 191.483 60.5085 191.593 60.4865Z" fill="black"/>
<path d="M181.837 62.3297C181.837 62.3297 182.67 61.2061 182.7 60.4387C182.755 59.0691 182.832 57.2185 182.832 56.1463C182.832 55.7204 183.089 55.3936 183.518 55.3936C183.944 55.3936 184.183 55.68 184.183 56.1059C184.183 56.1243 184.282 58.6138 184.282 60.3469C184.282 61.1474 185.178 62.3261 185.178 62.3261C184.811 62.1608 184.168 61.8414 183.507 61.8707C182.67 61.9111 181.837 62.3297 181.837 62.3297Z" fill="black"/>
<defs>
<radialGradient id="paint0_radial_1069_2565" cx="0" cy="0" r="1" gradientUnits="userSpaceOnUse" gradientTransform="translate(103.93 46.8258) scale(40.5847 43.9898)">
<stop offset="0.3956" stop-color="#35DC32"/>
<stop offset="0.9934" stop-color="#0FAC0C"/>
</radialGradient>
<radialGradient id="paint1_radial_1069_2565" cx="0" cy="0" r="1" gradientUnits="userSpaceOnUse" gradientTransform="translate(23.4585 44.5102) scale(23.8435 25.844)">
<stop offset="0.3956" stop-color="#35DC32"/>
<stop offset="0.9934" stop-color="#0FAC0C"/>
</radialGradient>
<radialGradient id="paint2_radial_1069_2565" cx="0" cy="0" r="1" gradientUnits="userSpaceOnUse" gradientTransform="translate(183.458 44.5102) scale(23.8435 25.844)">
<stop offset="0.3956" stop-color="#35DC32"/>
<stop offset="0.9934" stop-color="#0FAC0C"/>
</radialGradient>
</defs>
</svg>
