<svg width="249" height="170" viewBox="0 0 249 170" fill="none" xmlns="http://www.w3.org/2000/svg">
<mask id="path-1-inside-1_1050_2041" fill="white">
<path d="M6 70C6 67.2386 8.23858 65 11 65H249V110H11C8.23857 110 6 107.761 6 105V70Z"/>
</mask>
<path d="M6 70C6 67.2386 8.23858 65 11 65H249V110H11C8.23857 110 6 107.761 6 105V70Z" fill="url(#paint0_linear_1050_2041)"/>
<path d="M5 70C5 66.6863 7.68629 64 11 64H249V66H11C8.79086 66 7 67.7909 7 70H5ZM249 111H11C7.68629 111 5 108.314 5 105H7C7 107.209 8.79086 109 11 109H249V111ZM11 111C7.68629 111 5 108.314 5 105V70C5 66.6863 7.68629 64 11 64V66C8.79086 66 7 67.7909 7 70V105C7 107.209 8.79086 109 11 109V111ZM249 65V110V65Z" fill="#35DC32" fill-opacity="0.5" mask="url(#path-1-inside-1_1050_2041)"/>
<mask id="path-3-inside-2_1050_2041" fill="white">
<path d="M0 70C0 64.4772 4.47715 60 10 60H249V116H10C4.47716 116 0 111.523 0 106V70Z"/>
</mask>
<path d="M-1 70C-1 63.9249 3.92487 59 10 59H249V61H10C5.02944 61 1 65.0294 1 70H-1ZM249 117H10C3.92487 117 -1 112.075 -1 106H1C1 110.971 5.02944 115 10 115H249V117ZM10 117C3.92487 117 -1 112.075 -1 106V70C-1 63.9249 3.92487 59 10 59V61C5.02944 61 1 65.0294 1 70V106C1 110.971 5.02944 115 10 115V117ZM249 60V116V60Z" fill="#12DC00" mask="url(#path-3-inside-2_1050_2041)"/>
<mask id="path-5-inside-3_1050_2041" fill="white">
<path d="M32 130C32 127.239 34.2386 125 37 125H249V170H37C34.2386 170 32 167.761 32 165V130Z"/>
</mask>
<path d="M32 130C32 127.239 34.2386 125 37 125H249V170H37C34.2386 170 32 167.761 32 165V130Z" fill="url(#paint1_linear_1050_2041)"/>
<path d="M31 130C31 126.686 33.6863 124 37 124H249V126H37C34.7909 126 33 127.791 33 130H31ZM249 171H37C33.6863 171 31 168.314 31 165H33C33 167.209 34.7909 169 37 169H249V171ZM37 171C33.6863 171 31 168.314 31 165V130C31 126.686 33.6863 124 37 124V126C34.7909 126 33 127.791 33 130V165C33 167.209 34.7909 169 37 169V171ZM249 125V170V125Z" fill="#086302" mask="url(#path-5-inside-3_1050_2041)"/>
<mask id="path-7-inside-4_1050_2041" fill="white">
<path d="M32 5C32 2.23858 34.2386 0 37 0H249V45H37C34.2386 45 32 42.7614 32 40V5Z"/>
</mask>
<path d="M32 5C32 2.23858 34.2386 0 37 0H249V45H37C34.2386 45 32 42.7614 32 40V5Z" fill="url(#paint2_linear_1050_2041)"/>
<path d="M31 5C31 1.68629 33.6863 -1 37 -1H249V1H37C34.7909 1 33 2.79086 33 5H31ZM249 46H37C33.6863 46 31 43.3137 31 40H33C33 42.2091 34.7909 44 37 44H249V46ZM37 46C33.6863 46 31 43.3137 31 40V5C31 1.68629 33.6863 -1 37 -1V1C34.7909 1 33 2.79086 33 5V40C33 42.2091 34.7909 44 37 44V46ZM249 0V45V0Z" fill="#086302" mask="url(#path-7-inside-4_1050_2041)"/>
<defs>
<linearGradient id="paint0_linear_1050_2041" x1="131.5" y1="74" x2="243.5" y2="106" gradientUnits="userSpaceOnUse">
<stop stop-color="#011204"/>
<stop offset="1" stop-color="#010C08"/>
</linearGradient>
<linearGradient id="paint1_linear_1050_2041" x1="144.072" y1="134" x2="245.641" y2="159.915" gradientUnits="userSpaceOnUse">
<stop stop-color="#011204"/>
<stop offset="1" stop-color="#010C08"/>
</linearGradient>
<linearGradient id="paint2_linear_1050_2041" x1="144.072" y1="9" x2="245.641" y2="34.9147" gradientUnits="userSpaceOnUse">
<stop stop-color="#011204"/>
<stop offset="1" stop-color="#010C08"/>
</linearGradient>
</defs>
</svg>
