<svg width="338" height="139" viewBox="0 0 338 139" fill="none" xmlns="http://www.w3.org/2000/svg">
<path d="M-3 39.5C23 58.5 27.5 97 56.5 106.5C85.5 116 102 62 120.5 58.5C139 55 153.5 108 164 110.5C174.5 113 197.5 73 209.5 76.5C221.5 80 229.5 116 253 117.5C276.5 119 315 2.5 340 1" stroke="#35DC32"/>
<g filter="url(#filter0_d_1055_1932)">
<path d="M-2.5 55C23.5 74 33 119.5 57 122C81 124.5 101 74 121 74C141 74 147 122 162.5 122C178 122 195.5 90.5 210 92C224.5 93.5 230 131.5 253.5 133C277 134.5 315.5 18 340.5 16.5" stroke="#013C08"/>
</g>
<defs>
<filter id="filter0_d_1055_1932" x="-6.79492" y="13.001" width="351.325" height="125.514" filterUnits="userSpaceOnUse" color-interpolation-filters="sRGB">
<feFlood flood-opacity="0" result="BackgroundImageFix"/>
<feColorMatrix in="SourceAlpha" type="matrix" values="0 0 0 0 0 0 0 0 0 0 0 0 0 0 0 0 0 0 127 0" result="hardAlpha"/>
<feOffset dy="1"/>
<feGaussianBlur stdDeviation="2"/>
<feComposite in2="hardAlpha" operator="out"/>
<feColorMatrix type="matrix" values="0 0 0 0 0.207843 0 0 0 0 0.862745 0 0 0 0 0.196078 0 0 0 1 0"/>
<feBlend mode="normal" in2="BackgroundImageFix" result="effect1_dropShadow_1055_1932"/>
<feBlend mode="normal" in="SourceGraphic" in2="effect1_dropShadow_1055_1932" result="shape"/>
</filter>
</defs>
</svg>
