<svg width="258" height="288" viewBox="0 0 258 288" fill="none" xmlns="http://www.w3.org/2000/svg">
<path d="M204.311 50.8817C205.405 69.9823 214.547 110.047 242.366 117.501L233.462 156.526C203.815 148.168 188.907 130.266 185.159 122.36C182.332 134.199 173.96 168.018 163.09 208.586C149.502 259.298 81.8685 256.704 76.0729 255.151C70.2773 253.599 5.97393 240.51 25.7736 166.616C41.6133 107.502 98.2046 107.516 124.52 114.912L113.262 156.93C85.4833 142.757 68.9399 160.065 64.4106 176.969C59.1048 196.771 74.6104 212.313 86.6845 215.549C101.173 219.431 120.829 211.757 124.453 198.234L166.64 40.7878L204.311 50.8817Z" stroke="#35DC32" stroke-opacity="0.5"/>
<path d="M197.311 36.8817C198.405 55.9823 207.547 96.0469 235.366 103.501L226.462 142.526C196.815 134.168 181.907 116.266 178.159 108.36C175.332 120.199 166.96 154.018 156.09 194.586C142.502 245.298 74.8685 242.704 69.0729 241.151C63.2773 239.599 -1.02607 226.51 18.7736 152.616C34.6133 93.5016 91.2046 93.5157 117.52 100.912L106.262 142.93C78.4833 128.757 61.9399 146.065 57.4106 162.969C52.1048 182.771 67.6104 198.313 79.6845 201.549C94.1734 205.431 113.829 197.757 117.453 184.234L159.64 26.7878L197.311 36.8817Z" stroke="#35DC32" stroke-opacity="0.9"/>
</svg>
