<svg width="281" height="146" viewBox="0 0 281 146" fill="none" xmlns="http://www.w3.org/2000/svg">
<g clip-path="url(#clip0_311_3616)">
<rect width="281" height="146" rx="20" fill="#010C0F"/>
<circle cx="1" cy="1" r="1" fill="#126411"/>
<circle cx="23" cy="1" r="1" fill="#126411"/>
<circle cx="45" cy="1" r="1" fill="#126411"/>
<circle cx="67" cy="1" r="1" fill="#126411"/>
<circle cx="89" cy="1" r="1" fill="#126411"/>
<circle cx="111" cy="1" r="1" fill="#126411"/>
<circle cx="133" cy="1" r="1" fill="#126411"/>
<circle cx="155" cy="1" r="1" fill="#126411"/>
<circle cx="177" cy="1" r="1" fill="#126411"/>
<circle cx="199" cy="1" r="1" fill="#126411"/>
<circle cx="221" cy="1" r="1" fill="#126411"/>
<circle cx="243" cy="1" r="1" fill="#126411"/>
<circle cx="265" cy="1" r="1" fill="#126411"/>
<circle cx="1" cy="19" r="1" fill="#126411"/>
<circle cx="23" cy="19" r="1" fill="#126411"/>
<circle cx="45" cy="19" r="1" fill="#126411"/>
<circle cx="67" cy="19" r="1" fill="#126411"/>
<circle cx="89" cy="19" r="1" fill="#126411"/>
<circle cx="111" cy="19" r="1" fill="#126411"/>
<circle cx="133" cy="19" r="1" fill="#126411"/>
<circle cx="155" cy="19" r="1" fill="#126411"/>
<circle cx="177" cy="19" r="1" fill="#126411"/>
<circle cx="199" cy="19" r="1" fill="#126411"/>
<circle cx="221" cy="19" r="1" fill="#126411"/>
<circle cx="243" cy="19" r="1" fill="#126411"/>
<circle cx="265" cy="19" r="1" fill="#126411"/>
<circle cx="1" cy="37" r="1" fill="#126411"/>
<circle cx="23" cy="37" r="1" fill="#126411"/>
<circle cx="45" cy="37" r="1" fill="#126411"/>
<circle cx="67" cy="37" r="1" fill="#126411"/>
<circle cx="89" cy="37" r="1" fill="#126411"/>
<circle cx="111" cy="37" r="1" fill="#126411"/>
<circle cx="133" cy="37" r="1" fill="#126411"/>
<circle cx="155" cy="37" r="1" fill="#126411"/>
<circle cx="177" cy="37" r="1" fill="#126411"/>
<circle cx="199" cy="37" r="1" fill="#126411"/>
<circle cx="221" cy="37" r="1" fill="#126411"/>
<circle cx="243" cy="37" r="1" fill="#126411"/>
<circle cx="265" cy="37" r="1" fill="#126411"/>
<circle cx="1" cy="55" r="1" fill="#126411"/>
<circle cx="23" cy="55" r="1" fill="#126411"/>
<circle cx="45" cy="55" r="1" fill="#126411"/>
<circle cx="67" cy="55" r="1" fill="#126411"/>
<circle cx="89" cy="55" r="1" fill="#126411"/>
<circle cx="111" cy="55" r="1" fill="#126411"/>
<circle cx="133" cy="55" r="1" fill="#126411"/>
<circle cx="155" cy="55" r="1" fill="#126411"/>
<circle cx="177" cy="55" r="1" fill="#126411"/>
<circle cx="199" cy="55" r="1" fill="#126411"/>
<circle cx="221" cy="55" r="1" fill="#126411"/>
<circle cx="243" cy="55" r="1" fill="#126411"/>
<circle cx="265" cy="55" r="1" fill="#126411"/>
<circle cx="1" cy="73" r="1" fill="#126411"/>
<circle cx="23" cy="73" r="1" fill="#126411"/>
<circle cx="45" cy="73" r="1" fill="#126411"/>
<circle cx="67" cy="73" r="1" fill="#126411"/>
<circle cx="89" cy="73" r="1" fill="#126411"/>
<circle cx="111" cy="73" r="1" fill="#126411"/>
<circle cx="133" cy="73" r="1" fill="#126411"/>
<circle cx="155" cy="73" r="1" fill="#126411"/>
<circle cx="177" cy="73" r="1" fill="#126411"/>
<circle cx="199" cy="73" r="1" fill="#126411"/>
<circle cx="221" cy="73" r="1" fill="#126411"/>
<circle cx="243" cy="73" r="1" fill="#126411"/>
<circle cx="265" cy="73" r="1" fill="#126411"/>
<circle cx="1" cy="91" r="1" fill="#126411"/>
<circle cx="23" cy="91" r="1" fill="#126411"/>
<circle cx="45" cy="91" r="1" fill="#126411"/>
<circle cx="67" cy="91" r="1" fill="#126411"/>
<circle cx="89" cy="91" r="1" fill="#126411"/>
<circle cx="111" cy="91" r="1" fill="#126411"/>
<circle cx="133" cy="91" r="1" fill="#126411"/>
<circle cx="155" cy="91" r="1" fill="#126411"/>
<circle cx="177" cy="91" r="1" fill="#126411"/>
<circle cx="199" cy="91" r="1" fill="#126411"/>
<circle cx="221" cy="91" r="1" fill="#126411"/>
<circle cx="243" cy="91" r="1" fill="#126411"/>
<circle cx="265" cy="91" r="1" fill="#126411"/>
<circle cx="1" cy="109" r="1" fill="#126411"/>
<circle cx="23" cy="109" r="1" fill="#126411"/>
<circle cx="45" cy="109" r="1" fill="#126411"/>
<circle cx="67" cy="109" r="1" fill="#126411"/>
<circle cx="89" cy="109" r="1" fill="#126411"/>
<circle cx="111" cy="109" r="1" fill="#126411"/>
<circle cx="133" cy="109" r="1" fill="#126411"/>
<circle cx="155" cy="109" r="1" fill="#126411"/>
<circle cx="177" cy="109" r="1" fill="#126411"/>
<circle cx="199" cy="109" r="1" fill="#126411"/>
<circle cx="221" cy="109" r="1" fill="#126411"/>
<circle cx="243" cy="109" r="1" fill="#126411"/>
<circle cx="265" cy="109" r="1" fill="#126411"/>
<circle cx="1" cy="127" r="1" fill="#126411"/>
<circle cx="23" cy="127" r="1" fill="#126411"/>
<circle cx="45" cy="127" r="1" fill="#126411"/>
<circle cx="67" cy="127" r="1" fill="#126411"/>
<circle cx="89" cy="127" r="1" fill="#126411"/>
<circle cx="111" cy="127" r="1" fill="#126411"/>
<circle cx="133" cy="127" r="1" fill="#126411"/>
<circle cx="155" cy="127" r="1" fill="#126411"/>
<circle cx="177" cy="127" r="1" fill="#126411"/>
<circle cx="199" cy="127" r="1" fill="#126411"/>
<circle cx="221" cy="127" r="1" fill="#126411"/>
<circle cx="243" cy="127" r="1" fill="#126411"/>
<circle cx="265" cy="127" r="1" fill="#126411"/>
<circle cx="1" cy="145" r="1" fill="#126411"/>
<circle cx="23" cy="145" r="1" fill="#126411"/>
<circle cx="45" cy="145" r="1" fill="#126411"/>
<circle cx="67" cy="145" r="1" fill="#126411"/>
<circle cx="89" cy="145" r="1" fill="#126411"/>
<circle cx="111" cy="145" r="1" fill="#126411"/>
<circle cx="133" cy="145" r="1" fill="#126411"/>
<circle cx="155" cy="145" r="1" fill="#126411"/>
<circle cx="177" cy="145" r="1" fill="#126411"/>
<circle cx="199" cy="145" r="1" fill="#126411"/>
<circle cx="221" cy="145" r="1" fill="#126411"/>
<circle cx="243" cy="145" r="1" fill="#126411"/>
<circle cx="265" cy="145" r="1" fill="#126411"/>
</g>
<rect x="1" y="1" width="279" height="144" rx="19" stroke="#C8EF9F" stroke-width="2"/>
<defs>
<clipPath id="clip0_311_3616">
<rect width="281" height="146" rx="20" fill="white"/>
</clipPath>
</defs>
</svg>
