<svg width="152" height="65" viewBox="0 0 152 65" fill="none" xmlns="http://www.w3.org/2000/svg">
<mask id="path-1-outside-1_780_1725" maskUnits="userSpaceOnUse" x="-1" y="-1" width="154" height="67" fill="black">
<rect fill="white" x="-1" y="-1" width="154" height="67"/>
<path d="M5.03906 22L0.585938 5.63636H5.17756L7.71307 16.6307H7.86222L10.5043 5.63636H15.0107L17.6953 16.5668H17.8338L20.3267 5.63636H24.9077L20.4652 22H15.6605L12.848 11.7088H12.6456L9.8331 22H5.03906ZM31.867 12.5398V22H27.3287V0.181818H31.7392V8.52344H31.9309C32.3002 7.55753 32.8968 6.80114 33.7207 6.25426C34.5446 5.70028 35.5779 5.4233 36.8208 5.4233C37.9572 5.4233 38.948 5.67187 39.7931 6.16903C40.6454 6.65909 41.3059 7.36577 41.7747 8.28906C42.2505 9.20526 42.4849 10.3026 42.4778 11.581V22H37.9395V12.3906C37.9466 11.3821 37.6909 10.5973 37.1724 10.0362C36.661 9.47514 35.9437 9.1946 35.0204 9.1946C34.4025 9.1946 33.8556 9.32599 33.3798 9.58878C32.911 9.85156 32.5417 10.2351 32.2718 10.7393C32.0091 11.2365 31.8741 11.8366 31.867 12.5398ZM50.7156 22.3089C49.6715 22.3089 48.7411 22.1278 47.9244 21.7656C47.1076 21.3963 46.4613 20.853 45.9854 20.1357C45.5167 19.4112 45.2823 18.5092 45.2823 17.4297C45.2823 16.5206 45.4492 15.7571 45.783 15.1392C46.1168 14.5213 46.5714 14.0241 47.1467 13.6477C47.7219 13.2713 48.3754 12.9872 49.1069 12.7955C49.8455 12.6037 50.6197 12.4688 51.4293 12.3906C52.381 12.2912 53.1481 12.1989 53.7305 12.1136C54.3129 12.0213 54.7354 11.8864 54.9982 11.7088C55.261 11.5312 55.3924 11.2685 55.3924 10.9205V10.8565C55.3924 10.1818 55.1793 9.6598 54.7532 9.29048C54.3342 8.92116 53.7376 8.73651 52.9634 8.73651C52.1467 8.73651 51.4968 8.91761 51.0138 9.27983C50.5309 9.63494 50.2113 10.0824 50.055 10.6222L45.8576 10.2812C46.0707 9.28693 46.4897 8.42756 47.1147 7.70312C47.7397 6.97159 48.5458 6.41051 49.533 6.01989C50.5273 5.62216 51.6779 5.4233 52.9847 5.4233C53.8938 5.4233 54.7638 5.52983 55.5948 5.7429C56.4329 5.95597 57.1751 6.28622 57.8214 6.73366C58.4748 7.18111 58.9897 7.75639 59.3661 8.45952C59.7425 9.15554 59.9308 9.99006 59.9308 10.9631V22H55.6268V19.7308H55.4989C55.2362 20.2422 54.8846 20.6932 54.4442 21.0838C54.0039 21.4673 53.4748 21.7692 52.8569 21.9893C52.239 22.2024 51.5252 22.3089 50.7156 22.3089ZM52.0153 19.1768C52.6829 19.1768 53.2724 19.0455 53.7837 18.7827C54.2951 18.5128 54.6964 18.1506 54.9876 17.696C55.2788 17.2415 55.4244 16.7266 55.4244 16.1513V14.4148C55.2823 14.5071 55.087 14.5923 54.8384 14.6705C54.5969 14.7415 54.3235 14.8089 54.0181 14.8729C53.7127 14.9297 53.4073 14.983 53.1019 15.0327C52.7965 15.0753 52.5195 15.1143 52.271 15.1499C51.7383 15.228 51.2731 15.3523 50.8754 15.5227C50.4776 15.6932 50.1687 15.924 49.9485 16.2152C49.7283 16.4993 49.6183 16.8544 49.6183 17.2805C49.6183 17.8984 49.842 18.3707 50.2894 18.6974C50.744 19.017 51.3192 19.1768 52.0153 19.1768ZM72.1555 5.63636V9.04545H62.3011V5.63636H72.1555ZM64.5384 1.71591H69.0767V16.9716C69.0767 17.3906 69.1406 17.7173 69.2685 17.9517C69.3963 18.179 69.5739 18.3388 69.8011 18.4311C70.0355 18.5234 70.3054 18.5696 70.6108 18.5696C70.8239 18.5696 71.0369 18.5518 71.25 18.5163C71.4631 18.4737 71.6264 18.4418 71.7401 18.4205L72.4538 21.7976C72.2266 21.8686 71.907 21.9503 71.495 22.0426C71.0831 22.142 70.5824 22.2024 69.9929 22.2237C68.8991 22.2663 67.9403 22.1207 67.1165 21.7869C66.2997 21.4531 65.6641 20.9347 65.2095 20.2315C64.755 19.5284 64.5313 18.6406 64.5384 17.5682V1.71591ZM88.0851 22.2663C86.8422 22.2663 85.7164 21.9467 84.7079 21.3075C83.7065 20.6612 82.911 19.7131 82.3216 18.4631C81.7392 17.206 81.448 15.6648 81.448 13.8395C81.448 11.9645 81.7498 10.4055 82.3535 9.16264C82.9572 7.91264 83.7598 6.97869 84.7612 6.3608C85.7697 5.7358 86.8741 5.4233 88.0744 5.4233C88.9906 5.4233 89.7541 5.57955 90.3649 5.89205C90.9828 6.19744 91.4799 6.58097 91.8564 7.04261C92.2399 7.49716 92.5311 7.9446 92.7299 8.38494H92.8684V0.181818H97.3961V22H92.9217V19.3793H92.7299C92.5169 19.8338 92.215 20.2848 91.8244 20.7322C91.4409 21.1726 90.9402 21.5384 90.3223 21.8295C89.7115 22.1207 88.9657 22.2663 88.0851 22.2663ZM89.5233 18.6548C90.2548 18.6548 90.8727 18.456 91.377 18.0582C91.8883 17.6534 92.2789 17.0888 92.5488 16.3643C92.8258 15.6399 92.9643 14.7912 92.9643 13.8182C92.9643 12.8452 92.8294 12 92.5595 11.2827C92.2896 10.5653 91.899 10.0114 91.3876 9.62074C90.8762 9.23011 90.2548 9.0348 89.5233 9.0348C88.7775 9.0348 88.149 9.23722 87.6376 9.64204C87.1262 10.0469 86.7392 10.608 86.4764 11.3253C86.2136 12.0426 86.0822 12.8736 86.0822 13.8182C86.0822 14.7699 86.2136 15.6115 86.4764 16.343C86.7463 17.0675 87.1333 17.6357 87.6376 18.0476C88.149 18.4524 88.7775 18.6548 89.5233 18.6548ZM108.521 22.3196C106.866 22.3196 105.435 21.968 104.228 21.2649C103.027 20.5547 102.1 19.5675 101.447 18.3033C100.794 17.032 100.467 15.5582 100.467 13.8821C100.467 12.1918 100.794 10.7145 101.447 9.45028C102.1 8.17898 103.027 7.19176 104.228 6.48864C105.435 5.77841 106.866 5.4233 108.521 5.4233C110.176 5.4233 111.603 5.77841 112.804 6.48864C114.011 7.19176 114.941 8.17898 115.595 9.45028C116.248 10.7145 116.575 12.1918 116.575 13.8821C116.575 15.5582 116.248 17.032 115.595 18.3033C114.941 19.5675 114.011 20.5547 112.804 21.2649C111.603 21.968 110.176 22.3196 108.521 22.3196ZM108.542 18.804C109.295 18.804 109.924 18.5909 110.428 18.1648C110.932 17.7315 111.312 17.142 111.568 16.3963C111.831 15.6506 111.962 14.8018 111.962 13.8501C111.962 12.8984 111.831 12.0497 111.568 11.304C111.312 10.5582 110.932 9.96875 110.428 9.53551C109.924 9.10227 109.295 8.88565 108.542 8.88565C107.782 8.88565 107.143 9.10227 106.625 9.53551C106.113 9.96875 105.726 10.5582 105.463 11.304C105.208 12.0497 105.08 12.8984 105.08 13.8501C105.08 14.8018 105.208 15.6506 105.463 16.3963C105.726 17.142 106.113 17.7315 106.625 18.1648C107.143 18.5909 107.782 18.804 108.542 18.804ZM4.61293 64.1364C4.03764 64.1364 3.49787 64.0902 2.99361 63.9979C2.49645 63.9126 2.08452 63.8026 1.75781 63.6676L2.78054 60.2798C3.31321 60.4432 3.79261 60.532 4.21875 60.5462C4.65199 60.5604 5.02486 60.4609 5.33736 60.2479C5.65696 60.0348 5.91619 59.6726 6.11506 59.1612L6.38139 58.4688L0.511364 41.6364H5.28409L8.67188 53.6534H8.84233L12.2621 41.6364H17.0668L10.7067 59.7685C10.4013 60.6491 9.9858 61.4162 9.46023 62.0696C8.94176 62.7301 8.2848 63.2379 7.48935 63.593C6.69389 63.9553 5.73509 64.1364 4.61293 64.1364ZM26.2553 58.3196C24.6005 58.3196 23.1694 57.968 21.962 57.2649C20.7617 56.5547 19.8349 55.5675 19.1815 54.3033C18.5281 53.032 18.2013 51.5582 18.2013 49.8821C18.2013 48.1918 18.5281 46.7145 19.1815 45.4503C19.8349 44.179 20.7617 43.1918 21.962 42.4886C23.1694 41.7784 24.6005 41.4233 26.2553 41.4233C27.9102 41.4233 29.3377 41.7784 30.538 42.4886C31.7454 43.1918 32.6758 44.179 33.3292 45.4503C33.9826 46.7145 34.3093 48.1918 34.3093 49.8821C34.3093 51.5582 33.9826 53.032 33.3292 54.3033C32.6758 55.5675 31.7454 56.5547 30.538 57.2649C29.3377 57.968 27.9102 58.3196 26.2553 58.3196ZM26.2766 54.804C27.0295 54.804 27.658 54.5909 28.1623 54.1648C28.6665 53.7315 29.0465 53.142 29.3022 52.3963C29.565 51.6506 29.6964 50.8018 29.6964 49.8501C29.6964 48.8984 29.565 48.0497 29.3022 47.304C29.0465 46.5582 28.6665 45.9687 28.1623 45.5355C27.658 45.1023 27.0295 44.8857 26.2766 44.8857C25.5167 44.8857 24.8775 45.1023 24.359 45.5355C23.8477 45.9687 23.4606 46.5582 23.1978 47.304C22.9421 48.0497 22.8143 48.8984 22.8143 49.8501C22.8143 50.8018 22.9421 51.6506 23.1978 52.3963C23.4606 53.142 23.8477 53.7315 24.359 54.1648C24.8775 54.5909 25.5167 54.804 26.2766 54.804ZM47.7539 51.0327V41.6364H52.2923V58H47.935V55.0277H47.7646C47.3952 55.9865 46.7809 56.7571 45.9215 57.3395C45.0692 57.9219 44.0288 58.2131 42.8001 58.2131C41.7063 58.2131 40.744 57.9645 39.913 57.4673C39.082 56.9702 38.4322 56.2635 37.9634 55.3473C37.5018 54.4311 37.2674 53.3338 37.2603 52.0554V41.6364H41.7987V51.2457C41.8058 52.2116 42.065 52.9751 42.5763 53.5362C43.0877 54.0973 43.7731 54.3778 44.6325 54.3778C45.1793 54.3778 45.6907 54.2536 46.1665 54.005C46.6424 53.7493 47.0259 53.3729 47.3171 52.8757C47.6154 52.3786 47.761 51.7642 47.7539 51.0327ZM71.5696 41.6364V45.0455H61.7152V41.6364H71.5696ZM63.9524 37.7159H68.4908V52.9716C68.4908 53.3906 68.5547 53.7173 68.6825 53.9517C68.8104 54.179 68.9879 54.3388 69.2152 54.4311C69.4496 54.5234 69.7195 54.5696 70.0249 54.5696C70.2379 54.5696 70.451 54.5518 70.6641 54.5163C70.8771 54.4737 71.0405 54.4418 71.1541 54.4205L71.8679 57.7976C71.6406 57.8686 71.321 57.9503 70.9091 58.0426C70.4972 58.142 69.9964 58.2024 69.407 58.2237C68.3132 58.2663 67.3544 58.1207 66.5305 57.7869C65.7138 57.4531 65.0781 56.9347 64.6236 56.2315C64.169 55.5284 63.9453 54.6406 63.9524 53.5682V37.7159ZM79.4158 48.5398V58H74.8775V36.1818H79.288V44.5234H79.4798C79.8491 43.5575 80.4457 42.8011 81.2695 42.2543C82.0934 41.7003 83.1268 41.4233 84.3697 41.4233C85.506 41.4233 86.4968 41.6719 87.342 42.169C88.1942 42.6591 88.8548 43.3658 89.3235 44.2891C89.7994 45.2053 90.0337 46.3026 90.0266 47.581V58H85.4883V48.3906C85.4954 47.3821 85.2397 46.5973 84.7212 46.0362C84.2099 45.4751 83.4925 45.1946 82.5692 45.1946C81.9513 45.1946 81.4045 45.326 80.9286 45.5888C80.4599 45.8516 80.0906 46.2351 79.8207 46.7393C79.5579 47.2365 79.4229 47.8366 79.4158 48.5398ZM93.5982 58V41.6364H98.1365V58H93.5982ZM95.878 39.527C95.2033 39.527 94.6245 39.3033 94.1415 38.8558C93.6657 38.4013 93.4277 37.858 93.4277 37.2259C93.4277 36.6009 93.6657 36.0646 94.1415 35.6172C94.6245 35.1626 95.2033 34.9354 95.878 34.9354C96.5527 34.9354 97.128 35.1626 97.6039 35.6172C98.0868 36.0646 98.3283 36.6009 98.3283 37.2259C98.3283 37.858 98.0868 38.4013 97.6039 38.8558C97.128 39.3033 96.5527 39.527 95.878 39.527ZM106.31 48.5398V58H101.772V41.6364H106.097V44.5234H106.289C106.651 43.5717 107.259 42.8189 108.111 42.2649C108.963 41.7038 109.996 41.4233 111.211 41.4233C112.347 41.4233 113.338 41.6719 114.183 42.169C115.028 42.6662 115.685 43.3764 116.154 44.2997C116.623 45.2159 116.857 46.3097 116.857 47.581V58H112.319V48.3906C112.326 47.3892 112.07 46.608 111.552 46.0469C111.033 45.4787 110.32 45.1946 109.411 45.1946C108.8 45.1946 108.26 45.326 107.791 45.5888C107.33 45.8516 106.967 46.2351 106.705 46.7393C106.449 47.2365 106.317 47.8366 106.31 48.5398ZM124.546 53.2912L124.557 47.8473H125.218L130.459 41.6364H135.669L128.627 49.8608H127.551L124.546 53.2912ZM120.434 58V36.1818H124.972V58H120.434ZM130.661 58L125.846 50.8729L128.872 47.6662L135.977 58H130.661ZM141.794 51.4588V51.0966C141.801 49.8537 141.911 48.8629 142.124 48.1243C142.345 47.3857 142.664 46.7891 143.083 46.3345C143.502 45.88 144.007 45.468 144.596 45.0987C145.036 44.8146 145.431 44.5199 145.779 44.2145C146.127 43.9091 146.404 43.5717 146.61 43.2024C146.816 42.826 146.919 42.407 146.919 41.9453C146.919 41.4553 146.801 41.0256 146.567 40.6562C146.333 40.2869 146.017 40.0028 145.619 39.804C145.228 39.6051 144.795 39.5057 144.319 39.5057C143.857 39.5057 143.421 39.6087 143.009 39.8146C142.597 40.0135 142.259 40.3118 141.997 40.7095C141.734 41.1001 141.592 41.5866 141.57 42.169H137.224C137.259 40.7486 137.6 39.5767 138.247 38.6534C138.893 37.723 139.749 37.0305 140.814 36.576C141.879 36.1143 143.055 35.8835 144.34 35.8835C145.754 35.8835 147.004 36.1179 148.09 36.5866C149.177 37.0483 150.029 37.7195 150.647 38.6001C151.265 39.4808 151.574 40.5426 151.574 41.7855C151.574 42.6165 151.436 43.3551 151.159 44.0014C150.889 44.6406 150.509 45.2088 150.019 45.706C149.529 46.196 148.95 46.6399 148.282 47.0376C147.721 47.3714 147.259 47.7195 146.897 48.0817C146.542 48.4439 146.276 48.8629 146.098 49.3388C145.928 49.8146 145.839 50.4006 145.832 51.0966V51.4588H141.794ZM143.904 58.277C143.193 58.277 142.586 58.0284 142.082 57.5312C141.585 57.027 141.34 56.4233 141.347 55.7202C141.34 55.0241 141.585 54.4276 142.082 53.9304C142.586 53.4332 143.193 53.1847 143.904 53.1847C144.578 53.1847 145.171 53.4332 145.683 53.9304C146.194 54.4276 146.453 55.0241 146.46 55.7202C146.453 56.1889 146.329 56.6186 146.088 57.0092C145.853 57.3928 145.544 57.7017 145.161 57.9361C144.777 58.1634 144.358 58.277 143.904 58.277Z"/>
</mask>
<path d="M5.03906 22L4.07415 22.2626L4.27483 23H5.03906V22ZM0.585938 5.63636V4.63636H-0.722565L-0.378971 5.89895L0.585938 5.63636ZM5.17756 5.63636L6.15198 5.41164L5.97319 4.63636H5.17756V5.63636ZM7.71307 16.6307L6.73865 16.8554L6.91744 17.6307H7.71307V16.6307ZM7.86222 16.6307V17.6307H8.65038L8.83454 16.8643L7.86222 16.6307ZM10.5043 5.63636V4.63636H9.7161L9.53194 5.40271L10.5043 5.63636ZM15.0107 5.63636L15.9818 5.39784L15.7948 4.63636H15.0107V5.63636ZM17.6953 16.5668L16.7242 16.8053L16.9112 17.5668H17.6953V16.5668ZM17.8338 16.5668V17.5668H18.6314L18.8088 16.7891L17.8338 16.5668ZM20.3267 5.63636V4.63636H19.5291L19.3517 5.414L20.3267 5.63636ZM24.9077 5.63636L25.8727 5.89836L26.2154 4.63636H24.9077V5.63636ZM20.4652 22V23H21.2299L21.4303 22.262L20.4652 22ZM15.6605 22L14.6959 22.2636L14.8971 23H15.6605V22ZM12.848 11.7088L13.8126 11.4452L13.6114 10.7088H12.848V11.7088ZM12.6456 11.7088V10.7088H11.8822L11.681 11.4452L12.6456 11.7088ZM9.8331 22V23H10.5965L10.7977 22.2636L9.8331 22ZM6.00397 21.7374L1.55085 5.37378L-0.378971 5.89895L4.07415 22.2626L6.00397 21.7374ZM0.585938 6.63636H5.17756V4.63636H0.585938V6.63636ZM4.20313 5.86108L6.73865 16.8554L8.68749 16.406L6.15198 5.41164L4.20313 5.86108ZM7.71307 17.6307H7.86222V15.6307H7.71307V17.6307ZM8.83454 16.8643L11.4766 5.87002L9.53194 5.40271L6.8899 16.397L8.83454 16.8643ZM10.5043 6.63636H15.0107V4.63636H10.5043V6.63636ZM14.0395 5.87489L16.7242 16.8053L18.6664 16.3282L15.9818 5.39784L14.0395 5.87489ZM17.6953 17.5668H17.8338V15.5668H17.6953V17.5668ZM18.8088 16.7891L21.3017 5.85872L19.3517 5.414L16.8588 16.3444L18.8088 16.7891ZM20.3267 6.63636H24.9077V4.63636H20.3267V6.63636ZM23.9426 5.37436L19.5001 21.738L21.4303 22.262L25.8727 5.89836L23.9426 5.37436ZM20.4652 21H15.6605V23H20.4652V21ZM16.6251 21.7364L13.8126 11.4452L11.8834 11.9724L14.6959 22.2636L16.6251 21.7364ZM12.848 10.7088H12.6456V12.7088H12.848V10.7088ZM11.681 11.4452L8.86847 21.7364L10.7977 22.2636L13.6102 11.9724L11.681 11.4452ZM9.8331 21H5.03906V23H9.8331V21ZM31.867 12.5398L30.867 12.5297V12.5398H31.867ZM31.867 22V23H32.867V22H31.867ZM27.3287 22H26.3287V23H27.3287V22ZM27.3287 0.181818V-0.818182H26.3287V0.181818H27.3287ZM31.7392 0.181818H32.7392V-0.818182H31.7392V0.181818ZM31.7392 8.52344H30.7392V9.52344H31.7392V8.52344ZM31.9309 8.52344V9.52344H32.6192L32.865 8.88057L31.9309 8.52344ZM33.7207 6.25426L34.2738 7.08743L34.2787 7.0841L33.7207 6.25426ZM39.7931 6.16903L39.2861 7.03101L39.2947 7.03594L39.7931 6.16903ZM41.7747 8.28906L40.883 8.74177L40.8872 8.74998L41.7747 8.28906ZM42.4778 11.581L41.4778 11.5754V11.581H42.4778ZM42.4778 22V23H43.4778V22H42.4778ZM37.9395 22H36.9395V23H37.9395V22ZM37.9395 12.3906L36.9395 12.3836V12.3906H37.9395ZM37.1724 10.0362L36.4333 10.7098L36.438 10.7149L37.1724 10.0362ZM33.3798 9.58878L32.8964 8.71337L32.8908 8.7165L33.3798 9.58878ZM32.2718 10.7393L31.3902 10.2675L31.3877 10.272L32.2718 10.7393ZM30.867 12.5398V22H32.867V12.5398H30.867ZM31.867 21H27.3287V23H31.867V21ZM28.3287 22V0.181818H26.3287V22H28.3287ZM27.3287 1.18182H31.7392V-0.818182H27.3287V1.18182ZM30.7392 0.181818V8.52344H32.7392V0.181818H30.7392ZM31.7392 9.52344H31.9309V7.52344H31.7392V9.52344ZM32.865 8.88057C33.1636 8.09966 33.6316 7.51367 34.2737 7.08741L33.1677 5.42111C32.1621 6.08861 31.4369 7.01539 30.9969 8.1663L32.865 8.88057ZM34.2787 7.0841C34.9004 6.66608 35.7265 6.4233 36.8208 6.4233V4.4233C35.4294 4.4233 34.1888 4.73449 33.1627 5.42442L34.2787 7.0841ZM36.8208 6.4233C37.8076 6.4233 38.6176 6.63773 39.2861 7.03097L40.3002 5.3071C39.2783 4.70602 38.1068 4.4233 36.8208 4.4233V6.4233ZM39.2947 7.03594C39.9692 7.42379 40.4973 7.98211 40.883 8.74175L42.6663 7.83637C42.1145 6.74943 41.3216 5.89439 40.2916 5.30213L39.2947 7.03594ZM40.8872 8.74998C41.2725 9.49177 41.4842 10.4213 41.4778 11.5754L43.4778 11.5865C43.4856 10.1838 43.2286 8.91874 42.6621 7.82814L40.8872 8.74998ZM41.4778 11.581V22H43.4778V11.581H41.4778ZM42.4778 21H37.9395V23H42.4778V21ZM38.9395 22V12.3906H36.9395V22H38.9395ZM38.9394 12.3977C38.9477 11.2186 38.6471 10.1586 37.9069 9.35756L36.438 10.7149C36.7347 11.036 36.9454 11.5456 36.9395 12.3836L38.9394 12.3977ZM37.9115 9.36262C37.1704 8.54951 36.1592 8.1946 35.0204 8.1946V10.1946C35.7282 10.1946 36.1516 10.4008 36.4333 10.7098L37.9115 9.36262ZM35.0204 8.1946C34.2569 8.1946 33.5395 8.35824 32.8964 8.71339L33.8632 10.4642C34.1718 10.2937 34.5482 10.1946 35.0204 10.1946V8.1946ZM32.8908 8.7165C32.2448 9.07865 31.744 9.60634 31.3902 10.2675L33.1535 11.2112C33.3394 10.8638 33.5773 10.6245 33.8688 10.4611L32.8908 8.7165ZM31.3877 10.272C31.0341 10.9411 30.8754 11.7062 30.8671 12.5297L32.867 12.5499C32.8728 11.9671 32.984 11.5319 33.1559 11.2067L31.3877 10.272ZM47.9244 21.7656L47.5123 22.6768L47.519 22.6798L47.9244 21.7656ZM45.9854 20.1357L45.1458 20.6789L45.1521 20.6884L45.9854 20.1357ZM45.783 15.1392L44.9032 14.6639L44.9032 14.6639L45.783 15.1392ZM47.1467 13.6477L46.5991 12.8109L46.5991 12.8109L47.1467 13.6477ZM49.1069 12.7955L48.8556 11.8275L48.8533 11.8281L49.1069 12.7955ZM51.4293 12.3906L51.5254 13.386L51.5332 13.3852L51.4293 12.3906ZM53.7305 12.1136L53.8753 13.1032L53.887 13.1013L53.7305 12.1136ZM54.9982 11.7088L54.4384 10.8802L54.4384 10.8802L54.9982 11.7088ZM54.7532 9.29048L54.092 10.0407L54.0983 10.0462L54.7532 9.29048ZM51.0138 9.27983L51.6063 10.0855L51.6139 10.0798L51.0138 9.27983ZM50.055 10.6222L49.9741 11.6189L50.7884 11.685L51.0156 10.9002L50.055 10.6222ZM45.8576 10.2812L44.8798 10.0717L44.6411 11.1857L45.7766 11.278L45.8576 10.2812ZM47.1147 7.70312L47.8719 8.35637L47.875 8.3527L47.1147 7.70312ZM49.533 6.01989L49.901 6.94975L49.9044 6.94836L49.533 6.01989ZM55.5948 5.7429L55.3464 6.71156L55.3484 6.71207L55.5948 5.7429ZM57.8214 6.73366L57.2522 7.55587L57.2564 7.55875L57.8214 6.73366ZM59.3661 8.45952L58.4845 8.9315L58.4865 8.93522L59.3661 8.45952ZM59.9308 22V23H60.9308V22H59.9308ZM55.6268 22H54.6268V23H55.6268V22ZM55.6268 19.7308H56.6268V18.7308H55.6268V19.7308ZM55.4989 19.7308V18.7308H54.8885L54.6095 19.2738L55.4989 19.7308ZM54.4442 21.0838L55.1011 21.8379L55.1079 21.8319L54.4442 21.0838ZM52.8569 21.9893L53.1829 22.9348L53.1925 22.9313L52.8569 21.9893ZM53.7837 18.7827L54.2408 19.6722L54.2505 19.6671L53.7837 18.7827ZM54.9876 17.696L54.1455 17.1566L54.1455 17.1566L54.9876 17.696ZM55.4244 14.4148H56.4244V12.5721L54.8794 13.5763L55.4244 14.4148ZM54.8384 14.6705L55.1206 15.6298L55.1294 15.6272L55.1383 15.6244L54.8384 14.6705ZM54.0181 14.8729L54.201 15.856L54.212 15.854L54.223 15.8517L54.0181 14.8729ZM53.1019 15.0327L53.2401 16.0231L53.2514 16.0215L53.2626 16.0197L53.1019 15.0327ZM52.271 15.1499L52.1295 14.1599L52.1258 14.1604L52.271 15.1499ZM50.8754 15.5227L51.2693 16.4419L51.2693 16.4419L50.8754 15.5227ZM49.9485 16.2152L50.739 16.8278L50.7462 16.8183L49.9485 16.2152ZM50.2894 18.6974L49.6997 19.5051L49.7069 19.5103L49.7142 19.5155L50.2894 18.6974ZM50.7156 21.3089C49.7879 21.3089 48.9992 21.1484 48.3298 20.8515L47.519 22.6798C48.4831 23.1073 49.5552 23.3089 50.7156 23.3089V21.3089ZM48.3364 20.8544C47.6835 20.5592 47.1862 20.1368 46.8188 19.5829L45.1521 20.6884C45.7363 21.5691 46.5317 22.2334 47.5123 22.6768L48.3364 20.8544ZM46.825 19.5924C46.4845 19.0661 46.2823 18.3648 46.2823 17.4297H44.2823C44.2823 18.6537 44.5489 19.7563 45.1459 20.6789L46.825 19.5924ZM46.2823 17.4297C46.2823 16.6391 46.4278 16.0497 46.6628 15.6145L44.9032 14.6639C44.4707 15.4645 44.2823 16.4021 44.2823 17.4297H46.2823ZM46.6628 15.6145C46.9194 15.1396 47.2611 14.7679 47.6942 14.4845L46.5991 12.8109C45.8817 13.2804 45.3142 13.903 44.9032 14.6639L46.6628 15.6145ZM47.6942 14.4845C48.1706 14.1728 48.7229 13.9299 49.3605 13.7628L48.8533 11.8281C48.0278 12.0445 47.2733 12.3698 46.5991 12.8109L47.6942 14.4845ZM49.3582 13.7634C50.0427 13.5857 50.7647 13.4594 51.5254 13.386L51.3333 11.3952C50.4747 11.4781 49.6484 11.6217 48.8556 11.8275L49.3582 13.7634ZM51.5332 13.3852C52.4913 13.2851 53.2736 13.1911 53.8753 13.1031L53.5857 11.1242C53.0226 11.2066 52.2708 11.2973 51.3254 11.396L51.5332 13.3852ZM53.887 13.1013C54.5106 13.0024 55.1101 12.8401 55.5581 12.5374L54.4384 10.8802C54.3608 10.9326 54.1151 11.0402 53.5739 11.126L53.887 13.1013ZM55.5581 12.5374C56.1262 12.1535 56.3924 11.5626 56.3924 10.9205H54.3924C54.3924 10.9447 54.3901 10.9553 54.3901 10.9552C54.3903 10.9545 54.3924 10.9454 54.3994 10.9313C54.4066 10.917 54.4159 10.9035 54.4256 10.8927C54.435 10.8821 54.4409 10.8785 54.4384 10.8802L55.5581 12.5374ZM56.3924 10.9205V10.8565H54.3924V10.9205H56.3924ZM56.3924 10.8565C56.3924 9.95431 56.0966 9.13148 55.4081 8.53479L54.0983 10.0462C54.262 10.1881 54.3924 10.4093 54.3924 10.8565H56.3924ZM55.4144 8.54027C54.7528 7.95714 53.8871 7.73651 52.9634 7.73651V9.73651C53.5881 9.73651 53.9156 9.88519 54.092 10.0407L55.4144 8.54027ZM52.9634 7.73651C52.0057 7.73651 51.1218 7.94884 50.4138 8.47983L51.6139 10.0798C51.8718 9.88639 52.2876 9.73651 52.9634 9.73651V7.73651ZM50.4215 8.47418C49.7737 8.9505 49.3162 9.5781 49.0945 10.3441L51.0156 10.9002C51.1064 10.5867 51.2881 10.3194 51.6062 10.0855L50.4215 8.47418ZM50.136 9.62544L45.9386 9.28453L45.7766 11.278L49.9741 11.6189L50.136 9.62544ZM46.8354 10.4908C47.0156 9.64989 47.3634 8.94575 47.8719 8.35636L46.3575 7.04989C45.616 7.90936 45.1257 8.92397 44.8798 10.0717L46.8354 10.4908ZM47.875 8.3527C48.3834 7.75764 49.0494 7.28667 49.901 6.94974L49.1651 5.09003C48.0422 5.53435 47.096 6.18554 46.3544 7.05355L47.875 8.3527ZM49.9044 6.94836C50.7577 6.60704 51.7779 6.4233 52.9847 6.4233V4.4233C51.5779 4.4233 50.297 4.63728 49.1616 5.09141L49.9044 6.94836ZM52.9847 6.4233C53.815 6.4233 54.6013 6.52051 55.3464 6.71156L55.8432 4.77423C54.9264 4.53915 53.9726 4.4233 52.9847 4.4233V6.4233ZM55.3484 6.71207C56.0825 6.8987 56.7132 7.18271 57.2522 7.55586L58.3906 5.91147C57.637 5.38973 56.7832 5.01323 55.8412 4.77373L55.3484 6.71207ZM57.2564 7.55875C57.7765 7.91491 58.1832 8.36871 58.4845 8.93149L60.2477 7.98754C59.7962 7.14407 59.1731 6.4473 58.3864 5.90858L57.2564 7.55875ZM58.4865 8.93522C58.7677 9.45523 58.9308 10.1185 58.9308 10.9631H60.9308C60.9308 9.86164 60.7173 8.85585 60.2457 7.98381L58.4865 8.93522ZM58.9308 10.9631V22H60.9308V10.9631H58.9308ZM59.9308 21H55.6268V23H59.9308V21ZM56.6268 22V19.7308H54.6268V22H56.6268ZM55.6268 18.7308H55.4989V20.7308H55.6268V18.7308ZM54.6095 19.2738C54.4047 19.6723 54.1306 20.0253 53.7806 20.3357L55.1079 21.8319C55.6386 21.3611 56.0676 20.8121 56.3884 20.1879L54.6095 19.2738ZM53.7875 20.3297C53.4524 20.6216 53.0357 20.864 52.5212 21.0474L53.1925 22.9313C53.9138 22.6743 54.5554 22.3131 55.101 21.8379L53.7875 20.3297ZM52.5309 21.044C52.0395 21.2134 51.4397 21.3089 50.7156 21.3089V23.3089C51.6107 23.3089 52.4385 23.1914 53.1829 22.9347L52.5309 21.044ZM52.0153 20.1768C52.8162 20.1768 53.5668 20.0184 54.2408 19.6721L53.3267 17.8932C52.9779 18.0725 52.5496 18.1768 52.0153 18.1768V20.1768ZM54.2505 19.6671C54.9034 19.3225 55.4386 18.8458 55.8296 18.2354L54.1455 17.1566C53.9542 17.4553 53.6868 17.7031 53.317 17.8983L54.2505 19.6671ZM55.8296 18.2355C56.2308 17.6092 56.4244 16.9046 56.4244 16.1513H54.4244C54.4244 16.5485 54.3267 16.8738 54.1455 17.1566L55.8296 18.2355ZM56.4244 16.1513V14.4148H54.4244V16.1513H56.4244ZM54.8794 13.5763C54.8427 13.6002 54.7417 13.6526 54.5386 13.7165L55.1383 15.6244C55.4323 15.532 55.722 15.414 55.9693 15.2532L54.8794 13.5763ZM54.5563 13.7111C54.3454 13.7731 54.0985 13.8344 53.8132 13.8941L54.223 15.8517C54.5485 15.7835 54.8484 15.7099 55.1206 15.6298L54.5563 13.7111ZM53.8352 13.8897C53.5372 13.9452 53.2392 13.9972 52.9412 14.0457L53.2626 16.0197C53.5754 15.9687 53.8883 15.9142 54.201 15.856L53.8352 13.8897ZM52.9637 14.0423C52.6575 14.085 52.3794 14.1242 52.1295 14.1599L52.4124 16.1398C52.6597 16.1045 52.9356 16.0656 53.2401 16.0231L52.9637 14.0423ZM52.1258 14.1604C51.5274 14.2482 50.9753 14.3919 50.4814 14.6036L51.2693 16.4419C51.5709 16.3126 51.9491 16.2078 52.4161 16.1393L52.1258 14.1604ZM50.4814 14.6036C49.9537 14.8298 49.4938 15.1586 49.1508 15.6121L50.7462 16.8183C50.8436 16.6894 51.0016 16.5566 51.2693 16.4419L50.4814 14.6036ZM49.1581 15.6026C48.7781 16.093 48.6183 16.6753 48.6183 17.2805H50.6183C50.6183 17.0335 50.6786 16.9056 50.7389 16.8278L49.1581 15.6026ZM48.6183 17.2805C48.6183 18.1752 48.9619 18.9663 49.6997 19.5051L50.8791 17.8898C50.722 17.7751 50.6183 17.6217 50.6183 17.2805H48.6183ZM49.7142 19.5155C50.3755 19.9804 51.1657 20.1768 52.0153 20.1768V18.1768C51.4728 18.1768 51.1124 18.0537 50.8646 17.8794L49.7142 19.5155ZM72.1555 5.63636H73.1555V4.63636H72.1555V5.63636ZM72.1555 9.04545V10.0455H73.1555V9.04545H72.1555ZM62.3011 9.04545H61.3011V10.0455H62.3011V9.04545ZM62.3011 5.63636V4.63636H61.3011V5.63636H62.3011ZM64.5384 1.71591V0.715909H63.5384V1.71591H64.5384ZM69.0767 1.71591H70.0767V0.715909H69.0767V1.71591ZM69.2685 17.9517L68.3905 18.4306L68.3969 18.442L69.2685 17.9517ZM69.8011 18.4311L69.4247 19.3576L69.4346 19.3615L69.8011 18.4311ZM71.25 18.5163L71.4144 19.5027L71.4303 19.5001L71.4461 19.4969L71.25 18.5163ZM71.7401 18.4205L72.7184 18.2137L72.5163 17.2575L71.5558 17.4376L71.7401 18.4205ZM72.4538 21.7976L72.7521 22.7521L73.6203 22.4807L73.4322 21.5908L72.4538 21.7976ZM71.495 22.0426L71.2763 21.0668L71.2683 21.0686L71.2604 21.0705L71.495 22.0426ZM69.9929 22.2237L69.9568 21.2244L69.954 21.2245L69.9929 22.2237ZM67.1165 21.7869L66.7382 22.7126L66.741 22.7137L67.1165 21.7869ZM65.2095 20.2315L66.0493 19.6886L66.0493 19.6886L65.2095 20.2315ZM64.5384 17.5682L65.5384 17.5748V17.5682H64.5384ZM71.1555 5.63636V9.04545H73.1555V5.63636H71.1555ZM72.1555 8.04545H62.3011V10.0455H72.1555V8.04545ZM63.3011 9.04545V5.63636H61.3011V9.04545H63.3011ZM62.3011 6.63636H72.1555V4.63636H62.3011V6.63636ZM64.5384 2.71591H69.0767V0.715909H64.5384V2.71591ZM68.0767 1.71591V16.9716H70.0767V1.71591H68.0767ZM68.0767 16.9716C68.0767 17.4717 68.1495 17.9887 68.3906 18.4306L70.1464 17.4729C70.1317 17.446 70.0767 17.3096 70.0767 16.9716H68.0767ZM68.3969 18.442C68.6282 18.8531 68.9741 19.1745 69.4248 19.3576L70.1775 17.5046C70.1721 17.5024 70.1694 17.5009 70.1687 17.5004C70.1679 17.4999 70.1674 17.4995 70.1665 17.4987C70.1656 17.4979 70.1555 17.4889 70.14 17.4614L68.3969 18.442ZM69.4346 19.3615C69.8076 19.5085 70.2059 19.5696 70.6108 19.5696V17.5696C70.4049 17.5696 70.2634 17.5384 70.1677 17.5007L69.4346 19.3615ZM70.6108 19.5696C70.8797 19.5696 71.1478 19.5472 71.4144 19.5027L71.0856 17.5299C70.9261 17.5565 70.768 17.5696 70.6108 17.5696V19.5696ZM71.4461 19.4969C71.658 19.4545 71.8167 19.4235 71.9243 19.4033L71.5558 17.4376C71.4361 17.46 71.2681 17.4929 71.0539 17.5358L71.4461 19.4969ZM70.7617 18.6272L71.4754 22.0044L73.4322 21.5908L72.7184 18.2137L70.7617 18.6272ZM72.1556 20.8431C71.9671 20.902 71.6785 20.9767 71.2763 21.0668L71.7137 23.0184C72.1354 22.9239 72.486 22.8352 72.7521 22.7521L72.1556 20.8431ZM71.2604 21.0705C70.9333 21.1495 70.5033 21.2046 69.9568 21.2244L70.029 23.2231C70.6615 23.2002 71.2329 23.1346 71.7297 23.0147L71.2604 21.0705ZM69.954 21.2245C68.97 21.2628 68.1577 21.1298 67.492 20.8601L66.741 22.7137C67.723 23.1116 68.8283 23.2699 70.0318 23.223L69.954 21.2245ZM67.4948 20.8613C66.8566 20.6004 66.3866 20.2104 66.0493 19.6886L64.3697 20.7744C64.9415 21.6589 65.7428 22.3058 66.7382 22.7126L67.4948 20.8613ZM66.0493 19.6886C65.7266 19.1895 65.5322 18.5067 65.5383 17.5748L63.5384 17.5616C63.5303 18.7746 63.7833 19.8673 64.3697 20.7744L66.0493 19.6886ZM65.5384 17.5682V1.71591H63.5384V17.5682H65.5384ZM84.7079 21.3075L84.1656 22.1478L84.1726 22.1522L84.7079 21.3075ZM82.3216 18.4631L81.4142 18.8834L81.4171 18.8896L82.3216 18.4631ZM82.3535 9.16264L83.253 9.59955L83.254 9.59753L82.3535 9.16264ZM84.7612 6.3608L85.2863 7.21183L85.288 7.21081L84.7612 6.3608ZM90.3649 5.89205L89.9094 6.78238L89.9218 6.78852L90.3649 5.89205ZM91.8564 7.04261L91.0813 7.67455L91.0866 7.68106L91.0921 7.68748L91.8564 7.04261ZM92.7299 8.38494L91.8186 8.79653L92.0843 9.38494H92.7299V8.38494ZM92.8684 8.38494V9.38494H93.8684V8.38494H92.8684ZM92.8684 0.181818V-0.818182H91.8684V0.181818H92.8684ZM97.3961 0.181818H98.3961V-0.818182H97.3961V0.181818ZM97.3961 22V23H98.3961V22H97.3961ZM92.9217 22H91.9217V23H92.9217V22ZM92.9217 19.3793H93.9217V18.3793H92.9217V19.3793ZM92.7299 19.3793V18.3793H92.0943L91.8245 18.9548L92.7299 19.3793ZM91.8244 20.7322L91.0711 20.0746L91.0703 20.0755L91.8244 20.7322ZM90.3223 21.8295L89.896 20.925L89.8919 20.9269L90.3223 21.8295ZM91.377 18.0582L91.9962 18.8434L91.9977 18.8423L91.377 18.0582ZM92.5488 16.3643L91.6147 16.0072L91.6117 16.0152L92.5488 16.3643ZM92.5595 11.2827L93.4954 10.9305L93.4954 10.9305L92.5595 11.2827ZM87.6376 9.64204L87.0169 8.858L87.0169 8.858L87.6376 9.64204ZM86.4764 16.343L85.5352 16.6811L85.5393 16.6921L86.4764 16.343ZM87.6376 18.0476L87.005 18.822L87.0109 18.8269L87.0169 18.8316L87.6376 18.0476ZM88.0851 21.2663C87.0236 21.2663 86.0849 20.9963 85.2433 20.4629L84.1726 22.1522C85.348 22.8971 86.6607 23.2663 88.0851 23.2663V21.2663ZM85.2502 20.4673C84.4295 19.9376 83.7488 19.145 83.226 18.0365L81.4171 18.8896C82.0733 20.2812 82.9835 21.3848 84.1657 22.1477L85.2502 20.4673ZM83.2289 18.0427C82.7237 16.9522 82.448 15.5636 82.448 13.8395H80.448C80.448 15.7659 80.7546 17.4598 81.4142 18.8834L83.2289 18.0427ZM82.448 13.8395C82.448 12.0646 82.7347 10.6667 83.253 9.59955L81.454 8.72574C80.7649 10.1444 80.448 11.8644 80.448 13.8395H82.448ZM83.254 9.59753C83.7899 8.48786 84.4744 7.71281 85.2863 7.21183L84.2361 5.50976C83.0452 6.24458 82.1245 7.33742 81.453 8.72775L83.254 9.59753ZM85.288 7.21081C86.1363 6.68505 87.0579 6.4233 88.0744 6.4233V4.4233C86.6903 4.4233 85.4031 4.78654 84.2344 5.51079L85.288 7.21081ZM88.0744 6.4233C88.883 6.4233 89.4788 6.56198 89.9094 6.78229L90.8204 5.0018C90.0294 4.59711 89.0981 4.4233 88.0744 4.4233V6.4233ZM89.9218 6.78852C90.4314 7.04042 90.8085 7.33994 91.0813 7.67455L92.6314 6.41067C92.1514 5.82199 91.5341 5.35447 90.808 4.99557L89.9218 6.78852ZM91.0921 7.68748C91.4292 8.08703 91.6653 8.45713 91.8186 8.79653L93.6413 7.97336C93.3969 7.43207 93.0506 6.90729 92.6206 6.39774L91.0921 7.68748ZM92.7299 9.38494H92.8684V7.38494H92.7299V9.38494ZM93.8684 8.38494V0.181818H91.8684V8.38494H93.8684ZM92.8684 1.18182H97.3961V-0.818182H92.8684V1.18182ZM96.3961 0.181818V22H98.3961V0.181818H96.3961ZM97.3961 21H92.9217V23H97.3961V21ZM93.9217 22V19.3793H91.9217V22H93.9217ZM92.9217 18.3793H92.7299V20.3793H92.9217V18.3793ZM91.8245 18.9548C91.6575 19.3111 91.4112 19.6849 91.0711 20.0746L92.5777 21.3899C93.0188 20.8847 93.3763 20.3565 93.6354 19.8037L91.8245 18.9548ZM91.0703 20.0755C90.7918 20.3952 90.4097 20.6829 89.896 20.925L90.7486 22.7341C91.4707 22.3938 92.0899 21.95 92.5785 21.389L91.0703 20.0755ZM89.8919 20.9269C89.4497 21.1377 88.86 21.2663 88.0851 21.2663V23.2663C89.0715 23.2663 89.9732 23.1038 90.7526 22.7322L89.8919 20.9269ZM89.5233 19.6548C90.4466 19.6548 91.2914 19.3993 91.9962 18.8434L90.7577 17.2731C90.454 17.5126 90.0629 17.6548 89.5233 17.6548V19.6548ZM91.9977 18.8423C92.6768 18.3046 93.1642 17.577 93.4859 16.7135L91.6117 16.0152C91.3937 16.6005 91.0998 17.0022 90.7563 17.2742L91.9977 18.8423ZM93.4829 16.7215C93.813 15.8581 93.9643 14.8834 93.9643 13.8182H91.9643C91.9643 14.699 91.8386 15.4217 91.6148 16.0072L93.4829 16.7215ZM93.9643 13.8182C93.9643 12.7559 93.8174 11.7862 93.4954 10.9305L91.6235 11.6348C91.8414 12.2138 91.9643 12.9344 91.9643 13.8182H93.9643ZM93.4954 10.9305C93.1723 10.0717 92.6813 9.3506 91.9946 8.82607L90.7806 10.4154C91.1166 10.6721 91.4069 11.059 91.6235 11.6348L93.4954 10.9305ZM91.9946 8.82607C91.2855 8.28435 90.4427 8.0348 89.5233 8.0348V10.0348C90.0669 10.0348 90.467 10.1759 90.7806 10.4154L91.9946 8.82607ZM89.5233 8.0348C88.5862 8.0348 87.7298 8.2936 87.0169 8.858L88.2583 10.4261C88.5681 10.1808 88.9689 10.0348 89.5233 10.0348V8.0348ZM87.0169 8.858C86.3377 9.39573 85.8526 10.1208 85.5374 10.9813L87.4154 11.6693C87.6257 11.0951 87.9148 10.698 88.2583 10.4261L87.0169 8.858ZM85.5374 10.9813C85.226 11.8314 85.0822 12.783 85.0822 13.8182H87.0822C87.0822 12.9642 87.2012 12.2538 87.4154 11.6693L85.5374 10.9813ZM85.0822 13.8182C85.0822 14.8602 85.2259 15.8199 85.5353 16.6811L87.4175 16.005C87.2013 15.4031 87.0822 14.6796 87.0822 13.8182H85.0822ZM85.5393 16.6921C85.8595 17.5515 86.3395 18.2784 87.005 18.822L88.2703 17.2731C87.9272 16.9929 87.6331 16.5834 87.4135 15.9939L85.5393 16.6921ZM87.0169 18.8316C87.7298 19.396 88.5862 19.6548 89.5233 19.6548V17.6548C88.9689 17.6548 88.5681 17.5088 88.2583 17.2635L87.0169 18.8316ZM104.228 21.2649L103.718 22.1256L103.724 22.1291L104.228 21.2649ZM101.447 18.3033L100.558 18.7604L100.559 18.7624L101.447 18.3033ZM101.447 9.45028L102.335 9.90944L102.336 9.90741L101.447 9.45028ZM104.228 6.48864L104.733 7.35149L104.735 7.35057L104.228 6.48864ZM112.804 6.48864L112.294 7.34928L112.3 7.35278L112.804 6.48864ZM115.595 9.45028L114.705 9.90741L114.706 9.90944L115.595 9.45028ZM115.595 18.3033L116.483 18.7624L116.484 18.7604L115.595 18.3033ZM112.804 21.2649L113.309 22.1278L113.311 22.1268L112.804 21.2649ZM110.428 18.1648L111.073 18.9286L111.08 18.9233L110.428 18.1648ZM111.568 16.3963L110.625 16.0639L110.622 16.072L111.568 16.3963ZM111.568 11.304L110.622 11.6283L110.625 11.6363L111.568 11.304ZM106.625 9.53551L105.983 8.76813L105.978 8.77253L106.625 9.53551ZM105.463 11.304L104.52 10.9716L104.517 10.9797L105.463 11.304ZM105.463 16.3963L104.517 16.7206L104.52 16.7287L105.463 16.3963ZM106.625 18.1648L105.978 18.9278L105.984 18.9326L105.99 18.9373L106.625 18.1648ZM108.521 21.3196C107.01 21.3196 105.759 20.9998 104.731 20.4008L103.724 22.1291C105.111 22.9363 106.722 23.3196 108.521 23.3196V21.3196ZM104.737 20.4043C103.702 19.7917 102.905 18.9452 102.335 17.8441L100.559 18.7624C101.296 20.1898 102.353 21.3177 103.718 22.1255L104.737 20.4043ZM102.336 17.8461C101.767 16.7388 101.467 15.4267 101.467 13.8821H99.467C99.467 15.6898 99.82 17.3252 100.558 18.7604L102.336 17.8461ZM101.467 13.8821C101.467 12.3217 101.768 11.0074 102.335 9.90944L100.559 8.99113C99.8194 10.4216 99.467 12.0619 99.467 13.8821H101.467ZM102.336 9.90741C102.906 8.80015 103.701 7.95583 104.733 7.35149L103.722 5.62578C102.353 6.42769 101.295 7.5578 100.558 8.99316L102.336 9.90741ZM104.735 7.35057C105.763 6.74594 107.012 6.4233 108.521 6.4233V4.4233C106.72 4.4233 105.108 4.81088 103.721 5.6267L104.735 7.35057ZM108.521 6.4233C110.03 6.4233 111.275 6.746 112.294 7.34926L113.313 5.62801C111.932 4.81081 110.321 4.4233 108.521 4.4233V6.4233ZM112.3 7.35278C113.339 7.95755 114.137 8.80171 114.705 9.90741L116.484 8.99316C115.746 7.55624 114.683 6.42597 113.307 5.62449L112.3 7.35278ZM114.706 9.90944C115.274 11.0074 115.575 12.3217 115.575 13.8821H117.575C117.575 12.0619 117.223 10.4216 116.483 8.99113L114.706 9.90944ZM115.575 13.8821C115.575 15.4267 115.275 16.7388 114.705 17.8461L116.484 18.7604C117.222 17.3252 117.575 15.6898 117.575 13.8821H115.575ZM114.706 17.8441C114.138 18.9436 113.339 19.79 112.297 20.403L113.311 22.1268C114.683 21.3194 115.745 20.1913 116.483 18.7624L114.706 17.8441ZM112.298 20.4021C111.278 20.9997 110.032 21.3196 108.521 21.3196V23.3196C110.32 23.3196 111.929 22.9364 113.309 22.1278L112.298 20.4021ZM108.542 19.804C109.496 19.804 110.363 19.5285 111.073 18.9286L109.782 17.401C109.484 17.6533 109.094 17.804 108.542 17.804V19.804ZM111.08 18.9233C111.742 18.3542 112.211 17.6032 112.514 16.7206L110.622 16.072C110.413 16.6809 110.122 17.1089 109.776 17.4063L111.08 18.9233ZM112.511 16.7287C112.818 15.8569 112.962 14.8927 112.962 13.8501H110.962C110.962 14.711 110.843 15.4442 110.625 16.064L112.511 16.7287ZM112.962 13.8501C112.962 12.8076 112.818 11.8434 112.511 10.9716L110.625 11.6363C110.843 12.2561 110.962 12.9893 110.962 13.8501H112.962ZM112.514 10.9797C112.211 10.0971 111.742 9.34613 111.08 8.77701L109.776 10.294C110.122 10.5914 110.413 11.0194 110.622 11.6283L112.514 10.9797ZM111.08 8.77701C110.37 8.16729 109.5 7.88565 108.542 7.88565V9.88565C109.09 9.88565 109.477 10.0373 109.776 10.294L111.08 8.77701ZM108.542 7.88565C107.579 7.88565 106.704 8.16581 105.983 8.76815L107.266 10.3029C107.582 10.0387 107.986 9.88565 108.542 9.88565V7.88565ZM105.978 8.77253C105.309 9.33957 104.831 10.0889 104.52 10.9716L106.407 11.6363C106.621 11.0276 106.918 10.5979 107.271 10.2985L105.978 8.77253ZM104.517 10.9797C104.219 11.8488 104.08 12.8102 104.08 13.8501H106.08C106.08 12.9866 106.196 12.2506 106.409 11.6283L104.517 10.9797ZM104.08 13.8501C104.08 14.8901 104.219 15.8514 104.517 16.7206L106.409 16.072C106.196 15.4497 106.08 14.7136 106.08 13.8501H104.08ZM104.52 16.7287C104.831 17.6114 105.309 18.3607 105.978 18.9278L107.271 17.4018C106.918 17.1024 106.621 16.6727 106.407 16.064L104.52 16.7287ZM105.99 18.9373C106.711 19.5299 107.583 19.804 108.542 19.804V17.804C107.981 17.804 107.576 17.6519 107.26 17.3922L105.99 18.9373ZM2.99361 63.9979L3.17372 63.0142L3.16257 63.0122L2.99361 63.9979ZM1.75781 63.6676L0.800485 63.3786L0.538635 64.246L1.37605 64.5919L1.75781 63.6676ZM2.78054 60.2798L3.07373 59.3238L2.11348 59.0293L1.82321 59.9908L2.78054 60.2798ZM4.21875 60.5462L4.18544 61.5456L4.18598 61.5456L4.21875 60.5462ZM5.33736 60.2479L4.78263 59.4158L4.77402 59.4216L5.33736 60.2479ZM6.11506 59.1612L7.04707 59.5237L7.0484 59.5202L6.11506 59.1612ZM6.38139 58.4688L7.31474 58.8277L7.44633 58.4856L7.32562 58.1395L6.38139 58.4688ZM0.511364 41.6364V40.6364H-0.896434L-0.432867 41.9656L0.511364 41.6364ZM5.28409 41.6364L6.24658 41.365L6.04115 40.6364H5.28409V41.6364ZM8.67188 53.6534L7.70939 53.9247L7.91481 54.6534H8.67188V53.6534ZM8.84233 53.6534V54.6534H9.59746L9.80414 53.9271L8.84233 53.6534ZM12.2621 41.6364V40.6364H11.5069L11.3003 41.3627L12.2621 41.6364ZM17.0668 41.6364L18.0104 41.9674L18.4773 40.6364H17.0668V41.6364ZM10.7067 59.7685L9.76304 59.4375L9.76187 59.4408L10.7067 59.7685ZM9.46023 62.0696L8.68096 61.4428L8.67362 61.4522L9.46023 62.0696ZM7.48935 63.593L7.08168 62.6799L7.07493 62.683L7.48935 63.593ZM4.61293 63.1364C4.09085 63.1364 3.61187 63.0944 3.17371 63.0142L2.8135 64.9815C3.38387 65.086 3.98444 65.1364 4.61293 65.1364V63.1364ZM3.16257 63.0122C2.7102 62.9347 2.37567 62.8409 2.13957 62.7434L1.37605 64.5919C1.79336 64.7642 2.2827 64.8906 2.82464 64.9835L3.16257 63.0122ZM2.71514 63.9566L3.73787 60.5688L1.82321 59.9908L0.800485 63.3786L2.71514 63.9566ZM2.48735 61.2359C3.08012 61.4177 3.64897 61.5277 4.18544 61.5456L4.25206 59.5467C3.93626 59.5362 3.5463 59.4687 3.07373 59.3238L2.48735 61.2359ZM4.18598 61.5456C4.79906 61.5657 5.38803 61.4236 5.9007 61.0741L4.77402 59.4216C4.66169 59.4982 4.50492 59.555 4.25152 59.5467L4.18598 61.5456ZM5.89206 61.0799C6.44173 60.7135 6.80437 60.1477 7.04706 59.5237L5.18305 58.7988C5.02802 59.1974 4.87219 59.3561 4.78266 59.4158L5.89206 61.0799ZM7.0484 59.5202L7.31474 58.8277L5.44805 58.1098L5.18171 58.8022L7.0484 59.5202ZM7.32562 58.1395L1.45559 41.3071L-0.432867 41.9656L5.43716 58.798L7.32562 58.1395ZM0.511364 42.6364H5.28409V40.6364H0.511364V42.6364ZM4.32161 41.9077L7.70939 53.9247L9.63436 53.3821L6.24658 41.365L4.32161 41.9077ZM8.67188 54.6534H8.84233V52.6534H8.67188V54.6534ZM9.80414 53.9271L13.2239 41.9101L11.3003 41.3627L7.88052 53.3797L9.80414 53.9271ZM12.2621 42.6364H17.0668V40.6364H12.2621V42.6364ZM16.1231 41.3054L9.76304 59.4375L11.6503 60.0995L18.0104 41.9674L16.1231 41.3054ZM9.76187 59.4408C9.48992 60.2251 9.12705 60.8883 8.68101 61.4428L10.2394 62.6964C10.8445 61.9441 11.3126 61.0732 11.6515 60.0961L9.76187 59.4408ZM8.67362 61.4522C8.25937 61.9799 7.73443 62.3885 7.0817 62.6799L7.897 64.5062C8.83518 64.0873 9.62415 63.4803 10.2468 62.687L8.67362 61.4522ZM7.07493 62.683C6.44099 62.9716 5.63117 63.1364 4.61293 63.1364V65.1364C5.839 65.1364 6.94679 64.9389 7.90376 64.5031L7.07493 62.683ZM21.962 57.2649L21.4527 58.1256L21.4588 58.1291L21.962 57.2649ZM19.1815 54.3033L18.2921 54.7604L18.2931 54.7624L19.1815 54.3033ZM19.1815 45.4503L20.0698 45.9094L20.0709 45.9074L19.1815 45.4503ZM21.962 42.4886L22.4675 43.3515L22.469 43.3506L21.962 42.4886ZM30.538 42.4886L30.0287 43.3493L30.0348 43.3528L30.538 42.4886ZM33.3292 45.4503L32.4398 45.9074L32.4408 45.9094L33.3292 45.4503ZM33.3292 54.3033L34.2176 54.7624L34.2186 54.7604L33.3292 54.3033ZM30.538 57.2649L31.0435 58.1278L31.045 58.1268L30.538 57.2649ZM28.1623 54.1648L28.8078 54.9286L28.814 54.9233L28.1623 54.1648ZM29.3022 52.3963L28.359 52.0639L28.3563 52.072L29.3022 52.3963ZM29.3022 47.304L28.3562 47.6283L28.359 47.6363L29.3022 47.304ZM24.359 45.5355L23.7178 44.7681L23.7126 44.7725L24.359 45.5355ZM23.1978 47.304L22.2546 46.9716L22.2519 46.9797L23.1978 47.304ZM23.1978 52.3963L22.2518 52.7206L22.2546 52.7287L23.1978 52.3963ZM24.359 54.1648L23.7126 54.9278L23.7183 54.9326L23.7241 54.9373L24.359 54.1648ZM26.2553 57.3196C24.7445 57.3196 23.4938 56.9998 22.4652 56.4008L21.4588 58.1291C22.845 58.9363 24.4565 59.3196 26.2553 59.3196V57.3196ZM22.4712 56.4043C21.4359 55.7917 20.6389 54.9452 20.0698 53.8441L18.2931 54.7624C19.0308 56.1898 20.0875 57.3177 21.4528 58.1255L22.4712 56.4043ZM20.0709 53.8461C19.5017 52.7388 19.2013 51.4267 19.2013 49.8821H17.2013C17.2013 51.6898 17.5544 53.3252 18.2921 54.7604L20.0709 53.8461ZM19.2013 49.8821C19.2013 48.3217 19.5024 47.0074 20.0698 45.9094L18.2931 44.9911C17.5538 46.4216 17.2013 48.0619 17.2013 49.8821H19.2013ZM20.0709 45.9074C20.64 44.8002 21.4358 43.9558 22.4675 43.3515L21.4565 41.6258C20.0876 42.4277 19.0298 43.5578 18.2921 44.9932L20.0709 45.9074ZM22.469 43.3506C23.4969 42.7459 24.7462 42.4233 26.2553 42.4233V40.4233C24.4548 40.4233 22.8419 40.8109 21.455 41.6267L22.469 43.3506ZM26.2553 42.4233C27.7646 42.4233 29.0093 42.746 30.0288 43.3493L31.0472 41.628C29.6662 40.8108 28.0557 40.4233 26.2553 40.4233V42.4233ZM30.0348 43.3528C31.0732 43.9575 31.8715 44.8017 32.4398 45.9074L34.2186 44.9932C33.4801 43.5562 32.4175 42.426 31.0412 41.6245L30.0348 43.3528ZM32.4408 45.9094C33.0083 47.0074 33.3093 48.3217 33.3093 49.8821H35.3093C35.3093 48.0619 34.9569 46.4216 34.2175 44.9911L32.4408 45.9094ZM33.3093 49.8821C33.3093 51.4267 33.0089 52.7388 32.4398 53.8461L34.2186 54.7604C34.9563 53.3252 35.3093 51.6898 35.3093 49.8821H33.3093ZM32.4408 53.8441C31.8726 54.9436 31.0731 55.79 30.031 56.403L31.045 58.1268C32.4177 57.3194 33.479 56.1913 34.2175 54.7624L32.4408 53.8441ZM30.0325 56.4021C29.0124 56.9997 27.7663 57.3196 26.2553 57.3196V59.3196C28.054 59.3196 29.6631 58.9364 31.0435 58.1278L30.0325 56.4021ZM26.2766 55.804C27.2306 55.804 28.0978 55.5285 28.8077 54.9286L27.5168 53.401C27.2182 53.6533 26.8283 53.804 26.2766 53.804V55.804ZM28.814 54.9233C29.4764 54.3542 29.9455 53.6032 30.2481 52.7206L28.3563 52.072C28.1475 52.6809 27.8567 53.1089 27.5106 53.4063L28.814 54.9233ZM30.2454 52.7287C30.5525 51.8569 30.6964 50.8927 30.6964 49.8501H28.6964C28.6964 50.711 28.5774 51.4442 28.359 52.064L30.2454 52.7287ZM30.6964 49.8501C30.6964 48.8076 30.5525 47.8434 30.2454 46.9716L28.359 47.6363C28.5774 48.2561 28.6964 48.9893 28.6964 49.8501H30.6964ZM30.2481 46.9797C29.9455 46.0971 29.4764 45.3461 28.814 44.777L27.5106 46.294C27.8567 46.5914 28.1475 47.0194 28.3563 47.6283L30.2481 46.9797ZM28.814 44.777C28.1043 44.1673 27.2349 43.8857 26.2766 43.8857V45.8857C26.8241 45.8857 27.2118 46.0373 27.5106 46.294L28.814 44.777ZM26.2766 43.8857C25.3134 43.8857 24.4386 44.1658 23.7178 44.7682L25.0002 46.3029C25.3163 46.0387 25.72 45.8857 26.2766 45.8857V43.8857ZM23.7126 44.7725C23.0433 45.3396 22.5657 46.0889 22.2546 46.9716L24.141 47.6363C24.3555 47.0276 24.652 46.5979 25.0054 46.2985L23.7126 44.7725ZM22.2519 46.9797C21.9538 47.8488 21.8143 48.8102 21.8143 49.8501H23.8143C23.8143 48.9866 23.9304 48.2506 24.1437 47.6283L22.2519 46.9797ZM21.8143 49.8501C21.8143 50.8901 21.9538 51.8514 22.2519 52.7206L24.1437 52.072C23.9304 51.4497 23.8143 50.7136 23.8143 49.8501H21.8143ZM22.2546 52.7287C22.5657 53.6114 23.0433 54.3607 23.7126 54.9278L25.0054 53.4018C24.652 53.1024 24.3555 52.6727 24.141 52.064L22.2546 52.7287ZM23.7241 54.9373C24.445 55.5299 25.3175 55.804 26.2766 55.804V53.804C25.7158 53.804 25.31 53.6519 24.994 53.3922L23.7241 54.9373ZM47.7539 51.0327H46.7539L46.754 51.0424L47.7539 51.0327ZM47.7539 41.6364V40.6364H46.7539V41.6364H47.7539ZM52.2923 41.6364H53.2923V40.6364H52.2923V41.6364ZM52.2923 58V59H53.2923V58H52.2923ZM47.935 58H46.935V59H47.935V58ZM47.935 55.0277H48.935V54.0277H47.935V55.0277ZM47.7646 55.0277V54.0277H47.0781L46.8314 54.6683L47.7646 55.0277ZM45.9215 57.3395L45.3605 56.5117L45.3573 56.5138L45.9215 57.3395ZM39.913 57.4673L40.4264 56.6092L40.4264 56.6092L39.913 57.4673ZM37.9634 55.3473L37.0704 55.7973L37.0732 55.8028L37.9634 55.3473ZM37.2603 52.0554L36.2603 52.0554L36.2603 52.061L37.2603 52.0554ZM37.2603 41.6364V40.6364H36.2603V41.6364H37.2603ZM41.7987 41.6364H42.7987V40.6364H41.7987V41.6364ZM41.7987 51.2457H40.7986L40.7987 51.2531L41.7987 51.2457ZM42.5763 53.5362L43.3154 52.8626L43.3154 52.8626L42.5763 53.5362ZM46.1665 54.005L46.6296 54.8914L46.6399 54.8859L46.1665 54.005ZM47.3171 52.8757L46.4596 52.3612L46.4542 52.3703L47.3171 52.8757ZM48.7539 51.0327V41.6364H46.7539V51.0327H48.7539ZM47.7539 42.6364H52.2923V40.6364H47.7539V42.6364ZM51.2923 41.6364V58H53.2923V41.6364H51.2923ZM52.2923 57H47.935V59H52.2923V57ZM48.935 58V55.0277H46.935V58H48.935ZM47.935 54.0277H47.7646V56.0277H47.935V54.0277ZM46.8314 54.6683C46.5362 55.4345 46.0528 56.0425 45.3605 56.5117L46.4825 58.1673C47.509 57.4717 48.2542 56.5385 48.6977 55.3871L46.8314 54.6683ZM45.3573 56.5138C44.7009 56.9624 43.8665 57.2131 42.8001 57.2131V59.2131C44.191 59.2131 45.4376 58.8813 46.4857 58.1651L45.3573 56.5138ZM42.8001 57.2131C41.8632 57.2131 41.0829 57.0019 40.4264 56.6092L39.3996 58.3255C40.4051 58.927 41.5495 59.2131 42.8001 59.2131V57.2131ZM40.4264 56.6092C39.7666 56.2144 39.2426 55.6521 38.8537 54.8918L37.0732 55.8028C37.6217 56.8749 38.3975 57.7259 39.3996 58.3255L40.4264 56.6092ZM38.8565 54.8973C38.4793 54.1488 38.2667 53.211 38.2603 52.0498L36.2603 52.061C36.2681 53.4566 36.5243 54.7135 37.0704 55.7973L38.8565 54.8973ZM38.2603 52.0554V41.6364H36.2603V52.0554H38.2603ZM37.2603 42.6364H41.7987V40.6364H37.2603V42.6364ZM40.7987 41.6364V51.2457H42.7987V41.6364H40.7987ZM40.7987 51.2531C40.8071 52.3962 41.1183 53.4209 41.8373 54.2098L43.3154 52.8626C43.0117 52.5294 42.8044 52.0271 42.7986 51.2384L40.7987 51.2531ZM41.8373 54.2098C42.5641 55.0074 43.5329 55.3778 44.6325 55.3778V53.3778C44.0133 53.3778 43.6113 53.1872 43.3154 52.8626L41.8373 54.2098ZM44.6325 55.3778C45.3375 55.3778 46.0081 55.216 46.6296 54.8913L45.7035 53.1186C45.3733 53.2911 45.0212 53.3778 44.6325 53.3778V55.3778ZM46.6399 54.8859C47.2885 54.5374 47.8024 54.0259 48.18 53.3811L46.4542 52.3703C46.2495 52.7199 45.9963 52.9612 45.6932 53.1241L46.6399 54.8859ZM48.1746 53.3902C48.5898 52.6983 48.7623 51.8912 48.7539 51.023L46.754 51.0424C46.7597 51.6372 46.641 52.0588 46.4596 52.3612L48.1746 53.3902ZM71.5696 41.6364H72.5696V40.6364H71.5696V41.6364ZM71.5696 45.0455V46.0455H72.5696V45.0455H71.5696ZM61.7152 45.0455H60.7152V46.0455H61.7152V45.0455ZM61.7152 41.6364V40.6364H60.7152V41.6364H61.7152ZM63.9524 37.7159V36.7159H62.9524V37.7159H63.9524ZM68.4908 37.7159H69.4908V36.7159H68.4908V37.7159ZM68.6825 53.9517L67.8046 54.4306L67.811 54.442L68.6825 53.9517ZM69.2152 54.4311L68.8388 55.3576L68.8487 55.3615L69.2152 54.4311ZM70.6641 54.5163L70.8285 55.5027L70.8444 55.5001L70.8602 55.4969L70.6641 54.5163ZM71.1541 54.4205L72.1325 54.2137L71.9304 53.2575L70.9698 53.4376L71.1541 54.4205ZM71.8679 57.7976L72.1662 58.7521L73.0344 58.4807L72.8463 57.5908L71.8679 57.7976ZM70.9091 58.0426L70.6904 57.0668L70.6824 57.0686L70.6745 57.0705L70.9091 58.0426ZM69.407 58.2237L69.3708 57.2244L69.368 57.2245L69.407 58.2237ZM66.5305 57.7869L66.1522 58.7126L66.155 58.7137L66.5305 57.7869ZM64.6236 56.2315L65.4634 55.6886L65.4634 55.6886L64.6236 56.2315ZM63.9524 53.5682L64.9524 53.5748V53.5682H63.9524ZM70.5696 41.6364V45.0455H72.5696V41.6364H70.5696ZM71.5696 44.0455H61.7152V46.0455H71.5696V44.0455ZM62.7152 45.0455V41.6364H60.7152V45.0455H62.7152ZM61.7152 42.6364H71.5696V40.6364H61.7152V42.6364ZM63.9524 38.7159H68.4908V36.7159H63.9524V38.7159ZM67.4908 37.7159V52.9716H69.4908V37.7159H67.4908ZM67.4908 52.9716C67.4908 53.4717 67.5636 53.9887 67.8046 54.4306L69.5604 53.4729C69.5458 53.446 69.4908 53.3096 69.4908 52.9716H67.4908ZM67.811 54.442C68.0422 54.8531 68.3881 55.1745 68.8388 55.3576L69.5916 53.5046C69.5861 53.5024 69.5835 53.5009 69.5827 53.5004C69.582 53.4999 69.5814 53.4995 69.5805 53.4987C69.5797 53.4979 69.5696 53.4889 69.5541 53.4614L67.811 54.442ZM68.8487 55.3615C69.2217 55.5085 69.6199 55.5696 70.0249 55.5696V53.5696C69.819 53.5696 69.6775 53.5384 69.5817 53.5007L68.8487 55.3615ZM70.0249 55.5696C70.2938 55.5696 70.5618 55.5472 70.8285 55.5027L70.4997 53.5299C70.3402 53.5565 70.1821 53.5696 70.0249 53.5696V55.5696ZM70.8602 55.4969C71.0721 55.4545 71.2308 55.4235 71.3384 55.4033L70.9698 53.4376C70.8502 53.46 70.6822 53.4929 70.4679 53.5358L70.8602 55.4969ZM70.1757 54.6272L70.8895 58.0044L72.8463 57.5908L72.1325 54.2137L70.1757 54.6272ZM71.5696 56.8431C71.3812 56.902 71.0926 56.9767 70.6904 57.0668L71.1278 59.0184C71.5495 58.9239 71.9001 58.8352 72.1662 58.7521L71.5696 56.8431ZM70.6745 57.0705C70.3473 57.1495 69.9173 57.2046 69.3708 57.2244L69.4431 59.2231C70.0756 59.2002 70.647 59.1346 71.1437 59.0147L70.6745 57.0705ZM69.368 57.2245C68.384 57.2628 67.5717 57.1298 66.9061 56.8601L66.155 58.7137C67.1371 59.1116 68.2424 59.2699 69.4459 59.223L69.368 57.2245ZM66.9089 56.8613C66.2707 56.6004 65.8007 56.2104 65.4634 55.6886L63.7838 56.7744C64.3556 57.6589 65.1569 58.3058 66.1522 58.7126L66.9089 56.8613ZM65.4634 55.6886C65.1407 55.1895 64.9462 54.5067 64.9524 53.5748L62.9524 53.5616C62.9444 54.7746 63.1974 55.8673 63.7838 56.7744L65.4634 55.6886ZM64.9524 53.5682V37.7159H62.9524V53.5682H64.9524ZM79.4158 48.5398L78.4158 48.5297V48.5398H79.4158ZM79.4158 58V59H80.4158V58H79.4158ZM74.8775 58H73.8775V59H74.8775V58ZM74.8775 36.1818V35.1818H73.8775V36.1818H74.8775ZM79.288 36.1818H80.288V35.1818H79.288V36.1818ZM79.288 44.5234H78.288V45.5234H79.288V44.5234ZM79.4798 44.5234V45.5234H80.168L80.4138 44.8806L79.4798 44.5234ZM81.2695 42.2543L81.8226 43.0874L81.8275 43.0841L81.2695 42.2543ZM87.342 42.169L86.8349 43.031L86.8435 43.0359L87.342 42.169ZM89.3235 44.2891L88.4318 44.7418L88.4361 44.75L89.3235 44.2891ZM90.0266 47.581L89.0266 47.5754V47.581H90.0266ZM90.0266 58V59H91.0266V58H90.0266ZM85.4883 58H84.4883V59H85.4883V58ZM85.4883 48.3906L84.4883 48.3836V48.3906H85.4883ZM84.7212 46.0362L83.9821 46.7098L83.9868 46.7149L84.7212 46.0362ZM80.9286 45.5888L80.4452 44.7134L80.4396 44.7165L80.9286 45.5888ZM79.8207 46.7393L78.939 46.2675L78.9366 46.272L79.8207 46.7393ZM78.4158 48.5398V58H80.4158V48.5398H78.4158ZM79.4158 57H74.8775V59H79.4158V57ZM75.8775 58V36.1818H73.8775V58H75.8775ZM74.8775 37.1818H79.288V35.1818H74.8775V37.1818ZM78.288 36.1818V44.5234H80.288V36.1818H78.288ZM79.288 45.5234H79.4798V43.5234H79.288V45.5234ZM80.4138 44.8806C80.7124 44.0997 81.1804 43.5137 81.8226 43.0874L80.7165 41.4211C79.7109 42.0886 78.9858 43.0154 78.5457 44.1663L80.4138 44.8806ZM81.8275 43.0841C82.4492 42.6661 83.2754 42.4233 84.3697 42.4233V40.4233C82.9782 40.4233 81.7376 40.7345 80.7115 41.4244L81.8275 43.0841ZM84.3697 42.4233C85.3565 42.4233 86.1665 42.6377 86.835 43.031L87.849 41.3071C86.8272 40.706 85.6556 40.4233 84.3697 40.4233V42.4233ZM86.8435 43.0359C87.518 43.4238 88.0462 43.9821 88.4318 44.7418L90.2152 43.8364C89.6633 42.7494 88.8705 41.8944 87.8404 41.3021L86.8435 43.0359ZM88.4361 44.75C88.8213 45.4918 89.0331 46.4213 89.0266 47.5754L91.0266 47.5865C91.0344 46.1838 90.7774 44.9187 90.211 43.8281L88.4361 44.75ZM89.0266 47.581V58H91.0266V47.581H89.0266ZM90.0266 57H85.4883V59H90.0266V57ZM86.4883 58V48.3906H84.4883V58H86.4883ZM86.4883 48.3977C86.4966 47.2186 86.1959 46.1586 85.4557 45.3576L83.9868 46.7149C84.2835 47.036 84.4942 47.5456 84.4883 48.3836L86.4883 48.3977ZM85.4603 45.3626C84.7193 44.5495 83.708 44.1946 82.5692 44.1946V46.1946C83.277 46.1946 83.7005 46.4008 83.9821 46.7098L85.4603 45.3626ZM82.5692 44.1946C81.8057 44.1946 81.0883 44.3582 80.4452 44.7134L81.412 46.4642C81.7206 46.2937 82.097 46.1946 82.5692 46.1946V44.1946ZM80.4396 44.7165C79.7936 45.0787 79.2928 45.6063 78.939 46.2675L80.7023 47.2112C80.8883 46.8638 81.1261 46.6245 81.4176 46.4611L80.4396 44.7165ZM78.9366 46.272C78.5829 46.9411 78.4242 47.7062 78.4159 48.5297L80.4158 48.5499C80.4217 47.9671 80.5328 47.5319 80.7048 47.2067L78.9366 46.272ZM93.5982 58H92.5982V59H93.5982V58ZM93.5982 41.6364V40.6364H92.5982V41.6364H93.5982ZM98.1365 41.6364H99.1365V40.6364H98.1365V41.6364ZM98.1365 58V59H99.1365V58H98.1365ZM94.1415 38.8558L93.4508 39.5789L93.4563 39.5842L93.4619 39.5894L94.1415 38.8558ZM94.1415 35.6172L94.8265 36.3457L94.8269 36.3454L94.1415 35.6172ZM97.6039 35.6172L96.9131 36.3403L96.9187 36.3456L96.9242 36.3507L97.6039 35.6172ZM97.6039 38.8558L98.2889 39.5843L98.2892 39.584L97.6039 38.8558ZM94.5982 58V41.6364H92.5982V58H94.5982ZM93.5982 42.6364H98.1365V40.6364H93.5982V42.6364ZM97.1365 41.6364V58H99.1365V41.6364H97.1365ZM98.1365 57H93.5982V59H98.1365V57ZM95.878 38.527C95.4484 38.527 95.1142 38.3938 94.8211 38.1223L93.4619 39.5894C94.1347 40.2128 94.9582 40.527 95.878 40.527V38.527ZM94.8322 38.1327C94.5448 37.8581 94.4277 37.5724 94.4277 37.2259H92.4277C92.4277 38.1435 92.7865 38.9444 93.4508 39.5789L94.8322 38.1327ZM94.4277 37.2259C94.4277 36.8904 94.5415 36.6137 94.8265 36.3457L93.4565 34.8887C92.7898 35.5155 92.4277 36.3113 92.4277 37.2259H94.4277ZM94.8269 36.3454C95.1208 36.0688 95.4531 35.9354 95.878 35.9354V33.9354C94.9535 33.9354 94.1281 34.2565 93.4561 34.889L94.8269 36.3454ZM95.878 35.9354C96.3027 35.9354 96.6285 36.0684 96.9131 36.3403L98.2946 34.8941C97.6275 34.2569 96.8028 33.9354 95.878 33.9354V35.9354ZM96.9242 36.3507C97.2152 36.6203 97.3283 36.8956 97.3283 37.2259H99.3283C99.3283 36.3061 98.9584 35.5089 98.2835 34.8836L96.9242 36.3507ZM97.3283 37.2259C97.3283 37.5673 97.2118 37.8516 96.9185 38.1276L98.2892 39.584C98.9619 38.951 99.3283 38.1486 99.3283 37.2259H97.3283ZM96.9188 38.1273C96.6351 38.3941 96.3075 38.527 95.878 38.527V40.527C96.798 40.527 97.6209 40.2124 98.2889 39.5843L96.9188 38.1273ZM106.31 48.5398L105.31 48.5297V48.5398H106.31ZM106.31 58V59H107.31V58H106.31ZM101.772 58H100.772V59H101.772V58ZM101.772 41.6364V40.6364H100.772V41.6364H101.772ZM106.097 41.6364H107.097V40.6364H106.097V41.6364ZM106.097 44.5234H105.097V45.5234H106.097V44.5234ZM106.289 44.5234V45.5234H106.978L107.224 44.8791L106.289 44.5234ZM108.111 42.2649L108.656 43.1034L108.661 43.1002L108.111 42.2649ZM114.183 42.169L114.69 41.3071L114.69 41.3071L114.183 42.169ZM116.154 44.2997L115.262 44.7524L115.264 44.7552L116.154 44.2997ZM116.857 58V59H117.857V58H116.857ZM112.319 58H111.319V59H112.319V58ZM112.319 48.3906L111.319 48.3835V48.3906H112.319ZM111.552 46.0469L110.813 46.7209L110.817 46.7255L111.552 46.0469ZM107.791 45.5888L107.302 44.7165L107.296 44.7197L107.791 45.5888ZM106.705 46.7393L105.818 46.2772L105.815 46.282L106.705 46.7393ZM105.31 48.5398V58H107.31V48.5398H105.31ZM106.31 57H101.772V59H106.31V57ZM102.772 58V41.6364H100.772V58H102.772ZM101.772 42.6364H106.097V40.6364H101.772V42.6364ZM105.097 41.6364V44.5234H107.097V41.6364H105.097ZM106.097 45.5234H106.289V43.5234H106.097V45.5234ZM107.224 44.8791C107.511 44.1252 107.982 43.5416 108.656 43.1034L107.566 41.4265C106.535 42.0962 105.792 43.0183 105.354 44.1677L107.224 44.8791ZM108.661 43.1002C109.321 42.6656 110.154 42.4233 111.211 42.4233V40.4233C109.839 40.4233 108.605 40.7421 107.561 41.4297L108.661 43.1002ZM111.211 42.4233C112.198 42.4233 113.008 42.6377 113.676 43.031L114.69 41.3071C113.668 40.706 112.497 40.4233 111.211 40.4233V42.4233ZM113.676 43.031C114.347 43.4257 114.875 43.9895 115.262 44.7524L117.046 43.847C116.496 42.7634 115.71 41.9067 114.69 41.3071L113.676 43.031ZM115.264 44.7552C115.645 45.5011 115.857 46.4314 115.857 47.581H117.857C117.857 46.1879 117.6 44.9308 117.044 43.8442L115.264 44.7552ZM115.857 47.581V58H117.857V47.581H115.857ZM116.857 57H112.319V59H116.857V57ZM113.319 58V48.3906H111.319V58H113.319ZM113.319 48.3977C113.327 47.2236 113.025 46.168 112.286 45.3682L110.817 46.7255C111.115 47.0479 111.325 47.5549 111.319 48.3835L113.319 48.3977ZM112.291 45.3728C111.548 44.5591 110.545 44.1946 109.411 44.1946V46.1946C110.094 46.1946 110.519 46.3983 110.813 46.7209L112.291 45.3728ZM109.411 44.1946C108.652 44.1946 107.94 44.3591 107.302 44.7165L108.28 46.4611C108.58 46.2929 108.947 46.1946 109.411 46.1946V44.1946ZM107.296 44.7197C106.656 45.0844 106.163 45.615 105.818 46.2772L107.591 47.2015C107.772 46.8552 108.003 46.6187 108.286 46.4578L107.296 44.7197ZM105.815 46.282C105.472 46.9486 105.319 47.71 105.31 48.5297L107.31 48.5499C107.316 47.9633 107.425 47.5244 107.594 47.1967L105.815 46.282ZM124.546 53.2912L123.546 53.2892L123.541 55.9568L125.299 53.95L124.546 53.2912ZM124.557 47.8473V46.8473H123.559L123.557 47.8453L124.557 47.8473ZM125.218 47.8473V48.8473H125.682L125.982 48.4922L125.218 47.8473ZM130.459 41.6364V40.6364H129.994L129.695 40.9914L130.459 41.6364ZM135.669 41.6364L136.428 42.2867L137.841 40.6364H135.669V41.6364ZM128.627 49.8608V50.8608H129.087L129.386 50.5112L128.627 49.8608ZM127.551 49.8608V48.8608H127.097L126.798 49.202L127.551 49.8608ZM120.434 58H119.434V59H120.434V58ZM120.434 36.1818V35.1818H119.434V36.1818H120.434ZM124.972 36.1818H125.972V35.1818H124.972V36.1818ZM124.972 58V59H125.972V58H124.972ZM130.661 58L129.833 58.5598L130.13 59H130.661V58ZM125.846 50.8729L125.119 50.1866L124.569 50.7691L125.017 51.4327L125.846 50.8729ZM128.872 47.6662L129.696 47.0996L128.994 46.0793L128.144 46.9799L128.872 47.6662ZM135.977 58V59H137.879L136.801 57.4334L135.977 58ZM125.546 53.2931L125.557 47.8493L123.557 47.8453L123.546 53.2892L125.546 53.2931ZM124.557 48.8473H125.218V46.8473H124.557V48.8473ZM125.982 48.4922L131.223 42.2813L129.695 40.9914L124.453 47.2024L125.982 48.4922ZM130.459 42.6364H135.669V40.6364H130.459V42.6364ZM134.909 40.986L127.867 49.2104L129.386 50.5112L136.428 42.2867L134.909 40.986ZM128.627 48.8608H127.551V50.8608H128.627V48.8608ZM126.798 49.202L123.794 52.6324L125.299 53.95L128.303 50.5196L126.798 49.202ZM121.434 58V36.1818H119.434V58H121.434ZM120.434 37.1818H124.972V35.1818H120.434V37.1818ZM123.972 36.1818V58H125.972V36.1818H123.972ZM124.972 57H120.434V59H124.972V57ZM131.49 57.4402L126.675 50.313L125.017 51.4327L129.833 58.5598L131.49 57.4402ZM126.573 51.5591L129.599 48.3525L128.144 46.9799L125.119 50.1866L126.573 51.5591ZM128.048 48.2328L135.153 58.5666L136.801 57.4334L129.696 47.0996L128.048 48.2328ZM135.977 57H130.661V59H135.977V57ZM141.794 51.4588H140.794V52.4588H141.794V51.4588ZM141.794 51.0966L140.794 51.0909V51.0966H141.794ZM142.124 48.1243L141.166 47.8386L141.164 47.8471L142.124 48.1243ZM144.596 45.0987L145.127 45.9462L145.138 45.939L144.596 45.0987ZM145.779 44.2145L145.119 43.4629L145.119 43.4629L145.779 44.2145ZM146.61 43.2024L147.483 43.6895L147.487 43.6824L146.61 43.2024ZM146.567 40.6562L145.723 41.1921L145.723 41.1921L146.567 40.6562ZM145.619 39.804L145.165 40.6952L145.172 40.6984L145.619 39.804ZM143.009 39.8146L143.443 40.7153L143.456 40.7091L143.009 39.8146ZM141.997 40.7095L142.826 41.2677L142.831 41.2608L141.997 40.7095ZM141.57 42.169V43.169H142.535L142.57 42.2056L141.57 42.169ZM137.224 42.169L136.224 42.144L136.199 43.169H137.224V42.169ZM138.247 38.6534L139.066 39.2269L139.068 39.2239L138.247 38.6534ZM140.814 36.576L141.207 37.4958L141.212 37.4935L140.814 36.576ZM148.09 36.5866L147.694 37.5049L147.699 37.507L148.09 36.5866ZM150.647 38.6001L149.829 39.1745L149.829 39.1745L150.647 38.6001ZM151.159 44.0014L150.239 43.6075L150.237 43.6124L151.159 44.0014ZM150.019 45.706L150.726 46.4131L150.731 46.408L150.019 45.706ZM148.282 47.0376L148.793 47.897L148.794 47.8967L148.282 47.0376ZM146.897 48.0817L146.19 47.3745L146.183 47.3816L146.897 48.0817ZM146.098 49.3388L145.161 48.9892L145.157 49.0016L146.098 49.3388ZM145.832 51.0966L144.832 51.0864V51.0966H145.832ZM145.832 51.4588V52.4588H146.832V51.4588H145.832ZM142.082 57.5312L141.37 58.2333L141.375 58.2384L141.38 58.2434L142.082 57.5312ZM141.347 55.7202L142.347 55.7303L142.347 55.7201L142.347 55.71L141.347 55.7202ZM142.082 53.9304L141.38 53.2183L141.375 53.2233L142.082 53.9304ZM145.683 53.9304L144.986 54.6474L144.986 54.6474L145.683 53.9304ZM146.46 55.7202L147.46 55.7353L147.46 55.7226L147.46 55.71L146.46 55.7202ZM146.088 57.0092L145.237 56.4834L145.234 56.4878L146.088 57.0092ZM145.161 57.9361L145.671 58.7965L145.682 58.7894L145.161 57.9361ZM142.794 51.4588V51.0966H140.794V51.4588H142.794ZM142.794 51.1023C142.801 49.9022 142.908 49.0146 143.085 48.4015L141.164 47.8471C140.914 48.7112 140.802 49.8052 140.794 51.0909L142.794 51.1023ZM143.083 48.4099C143.27 47.7821 143.525 47.3307 143.819 47.0123L142.348 45.6567C141.803 46.2474 141.419 46.9892 141.166 47.8386L143.083 48.4099ZM143.819 47.0123C144.17 46.6307 144.604 46.2741 145.127 45.9461L144.065 44.2513C143.41 44.662 142.834 45.1292 142.348 45.6567L143.819 47.0123ZM145.138 45.939C145.615 45.6317 146.049 45.3078 146.438 44.9661L145.119 43.4629C144.812 43.732 144.458 43.9976 144.054 44.2584L145.138 45.939ZM146.438 44.9661C146.864 44.5925 147.216 44.1676 147.483 43.6895L145.736 42.7153C145.591 42.9759 145.389 43.2257 145.119 43.4629L146.438 44.9661ZM147.487 43.6824C147.779 43.1478 147.919 42.5616 147.919 41.9453H145.919C145.919 42.2523 145.852 42.5042 145.732 42.7224L147.487 43.6824ZM147.919 41.9453C147.919 41.289 147.759 40.6687 147.411 40.1204L145.723 41.1921C145.843 41.3824 145.919 41.6215 145.919 41.9453H147.919ZM147.411 40.1204C147.078 39.5951 146.623 39.1882 146.066 38.9095L145.172 40.6984C145.41 40.8174 145.587 40.9788 145.723 41.1921L147.411 40.1204ZM146.072 38.9128C145.53 38.6364 144.939 38.5057 144.319 38.5057V40.5057C144.651 40.5057 144.927 40.5738 145.165 40.6951L146.072 38.9128ZM144.319 38.5057C143.703 38.5057 143.113 38.6446 142.561 38.9202L143.456 40.7091C143.729 40.5727 144.012 40.5057 144.319 40.5057V38.5057ZM142.574 38.9141C141.993 39.1946 141.52 39.6169 141.162 40.1583L142.831 41.2608C142.999 41.0067 143.201 40.8324 143.443 40.7152L142.574 38.9141ZM141.167 40.1513C140.778 40.7296 140.598 41.408 140.571 42.1325L142.57 42.2056C142.586 41.7653 142.69 41.4706 142.826 41.2677L141.167 40.1513ZM141.57 41.169H137.224V43.169H141.57V41.169ZM138.224 42.194C138.255 40.919 138.558 39.9517 139.066 39.2269L137.427 38.0799C136.642 39.2017 136.263 40.5782 136.224 42.144L138.224 42.194ZM139.068 39.2239C139.604 38.4516 140.31 37.8783 141.207 37.4958L140.422 35.6562C139.187 36.1828 138.181 36.9945 137.425 38.0829L139.068 39.2239ZM141.212 37.4935C142.139 37.0919 143.177 36.8835 144.34 36.8835V34.8835C142.933 34.8835 141.62 35.1368 140.416 35.6584L141.212 37.4935ZM144.34 36.8835C145.643 36.8835 146.755 37.0995 147.694 37.5049L148.486 35.6684C147.253 35.1363 145.864 34.8835 144.34 34.8835V36.8835ZM147.699 37.507C148.631 37.9029 149.328 38.4616 149.829 39.1745L151.466 38.0258C150.73 36.9773 149.723 36.1936 148.481 35.6663L147.699 37.507ZM149.829 39.1745C150.311 39.8618 150.574 40.7152 150.574 41.7855H152.574C152.574 40.37 152.219 39.0998 151.466 38.0258L149.829 39.1745ZM150.574 41.7855C150.574 42.5053 150.454 43.1062 150.239 43.6075L152.078 44.3953C152.417 43.6041 152.574 42.7277 152.574 41.7855H150.574ZM150.237 43.6124C150.017 44.1343 149.708 44.5964 149.306 45.004L150.731 46.408C151.309 45.8212 151.76 45.147 152.08 44.3904L150.237 43.6124ZM149.312 44.9989C148.887 45.4238 148.375 45.8182 147.77 46.1785L148.794 47.8967C149.524 47.4617 150.171 46.9683 150.726 46.4131L149.312 44.9989ZM147.771 46.1782C147.157 46.5435 146.624 46.9402 146.19 47.3746L147.604 48.7888C147.894 48.4987 148.285 48.1994 148.793 47.897L147.771 46.1782ZM146.183 47.3816C145.73 47.8439 145.388 48.3824 145.161 48.9892L147.035 49.6884C147.164 49.3435 147.354 49.0439 147.611 48.7817L146.183 47.3816ZM145.157 49.0016C144.937 49.6137 144.84 50.3178 144.832 51.0864L146.832 51.1068C146.838 50.4833 146.918 50.0156 147.04 49.676L145.157 49.0016ZM144.832 51.0966V51.4588H146.832V51.0966H144.832ZM145.832 50.4588H141.794V52.4588H145.832V50.4588ZM143.904 57.277C143.455 57.277 143.1 57.1312 142.784 56.8191L141.38 58.2434C142.072 58.9256 142.931 59.277 143.904 59.277V57.277ZM142.794 56.8292C142.482 56.513 142.342 56.165 142.347 55.7303L140.347 55.7101C140.337 56.6816 140.687 57.541 141.37 58.2333L142.794 56.8292ZM142.347 55.71C142.342 55.2857 142.48 54.9468 142.789 54.6375L141.375 53.2233C140.69 53.9083 140.337 54.7626 140.347 55.7304L142.347 55.71ZM142.784 54.6425C143.1 54.3304 143.455 54.1847 143.904 54.1847V52.1847C142.931 52.1847 142.072 52.536 141.38 53.2183L142.784 54.6425ZM143.904 54.1847C144.302 54.1847 144.649 54.3203 144.986 54.6474L146.38 53.2134C145.694 52.5462 144.855 52.1847 143.904 52.1847V54.1847ZM144.986 54.6474C145.311 54.9639 145.456 55.3082 145.46 55.7304L147.46 55.71C147.45 54.7401 147.077 53.8912 146.38 53.2134L144.986 54.6474ZM145.461 55.705C145.456 55.9971 145.381 56.2497 145.237 56.4834L146.938 57.5351C147.277 56.9875 147.451 56.3807 147.46 55.7353L145.461 55.705ZM145.234 56.4878C145.083 56.7359 144.887 56.9311 144.639 57.0828L145.682 58.7894C146.201 58.4723 146.624 58.0496 146.941 57.5307L145.234 56.4878ZM144.651 57.0758C144.425 57.2097 144.182 57.277 143.904 57.277V59.277C144.534 59.277 145.129 59.117 145.67 58.7964L144.651 57.0758Z" fill="#35DC32" mask="url(#path-1-outside-1_780_1725)"/>
</svg>
