<svg width="163" height="24" viewBox="0 0 163 24" fill="none" xmlns="http://www.w3.org/2000/svg">
<mask id="path-1-outside-1_780_1994" maskUnits="userSpaceOnUse" x="-1" y="-1" width="165" height="26" fill="black">
<rect fill="white" x="-1" y="-1" width="165" height="26"/>
<path d="M15.3636 8.23438C15.2145 7.71591 15.005 7.25781 14.7351 6.86008C14.4652 6.45526 14.1349 6.11435 13.7443 5.83736C13.3608 5.55327 12.9205 5.33665 12.4233 5.1875C11.9332 5.03835 11.3899 4.96378 10.7933 4.96378C9.67827 4.96378 8.69815 5.24077 7.85298 5.79474C7.01491 6.34872 6.36151 7.15483 5.89276 8.21307C5.42401 9.2642 5.18963 10.5497 5.18963 12.0696C5.18963 13.5895 5.42045 14.8821 5.8821 15.9474C6.34375 17.0128 6.99716 17.826 7.84233 18.3871C8.6875 18.9411 9.68537 19.218 10.8359 19.218C11.88 19.218 12.7713 19.0334 13.5099 18.6641C14.2557 18.2876 14.8239 17.7585 15.2145 17.0767C15.6122 16.3949 15.8111 15.5888 15.8111 14.6584L16.7486 14.7969H11.1236V11.3239H20.2536V14.0724C20.2536 15.9901 19.8487 17.6378 19.0391 19.0156C18.2294 20.3864 17.1143 21.4446 15.6939 22.1903C14.2734 22.929 12.647 23.2983 10.8146 23.2983C8.76918 23.2983 6.9723 22.8473 5.42401 21.9453C3.87571 21.0362 2.66832 19.7472 1.80185 18.0781C0.942472 16.402 0.512784 14.4134 0.512784 12.1122C0.512784 10.3437 0.768466 8.76705 1.27983 7.3821C1.7983 5.99006 2.52273 4.81108 3.45312 3.84517C4.38352 2.87926 5.46662 2.14418 6.70241 1.63991C7.93821 1.13565 9.27699 0.883522 10.7188 0.883522C11.9545 0.883522 13.1051 1.06463 14.1705 1.42685C15.2358 1.78196 16.1804 2.28622 17.0043 2.93963C17.8352 3.59304 18.5135 4.37074 19.0391 5.27273C19.5646 6.16761 19.902 7.15483 20.0511 8.23438H15.3636ZM31.0268 23.3196C29.372 23.3196 27.9409 22.968 26.7335 22.2649C25.5332 21.5547 24.6064 20.5675 23.9529 19.3033C23.2995 18.032 22.9728 16.5582 22.9728 14.8821C22.9728 13.1918 23.2995 11.7145 23.9529 10.4503C24.6064 9.17898 25.5332 8.19176 26.7335 7.48864C27.9409 6.77841 29.372 6.4233 31.0268 6.4233C32.6816 6.4233 34.1092 6.77841 35.3095 7.48864C36.5169 8.19176 37.4473 9.17898 38.1007 10.4503C38.7541 11.7145 39.0808 13.1918 39.0808 14.8821C39.0808 16.5582 38.7541 18.032 38.1007 19.3033C37.4473 20.5675 36.5169 21.5547 35.3095 22.2649C34.1092 22.968 32.6816 23.3196 31.0268 23.3196ZM31.0481 19.804C31.801 19.804 32.4295 19.5909 32.9338 19.1648C33.438 18.7315 33.818 18.142 34.0737 17.3963C34.3365 16.6506 34.4679 15.8018 34.4679 14.8501C34.4679 13.8984 34.3365 13.0497 34.0737 12.304C33.818 11.5582 33.438 10.9687 32.9338 10.5355C32.4295 10.1023 31.801 9.88565 31.0481 9.88565C30.2882 9.88565 29.649 10.1023 29.1305 10.5355C28.6191 10.9687 28.2321 11.5582 27.9693 12.304C27.7136 13.0497 27.5858 13.8984 27.5858 14.8501C27.5858 15.8018 27.7136 16.6506 27.9693 17.3963C28.2321 18.142 28.6191 18.7315 29.1305 19.1648C29.649 19.5909 30.2882 19.804 31.0481 19.804ZM49.4252 23.3196C47.7704 23.3196 46.3393 22.968 45.1319 22.2649C43.9316 21.5547 43.0048 20.5675 42.3514 19.3033C41.698 18.032 41.3713 16.5582 41.3713 14.8821C41.3713 13.1918 41.698 11.7145 42.3514 10.4503C43.0048 9.17898 43.9316 8.19176 45.1319 7.48864C46.3393 6.77841 47.7704 6.4233 49.4252 6.4233C51.0801 6.4233 52.5076 6.77841 53.7079 7.48864C54.9153 8.19176 55.8457 9.17898 56.4991 10.4503C57.1525 11.7145 57.4792 13.1918 57.4792 14.8821C57.4792 16.5582 57.1525 18.032 56.4991 19.3033C55.8457 20.5675 54.9153 21.5547 53.7079 22.2649C52.5076 22.968 51.0801 23.3196 49.4252 23.3196ZM49.4466 19.804C50.1994 19.804 50.8279 19.5909 51.3322 19.1648C51.8365 18.7315 52.2164 18.142 52.4721 17.3963C52.7349 16.6506 52.8663 15.8018 52.8663 14.8501C52.8663 13.8984 52.7349 13.0497 52.4721 12.304C52.2164 11.5582 51.8365 10.9687 51.3322 10.5355C50.8279 10.1023 50.1994 9.88565 49.4466 9.88565C48.6866 9.88565 48.0474 10.1023 47.5289 10.5355C47.0176 10.9687 46.6305 11.5582 46.3677 12.304C46.112 13.0497 45.9842 13.8984 45.9842 14.8501C45.9842 15.8018 46.112 16.6506 46.3677 17.3963C46.6305 18.142 47.0176 18.7315 47.5289 19.1648C48.0474 19.5909 48.6866 19.804 49.4466 19.804ZM66.4601 23.2663C65.2172 23.2663 64.0914 22.9467 63.0829 22.3075C62.0815 21.6612 61.286 20.7131 60.6966 19.4631C60.1142 18.206 59.823 16.6648 59.823 14.8395C59.823 12.9645 60.1248 11.4055 60.7285 10.1626C61.3322 8.91264 62.1348 7.97869 63.1362 7.3608C64.1447 6.7358 65.2491 6.4233 66.4494 6.4233C67.3656 6.4233 68.1291 6.57955 68.7399 6.89205C69.3578 7.19744 69.8549 7.58097 70.2314 8.04261C70.6149 8.49716 70.9061 8.9446 71.1049 9.38494H71.2434V1.18182H75.7711V23H71.2967V20.3793H71.1049C70.8919 20.8338 70.59 21.2848 70.1994 21.7322C69.8159 22.1726 69.3152 22.5384 68.6973 22.8295C68.0865 23.1207 67.3407 23.2663 66.4601 23.2663ZM67.8983 19.6548C68.6298 19.6548 69.2477 19.456 69.752 19.0582C70.2633 18.6534 70.6539 18.0888 70.9238 17.3643C71.2008 16.6399 71.3393 15.7912 71.3393 14.8182C71.3393 13.8452 71.2044 13 70.9345 12.2827C70.6646 11.5653 70.274 11.0114 69.7626 10.6207C69.2512 10.2301 68.6298 10.0348 67.8983 10.0348C67.1525 10.0348 66.524 10.2372 66.0126 10.642C65.5012 11.0469 65.1142 11.608 64.8514 12.3253C64.5886 13.0426 64.4572 13.8736 64.4572 14.8182C64.4572 15.7699 64.5886 16.6115 64.8514 17.343C65.1213 18.0675 65.5083 18.6357 66.0126 19.0476C66.524 19.4524 67.1525 19.6548 67.8983 19.6548ZM86.5311 23V1.18182H91.144V19.1967H100.498V23H86.5311ZM113.961 16.0327V6.63636H118.499V23H114.142V20.0277H113.972C113.602 20.9865 112.988 21.7571 112.129 22.3395C111.276 22.9219 110.236 23.2131 109.007 23.2131C107.913 23.2131 106.951 22.9645 106.12 22.4673C105.289 21.9702 104.639 21.2635 104.17 20.3473C103.709 19.4311 103.474 18.3338 103.467 17.0554V6.63636H108.006V16.2457C108.013 17.2116 108.272 17.9751 108.783 18.5362C109.295 19.0973 109.98 19.3778 110.839 19.3778C111.386 19.3778 111.898 19.2536 112.374 19.005C112.849 18.7493 113.233 18.3729 113.524 17.8757C113.822 17.3786 113.968 16.7642 113.961 16.0327ZM129.523 23.3196C127.847 23.3196 126.405 22.9645 125.198 22.2543C123.997 21.5369 123.074 20.5426 122.428 19.2713C121.789 18 121.469 16.5369 121.469 14.8821C121.469 13.206 121.792 11.7358 122.438 10.4716C123.092 9.20028 124.019 8.20952 125.219 7.49929C126.419 6.78196 127.847 6.4233 129.502 6.4233C130.929 6.4233 132.179 6.68253 133.252 7.20099C134.324 7.71946 135.173 8.44744 135.798 9.38494C136.423 10.3224 136.767 11.4233 136.831 12.6875H132.548C132.428 11.8707 132.108 11.2138 131.59 10.7166C131.078 10.2124 130.407 9.96023 129.576 9.96023C128.873 9.96023 128.259 10.152 127.733 10.5355C127.215 10.9119 126.81 11.4624 126.519 12.1868C126.227 12.9112 126.082 13.7884 126.082 14.8182C126.082 15.8622 126.224 16.75 126.508 17.4815C126.799 18.2131 127.208 18.7706 127.733 19.1541C128.259 19.5376 128.873 19.7294 129.576 19.7294C130.095 19.7294 130.56 19.6229 130.972 19.4098C131.391 19.1967 131.735 18.8878 132.005 18.483C132.282 18.071 132.463 17.5774 132.548 17.0021H136.831C136.76 18.2521 136.419 19.353 135.808 20.3047C135.205 21.2493 134.37 21.9879 133.305 22.5206C132.24 23.0533 130.979 23.3196 129.523 23.3196ZM143.849 18.2912L143.86 12.8473H144.52L149.762 6.63636H154.971L147.929 14.8608H146.853L143.849 18.2912ZM139.737 23V1.18182H144.275V23H139.737ZM149.964 23L145.149 15.8729L148.174 12.6662L155.28 23H149.964ZM162.62 1.18182L162.205 16.4588H158.306L157.88 1.18182H162.62ZM160.255 23.277C159.552 23.277 158.949 23.0284 158.444 22.5312C157.94 22.027 157.691 21.4233 157.699 20.7202C157.691 20.0241 157.94 19.4276 158.444 18.9304C158.949 18.4332 159.552 18.1847 160.255 18.1847C160.93 18.1847 161.523 18.4332 162.034 18.9304C162.546 19.4276 162.805 20.0241 162.812 20.7202C162.805 21.1889 162.681 21.6186 162.439 22.0092C162.205 22.3928 161.896 22.7017 161.512 22.9361C161.129 23.1634 160.71 23.277 160.255 23.277Z"/>
</mask>
<path d="M15.3636 8.23438L14.4026 8.51083L14.6108 9.23438H15.3636V8.23438ZM14.7351 6.86008L13.903 7.4148L13.9076 7.42159L14.7351 6.86008ZM13.7443 5.83736L13.1491 6.64091L13.1574 6.64709L13.1659 6.65309L13.7443 5.83736ZM12.4233 5.1875L12.1321 6.14418L12.1359 6.14533L12.4233 5.1875ZM7.85298 5.79474L7.30478 4.95839L7.30155 4.96052L7.85298 5.79474ZM5.89276 8.21307L6.80606 8.62035L6.80707 8.61807L5.89276 8.21307ZM7.84233 18.3871L7.28924 19.2202L7.29413 19.2234L7.84233 18.3871ZM13.5099 18.6641L13.9572 19.5585L13.9606 19.5568L13.5099 18.6641ZM15.2145 17.0767L14.3507 16.5728L14.3468 16.5796L15.2145 17.0767ZM15.8111 14.6584L15.9572 13.6691L14.8111 13.4998V14.6584H15.8111ZM16.7486 14.7969V15.7969L16.8947 13.8076L16.7486 14.7969ZM11.1236 14.7969H10.1236V15.7969H11.1236V14.7969ZM11.1236 11.3239V10.3239H10.1236V11.3239H11.1236ZM20.2536 11.3239H21.2536V10.3239H20.2536V11.3239ZM19.0391 19.0156L19.9001 19.5242L19.9012 19.5223L19.0391 19.0156ZM15.6939 22.1903L16.1552 23.0776L16.1587 23.0757L15.6939 22.1903ZM5.42401 21.9453L4.91767 22.8077L4.92063 22.8094L5.42401 21.9453ZM1.80185 18.0781L0.911978 18.5344L0.914321 18.5389L1.80185 18.0781ZM1.27983 7.3821L0.342713 7.03307L0.341733 7.03573L1.27983 7.3821ZM3.45312 3.84517L4.17335 4.53891L4.17335 4.53891L3.45312 3.84517ZM6.70241 1.63991L6.32461 0.714028L6.32461 0.714028L6.70241 1.63991ZM14.1705 1.42685L13.8485 2.37364L13.8542 2.37553L14.1705 1.42685ZM17.0043 2.93963L16.3829 3.72313L16.3861 3.72572L17.0043 2.93963ZM19.0391 5.27273L18.175 5.77618L18.1768 5.77915L19.0391 5.27273ZM20.0511 8.23438V9.23438H21.1988L21.0417 8.09752L20.0511 8.23438ZM16.3247 7.95792C16.1499 7.35025 15.8985 6.79365 15.5626 6.29858L13.9076 7.42159C14.1114 7.72197 14.2791 8.08156 14.4026 8.51083L16.3247 7.95792ZM15.5671 6.30538C15.2305 5.80043 14.8148 5.37053 14.3227 5.02162L13.1659 6.65309C13.4551 6.85817 13.6999 7.11008 13.903 7.41479L15.5671 6.30538ZM14.3395 5.0338C13.8553 4.67509 13.3089 4.40914 12.7106 4.22967L12.1359 6.14533C12.532 6.26415 12.8663 6.43144 13.1491 6.64091L14.3395 5.0338ZM12.7145 4.23083C12.116 4.04868 11.4727 3.96378 10.7933 3.96378V5.96378C11.3071 5.96378 11.7505 6.02803 12.1321 6.14417L12.7145 4.23083ZM10.7933 3.96378C9.50442 3.96378 8.32951 4.28672 7.30479 4.95839L8.40118 6.63109C9.06679 6.19481 9.85211 5.96378 10.7933 5.96378V3.96378ZM7.30155 4.96052C6.28084 5.63523 5.51257 6.60222 4.97844 7.80807L6.80707 8.61807C7.21044 7.70744 7.74899 7.06221 8.40442 6.62896L7.30155 4.96052ZM4.97945 7.80578C4.43835 9.01916 4.18963 10.4522 4.18963 12.0696H6.18963C6.18963 10.6472 6.40966 9.50924 6.80606 8.62035L4.97945 7.80578ZM4.18963 12.0696C4.18963 13.686 4.4345 15.1219 4.96455 16.3451L6.79966 15.5498C6.40641 14.6423 6.18963 13.493 6.18963 12.0696H4.18963ZM4.96455 16.3451C5.49164 17.5614 6.26071 18.5374 7.28925 19.2202L8.39541 17.5539C7.73361 17.1146 7.19586 16.4641 6.79966 15.5498L4.96455 16.3451ZM7.29413 19.2234C8.32398 19.8984 9.51838 20.218 10.8359 20.218V18.218C9.85236 18.218 9.05102 17.9837 8.39053 17.5507L7.29413 19.2234ZM10.8359 20.218C11.9953 20.218 13.0479 20.0131 13.9572 19.5585L13.0627 17.7696C12.4947 18.0536 11.7647 18.218 10.8359 18.218V20.218ZM13.9606 19.5568C14.8695 19.098 15.588 18.4364 16.0822 17.5738L14.3468 16.5796C14.0597 17.0806 13.6419 17.4773 13.0593 17.7713L13.9606 19.5568ZM16.0783 17.5806C16.58 16.7205 16.8111 15.734 16.8111 14.6584H14.8111C14.8111 15.4436 14.6444 16.0693 14.3507 16.5728L16.0783 17.5806ZM15.6649 15.6476L16.6024 15.7861L16.8947 13.8076L15.9572 13.6691L15.6649 15.6476ZM16.7486 13.7969H11.1236V15.7969H16.7486V13.7969ZM12.1236 14.7969V11.3239H10.1236V14.7969H12.1236ZM11.1236 12.3239H20.2536V10.3239H11.1236V12.3239ZM19.2536 11.3239V14.0724H21.2536V11.3239H19.2536ZM19.2536 14.0724C19.2536 15.8476 18.8798 17.3128 18.1769 18.509L19.9012 19.5223C20.8177 17.9627 21.2536 16.1325 21.2536 14.0724H19.2536ZM18.178 18.507C17.4636 19.7165 16.4864 20.6449 15.2291 21.3049L16.1587 23.0757C17.7423 22.2443 18.9952 21.0562 19.9001 19.5242L18.178 18.507ZM15.2325 21.3031C13.974 21.9576 12.5098 22.2983 10.8146 22.2983V24.2983C12.7843 24.2983 14.5729 23.9004 16.1552 23.0776L15.2325 21.3031ZM10.8146 22.2983C8.92058 22.2983 7.30227 21.8822 5.92738 21.0812L4.92063 22.8094C6.64233 23.8124 8.61777 24.2983 10.8146 24.2983V22.2983ZM5.93033 21.083C4.55226 20.2738 3.47343 19.1276 2.68937 17.6174L0.914321 18.5389C1.86322 20.3667 3.19916 21.7986 4.91768 22.8077L5.93033 21.083ZM2.6917 17.6219C1.91904 16.1149 1.51278 14.2894 1.51278 12.1122H-0.487216C-0.487216 14.5373 -0.0340918 16.6891 0.91199 18.5344L2.6917 17.6219ZM1.51278 12.1122C1.51278 10.4392 1.75472 8.98301 2.21793 7.72848L0.341733 7.03573C-0.217783 8.55108 -0.487216 10.2483 -0.487216 12.1122H1.51278ZM2.21694 7.73113C2.6927 6.45375 3.34791 5.39586 4.17335 4.53891L2.7329 3.15143C1.69755 4.2263 0.90389 5.52636 0.342717 7.03307L2.21694 7.73113ZM4.17335 4.53891C5.00751 3.67291 5.97413 3.01713 7.08022 2.5658L6.32461 0.714028C4.9591 1.27122 3.75953 2.08561 2.7329 3.15143L4.17335 4.53891ZM7.08022 2.5658C8.18674 2.11429 9.39606 1.88352 10.7188 1.88352V-0.116478C9.15792 -0.116478 7.68968 0.157016 6.32461 0.714028L7.08022 2.5658ZM10.7188 1.88352C11.8558 1.88352 12.8965 2.04994 13.8486 2.37362L14.4924 0.480074C13.3137 0.0793223 12.0533 -0.116478 10.7188 -0.116478V1.88352ZM13.8542 2.37553C14.8166 2.69631 15.6564 3.14693 16.3829 3.72313L17.6257 2.15613C16.7044 1.42551 15.655 0.867615 14.4867 0.478163L13.8542 2.37553ZM16.3861 3.72572C17.1193 4.30225 17.7137 4.98444 18.175 5.77617L19.9031 4.76928C19.3133 3.75703 18.5511 2.88383 17.6224 2.15354L16.3861 3.72572ZM18.1768 5.77915C18.6323 6.55485 18.9285 7.41548 19.0605 8.37123L21.0417 8.09752C20.8755 6.89418 20.4969 5.78037 19.9013 4.7663L18.1768 5.77915ZM20.0511 7.23438H15.3636V9.23438H20.0511V7.23438ZM26.7335 22.2649L26.2242 23.1256L26.2302 23.1291L26.7335 22.2649ZM23.9529 19.3033L23.0635 19.7604L23.0646 19.7624L23.9529 19.3033ZM23.9529 10.4503L24.8413 10.9094L24.8424 10.9074L23.9529 10.4503ZM26.7335 7.48864L27.2389 8.35149L27.2405 8.35057L26.7335 7.48864ZM35.3095 7.48864L34.8002 8.34928L34.8062 8.35278L35.3095 7.48864ZM38.1007 10.4503L37.2113 10.9074L37.2123 10.9094L38.1007 10.4503ZM38.1007 19.3033L38.989 19.7624L38.9901 19.7604L38.1007 19.3033ZM35.3095 22.2649L35.8149 23.1278L35.8165 23.1268L35.3095 22.2649ZM32.9338 19.1648L33.5793 19.9286L33.5854 19.9233L32.9338 19.1648ZM34.0737 17.3963L33.1305 17.0639L33.1277 17.072L34.0737 17.3963ZM34.0737 12.304L33.1277 12.6283L33.1305 12.6363L34.0737 12.304ZM29.1305 10.5355L28.4893 9.76813L28.4841 9.77253L29.1305 10.5355ZM27.9693 12.304L27.0261 11.9716L27.0233 11.9797L27.9693 12.304ZM27.9693 17.3963L27.0233 17.7206L27.0261 17.7287L27.9693 17.3963ZM29.1305 19.1648L28.4841 19.9278L28.4898 19.9326L28.4955 19.9373L29.1305 19.1648ZM31.0268 22.3196C29.516 22.3196 28.2653 21.9998 27.2367 21.4008L26.2302 23.1291C27.6165 23.9363 29.228 24.3196 31.0268 24.3196V22.3196ZM27.2427 21.4043C26.2074 20.7917 25.4104 19.9452 24.8413 18.8441L23.0646 19.7624C23.8023 21.1898 24.859 22.3177 26.2242 23.1255L27.2427 21.4043ZM24.8424 18.8461C24.2732 17.7388 23.9728 16.4267 23.9728 14.8821H21.9728C21.9728 16.6898 22.3259 18.3252 23.0635 19.7604L24.8424 18.8461ZM23.9728 14.8821C23.9728 13.3217 24.2738 12.0074 24.8413 10.9094L23.0646 9.99113C22.3252 11.4216 21.9728 13.0619 21.9728 14.8821H23.9728ZM24.8424 10.9074C25.4114 9.80015 26.2073 8.95583 27.2389 8.35149L26.228 6.62578C24.8591 7.42769 23.8013 8.5578 23.0635 9.99316L24.8424 10.9074ZM27.2405 8.35057C28.2684 7.74594 29.5177 7.4233 31.0268 7.4233V5.4233C29.2263 5.4233 27.6134 5.81088 26.2265 6.6267L27.2405 8.35057ZM31.0268 7.4233C32.5361 7.4233 33.7807 7.746 34.8002 8.34926L35.8187 6.62801C34.4377 5.81081 32.8272 5.4233 31.0268 5.4233V7.4233ZM34.8062 8.35278C35.8447 8.95755 36.643 9.80171 37.2113 10.9074L38.9901 9.99316C38.2516 8.55624 37.189 7.42597 35.8127 6.62449L34.8062 8.35278ZM37.2123 10.9094C37.7798 12.0074 38.0808 13.3217 38.0808 14.8821H40.0808C40.0808 13.0619 39.7284 11.4216 38.989 9.99113L37.2123 10.9094ZM38.0808 14.8821C38.0808 16.4267 37.7804 17.7388 37.2113 18.8461L38.9901 19.7604C39.7277 18.3252 40.0808 16.6898 40.0808 14.8821H38.0808ZM37.2123 18.8441C36.644 19.9436 35.8446 20.79 34.8025 21.403L35.8165 23.1268C37.1892 22.3194 38.2505 21.1913 38.989 19.7624L37.2123 18.8441ZM34.804 21.4021C33.7838 21.9997 32.5378 22.3196 31.0268 22.3196V24.3196C32.8255 24.3196 34.4346 23.9364 35.8149 23.1278L34.804 21.4021ZM31.0481 20.804C32.0021 20.804 32.8693 20.5285 33.5792 19.9286L32.2883 18.401C31.9897 18.6533 31.5998 18.804 31.0481 18.804V20.804ZM33.5854 19.9233C34.2479 19.3542 34.717 18.6032 35.0196 17.7206L33.1277 17.072C32.919 17.6809 32.6282 18.1089 32.2821 18.4063L33.5854 19.9233ZM35.0168 17.7287C35.324 16.8569 35.4679 15.8927 35.4679 14.8501H33.4679C33.4679 15.711 33.3489 16.4442 33.1305 17.064L35.0168 17.7287ZM35.4679 14.8501C35.4679 13.8076 35.324 12.8434 35.0168 11.9716L33.1305 12.6363C33.3489 13.2561 33.4679 13.9893 33.4679 14.8501H35.4679ZM35.0196 11.9797C34.717 11.0971 34.2479 10.3461 33.5854 9.77701L32.2821 11.294C32.6282 11.5914 32.919 12.0194 33.1277 12.6283L35.0196 11.9797ZM33.5854 9.77701C32.8758 9.16729 32.0063 8.88565 31.0481 8.88565V10.8857C31.5956 10.8857 31.9832 11.0373 32.2821 11.294L33.5854 9.77701ZM31.0481 8.88565C30.0849 8.88565 29.2101 9.16581 28.4893 9.76815L29.7717 11.3029C30.0878 11.0387 30.4915 10.8857 31.0481 10.8857V8.88565ZM28.4841 9.77253C27.8148 10.3396 27.3372 11.0889 27.0261 11.9716L28.9124 12.6363C29.1269 12.0276 29.4235 11.5979 29.7769 11.2985L28.4841 9.77253ZM27.0233 11.9797C26.7253 12.8488 26.5858 13.8102 26.5858 14.8501H28.5858C28.5858 13.9866 28.7019 13.2506 28.9152 12.6283L27.0233 11.9797ZM26.5858 14.8501C26.5858 15.8901 26.7253 16.8514 27.0233 17.7206L28.9152 17.072C28.7019 16.4497 28.5858 15.7136 28.5858 14.8501H26.5858ZM27.0261 17.7287C27.3372 18.6114 27.8148 19.3607 28.4841 19.9278L29.7769 18.4018C29.4235 18.1024 29.1269 17.6727 28.9124 17.064L27.0261 17.7287ZM28.4955 19.9373C29.2165 20.5299 30.089 20.804 31.0481 20.804V18.804C30.4873 18.804 30.0814 18.6519 29.7655 18.3922L28.4955 19.9373ZM45.1319 22.2649L44.6227 23.1256L44.6287 23.1291L45.1319 22.2649ZM42.3514 19.3033L41.462 19.7604L41.463 19.7624L42.3514 19.3033ZM42.3514 10.4503L43.2397 10.9094L43.2408 10.9074L42.3514 10.4503ZM45.1319 7.48864L45.6374 8.35149L45.6389 8.35057L45.1319 7.48864ZM53.7079 7.48864L53.1987 8.34928L53.2047 8.35278L53.7079 7.48864ZM56.4991 10.4503L55.6097 10.9074L55.6108 10.9094L56.4991 10.4503ZM56.4991 19.3033L57.3875 19.7624L57.3885 19.7604L56.4991 19.3033ZM53.7079 22.2649L54.2134 23.1278L54.2149 23.1268L53.7079 22.2649ZM51.3322 19.1648L51.9777 19.9286L51.9839 19.9233L51.3322 19.1648ZM52.4721 17.3963L51.5289 17.0639L51.5262 17.072L52.4721 17.3963ZM52.4721 12.304L51.5261 12.6283L51.529 12.6363L52.4721 12.304ZM47.5289 10.5355L46.8877 9.76813L46.8825 9.77253L47.5289 10.5355ZM46.3677 12.304L45.4245 11.9716L45.4218 11.9797L46.3677 12.304ZM46.3677 17.3963L45.4217 17.7206L45.4246 17.7287L46.3677 17.3963ZM47.5289 19.1648L46.8825 19.9278L46.8882 19.9326L46.894 19.9373L47.5289 19.1648ZM49.4252 22.3196C47.9144 22.3196 46.6637 21.9998 45.6352 21.4008L44.6287 23.1291C46.0149 23.9363 47.6264 24.3196 49.4252 24.3196V22.3196ZM45.6412 21.4043C44.6059 20.7917 43.8088 19.9452 43.2397 18.8441L41.463 19.7624C42.2008 21.1898 43.2574 22.3177 44.6227 23.1255L45.6412 21.4043ZM43.2408 18.8461C42.6716 17.7388 42.3713 16.4267 42.3713 14.8821H40.3713C40.3713 16.6898 40.7243 18.3252 41.462 19.7604L43.2408 18.8461ZM42.3713 14.8821C42.3713 13.3217 42.6723 12.0074 43.2397 10.9094L41.463 9.99113C40.7237 11.4216 40.3713 13.0619 40.3713 14.8821H42.3713ZM43.2408 10.9074C43.8099 9.80015 44.6057 8.95583 45.6374 8.35149L44.6265 6.62578C43.2576 7.42769 42.1997 8.5578 41.462 9.99316L43.2408 10.9074ZM45.6389 8.35057C46.6668 7.74594 47.9161 7.4233 49.4252 7.4233V5.4233C47.6247 5.4233 46.0118 5.81088 44.6249 6.6267L45.6389 8.35057ZM49.4252 7.4233C50.9346 7.4233 52.1792 7.746 53.1987 8.34926L54.2172 6.62801C52.8361 5.81081 51.2256 5.4233 49.4252 5.4233V7.4233ZM53.2047 8.35278C54.2432 8.95755 55.0414 9.80171 55.6097 10.9074L57.3885 9.99316C56.65 8.55624 55.5874 7.42597 54.2112 6.62449L53.2047 8.35278ZM55.6108 10.9094C56.1782 12.0074 56.4792 13.3217 56.4792 14.8821H58.4792C58.4792 13.0619 58.1268 11.4216 57.3875 9.99113L55.6108 10.9094ZM56.4792 14.8821C56.4792 16.4267 56.1789 17.7388 55.6097 18.8461L57.3885 19.7604C58.1262 18.3252 58.4792 16.6898 58.4792 14.8821H56.4792ZM55.6108 18.8441C55.0425 19.9436 54.243 20.79 53.2009 21.403L54.2149 23.1268C55.5876 22.3194 56.6489 21.1913 57.3875 19.7624L55.6108 18.8441ZM53.2025 21.4021C52.1823 21.9997 50.9363 22.3196 49.4252 22.3196V24.3196C51.2239 24.3196 52.833 23.9364 54.2134 23.1278L53.2025 21.4021ZM49.4466 20.804C50.4005 20.804 51.2678 20.5285 51.9777 19.9286L50.6867 18.401C50.3881 18.6533 49.9983 18.804 49.4466 18.804V20.804ZM51.9839 19.9233C52.6463 19.3542 53.1155 18.6032 53.4181 17.7206L51.5262 17.072C51.3174 17.6809 51.0266 18.1089 50.6805 18.4063L51.9839 19.9233ZM53.4153 17.7287C53.7225 16.8569 53.8663 15.8927 53.8663 14.8501H51.8663C51.8663 15.711 51.7474 16.4442 51.529 17.064L53.4153 17.7287ZM53.8663 14.8501C53.8663 13.8076 53.7225 12.8434 53.4153 11.9716L51.529 12.6363C51.7474 13.2561 51.8663 13.9893 51.8663 14.8501H53.8663ZM53.4181 11.9797C53.1155 11.0971 52.6463 10.3461 51.9839 9.77701L50.6805 11.294C51.0266 11.5914 51.3174 12.0194 51.5262 12.6283L53.4181 11.9797ZM51.9839 9.77701C51.2742 9.16729 50.4048 8.88565 49.4466 8.88565V10.8857C49.994 10.8857 50.3817 11.0373 50.6805 11.294L51.9839 9.77701ZM49.4466 8.88565C48.4833 8.88565 47.6086 9.16581 46.8877 9.76815L48.1702 11.3029C48.4863 11.0387 48.8899 10.8857 49.4466 10.8857V8.88565ZM46.8825 9.77253C46.2132 10.3396 45.7356 11.0889 45.4246 11.9716L47.3109 12.6363C47.5254 12.0276 47.8219 11.5979 48.1754 11.2985L46.8825 9.77253ZM45.4218 11.9797C45.1238 12.8488 44.9842 13.8102 44.9842 14.8501H46.9842C46.9842 13.9866 47.1003 13.2506 47.3137 12.6283L45.4218 11.9797ZM44.9842 14.8501C44.9842 15.8901 45.1238 16.8514 45.4218 17.7206L47.3137 17.072C47.1003 16.4497 46.9842 15.7136 46.9842 14.8501H44.9842ZM45.4246 17.7287C45.7356 18.6114 46.2132 19.3607 46.8825 19.9278L48.1754 18.4018C47.8219 18.1024 47.5254 17.6727 47.3109 17.064L45.4246 17.7287ZM46.894 19.9373C47.6149 20.5299 48.4875 20.804 49.4466 20.804V18.804C48.8858 18.804 48.4799 18.6519 48.1639 18.3922L46.894 19.9373ZM63.0829 22.3075L62.5406 23.1478L62.5476 23.1522L63.0829 22.3075ZM60.6966 19.4631L59.7892 19.8834L59.7921 19.8896L60.6966 19.4631ZM60.7285 10.1626L61.628 10.5995L61.629 10.5975L60.7285 10.1626ZM63.1362 7.3608L63.6613 8.21183L63.663 8.21081L63.1362 7.3608ZM68.7399 6.89205L68.2844 7.78238L68.2968 7.78852L68.7399 6.89205ZM70.2314 8.04261L69.4563 8.67455L69.4616 8.68106L69.4671 8.68748L70.2314 8.04261ZM71.1049 9.38494L70.1936 9.79653L70.4593 10.3849H71.1049V9.38494ZM71.2434 9.38494V10.3849H72.2434V9.38494H71.2434ZM71.2434 1.18182V0.181818H70.2434V1.18182H71.2434ZM75.7711 1.18182H76.7711V0.181818H75.7711V1.18182ZM75.7711 23V24H76.7711V23H75.7711ZM71.2967 23H70.2967V24H71.2967V23ZM71.2967 20.3793H72.2967V19.3793H71.2967V20.3793ZM71.1049 20.3793V19.3793H70.4693L70.1995 19.9548L71.1049 20.3793ZM70.1994 21.7322L69.4461 21.0746L69.4453 21.0755L70.1994 21.7322ZM68.6973 22.8295L68.271 21.925L68.2669 21.9269L68.6973 22.8295ZM69.752 19.0582L70.3712 19.8434L70.3727 19.8423L69.752 19.0582ZM70.9238 17.3643L69.9897 17.0072L69.9867 17.0152L70.9238 17.3643ZM70.9345 12.2827L71.8704 11.9305L71.8704 11.9305L70.9345 12.2827ZM66.0126 10.642L65.3919 9.858L65.3919 9.858L66.0126 10.642ZM64.8514 17.343L63.9102 17.6811L63.9143 17.6921L64.8514 17.343ZM66.0126 19.0476L65.38 19.822L65.3859 19.8269L65.3919 19.8316L66.0126 19.0476ZM66.4601 22.2663C65.3986 22.2663 64.4599 21.9963 63.6183 21.4629L62.5476 23.1522C63.723 23.8971 65.0357 24.2663 66.4601 24.2663V22.2663ZM63.6252 21.4673C62.8045 20.9376 62.1238 20.145 61.601 19.0365L59.7921 19.8896C60.4483 21.2812 61.3585 22.3848 62.5407 23.1477L63.6252 21.4673ZM61.6039 19.0427C61.0987 17.9522 60.823 16.5636 60.823 14.8395H58.823C58.823 16.7659 59.1296 18.4598 59.7892 19.8834L61.6039 19.0427ZM60.823 14.8395C60.823 13.0646 61.1097 11.6667 61.628 10.5995L59.829 9.72574C59.1399 11.1444 58.823 12.8644 58.823 14.8395H60.823ZM61.629 10.5975C62.1649 9.48786 62.8494 8.71281 63.6613 8.21183L62.6111 6.50976C61.4202 7.24458 60.4995 8.33742 59.828 9.72775L61.629 10.5975ZM63.663 8.21081C64.5113 7.68505 65.4329 7.4233 66.4494 7.4233V5.4233C65.0653 5.4233 63.7781 5.78654 62.6094 6.51079L63.663 8.21081ZM66.4494 7.4233C67.258 7.4233 67.8538 7.56198 68.2844 7.78229L69.1954 6.0018C68.4044 5.59711 67.4731 5.4233 66.4494 5.4233V7.4233ZM68.2968 7.78852C68.8064 8.04042 69.1835 8.33994 69.4563 8.67455L71.0064 7.41067C70.5264 6.82199 69.9091 6.35447 69.183 5.99557L68.2968 7.78852ZM69.4671 8.68748C69.8042 9.08703 70.0403 9.45713 70.1936 9.79653L72.0163 8.97336C71.7719 8.43207 71.4256 7.90729 70.9956 7.39774L69.4671 8.68748ZM71.1049 10.3849H71.2434V8.38494H71.1049V10.3849ZM72.2434 9.38494V1.18182H70.2434V9.38494H72.2434ZM71.2434 2.18182H75.7711V0.181818H71.2434V2.18182ZM74.7711 1.18182V23H76.7711V1.18182H74.7711ZM75.7711 22H71.2967V24H75.7711V22ZM72.2967 23V20.3793H70.2967V23H72.2967ZM71.2967 19.3793H71.1049V21.3793H71.2967V19.3793ZM70.1995 19.9548C70.0325 20.3111 69.7862 20.6849 69.4461 21.0746L70.9527 22.3899C71.3938 21.8847 71.7513 21.3565 72.0104 20.8037L70.1995 19.9548ZM69.4453 21.0755C69.1668 21.3952 68.7847 21.6829 68.271 21.925L69.1236 23.7341C69.8457 23.3938 70.4649 22.95 70.9535 22.389L69.4453 21.0755ZM68.2669 21.9269C67.8247 22.1377 67.235 22.2663 66.4601 22.2663V24.2663C67.4465 24.2663 68.3482 24.1038 69.1276 23.7322L68.2669 21.9269ZM67.8983 20.6548C68.8216 20.6548 69.6664 20.3993 70.3712 19.8434L69.1327 18.2731C68.829 18.5126 68.4379 18.6548 67.8983 18.6548V20.6548ZM70.3727 19.8423C71.0518 19.3046 71.5392 18.577 71.8609 17.7135L69.9867 17.0152C69.7687 17.6005 69.4748 18.0022 69.1313 18.2742L70.3727 19.8423ZM71.8579 17.7215C72.188 16.8581 72.3393 15.8834 72.3393 14.8182H70.3393C70.3393 15.699 70.2136 16.4217 69.9898 17.0072L71.8579 17.7215ZM72.3393 14.8182C72.3393 13.7559 72.1924 12.7862 71.8704 11.9305L69.9985 12.6348C70.2164 13.2138 70.3393 13.9344 70.3393 14.8182H72.3393ZM71.8704 11.9305C71.5473 11.0717 71.0563 10.3506 70.3696 9.82607L69.1556 11.4154C69.4916 11.6721 69.7819 12.059 69.9985 12.6348L71.8704 11.9305ZM70.3696 9.82607C69.6605 9.28435 68.8177 9.0348 67.8983 9.0348V11.0348C68.4419 11.0348 68.842 11.1759 69.1556 11.4154L70.3696 9.82607ZM67.8983 9.0348C66.9612 9.0348 66.1048 9.2936 65.3919 9.858L66.6333 11.4261C66.9431 11.1808 67.3439 11.0348 67.8983 11.0348V9.0348ZM65.3919 9.858C64.7127 10.3957 64.2276 11.1208 63.9124 11.9813L65.7904 12.6693C66.0007 12.0951 66.2898 11.698 66.6333 11.4261L65.3919 9.858ZM63.9124 11.9813C63.601 12.8314 63.4572 13.783 63.4572 14.8182H65.4572C65.4572 13.9642 65.5762 13.2538 65.7904 12.6693L63.9124 11.9813ZM63.4572 14.8182C63.4572 15.8602 63.6009 16.8199 63.9103 17.6811L65.7925 17.005C65.5763 16.4031 65.4572 15.6796 65.4572 14.8182H63.4572ZM63.9143 17.6921C64.2345 18.5515 64.7145 19.2784 65.38 19.822L66.6453 18.2731C66.3022 17.9929 66.0081 17.5834 65.7885 16.9939L63.9143 17.6921ZM65.3919 19.8316C66.1048 20.396 66.9612 20.6548 67.8983 20.6548V18.6548C67.3439 18.6548 66.9431 18.5088 66.6333 18.2635L65.3919 19.8316ZM86.5311 23H85.5311V24H86.5311V23ZM86.5311 1.18182V0.181818H85.5311V1.18182H86.5311ZM91.144 1.18182H92.144V0.181818H91.144V1.18182ZM91.144 19.1967H90.144V20.1967H91.144V19.1967ZM100.498 19.1967H101.498V18.1967H100.498V19.1967ZM100.498 23V24H101.498V23H100.498ZM87.5311 23V1.18182H85.5311V23H87.5311ZM86.5311 2.18182H91.144V0.181818H86.5311V2.18182ZM90.144 1.18182V19.1967H92.144V1.18182H90.144ZM91.144 20.1967H100.498V18.1967H91.144V20.1967ZM99.4977 19.1967V23H101.498V19.1967H99.4977ZM100.498 22H86.5311V24H100.498V22ZM113.961 16.0327H112.961L112.961 16.0424L113.961 16.0327ZM113.961 6.63636V5.63636H112.961V6.63636H113.961ZM118.499 6.63636H119.499V5.63636H118.499V6.63636ZM118.499 23V24H119.499V23H118.499ZM114.142 23H113.142V24H114.142V23ZM114.142 20.0277H115.142V19.0277H114.142V20.0277ZM113.972 20.0277V19.0277H113.285L113.038 19.6683L113.972 20.0277ZM112.129 22.3395L111.568 21.5117L111.564 21.5138L112.129 22.3395ZM106.12 22.4673L106.633 21.6092L106.633 21.6092L106.12 22.4673ZM104.17 20.3473L103.277 20.7973L103.28 20.8028L104.17 20.3473ZM103.467 17.0554L102.467 17.0554L102.467 17.061L103.467 17.0554ZM103.467 6.63636V5.63636H102.467V6.63636H103.467ZM108.006 6.63636H109.006V5.63636H108.006V6.63636ZM108.006 16.2457H107.006L107.006 16.2531L108.006 16.2457ZM108.783 18.5362L109.522 17.8626L109.522 17.8626L108.783 18.5362ZM112.374 19.005L112.837 19.8914L112.847 19.8859L112.374 19.005ZM113.524 17.8757L112.667 17.3612L112.661 17.3703L113.524 17.8757ZM114.961 16.0327V6.63636H112.961V16.0327H114.961ZM113.961 7.63636H118.499V5.63636H113.961V7.63636ZM117.499 6.63636V23H119.499V6.63636H117.499ZM118.499 22H114.142V24H118.499V22ZM115.142 23V20.0277H113.142V23H115.142ZM114.142 19.0277H113.972V21.0277H114.142V19.0277ZM113.038 19.6683C112.743 20.4345 112.26 21.0425 111.568 21.5117L112.69 23.1673C113.716 22.4717 114.461 21.5385 114.905 20.3871L113.038 19.6683ZM111.564 21.5138C110.908 21.9624 110.074 22.2131 109.007 22.2131V24.2131C110.398 24.2131 111.645 23.8813 112.693 23.1651L111.564 21.5138ZM109.007 22.2131C108.07 22.2131 107.29 22.0019 106.633 21.6092L105.607 23.3255C106.612 23.927 107.756 24.2131 109.007 24.2131V22.2131ZM106.633 21.6092C105.974 21.2144 105.45 20.6521 105.061 19.8918L103.28 20.8028C103.829 21.8749 104.605 22.7259 105.607 23.3255L106.633 21.6092ZM105.063 19.8973C104.686 19.1488 104.474 18.211 104.467 17.0498L102.467 17.061C102.475 18.4566 102.731 19.7135 103.277 20.7973L105.063 19.8973ZM104.467 17.0554V6.63636H102.467V17.0554H104.467ZM103.467 7.63636H108.006V5.63636H103.467V7.63636ZM107.006 6.63636V16.2457H109.006V6.63636H107.006ZM107.006 16.2531C107.014 17.3962 107.325 18.4209 108.044 19.2098L109.522 17.8626C109.219 17.5294 109.011 17.0271 109.006 16.2384L107.006 16.2531ZM108.044 19.2098C108.771 20.0074 109.74 20.3778 110.839 20.3778V18.3778C110.22 18.3778 109.818 18.1872 109.522 17.8626L108.044 19.2098ZM110.839 20.3778C111.544 20.3778 112.215 20.216 112.837 19.8913L111.911 18.1186C111.58 18.2911 111.228 18.3778 110.839 18.3778V20.3778ZM112.847 19.8859C113.496 19.5374 114.009 19.0259 114.387 18.3811L112.661 17.3703C112.457 17.7199 112.203 17.9612 111.9 18.1241L112.847 19.8859ZM114.382 18.3902C114.797 17.6983 114.969 16.8912 114.961 16.023L112.961 16.0424C112.967 16.6372 112.848 17.0588 112.667 17.3612L114.382 18.3902ZM125.198 22.2543L124.685 23.1127L124.691 23.1162L125.198 22.2543ZM122.428 19.2713L121.534 19.7205L121.536 19.7245L122.428 19.2713ZM122.438 10.4716L121.549 10.0145L121.548 10.0164L122.438 10.4716ZM125.219 7.49929L125.728 8.35992L125.732 8.35768L125.219 7.49929ZM133.252 7.20099L133.687 6.30068L133.687 6.30068L133.252 7.20099ZM136.831 12.6875V13.6875H137.883L137.83 12.637L136.831 12.6875ZM132.548 12.6875L131.559 12.8337L131.685 13.6875H132.548V12.6875ZM131.59 10.7166L130.887 11.4287L130.898 11.4384L131.59 10.7166ZM127.733 10.5355L128.321 11.3447L128.323 11.3433L127.733 10.5355ZM126.508 17.4815L125.576 17.8436L125.579 17.8514L126.508 17.4815ZM127.733 19.1541L128.323 18.3463L128.323 18.3463L127.733 19.1541ZM130.972 19.4098L130.519 18.5184L130.512 18.5216L130.972 19.4098ZM132.005 18.483L131.175 17.925L131.173 17.9283L132.005 18.483ZM132.548 17.0021V16.0021H131.686L131.559 16.8556L132.548 17.0021ZM136.831 17.0021L137.83 17.0589L137.89 16.0021H136.831V17.0021ZM135.808 20.3047L134.967 19.7646L134.966 19.7662L135.808 20.3047ZM133.305 22.5206L132.858 21.6262L132.858 21.6262L133.305 22.5206ZM129.523 22.3196C127.99 22.3196 126.731 21.9959 125.705 21.3923L124.691 23.1162C126.079 23.9331 127.704 24.3196 129.523 24.3196V22.3196ZM125.711 21.3959C124.676 20.7773 123.882 19.9249 123.319 18.8181L121.536 19.7245C122.266 21.1603 123.319 22.2966 124.685 23.1126L125.711 21.3959ZM123.321 18.8221C122.763 17.7112 122.469 16.4063 122.469 14.8821H120.469C120.469 16.6675 120.814 18.2888 121.534 19.7205L123.321 18.8221ZM122.469 14.8821C122.469 13.3358 122.766 12.0267 123.329 10.9268L121.548 10.0164C120.818 11.4448 120.469 13.0762 120.469 14.8821H122.469ZM123.328 10.9287C123.897 9.82064 124.694 8.97166 125.728 8.35991L124.71 6.63867C123.343 7.44737 122.286 8.57993 121.549 10.0145L123.328 10.9287ZM125.732 8.35768C126.751 7.74879 127.994 7.4233 129.502 7.4233V5.4233C127.7 5.4233 126.088 5.81513 124.706 6.6409L125.732 8.35768ZM129.502 7.4233C130.808 7.4233 131.904 7.6602 132.816 8.1013L133.687 6.30068C132.454 5.70486 131.05 5.4233 129.502 5.4233V7.4233ZM132.816 8.1013C133.738 8.54668 134.445 9.1593 134.966 9.93964L136.63 8.83024C135.9 7.73558 134.91 6.89224 133.687 6.30068L132.816 8.1013ZM134.966 9.93964C135.479 10.7093 135.776 11.6311 135.832 12.738L137.83 12.637C137.758 11.2155 137.367 9.9356 136.63 8.83024L134.966 9.93964ZM136.831 11.6875H132.548V13.6875H136.831V11.6875ZM133.538 12.5413C133.39 11.5393 132.984 10.668 132.282 9.99484L130.898 11.4384C131.233 11.7596 131.466 12.2022 131.559 12.8337L133.538 12.5413ZM132.292 10.0046C131.564 9.2867 130.625 8.96023 129.576 8.96023V10.9602C130.189 10.9602 130.593 11.138 130.888 11.4287L132.292 10.0046ZM129.576 8.96023C128.679 8.96023 127.854 9.20904 127.144 9.72772L128.323 11.3433C128.663 11.0949 129.067 10.9602 129.576 10.9602V8.96023ZM127.146 9.7263C126.445 10.2352 125.937 10.9532 125.591 11.8138L127.446 12.5597C127.683 11.9715 127.985 11.5887 128.321 11.3447L127.146 9.7263ZM125.591 11.8138C125.239 12.688 125.082 13.6992 125.082 14.8182H127.082C127.082 13.8775 127.216 13.1344 127.446 12.5597L125.591 11.8138ZM125.082 14.8182C125.082 15.9475 125.235 16.9654 125.576 17.8435L127.44 17.1195C127.213 16.5346 127.082 15.777 127.082 14.8182H125.082ZM125.579 17.8514C125.925 18.7209 126.437 19.446 127.144 19.9619L128.323 18.3463C127.979 18.0952 127.673 17.7052 127.437 17.1117L125.579 17.8514ZM127.144 19.9619C127.854 20.4806 128.679 20.7294 129.576 20.7294V18.7294C129.067 18.7294 128.663 18.5947 128.323 18.3463L127.144 19.9619ZM129.576 20.7294C130.235 20.7294 130.861 20.5928 131.431 20.298L130.512 18.5216C130.258 18.6529 129.954 18.7294 129.576 18.7294V20.7294ZM131.425 20.3012C132.003 20.0075 132.476 19.5802 132.837 19.0377L131.173 17.9283C130.995 18.1954 130.779 18.386 130.519 18.5184L131.425 20.3012ZM132.835 19.041C133.208 18.486 133.434 17.8462 133.538 17.1487L131.559 16.8556C131.492 17.3087 131.356 17.6561 131.175 17.925L132.835 19.041ZM132.548 18.0021H136.831V16.0021H132.548V18.0021ZM135.833 16.9454C135.77 18.0423 135.475 18.9729 134.967 19.7646L136.65 20.8448C137.364 19.7331 137.75 18.4619 137.83 17.0589L135.833 16.9454ZM134.966 19.7662C134.465 20.549 133.772 21.169 132.858 21.6262L133.752 23.415C134.968 22.8068 135.944 21.9496 136.651 20.8432L134.966 19.7662ZM132.858 21.6262C131.959 22.0757 130.858 22.3196 129.523 22.3196V24.3196C131.1 24.3196 132.52 24.0309 133.752 23.415L132.858 21.6262ZM143.849 18.2912L142.849 18.2892L142.844 20.9568L144.601 18.95L143.849 18.2912ZM143.86 12.8473V11.8473H142.862L142.86 12.8453L143.86 12.8473ZM144.52 12.8473V13.8473H144.985L145.284 13.4922L144.52 12.8473ZM149.762 6.63636V5.63636H149.297L148.997 5.99142L149.762 6.63636ZM154.971 6.63636L155.731 7.28675L157.144 5.63636H154.971V6.63636ZM147.929 14.8608V15.8608H148.39L148.689 15.5112L147.929 14.8608ZM146.853 14.8608V13.8608H146.4L146.101 14.202L146.853 14.8608ZM139.737 23H138.737V24H139.737V23ZM139.737 1.18182V0.181818H138.737V1.18182H139.737ZM144.275 1.18182H145.275V0.181818H144.275V1.18182ZM144.275 23V24H145.275V23H144.275ZM149.964 23L149.136 23.5598L149.433 24H149.964V23ZM145.149 15.8729L144.421 15.1866L143.872 15.7691L144.32 16.4327L145.149 15.8729ZM148.174 12.6662L148.998 12.0996L148.297 11.0793L147.447 11.9799L148.174 12.6662ZM155.28 23V24H157.181L156.104 22.4334L155.28 23ZM144.849 18.2931L144.86 12.8493L142.86 12.8453L142.849 18.2892L144.849 18.2931ZM143.86 13.8473H144.52V11.8473H143.86V13.8473ZM145.284 13.4922L150.526 7.28131L148.997 5.99142L143.756 12.2024L145.284 13.4922ZM149.762 7.63636H154.971V5.63636H149.762V7.63636ZM154.212 5.98598L147.17 14.2104L148.689 15.5112L155.731 7.28675L154.212 5.98598ZM147.929 13.8608H146.853V15.8608H147.929V13.8608ZM146.101 14.202L143.097 17.6324L144.601 18.95L147.606 15.5196L146.101 14.202ZM140.737 23V1.18182H138.737V23H140.737ZM139.737 2.18182H144.275V0.181818H139.737V2.18182ZM143.275 1.18182V23H145.275V1.18182H143.275ZM144.275 22H139.737V24H144.275V22ZM150.793 22.4402L145.977 15.313L144.32 16.4327L149.136 23.5598L150.793 22.4402ZM145.876 16.5591L148.902 13.3525L147.447 11.9799L144.421 15.1866L145.876 16.5591ZM147.35 13.2328L154.456 23.5666L156.104 22.4334L148.998 12.0996L147.35 13.2328ZM155.28 22H149.964V24H155.28V22ZM162.62 1.18182L163.62 1.209L163.648 0.181818H162.62V1.18182ZM162.205 16.4588V17.4588H163.178L163.205 16.486L162.205 16.4588ZM158.306 16.4588L157.306 16.4867L157.333 17.4588H158.306V16.4588ZM157.88 1.18182V0.181818H156.851L156.88 1.2097L157.88 1.18182ZM158.444 22.5312L157.737 23.2384L157.742 23.2434L158.444 22.5312ZM157.699 20.7202L158.698 20.7303L158.699 20.7201L158.698 20.71L157.699 20.7202ZM158.444 18.9304L159.146 19.6425L159.146 19.6425L158.444 18.9304ZM162.034 18.9304L161.337 19.6474L161.337 19.6474L162.034 18.9304ZM162.812 20.7202L163.812 20.7353L163.812 20.7226L163.812 20.71L162.812 20.7202ZM162.439 22.0092L161.589 21.4834L161.586 21.4878L162.439 22.0092ZM161.512 22.9361L162.022 23.7965L162.034 23.7894L161.512 22.9361ZM161.621 1.15463L161.205 16.4316L163.205 16.486L163.62 1.209L161.621 1.15463ZM162.205 15.4588H158.306V17.4588H162.205V15.4588ZM159.305 16.4309L158.879 1.15393L156.88 1.2097L157.306 16.4867L159.305 16.4309ZM157.88 2.18182H162.62V0.181818H157.88V2.18182ZM160.255 22.277C159.817 22.277 159.465 22.1333 159.146 21.8191L157.742 23.2434C158.432 23.9235 159.287 24.277 160.255 24.277V22.277ZM159.151 21.8241C158.834 21.5069 158.694 21.1604 158.698 20.7303L156.699 20.7101C156.689 21.6862 157.046 22.5471 157.737 23.2384L159.151 21.8241ZM158.698 20.71C158.694 20.2904 158.831 19.953 159.146 19.6425L157.742 18.2183C157.049 18.9021 156.689 19.7579 156.699 20.7304L158.698 20.71ZM159.146 19.6425C159.465 19.3283 159.817 19.1847 160.255 19.1847V17.1847C159.287 17.1847 158.432 17.5381 157.742 18.2183L159.146 19.6425ZM160.255 19.1847C160.654 19.1847 161.001 19.3203 161.337 19.6474L162.732 18.2134C162.045 17.5462 161.206 17.1847 160.255 17.1847V19.1847ZM161.337 19.6474C161.663 19.9639 161.808 20.3082 161.812 20.7304L163.812 20.71C163.802 19.7401 163.429 18.8912 162.732 18.2134L161.337 19.6474ZM161.812 20.705C161.808 20.9971 161.733 21.2497 161.589 21.4834L163.29 22.5351C163.628 21.9875 163.802 21.3807 163.812 20.7353L161.812 20.705ZM161.586 21.4878C161.434 21.7359 161.239 21.9311 160.991 22.0828L162.034 23.7894C162.553 23.4723 162.975 23.0496 163.293 22.5307L161.586 21.4878ZM161.003 22.0758C160.777 22.2097 160.534 22.277 160.255 22.277V24.277C160.886 24.277 161.481 24.117 162.022 23.7964L161.003 22.0758Z" fill="#35DC32" mask="url(#path-1-outside-1_780_1994)"/>
</svg>
