<svg width="133" height="30" viewBox="0 0 133 30" fill="none" xmlns="http://www.w3.org/2000/svg">
<mask id="path-1-outside-1_780_1828" maskUnits="userSpaceOnUse" x="-1" y="-1.5" width="135" height="33" fill="black">
<rect fill="white" x="-1" y="-1.5" width="135" height="33"/>
<path d="M5.34943 1.68182V23.5H0.81108V1.68182H5.34943ZM16.3784 23.8196C14.7235 23.8196 13.2924 23.468 12.085 22.7649C10.8848 22.0547 9.95792 21.0675 9.30451 19.8033C8.6511 18.532 8.3244 17.0582 8.3244 15.3821C8.3244 13.6918 8.6511 12.2145 9.30451 10.9503C9.95792 9.67898 10.8848 8.69176 12.085 7.98864C13.2924 7.27841 14.7235 6.9233 16.3784 6.9233C18.0332 6.9233 19.4608 7.27841 20.661 7.98864C21.8684 8.69176 22.7988 9.67898 23.4522 10.9503C24.1056 12.2145 24.4324 13.6918 24.4324 15.3821C24.4324 17.0582 24.1056 18.532 23.4522 19.8033C22.7988 21.0675 21.8684 22.0547 20.661 22.7649C19.4608 23.468 18.0332 23.8196 16.3784 23.8196ZM16.3997 20.304C17.1525 20.304 17.7811 20.0909 18.2853 19.6648C18.7896 19.2315 19.1696 18.642 19.4252 17.8963C19.688 17.1506 19.8194 16.3018 19.8194 15.3501C19.8194 14.3984 19.688 13.5497 19.4252 12.804C19.1696 12.0582 18.7896 11.4687 18.2853 11.0355C17.7811 10.6023 17.1525 10.3857 16.3997 10.3857C15.6397 10.3857 15.0005 10.6023 14.4821 11.0355C13.9707 11.4687 13.5836 12.0582 13.3208 12.804C13.0652 13.5497 12.9373 14.3984 12.9373 15.3501C12.9373 16.3018 13.0652 17.1506 13.3208 17.8963C13.5836 18.642 13.9707 19.2315 14.4821 19.6648C15.0005 20.0909 15.6397 20.304 16.3997 20.304ZM32.0495 23.8089C31.0055 23.8089 30.0751 23.6278 29.2583 23.2656C28.4416 22.8963 27.7953 22.353 27.3194 21.6357C26.8507 20.9112 26.6163 20.0092 26.6163 18.9297C26.6163 18.0206 26.7832 17.2571 27.117 16.6392C27.4508 16.0213 27.9054 15.5241 28.4806 15.1477C29.0559 14.7713 29.7093 14.4872 30.4409 14.2955C31.1795 14.1037 31.9537 13.9688 32.7633 13.8906C33.715 13.7912 34.4821 13.6989 35.0645 13.6136C35.6468 13.5213 36.0694 13.3864 36.3322 13.2088C36.595 13.0312 36.7264 12.7685 36.7264 12.4205V12.3565C36.7264 11.6818 36.5133 11.1598 36.0872 10.7905C35.6681 10.4212 35.0716 10.2365 34.2974 10.2365C33.4806 10.2365 32.8308 10.4176 32.3478 10.7798C31.8649 11.1349 31.5453 11.5824 31.389 12.1222L27.1916 11.7812C27.4047 10.7869 27.8237 9.92756 28.4487 9.20312C29.0737 8.47159 29.8798 7.91051 30.867 7.51989C31.8613 7.12216 33.0119 6.9233 34.3187 6.9233C35.2278 6.9233 36.0978 7.02983 36.9288 7.2429C37.7669 7.45597 38.5091 7.78622 39.1554 8.23366C39.8088 8.68111 40.3237 9.25639 40.7001 9.95952C41.0765 10.6555 41.2647 11.4901 41.2647 12.4631V23.5H36.9608V21.2308H36.8329C36.5701 21.7422 36.2186 22.1932 35.7782 22.5838C35.3379 22.9673 34.8088 23.2692 34.1909 23.4893C33.573 23.7024 32.8592 23.8089 32.0495 23.8089ZM33.3493 20.6768C34.0169 20.6768 34.6064 20.5455 35.1177 20.2827C35.6291 20.0128 36.0304 19.6506 36.3216 19.196C36.6127 18.7415 36.7583 18.2266 36.7583 17.6513V15.9148C36.6163 16.0071 36.421 16.0923 36.1724 16.1705C35.9309 16.2415 35.6575 16.3089 35.3521 16.3729C35.0467 16.4297 34.7413 16.483 34.4359 16.5327C34.1305 16.5753 33.8535 16.6143 33.6049 16.6499C33.0723 16.728 32.6071 16.8523 32.2093 17.0227C31.8116 17.1932 31.5027 17.424 31.2825 17.7152C31.0623 17.9993 30.9522 18.3544 30.9522 18.7805C30.9522 19.3984 31.176 19.8707 31.6234 20.1974C32.0779 20.517 32.6532 20.6768 33.3493 20.6768ZM50.8155 23.7663C49.5726 23.7663 48.4469 23.4467 47.4384 22.8075C46.437 22.1612 45.6415 21.2131 45.052 19.9631C44.4696 18.706 44.1784 17.1648 44.1784 15.3395C44.1784 13.4645 44.4803 11.9055 45.084 10.6626C45.6877 9.41264 46.4902 8.47869 47.4917 7.8608C48.5002 7.2358 49.6046 6.9233 50.8049 6.9233C51.7211 6.9233 52.4846 7.07955 53.0953 7.39205C53.7132 7.69744 54.2104 8.08097 54.5868 8.54261C54.9703 8.99716 55.2615 9.4446 55.4604 9.88494H55.5989V1.68182H60.1266V23.5H55.6522V20.8793H55.4604C55.2473 21.3338 54.9455 21.7848 54.5549 22.2322C54.1713 22.6726 53.6706 23.0384 53.0527 23.3295C52.4419 23.6207 51.6962 23.7663 50.8155 23.7663ZM52.2537 20.1548C52.9853 20.1548 53.6032 19.956 54.1074 19.5582C54.6188 19.1534 55.0094 18.5888 55.2793 17.8643C55.5563 17.1399 55.6948 16.2912 55.6948 15.3182C55.6948 14.3452 55.5598 13.5 55.29 12.7827C55.0201 12.0653 54.6294 11.5114 54.1181 11.1207C53.6067 10.7301 52.9853 10.5348 52.2537 10.5348C51.508 10.5348 50.8794 10.7372 50.3681 11.142C49.8567 11.5469 49.4696 12.108 49.2069 12.8253C48.9441 13.5426 48.8127 14.3736 48.8127 15.3182C48.8127 16.2699 48.9441 17.1115 49.2069 17.843C49.4767 18.5675 49.8638 19.1357 50.3681 19.5476C50.8794 19.9524 51.508 20.1548 52.2537 20.1548ZM63.858 23.5V7.13636H68.3963V23.5H63.858ZM66.1378 5.02699C65.4631 5.02699 64.8842 4.80327 64.4013 4.35582C63.9254 3.90128 63.6875 3.35795 63.6875 2.72585C63.6875 2.10085 63.9254 1.56463 64.4013 1.11719C64.8842 0.662641 65.4631 0.435368 66.1378 0.435368C66.8125 0.435368 67.3878 0.662641 67.8636 1.11719C68.3466 1.56463 68.5881 2.10085 68.5881 2.72585C68.5881 3.35795 68.3466 3.90128 67.8636 4.35582C67.3878 4.80327 66.8125 5.02699 66.1378 5.02699ZM76.5701 14.0398V23.5H72.0318V7.13636H76.3571V10.0234H76.5488C76.911 9.07173 77.5183 8.31889 78.3706 7.76491C79.2228 7.20384 80.2562 6.9233 81.4707 6.9233C82.6071 6.9233 83.5978 7.17187 84.443 7.66903C85.2882 8.16619 85.9451 8.87642 86.4139 9.79972C86.8826 10.7159 87.117 11.8097 87.117 13.081V23.5H82.5787V13.8906C82.5858 12.8892 82.3301 12.108 81.8116 11.5469C81.2931 10.9787 80.5794 10.6946 79.6703 10.6946C79.0595 10.6946 78.5197 10.826 78.051 11.0888C77.5893 11.3516 77.2271 11.7351 76.9643 12.2393C76.7086 12.7365 76.5772 13.3366 76.5701 14.0398ZM98.0661 29.9773C96.5959 29.9773 95.3352 29.7749 94.2841 29.37C93.2401 28.9723 92.4091 28.429 91.7912 27.7401C91.1733 27.0511 90.772 26.277 90.5874 25.4176L94.7848 24.853C94.9126 25.1797 95.1151 25.4851 95.392 25.7692C95.669 26.0533 96.0348 26.2805 96.4893 26.451C96.951 26.6286 97.5121 26.7173 98.1726 26.7173C99.1598 26.7173 99.973 26.4759 100.612 25.9929C101.259 25.517 101.582 24.718 101.582 23.5959V20.6023H101.39C101.191 21.0568 100.893 21.4865 100.495 21.8913C100.097 22.2962 99.5859 22.6264 98.9609 22.8821C98.3359 23.1378 97.5902 23.2656 96.7237 23.2656C95.495 23.2656 94.3764 22.9815 93.3679 22.4134C92.3665 21.8381 91.5675 20.9609 90.9709 19.782C90.3814 18.5959 90.0866 17.0973 90.0866 15.2862C90.0866 13.4325 90.3885 11.8842 90.9922 10.6413C91.5959 9.39844 92.3984 8.46804 93.3999 7.85014C94.4084 7.23224 95.5128 6.9233 96.7131 6.9233C97.6293 6.9233 98.3963 7.07955 99.0142 7.39205C99.6321 7.69744 100.129 8.08097 100.506 8.54261C100.889 8.99716 101.184 9.4446 101.39 9.88494H101.56V7.13636H106.067V23.6598C106.067 25.0518 105.726 26.2166 105.044 27.1541C104.362 28.0916 103.418 28.7947 102.21 29.2635C101.01 29.7393 99.6286 29.9773 98.0661 29.9773ZM98.1619 19.8565C98.8935 19.8565 99.5114 19.6754 100.016 19.3132C100.527 18.9439 100.918 18.4183 101.188 17.7365C101.464 17.0476 101.603 16.2237 101.603 15.2649C101.603 14.3061 101.468 13.4751 101.198 12.772C100.928 12.0618 100.538 11.5114 100.026 11.1207C99.5149 10.7301 98.8935 10.5348 98.1619 10.5348C97.4162 10.5348 96.7876 10.7372 96.2763 11.142C95.7649 11.5398 95.3778 12.0937 95.1151 12.804C94.8523 13.5142 94.7209 14.3345 94.7209 15.2649C94.7209 16.2095 94.8523 17.0263 95.1151 17.7152C95.3849 18.397 95.772 18.9261 96.2763 19.3026C96.7876 19.6719 97.4162 19.8565 98.1619 19.8565ZM112.331 23.777C111.628 23.777 111.024 23.5284 110.52 23.0312C110.023 22.527 109.774 21.9233 109.774 21.2202C109.774 20.5241 110.023 19.9276 110.52 19.4304C111.024 18.9332 111.628 18.6847 112.331 18.6847C113.013 18.6847 113.609 18.9332 114.121 19.4304C114.632 19.9276 114.888 20.5241 114.888 21.2202C114.888 21.6889 114.767 22.1186 114.526 22.5092C114.291 22.8928 113.982 23.2017 113.599 23.4361C113.215 23.6634 112.793 23.777 112.331 23.777ZM121.267 23.777C120.563 23.777 119.96 23.5284 119.455 23.0312C118.958 22.527 118.71 21.9233 118.71 21.2202C118.71 20.5241 118.958 19.9276 119.455 19.4304C119.96 18.9332 120.563 18.6847 121.267 18.6847C121.948 18.6847 122.545 18.9332 123.056 19.4304C123.568 19.9276 123.823 20.5241 123.823 21.2202C123.823 21.6889 123.703 22.1186 123.461 22.5092C123.227 22.8928 122.918 23.2017 122.534 23.4361C122.151 23.6634 121.728 23.777 121.267 23.777ZM130.202 23.777C129.499 23.777 128.895 23.5284 128.391 23.0312C127.894 22.527 127.645 21.9233 127.645 21.2202C127.645 20.5241 127.894 19.9276 128.391 19.4304C128.895 18.9332 129.499 18.6847 130.202 18.6847C130.884 18.6847 131.48 18.9332 131.992 19.4304C132.503 19.9276 132.759 20.5241 132.759 21.2202C132.759 21.6889 132.638 22.1186 132.397 22.5092C132.162 22.8928 131.853 23.2017 131.47 23.4361C131.086 23.6634 130.664 23.777 130.202 23.777Z"/>
</mask>
<path d="M5.34943 1.68182H6.34943V0.681818H5.34943V1.68182ZM5.34943 23.5V24.5H6.34943V23.5H5.34943ZM0.81108 23.5H-0.18892V24.5H0.81108V23.5ZM0.81108 1.68182V0.681818H-0.18892V1.68182H0.81108ZM4.34943 1.68182V23.5H6.34943V1.68182H4.34943ZM5.34943 22.5H0.81108V24.5H5.34943V22.5ZM1.81108 23.5V1.68182H-0.18892V23.5H1.81108ZM0.81108 2.68182H5.34943V0.681818H0.81108V2.68182ZM12.085 22.7649L11.5758 23.6256L11.5818 23.6291L12.085 22.7649ZM9.30451 19.8033L8.4151 20.2604L8.41615 20.2624L9.30451 19.8033ZM9.30451 10.9503L10.1929 11.4094L10.1939 11.4074L9.30451 10.9503ZM12.085 7.98864L12.5905 8.85149L12.5921 8.85057L12.085 7.98864ZM20.661 7.98864L20.1518 8.84928L20.1578 8.85278L20.661 7.98864ZM23.4522 10.9503L22.5628 11.4074L22.5639 11.4094L23.4522 10.9503ZM23.4522 19.8033L24.3406 20.2624L24.3416 20.2604L23.4522 19.8033ZM20.661 22.7649L21.1665 23.6278L21.1681 23.6268L20.661 22.7649ZM18.2853 19.6648L18.9308 20.4286L18.937 20.4233L18.2853 19.6648ZM19.4252 17.8963L18.4821 17.5639L18.4793 17.572L19.4252 17.8963ZM19.4252 12.804L18.4793 13.1283L18.4821 13.1363L19.4252 12.804ZM14.4821 11.0355L13.8408 10.2681L13.8356 10.2725L14.4821 11.0355ZM13.3208 12.804L12.3777 12.4716L12.3749 12.4797L13.3208 12.804ZM13.3208 17.8963L12.3749 18.2206L12.3777 18.2287L13.3208 17.8963ZM14.4821 19.6648L13.8356 20.4278L13.8413 20.4326L13.8471 20.4373L14.4821 19.6648ZM16.3784 22.8196C14.8676 22.8196 13.6168 22.4998 12.5883 21.9008L11.5818 23.6291C12.968 24.4363 14.5795 24.8196 16.3784 24.8196V22.8196ZM12.5943 21.9043C11.559 21.2917 10.7619 20.4452 10.1929 19.3441L8.41615 20.2624C9.15389 21.6898 10.2105 22.8177 11.5758 23.6255L12.5943 21.9043ZM10.1939 19.3461C9.62476 18.2388 9.3244 16.9267 9.3244 15.3821H7.3244C7.3244 17.1898 7.67744 18.8252 8.41511 20.2604L10.1939 19.3461ZM9.3244 15.3821C9.3244 13.8217 9.6254 12.5074 10.1929 11.4094L8.41615 10.4911C7.6768 11.9216 7.3244 13.5619 7.3244 15.3821H9.3244ZM10.1939 11.4074C10.763 10.3002 11.5589 9.45583 12.5905 8.85149L11.5796 7.12578C10.2107 7.92769 9.15283 9.0578 8.41511 10.4932L10.1939 11.4074ZM12.5921 8.85057C13.6199 8.24594 14.8693 7.9233 16.3784 7.9233V5.9233C14.5778 5.9233 12.9649 6.31088 11.578 7.1267L12.5921 8.85057ZM16.3784 7.9233C17.8877 7.9233 19.1323 8.246 20.1518 8.84926L21.1703 7.12801C19.7892 6.31081 18.1787 5.9233 16.3784 5.9233V7.9233ZM20.1578 8.85278C21.1963 9.45755 21.9945 10.3017 22.5628 11.4074L24.3416 10.4932C23.6031 9.05624 22.5406 7.92597 21.1643 7.12449L20.1578 8.85278ZM22.5639 11.4094C23.1313 12.5074 23.4324 13.8217 23.4324 15.3821H25.4324C25.4324 13.5619 25.0799 11.9216 24.3406 10.4911L22.5639 11.4094ZM23.4324 15.3821C23.4324 16.9267 23.132 18.2388 22.5628 19.3461L24.3416 20.2604C25.0793 18.8252 25.4324 17.1898 25.4324 15.3821H23.4324ZM22.5639 19.3441C21.9956 20.4436 21.1961 21.29 20.154 21.903L21.1681 23.6268C22.5407 22.8194 23.6021 21.6913 24.3406 20.2624L22.5639 19.3441ZM20.1556 21.9021C19.1354 22.4997 17.8894 22.8196 16.3784 22.8196V24.8196C18.177 24.8196 19.7861 24.4364 21.1665 23.6278L20.1556 21.9021ZM16.3997 21.304C17.3537 21.304 18.2209 21.0285 18.9308 20.4286L17.6399 18.901C17.3413 19.1533 16.9514 19.304 16.3997 19.304V21.304ZM18.937 20.4233C19.5994 19.8542 20.0686 19.1032 20.3712 18.2206L18.4793 17.572C18.2705 18.1809 17.9798 18.6089 17.6337 18.9063L18.937 20.4233ZM20.3684 18.2287C20.6756 17.3569 20.8194 16.3927 20.8194 15.3501H18.8194C18.8194 16.211 18.7005 16.9442 18.4821 17.564L20.3684 18.2287ZM20.8194 15.3501C20.8194 14.3076 20.6756 13.3434 20.3684 12.4716L18.4821 13.1363C18.7005 13.7561 18.8194 14.4893 18.8194 15.3501H20.8194ZM20.3712 12.4797C20.0686 11.5971 19.5994 10.8461 18.937 10.277L17.6337 11.794C17.9798 12.0914 18.2705 12.5194 18.4793 13.1283L20.3712 12.4797ZM18.937 10.277C18.2273 9.66729 17.3579 9.38565 16.3997 9.38565V11.3857C16.9471 11.3857 17.3348 11.5373 17.6337 11.794L18.937 10.277ZM16.3997 9.38565C15.4364 9.38565 14.5617 9.66581 13.8408 10.2682L15.1233 11.8029C15.4394 11.5387 15.843 11.3857 16.3997 11.3857V9.38565ZM13.8356 10.2725C13.1664 10.8396 12.6888 11.5889 12.3777 12.4716L14.264 13.1363C14.4785 12.5276 14.7751 12.0979 15.1285 11.7985L13.8356 10.2725ZM12.3749 12.4797C12.0769 13.3488 11.9373 14.3102 11.9373 15.3501H13.9373C13.9373 14.4866 14.0534 13.7506 14.2668 13.1283L12.3749 12.4797ZM11.9373 15.3501C11.9373 16.3901 12.0769 17.3514 12.3749 18.2206L14.2668 17.572C14.0534 16.9497 13.9373 16.2136 13.9373 15.3501H11.9373ZM12.3777 18.2287C12.6888 19.1114 13.1664 19.8607 13.8356 20.4278L15.1285 18.9018C14.7751 18.6024 14.4785 18.1727 14.264 17.564L12.3777 18.2287ZM13.8471 20.4373C14.5681 21.0299 15.4406 21.304 16.3997 21.304V19.304C15.8389 19.304 15.433 19.1519 15.117 18.8922L13.8471 20.4373ZM29.2583 23.2656L28.8463 24.1768L28.8529 24.1798L29.2583 23.2656ZM27.3194 21.6357L26.4798 22.1789L26.4861 22.1884L27.3194 21.6357ZM27.117 16.6392L26.2372 16.1639L26.2372 16.1639L27.117 16.6392ZM28.4806 15.1477L27.9331 14.3109L27.9331 14.3109L28.4806 15.1477ZM30.4409 14.2955L30.1896 13.3275L30.1873 13.3281L30.4409 14.2955ZM32.7633 13.8906L32.8594 14.886L32.8672 14.8852L32.7633 13.8906ZM35.0645 13.6136L35.2093 14.6032L35.221 14.6013L35.0645 13.6136ZM36.3322 13.2088L35.7724 12.3802L35.7724 12.3802L36.3322 13.2088ZM36.0872 10.7905L35.426 11.5407L35.4322 11.5462L36.0872 10.7905ZM32.3478 10.7798L32.9403 11.5855L32.9478 11.5798L32.3478 10.7798ZM31.389 12.1222L31.3081 13.1189L32.1224 13.185L32.3496 12.4002L31.389 12.1222ZM27.1916 11.7812L26.2138 11.5717L25.9751 12.6857L27.1106 12.778L27.1916 11.7812ZM28.4487 9.20312L29.2059 9.85637L29.209 9.8527L28.4487 9.20312ZM30.867 7.51989L31.2349 8.44975L31.2384 8.44836L30.867 7.51989ZM36.9288 7.2429L36.6804 8.21156L36.6824 8.21207L36.9288 7.2429ZM39.1554 8.23366L38.5861 9.05587L38.5904 9.05875L39.1554 8.23366ZM40.7001 9.95952L39.8185 10.4315L39.8205 10.4352L40.7001 9.95952ZM41.2647 23.5V24.5H42.2647V23.5H41.2647ZM36.9608 23.5H35.9608V24.5H36.9608V23.5ZM36.9608 21.2308H37.9608V20.2308H36.9608V21.2308ZM36.8329 21.2308V20.2308H36.2225L35.9435 20.7738L36.8329 21.2308ZM35.7782 22.5838L36.435 23.3379L36.4418 23.3319L35.7782 22.5838ZM34.1909 23.4893L34.5169 24.4348L34.5265 24.4313L34.1909 23.4893ZM35.1177 20.2827L35.5748 21.1722L35.5845 21.1671L35.1177 20.2827ZM36.3216 19.196L35.4795 18.6566L35.4795 18.6566L36.3216 19.196ZM36.7583 15.9148H37.7583V14.0721L36.2134 15.0763L36.7583 15.9148ZM36.1724 16.1705L36.4546 17.1298L36.4634 17.1272L36.4722 17.1244L36.1724 16.1705ZM35.3521 16.3729L35.535 17.356L35.546 17.354L35.557 17.3517L35.3521 16.3729ZM34.4359 16.5327L34.5741 17.5231L34.5854 17.5215L34.5966 17.5197L34.4359 16.5327ZM33.6049 16.6499L33.4635 15.6599L33.4598 15.6604L33.6049 16.6499ZM32.2093 17.0227L32.6033 17.9419L32.6033 17.9419L32.2093 17.0227ZM31.2825 17.7152L32.073 18.3278L32.0802 18.3183L31.2825 17.7152ZM31.6234 20.1974L31.0337 21.0051L31.0409 21.0103L31.0482 21.0155L31.6234 20.1974ZM32.0495 22.8089C31.1219 22.8089 30.3331 22.6484 29.6637 22.3515L28.8529 24.1798C29.8171 24.6073 30.8892 24.8089 32.0495 24.8089V22.8089ZM29.6704 22.3544C29.0175 22.0592 28.5202 21.6368 28.1527 21.0829L26.4861 22.1884C27.0703 23.0691 27.8657 23.7334 28.8463 24.1768L29.6704 22.3544ZM28.159 21.0924C27.8184 20.5661 27.6163 19.8648 27.6163 18.9297H25.6163C25.6163 20.1537 25.8829 21.2563 26.4799 22.1789L28.159 21.0924ZM27.6163 18.9297C27.6163 18.1391 27.7617 17.5497 27.9968 17.1145L26.2372 16.1639C25.8047 16.9645 25.6163 17.9021 25.6163 18.9297H27.6163ZM27.9968 17.1145C28.2534 16.6396 28.5951 16.2679 29.0282 15.9845L27.9331 14.3109C27.2157 14.7804 26.6482 15.403 26.2372 16.1639L27.9968 17.1145ZM29.0282 15.9845C29.5046 15.6728 30.0569 15.4299 30.6944 15.2628L30.1873 13.3281C29.3618 13.5445 28.6073 13.8698 27.9331 14.3109L29.0282 15.9845ZM30.6922 15.2634C31.3766 15.0857 32.0987 14.9594 32.8594 14.886L32.6673 12.8952C31.8086 12.9781 30.9824 13.1217 30.1896 13.3275L30.6922 15.2634ZM32.8672 14.8852C33.8253 14.7851 34.6076 14.6911 35.2093 14.6031L34.9197 12.6242C34.3566 12.7066 33.6047 12.7973 32.6594 12.896L32.8672 14.8852ZM35.221 14.6013C35.8446 14.5024 36.4441 14.3401 36.8921 14.0374L35.7724 12.3802C35.6948 12.4326 35.4491 12.5402 34.9079 12.626L35.221 14.6013ZM36.8921 14.0374C37.4602 13.6535 37.7264 13.0626 37.7264 12.4205H35.7264C35.7264 12.4447 35.7241 12.4553 35.7241 12.4552C35.7242 12.4545 35.7264 12.4454 35.7334 12.4313C35.7406 12.417 35.7499 12.4035 35.7596 12.3927C35.769 12.3821 35.7749 12.3785 35.7724 12.3802L36.8921 14.0374ZM37.7264 12.4205V12.3565H35.7264V12.4205H37.7264ZM37.7264 12.3565C37.7264 11.4543 37.4306 10.6315 36.7421 10.0348L35.4322 11.5462C35.596 11.6881 35.7264 11.9093 35.7264 12.3565H37.7264ZM36.7484 10.0403C36.0867 9.45714 35.221 9.23651 34.2974 9.23651V11.2365C34.9221 11.2365 35.2495 11.3852 35.426 11.5407L36.7484 10.0403ZM34.2974 9.23651C33.3397 9.23651 32.4558 9.44884 31.7478 9.97983L32.9478 11.5798C33.2058 11.3864 33.6216 11.2365 34.2974 11.2365V9.23651ZM31.7554 9.97418C31.1077 10.4505 30.6502 11.0781 30.4285 11.8441L32.3496 12.4002C32.4404 12.0867 32.6221 11.8194 32.9402 11.5855L31.7554 9.97418ZM31.47 11.1254L27.2725 10.7845L27.1106 12.778L31.3081 13.1189L31.47 11.1254ZM28.1694 11.9908C28.3496 11.1499 28.6973 10.4457 29.2058 9.85636L27.6915 8.54989C26.95 9.40936 26.4597 10.424 26.2138 11.5717L28.1694 11.9908ZM29.209 9.8527C29.7174 9.25764 30.3834 8.78667 31.2349 8.44974L30.4991 6.59003C29.3762 7.03435 28.43 7.68554 27.6884 8.55355L29.209 9.8527ZM31.2384 8.44836C32.0917 8.10704 33.1119 7.9233 34.3187 7.9233V5.9233C32.9119 5.9233 31.6309 6.13728 30.4956 6.59141L31.2384 8.44836ZM34.3187 7.9233C35.149 7.9233 35.9353 8.02051 36.6804 8.21156L37.1772 6.27423C36.2604 6.03915 35.3066 5.9233 34.3187 5.9233V7.9233ZM36.6824 8.21207C37.4165 8.3987 38.0472 8.68271 38.5862 9.05586L39.7246 7.41147C38.9709 6.88973 38.1172 6.51323 37.1752 6.27373L36.6824 8.21207ZM38.5904 9.05875C39.1105 9.41491 39.5172 9.86871 39.8185 10.4315L41.5817 9.48754C41.1302 8.64407 40.5071 7.9473 39.7204 7.40858L38.5904 9.05875ZM39.8205 10.4352C40.1017 10.9552 40.2647 11.6185 40.2647 12.4631H42.2647C42.2647 11.3616 42.0513 10.3558 41.5797 9.48381L39.8205 10.4352ZM40.2647 12.4631V23.5H42.2647V12.4631H40.2647ZM41.2647 22.5H36.9608V24.5H41.2647V22.5ZM37.9608 23.5V21.2308H35.9608V23.5H37.9608ZM36.9608 20.2308H36.8329V22.2308H36.9608V20.2308ZM35.9435 20.7738C35.7387 21.1723 35.4646 21.5253 35.1146 21.8357L36.4418 23.3319C36.9726 22.8611 37.4016 22.3121 37.7224 21.6879L35.9435 20.7738ZM35.1215 21.8297C34.7864 22.1216 34.3697 22.364 33.8552 22.5474L34.5265 24.4313C35.2478 24.1743 35.8894 23.8131 36.435 23.3379L35.1215 21.8297ZM33.8649 22.544C33.3735 22.7134 32.7737 22.8089 32.0495 22.8089V24.8089C32.9447 24.8089 33.7725 24.6914 34.5169 24.4347L33.8649 22.544ZM33.3493 21.6768C34.1502 21.6768 34.9008 21.5184 35.5748 21.1721L34.6607 19.3932C34.3119 19.5725 33.8836 19.6768 33.3493 19.6768V21.6768ZM35.5845 21.1671C36.2374 20.8225 36.7726 20.3458 37.1636 19.7354L35.4795 18.6566C35.2881 18.9553 35.0208 19.2031 34.651 19.3983L35.5845 21.1671ZM37.1636 19.7355C37.5648 19.1092 37.7583 18.4046 37.7583 17.6513H35.7583C35.7583 18.0485 35.6607 18.3738 35.4795 18.6566L37.1636 19.7355ZM37.7583 17.6513V15.9148H35.7583V17.6513H37.7583ZM36.2134 15.0763C36.1766 15.1002 36.0757 15.1526 35.8726 15.2165L36.4722 17.1244C36.7662 17.032 37.056 16.914 37.3033 16.7532L36.2134 15.0763ZM35.8902 15.2111C35.6794 15.2731 35.4325 15.3344 35.1472 15.3941L35.557 17.3517C35.8825 17.2835 36.1824 17.2099 36.4546 17.1298L35.8902 15.2111ZM35.1692 15.3897C34.8712 15.4452 34.5732 15.4972 34.2752 15.5457L34.5966 17.5197C34.9094 17.4687 35.2222 17.4142 35.535 17.356L35.1692 15.3897ZM34.2977 15.5423C33.9915 15.585 33.7134 15.6242 33.4635 15.6599L33.7464 17.6398C33.9937 17.6045 34.2695 17.5656 34.5741 17.5231L34.2977 15.5423ZM33.4598 15.6604C32.8614 15.7482 32.3093 15.8919 31.8154 16.1036L32.6033 17.9419C32.9049 17.8126 33.2831 17.7078 33.7501 17.6393L33.4598 15.6604ZM31.8154 16.1036C31.2877 16.3298 30.8277 16.6586 30.4848 17.1121L32.0802 18.3183C32.1776 18.1894 32.3356 18.0566 32.6033 17.9419L31.8154 16.1036ZM30.4921 17.1026C30.112 17.593 29.9522 18.1753 29.9522 18.7805H31.9522C31.9522 18.5335 32.0126 18.4056 32.0729 18.3278L30.4921 17.1026ZM29.9522 18.7805C29.9522 19.6752 30.2959 20.4663 31.0337 21.0051L32.2131 19.3898C32.056 19.2751 31.9522 19.1217 31.9522 18.7805H29.9522ZM31.0482 21.0155C31.7095 21.4804 32.4997 21.6768 33.3493 21.6768V19.6768C32.8068 19.6768 32.4464 19.5537 32.1986 19.3794L31.0482 21.0155ZM47.4384 22.8075L46.8961 23.6478L46.9031 23.6522L47.4384 22.8075ZM45.052 19.9631L44.1446 20.3834L44.1476 20.3896L45.052 19.9631ZM45.084 10.6626L45.9835 11.0995L45.9845 11.0975L45.084 10.6626ZM47.4917 7.8608L48.0168 8.71183L48.0184 8.71081L47.4917 7.8608ZM53.0953 7.39205L52.6398 8.28238L52.6523 8.28852L53.0953 7.39205ZM54.5868 8.54261L53.8118 9.17455L53.8171 9.18106L53.8225 9.18748L54.5868 8.54261ZM55.4604 9.88494L54.549 10.2965L54.8148 10.8849H55.4604V9.88494ZM55.5989 9.88494V10.8849H56.5989V9.88494H55.5989ZM55.5989 1.68182V0.681818H54.5989V1.68182H55.5989ZM60.1266 1.68182H61.1266V0.681818H60.1266V1.68182ZM60.1266 23.5V24.5H61.1266V23.5H60.1266ZM55.6522 23.5H54.6522V24.5H55.6522V23.5ZM55.6522 20.8793H56.6522V19.8793H55.6522V20.8793ZM55.4604 20.8793V19.8793H54.8247L54.5549 20.4548L55.4604 20.8793ZM54.5549 22.2322L53.8015 21.5746L53.8008 21.5755L54.5549 22.2322ZM53.0527 23.3295L52.6264 22.425L52.6224 22.4269L53.0527 23.3295ZM54.1074 19.5582L54.7267 20.3434L54.7281 20.3423L54.1074 19.5582ZM55.2793 17.8643L54.3452 17.5072L54.3422 17.5152L55.2793 17.8643ZM55.29 12.7827L56.2259 12.4305L56.2259 12.4305L55.29 12.7827ZM50.3681 11.142L49.7474 10.358L49.7474 10.358L50.3681 11.142ZM49.2069 17.843L48.2657 18.1811L48.2698 18.1921L49.2069 17.843ZM50.3681 19.5476L49.7354 20.322L49.7414 20.3269L49.7474 20.3316L50.3681 19.5476ZM50.8155 22.7663C49.754 22.7663 48.8154 22.4963 47.9737 21.9629L46.9031 23.6522C48.0784 24.3971 49.3912 24.7663 50.8155 24.7663V22.7663ZM47.9807 21.9673C47.1599 21.4376 46.4792 20.645 45.9565 19.5365L44.1476 20.3896C44.8038 21.7812 45.714 22.8848 46.8961 23.6477L47.9807 21.9673ZM45.9594 19.5427C45.4542 18.4522 45.1784 17.0636 45.1784 15.3395H43.1784C43.1784 17.2659 43.4851 18.9598 44.1447 20.3834L45.9594 19.5427ZM45.1784 15.3395C45.1784 13.5646 45.4652 12.1667 45.9835 11.0995L44.1845 10.2257C43.4954 11.6444 43.1784 13.3644 43.1784 15.3395H45.1784ZM45.9845 11.0975C46.5204 9.98786 47.2048 9.21281 48.0168 8.71183L46.9665 7.00976C45.7756 7.74458 44.855 8.83742 44.1835 10.2277L45.9845 11.0975ZM48.0184 8.71081C48.8668 8.18505 49.7884 7.9233 50.8049 7.9233V5.9233C49.4207 5.9233 48.1336 6.28654 46.9649 7.01079L48.0184 8.71081ZM50.8049 7.9233C51.6135 7.9233 52.2093 8.06198 52.6399 8.28229L53.5508 6.5018C52.7598 6.09711 51.8286 5.9233 50.8049 5.9233V7.9233ZM52.6523 8.28852C53.1619 8.54042 53.539 8.83994 53.8118 9.17455L55.3618 7.91067C54.8818 7.32199 54.2646 6.85447 53.5384 6.49557L52.6523 8.28852ZM53.8225 9.18748C54.1596 9.58703 54.3958 9.95713 54.549 10.2965L56.3718 9.47336C56.1273 8.93207 55.781 8.40729 55.3511 7.89774L53.8225 9.18748ZM55.4604 10.8849H55.5989V8.88494H55.4604V10.8849ZM56.5989 9.88494V1.68182H54.5989V9.88494H56.5989ZM55.5989 2.68182H60.1266V0.681818H55.5989V2.68182ZM59.1266 1.68182V23.5H61.1266V1.68182H59.1266ZM60.1266 22.5H55.6522V24.5H60.1266V22.5ZM56.6522 23.5V20.8793H54.6522V23.5H56.6522ZM55.6522 19.8793H55.4604V21.8793H55.6522V19.8793ZM54.5549 20.4548C54.3879 20.8111 54.1417 21.1849 53.8015 21.5746L55.3082 22.8899C55.7493 22.3847 56.1067 21.8565 56.3659 21.3037L54.5549 20.4548ZM53.8008 21.5755C53.5223 21.8952 53.1401 22.1829 52.6264 22.425L53.479 24.2341C54.2011 23.8938 54.8204 23.45 55.3089 22.889L53.8008 21.5755ZM52.6224 22.4269C52.1802 22.6377 51.5904 22.7663 50.8155 22.7663V24.7663C51.802 24.7663 52.7037 24.6038 53.4831 24.2322L52.6224 22.4269ZM52.2537 21.1548C53.1771 21.1548 54.0218 20.8993 54.7267 20.3434L53.4881 18.7731C53.1845 19.0126 52.7934 19.1548 52.2537 19.1548V21.1548ZM54.7281 20.3423C55.4073 19.8046 55.8947 19.077 56.2164 18.2135L54.3422 17.5152C54.1242 18.1005 53.8303 18.5022 53.4867 18.7742L54.7281 20.3423ZM56.2133 18.2215C56.5435 17.3581 56.6948 16.3834 56.6948 15.3182H54.6948C54.6948 16.199 54.5691 16.9217 54.3452 17.5072L56.2133 18.2215ZM56.6948 15.3182C56.6948 14.2559 56.5478 13.2862 56.2259 12.4305L54.354 13.1348C54.5718 13.7138 54.6948 14.4344 54.6948 15.3182H56.6948ZM56.2259 12.4305C55.9028 11.5717 55.4118 10.8506 54.7251 10.3261L53.511 11.9154C53.8471 12.1721 54.1374 12.559 54.354 13.1348L56.2259 12.4305ZM54.7251 10.3261C54.016 9.78435 53.1732 9.5348 52.2537 9.5348V11.5348C52.7973 11.5348 53.1975 11.6759 53.511 11.9154L54.7251 10.3261ZM52.2537 9.5348C51.3166 9.5348 50.4603 9.7936 49.7474 10.358L50.9888 11.9261C51.2986 11.6808 51.6994 11.5348 52.2537 11.5348V9.5348ZM49.7474 10.358C49.0681 10.8957 48.5831 11.6208 48.2679 12.4813L50.1458 13.1693C50.3562 12.5951 50.6453 12.198 50.9888 11.9261L49.7474 10.358ZM48.2679 12.4813C47.9565 13.3314 47.8127 14.283 47.8127 15.3182H49.8127C49.8127 14.4642 49.9317 13.7538 50.1458 13.1693L48.2679 12.4813ZM47.8127 15.3182C47.8127 16.3602 47.9564 17.3199 48.2657 18.1811L50.148 17.505C49.9318 16.9031 49.8127 16.1796 49.8127 15.3182H47.8127ZM48.2698 18.1921C48.5899 19.0515 49.07 19.7784 49.7354 20.322L51.0007 18.7731C50.6576 18.4929 50.3635 18.0834 50.1439 17.4939L48.2698 18.1921ZM49.7474 20.3316C50.4603 20.896 51.3166 21.1548 52.2537 21.1548V19.1548C51.6994 19.1548 51.2986 19.0088 50.9888 18.7635L49.7474 20.3316ZM63.858 23.5H62.858V24.5H63.858V23.5ZM63.858 7.13636V6.13636H62.858V7.13636H63.858ZM68.3963 7.13636H69.3963V6.13636H68.3963V7.13636ZM68.3963 23.5V24.5H69.3963V23.5H68.3963ZM64.4013 4.35582L63.7105 5.07893L63.7161 5.0842L63.7217 5.08938L64.4013 4.35582ZM64.4013 1.11719L65.0863 1.84571L65.0866 1.84539L64.4013 1.11719ZM67.8636 1.11719L67.1729 1.8403L67.1784 1.84557L67.184 1.85075L67.8636 1.11719ZM67.8636 4.35582L68.5487 5.08434L68.549 5.08402L67.8636 4.35582ZM64.858 23.5V7.13636H62.858V23.5H64.858ZM63.858 8.13636H68.3963V6.13636H63.858V8.13636ZM67.3963 7.13636V23.5H69.3963V7.13636H67.3963ZM68.3963 22.5H63.858V24.5H68.3963V22.5ZM66.1378 4.02699C65.7082 4.02699 65.374 3.89378 65.0809 3.62226L63.7217 5.08938C64.3945 5.71276 65.218 6.02699 66.1378 6.02699V4.02699ZM65.092 3.63271C64.8046 3.35814 64.6875 3.07244 64.6875 2.72585H62.6875C62.6875 3.64347 63.0463 4.44441 63.7105 5.07893L65.092 3.63271ZM64.6875 2.72585C64.6875 2.39044 64.8012 2.11374 65.0863 1.84571L63.7163 0.388668C63.0496 1.01552 62.6875 1.81127 62.6875 2.72585H64.6875ZM65.0866 1.84539C65.3806 1.56876 65.7129 1.43537 66.1378 1.43537V-0.564632C65.2132 -0.564632 64.3879 -0.243481 63.7159 0.388988L65.0866 1.84539ZM66.1378 1.43537C66.5624 1.43537 66.8883 1.56841 67.1729 1.8403L68.5544 0.394078C67.8873 -0.243127 67.0626 -0.564632 66.1378 -0.564632V1.43537ZM67.184 1.85075C67.475 2.12032 67.5881 2.39562 67.5881 2.72585H69.5881C69.5881 1.80608 69.2182 1.00894 68.5433 0.383625L67.184 1.85075ZM67.5881 2.72585C67.5881 3.06733 67.4715 3.3516 67.1783 3.62762L68.549 5.08402C69.2216 4.45096 69.5881 3.64858 69.5881 2.72585H67.5881ZM67.1786 3.6273C66.8949 3.89409 66.5672 4.02699 66.1378 4.02699V6.02699C67.0578 6.02699 67.8807 5.71244 68.5487 5.08434L67.1786 3.6273ZM76.5701 14.0398L75.5701 14.0297V14.0398H76.5701ZM76.5701 23.5V24.5H77.5701V23.5H76.5701ZM72.0318 23.5H71.0318V24.5H72.0318V23.5ZM72.0318 7.13636V6.13636H71.0318V7.13636H72.0318ZM76.3571 7.13636H77.3571V6.13636H76.3571V7.13636ZM76.3571 10.0234H75.3571V11.0234H76.3571V10.0234ZM76.5488 10.0234V11.0234H77.2382L77.4834 10.3791L76.5488 10.0234ZM78.3706 7.76491L78.9156 8.60337L78.9204 8.60016L78.3706 7.76491ZM84.443 7.66903L84.95 6.8071L84.95 6.8071L84.443 7.66903ZM86.4139 9.79972L85.5222 10.2524L85.5236 10.2552L86.4139 9.79972ZM87.117 23.5V24.5H88.117V23.5H87.117ZM82.5787 23.5H81.5787V24.5H82.5787V23.5ZM82.5787 13.8906L81.5787 13.8835V13.8906H82.5787ZM81.8116 11.5469L81.0729 12.2209L81.0772 12.2255L81.8116 11.5469ZM78.051 11.0888L77.5619 10.2165L77.5563 10.2197L78.051 11.0888ZM76.9643 12.2393L76.0775 11.7772L76.075 11.782L76.9643 12.2393ZM75.5701 14.0398V23.5H77.5701V14.0398H75.5701ZM76.5701 22.5H72.0318V24.5H76.5701V22.5ZM73.0318 23.5V7.13636H71.0318V23.5H73.0318ZM72.0318 8.13636H76.3571V6.13636H72.0318V8.13636ZM75.3571 7.13636V10.0234H77.3571V7.13636H75.3571ZM76.3571 11.0234H76.5488V9.02344H76.3571V11.0234ZM77.4834 10.3791C77.7704 9.6252 78.2414 9.04157 78.9155 8.60336L77.8256 6.92647C76.7952 7.59621 76.0517 8.51826 75.6142 9.66773L77.4834 10.3791ZM78.9204 8.60016C79.5805 8.1656 80.4139 7.9233 81.4707 7.9233V5.9233C80.0985 5.9233 78.8651 6.24207 77.8207 6.92966L78.9204 8.60016ZM81.4707 7.9233C82.4575 7.9233 83.2675 8.13773 83.936 8.53097L84.95 6.8071C83.9282 6.20602 82.7566 5.9233 81.4707 5.9233V7.9233ZM83.936 8.53097C84.6071 8.92572 85.1349 9.48946 85.5222 10.2524L87.3056 9.34702C86.7554 8.26338 85.9693 7.40666 84.95 6.8071L83.936 8.53097ZM85.5236 10.2552C85.9052 11.0011 86.117 11.9314 86.117 13.081H88.117C88.117 11.6879 87.86 10.4308 87.3041 9.34424L85.5236 10.2552ZM86.117 13.081V23.5H88.117V13.081H86.117ZM87.117 22.5H82.5787V24.5H87.117V22.5ZM83.5787 23.5V13.8906H81.5787V23.5H83.5787ZM83.5786 13.8977C83.587 12.7236 83.2851 11.668 82.5461 10.8682L81.0772 12.2255C81.375 12.5479 81.5846 13.0549 81.5787 13.8835L83.5786 13.8977ZM82.5503 10.8728C81.8078 10.0591 80.8047 9.6946 79.6703 9.6946V11.6946C80.3541 11.6946 80.7785 11.8983 81.0729 12.2209L82.5503 10.8728ZM79.6703 9.6946C78.912 9.6946 78.1995 9.85908 77.562 10.2165L78.54 11.9611C78.8399 11.7929 79.207 11.6946 79.6703 11.6946V9.6946ZM77.5563 10.2197C76.9156 10.5844 76.4226 11.115 76.0775 11.7772L77.8511 12.7015C78.0316 12.3552 78.263 12.1187 78.5457 11.9578L77.5563 10.2197ZM76.075 11.782C75.7322 12.4486 75.5785 13.21 75.5702 14.0297L77.5701 14.0499C77.576 13.4633 77.6851 13.0244 77.8536 12.6967L76.075 11.782ZM94.2841 29.37L94.6435 28.4368L94.6401 28.4355L94.2841 29.37ZM91.7912 27.7401L91.0468 28.4077L91.0468 28.4077L91.7912 27.7401ZM90.5874 25.4176L90.454 24.4265L89.3825 24.5707L89.6097 25.6277L90.5874 25.4176ZM94.7848 24.853L95.716 24.4886L95.4299 23.7572L94.6515 23.8619L94.7848 24.853ZM95.392 25.7692L96.108 25.0711L96.108 25.0711L95.392 25.7692ZM96.4893 26.451L96.8483 25.5176L96.8405 25.5147L96.4893 26.451ZM100.612 25.9929L100.019 25.1876L100.009 25.195L100.612 25.9929ZM101.582 20.6023H102.582V19.6023H101.582V20.6023ZM101.39 20.6023V19.6023H100.736L100.474 20.2015L101.39 20.6023ZM100.495 21.8913L101.208 22.5922L101.208 22.5922L100.495 21.8913ZM93.3679 22.4134L92.8698 23.2805L92.8771 23.2846L93.3679 22.4134ZM90.9709 19.782L90.0754 20.227L90.0786 20.2335L90.9709 19.782ZM90.9922 10.6413L90.0927 10.2044L90.0927 10.2044L90.9922 10.6413ZM93.3999 7.85014L92.8774 6.99745L92.8748 6.99911L93.3999 7.85014ZM99.0142 7.39205L98.5629 8.28445L98.5711 8.28852L99.0142 7.39205ZM100.506 8.54261L99.7307 9.17455L99.736 9.18106L99.7414 9.18748L100.506 8.54261ZM101.39 9.88494L100.484 10.3086L100.754 10.8849H101.39V9.88494ZM101.56 9.88494V10.8849H102.56V9.88494H101.56ZM101.56 7.13636V6.13636H100.56V7.13636H101.56ZM106.067 7.13636H107.067V6.13636H106.067V7.13636ZM105.044 27.1541L104.235 26.5659L104.235 26.5659L105.044 27.1541ZM102.21 29.2635L101.848 28.3313L101.842 28.3339L102.21 29.2635ZM100.016 19.3132L100.599 20.1254L100.601 20.1239L100.016 19.3132ZM101.188 17.7365L100.26 17.3635L100.258 17.3685L101.188 17.7365ZM101.198 12.772L100.263 13.1272L100.265 13.1304L101.198 12.772ZM96.2763 11.142L96.8902 11.9314L96.897 11.9261L96.2763 11.142ZM95.1151 12.804L96.0529 13.151L96.0529 13.151L95.1151 12.804ZM95.1151 17.7152L94.1806 18.0716L94.1853 18.0832L95.1151 17.7152ZM96.2763 19.3026L95.6781 20.1039L95.6844 20.1086L95.6908 20.1132L96.2763 19.3026ZM98.0661 28.9773C96.6832 28.9773 95.5509 28.7863 94.6435 28.4368L93.9247 30.3032C95.1196 30.7634 96.5086 30.9773 98.0661 30.9773V28.9773ZM94.6401 28.4355C93.7144 28.0829 93.0273 27.6205 92.5356 27.0724L91.0468 28.4077C91.7909 29.2374 92.7657 29.8617 93.9281 30.3045L94.6401 28.4355ZM92.5356 27.0724C92.0276 26.506 91.7112 25.8876 91.565 25.2075L89.6097 25.6277C89.8329 26.6664 90.319 27.5963 91.0468 28.4077L92.5356 27.0724ZM90.7207 26.4087L94.9181 25.8441L94.6515 23.8619L90.454 24.4265L90.7207 26.4087ZM93.8536 25.2174C94.0361 25.6839 94.3179 26.1 94.676 26.4673L96.108 25.0711C95.9122 24.8702 95.7892 24.6755 95.716 24.4886L93.8536 25.2174ZM94.676 26.4673C95.076 26.8775 95.5762 27.1765 96.1382 27.3873L96.8405 25.5147C96.4934 25.3845 96.2621 25.2291 96.108 25.0711L94.676 26.4673ZM96.1304 27.3843C96.7379 27.618 97.4281 27.7173 98.1726 27.7173V25.7173C97.5961 25.7173 97.1641 25.6391 96.8483 25.5176L96.1304 27.3843ZM98.1726 27.7173C99.3258 27.7173 100.365 27.4329 101.215 26.7908L100.009 25.195C99.5809 25.5188 98.9938 25.7173 98.1726 25.7173V27.7173ZM101.205 26.7982C102.2 26.0659 102.582 24.9006 102.582 23.5959H100.582C100.582 24.5355 100.317 24.9682 100.019 25.1876L101.205 26.7982ZM102.582 23.5959V20.6023H100.582V23.5959H102.582ZM101.582 19.6023H101.39V21.6023H101.582V19.6023ZM100.474 20.2015C100.33 20.5297 100.106 20.8602 99.7817 21.1905L101.208 22.5922C101.679 22.1129 102.052 21.584 102.306 21.0031L100.474 20.2015ZM99.7817 21.1905C99.4954 21.4819 99.1051 21.7427 98.5823 21.9566L99.3396 23.8076C100.067 23.5102 100.699 23.1104 101.208 22.5922L99.7817 21.1905ZM98.5823 21.9566C98.1062 22.1513 97.4955 22.2656 96.7237 22.2656V24.2656C97.6849 24.2656 98.5656 24.1243 99.3396 23.8076L98.5823 21.9566ZM96.7237 22.2656C95.6561 22.2656 94.7082 22.0207 93.8587 21.5421L92.8771 23.2846C94.0446 23.9424 95.334 24.2656 96.7237 24.2656V22.2656ZM93.866 21.5462C93.0571 21.0816 92.3847 20.3612 91.8631 19.3305L90.0786 20.2335C90.7502 21.5607 91.6758 22.5946 92.8698 23.2805L93.866 21.5462ZM91.8664 19.3369C91.3661 18.3303 91.0866 16.9966 91.0866 15.2862H89.0866C89.0866 17.198 89.3967 18.8615 90.0754 20.227L91.8664 19.3369ZM91.0866 15.2862C91.0866 13.5347 91.3727 12.1467 91.8917 11.0782L90.0927 10.2044C89.4043 11.6217 89.0866 13.3304 89.0866 15.2862H91.0866ZM91.8917 11.0782C92.4271 9.97587 93.1116 9.20307 93.925 8.70118L92.8748 6.99911C91.6853 7.73301 90.7646 8.821 90.0927 10.2044L91.8917 11.0782ZM93.9223 8.70283C94.7711 8.18276 95.6943 7.9233 96.7131 7.9233V5.9233C95.3313 5.9233 94.0456 6.28173 92.8774 6.99745L93.9223 8.70283ZM96.7131 7.9233C97.5211 7.9233 98.1227 8.06176 98.5629 8.28441L99.4655 6.49968C98.67 6.09733 97.7374 5.9233 96.7131 5.9233V7.9233ZM98.5711 8.28852C99.0808 8.54042 99.4578 8.83994 99.7307 9.17455L101.281 7.91067C100.801 7.32199 100.183 6.85447 99.4573 6.49557L98.5711 8.28852ZM99.7414 9.18748C100.08 9.58921 100.323 9.96331 100.484 10.3086L102.296 9.46126C102.045 8.92589 101.698 8.40511 101.27 7.89774L99.7414 9.18748ZM101.39 10.8849H101.56V8.88494H101.39V10.8849ZM102.56 9.88494V7.13636H100.56V9.88494H102.56ZM101.56 8.13636H106.067V6.13636H101.56V8.13636ZM105.067 7.13636V23.6598H107.067V7.13636H105.067ZM105.067 23.6598C105.067 24.884 104.769 25.8315 104.235 26.5659L105.853 27.7423C106.682 26.6018 107.067 25.2197 107.067 23.6598H105.067ZM104.235 26.5659C103.679 27.3305 102.899 27.9236 101.848 28.3313L102.572 30.1957C103.937 29.6659 105.045 28.8528 105.853 27.7423L104.235 26.5659ZM101.842 28.3339C100.781 28.7546 99.5282 28.9773 98.0661 28.9773V30.9773C99.7289 30.9773 101.239 30.7241 102.579 30.1931L101.842 28.3339ZM98.1619 20.8565C99.0644 20.8565 99.896 20.6304 100.599 20.1254L99.4322 18.501C99.1267 18.7205 98.7225 18.8565 98.1619 18.8565V20.8565ZM100.601 20.1239C101.291 19.6257 101.789 18.9343 102.117 18.1046L100.258 17.3685C100.046 17.9023 99.7631 18.2621 99.4301 18.5025L100.601 20.1239ZM102.115 18.1095C102.452 17.273 102.603 16.316 102.603 15.2649H100.603C100.603 16.1314 100.477 16.8222 100.26 17.3635L102.115 18.1095ZM102.603 15.2649C102.603 14.2156 102.456 13.2577 102.132 12.4137L100.265 13.1304C100.48 13.6926 100.603 14.3966 100.603 15.2649H102.603ZM102.133 12.4168C101.809 11.5643 101.318 10.8488 100.633 10.3261L99.4192 11.9154C99.7576 12.1739 100.048 12.5593 100.263 13.1272L102.133 12.4168ZM100.633 10.3261C99.9242 9.78435 99.0814 9.5348 98.1619 9.5348V11.5348C98.7055 11.5348 99.1057 11.6759 99.4192 11.9154L100.633 10.3261ZM98.1619 9.5348C97.2248 9.5348 96.3685 9.7936 95.6556 10.358L96.897 11.9261C97.2068 11.6808 97.6076 11.5348 98.1619 11.5348V9.5348ZM95.6623 10.3527C94.9806 10.883 94.4935 11.602 94.1772 12.457L96.0529 13.151C96.2621 12.5855 96.5493 12.1966 96.8902 11.9314L95.6623 10.3527ZM94.1772 12.457C93.8651 13.3004 93.7209 14.2422 93.7209 15.2649H95.7209C95.7209 14.4268 95.8394 13.728 96.0529 13.151L94.1772 12.457ZM93.7209 15.2649C93.7209 16.2987 93.8642 17.2419 94.1807 18.0716L96.0494 17.3588C95.8403 16.8107 95.7209 16.1204 95.7209 15.2649H93.7209ZM94.1853 18.0832C94.5119 18.9085 95.0021 19.5993 95.6781 20.1039L96.8745 18.5012C96.5419 18.2529 96.258 17.8855 96.0449 17.3472L94.1853 18.0832ZM95.6908 20.1132C96.402 20.6269 97.2454 20.8565 98.1619 20.8565V18.8565C97.587 18.8565 97.1733 18.7169 96.8618 18.4919L95.6908 20.1132ZM110.52 23.0312L109.808 23.7333L109.813 23.7384L109.818 23.7434L110.52 23.0312ZM110.52 19.4304L109.818 18.7183L109.813 18.7233L110.52 19.4304ZM114.121 19.4304L113.424 20.1474L113.424 20.1474L114.121 19.4304ZM114.526 22.5092L113.675 21.9834L113.672 21.9878L114.526 22.5092ZM113.599 23.4361L114.109 24.2965L114.12 24.2894L113.599 23.4361ZM112.331 22.777C111.893 22.777 111.541 22.6333 111.222 22.3191L109.818 23.7434C110.508 24.4235 111.363 24.777 112.331 24.777V22.777ZM111.232 22.3292C110.918 22.0105 110.774 21.6584 110.774 21.2202H108.774C108.774 22.1881 109.128 23.0434 109.808 23.7333L111.232 22.3292ZM110.774 21.2202C110.774 20.7924 110.915 20.4493 111.227 20.1375L109.813 18.7233C109.13 19.4058 108.774 20.2559 108.774 21.2202H110.774ZM111.222 20.1425C111.541 19.8283 111.893 19.6847 112.331 19.6847V17.6847C111.363 17.6847 110.508 18.0381 109.818 18.7183L111.222 20.1425ZM112.331 19.6847C112.739 19.6847 113.089 19.8224 113.424 20.1474L114.818 18.7134C114.129 18.044 113.286 17.6847 112.331 17.6847V19.6847ZM113.424 20.1474C113.747 20.4615 113.888 20.8017 113.888 21.2202H115.888C115.888 20.2466 115.517 19.3936 114.818 18.7134L113.424 20.1474ZM113.888 21.2202C113.888 21.5072 113.817 21.7542 113.675 21.9834L115.376 23.0351C115.717 22.483 115.888 21.8706 115.888 21.2202H113.888ZM113.672 21.9878C113.521 22.2359 113.325 22.4311 113.077 22.5828L114.12 24.2894C114.639 23.9723 115.062 23.5496 115.379 23.0307L113.672 21.9878ZM113.089 22.5758C112.865 22.7083 112.62 22.777 112.331 22.777V24.777C112.965 24.777 113.565 24.6184 114.109 24.2964L113.089 22.5758ZM119.455 23.0312L118.743 23.7333L118.748 23.7384L118.753 23.7434L119.455 23.0312ZM119.455 19.4304L118.753 18.7183L118.748 18.7233L119.455 19.4304ZM123.056 19.4304L122.359 20.1474L122.359 20.1474L123.056 19.4304ZM123.461 22.5092L122.611 21.9834L122.608 21.9878L123.461 22.5092ZM122.534 23.4361L123.044 24.2965L123.056 24.2894L122.534 23.4361ZM121.267 22.777C120.828 22.777 120.476 22.6333 120.158 22.3191L118.753 23.7434C119.443 24.4235 120.299 24.777 121.267 24.777V22.777ZM120.168 22.3292C119.853 22.0105 119.71 21.6584 119.71 21.2202H117.71C117.71 22.1881 118.063 23.0434 118.743 23.7333L120.168 22.3292ZM119.71 21.2202C119.71 20.7924 119.851 20.4493 120.163 20.1375L118.748 18.7233C118.066 19.4058 117.71 20.2559 117.71 21.2202H119.71ZM120.158 20.1425C120.476 19.8283 120.828 19.6847 121.267 19.6847V17.6847C120.299 17.6847 119.443 18.0381 118.753 18.7183L120.158 20.1425ZM121.267 19.6847C121.675 19.6847 122.025 19.8224 122.359 20.1474L123.753 18.7134C123.065 18.044 122.222 17.6847 121.267 17.6847V19.6847ZM122.359 20.1474C122.682 20.4615 122.823 20.8017 122.823 21.2202H124.823C124.823 20.2466 124.453 19.3936 123.753 18.7134L122.359 20.1474ZM122.823 21.2202C122.823 21.5072 122.752 21.7542 122.611 21.9834L124.312 23.0351C124.653 22.483 124.823 21.8706 124.823 21.2202H122.823ZM122.608 21.9878C122.456 22.2359 122.261 22.4311 122.013 22.5828L123.056 24.2894C123.575 23.9723 123.997 23.5496 124.314 23.0307L122.608 21.9878ZM122.024 22.5758C121.801 22.7083 121.555 22.777 121.267 22.777V24.777C121.901 24.777 122.501 24.6184 123.044 24.2964L122.024 22.5758ZM128.391 23.0312L127.679 23.7333L127.684 23.7384L127.689 23.7434L128.391 23.0312ZM128.391 19.4304L127.689 18.7183L127.684 18.7233L128.391 19.4304ZM131.992 19.4304L131.295 20.1474L131.295 20.1474L131.992 19.4304ZM132.397 22.5092L131.546 21.9834L131.543 21.9878L132.397 22.5092ZM131.47 23.4361L131.98 24.2965L131.991 24.2894L131.47 23.4361ZM130.202 22.777C129.764 22.777 129.412 22.6333 129.093 22.3191L127.689 23.7434C128.379 24.4235 129.234 24.777 130.202 24.777V22.777ZM129.103 22.3292C128.789 22.0105 128.645 21.6584 128.645 21.2202H126.645C126.645 22.1881 126.999 23.0434 127.679 23.7333L129.103 22.3292ZM128.645 21.2202C128.645 20.7924 128.786 20.4493 129.098 20.1375L127.684 18.7233C127.001 19.4058 126.645 20.2559 126.645 21.2202H128.645ZM129.093 20.1425C129.412 19.8283 129.764 19.6847 130.202 19.6847V17.6847C129.234 17.6847 128.379 18.0381 127.689 18.7183L129.093 20.1425ZM130.202 19.6847C130.611 19.6847 130.961 19.8224 131.295 20.1474L132.689 18.7134C132 18.044 131.157 17.6847 130.202 17.6847V19.6847ZM131.295 20.1474C131.618 20.4615 131.759 20.8017 131.759 21.2202H133.759C133.759 20.2466 133.389 19.3936 132.689 18.7134L131.295 20.1474ZM131.759 21.2202C131.759 21.5072 131.688 21.7542 131.546 21.9834L133.247 23.0351C133.589 22.483 133.759 21.8706 133.759 21.2202H131.759ZM131.543 21.9878C131.392 22.2359 131.197 22.4311 130.948 22.5828L131.991 24.2894C132.51 23.9723 132.933 23.5496 133.25 23.0307L131.543 21.9878ZM130.96 22.5758C130.736 22.7083 130.491 22.777 130.202 22.777V24.777C130.836 24.777 131.436 24.6184 131.98 24.2964L130.96 22.5758Z" fill="#35DC32" mask="url(#path-1-outside-1_780_1828)"/>
</svg>
