<svg width="49" height="75" viewBox="0 0 49 75" fill="none" xmlns="http://www.w3.org/2000/svg">
<mask id="path-1-outside-1_780_1552" maskUnits="userSpaceOnUse" x="-1.5" y="-1" width="51" height="77" fill="black">
<rect fill="white" x="-1.5" y="-1" width="51" height="77"/>
<path d="M15.5341 52.196V50.9886C15.5578 46.8456 15.9247 43.5431 16.6349 41.081C17.3688 38.6188 18.4342 36.6302 19.831 35.1151C21.2277 33.5999 22.9086 32.2268 24.8736 30.9957C26.3414 30.0488 27.6553 29.0663 28.8153 28.0483C29.9754 27.0303 30.8987 25.9058 31.5852 24.6747C32.2718 23.42 32.6151 22.0232 32.6151 20.4844C32.6151 18.8509 32.2244 17.4186 31.4432 16.1875C30.6619 14.9564 29.6084 14.0095 28.2827 13.3466C26.9806 12.6837 25.5365 12.3523 23.9503 12.3523C22.4115 12.3523 20.9555 12.6955 19.5824 13.3821C18.2093 14.045 17.0848 15.0393 16.2088 16.3651C15.3329 17.6671 14.8594 19.2888 14.7884 21.2301H0.299716C0.418087 16.4953 1.55445 12.589 3.70881 9.51136C5.86316 6.41004 8.71591 4.1018 12.267 2.58664C15.8182 1.04782 19.7363 0.278406 24.0213 0.278406C28.7325 0.278406 32.8991 1.05966 36.5213 2.62216C40.1435 4.16098 42.9844 6.3982 45.044 9.33381C47.1037 12.2694 48.1335 15.8087 48.1335 19.9517C48.1335 22.7216 47.6719 25.1837 46.7486 27.3381C45.849 29.4687 44.5824 31.3627 42.9489 33.0199C41.3153 34.6534 39.3859 36.133 37.1605 37.4588C35.2902 38.5715 33.7514 39.7315 32.544 40.9389C31.3603 42.1463 30.4725 43.5431 29.8807 45.1293C29.3125 46.7154 29.0166 48.6686 28.9929 50.9886V52.196H15.5341ZM22.5653 74.9233C20.1979 74.9233 18.1738 74.0947 16.4929 72.4375C14.8357 70.7566 14.0189 68.7443 14.0426 66.4006C14.0189 64.0805 14.8357 62.0919 16.4929 60.4347C18.1738 58.7775 20.1979 57.9489 22.5653 57.9489C24.8144 57.9489 26.7912 58.7775 28.4957 60.4347C30.2003 62.0919 31.0644 64.0805 31.0881 66.4006C31.0644 67.9631 30.6501 69.3954 29.8452 70.6974C29.0639 71.9759 28.0341 73.0057 26.7557 73.7869C25.4773 74.5445 24.0805 74.9233 22.5653 74.9233Z"/>
</mask>
<path d="M15.5341 52.196H14.5341V53.196H15.5341V52.196ZM15.5341 50.9886L14.5341 50.9829V50.9886H15.5341ZM16.6349 41.081L15.6766 40.7953L15.6741 40.8038L16.6349 41.081ZM24.8736 30.9957L25.4045 31.8432L25.4157 31.836L24.8736 30.9957ZM28.8153 28.0483L28.1558 27.2967L28.1558 27.2967L28.8153 28.0483ZM31.5852 24.6747L32.4586 25.1618L32.4625 25.1547L31.5852 24.6747ZM31.4432 16.1875L30.5989 16.7233L30.5989 16.7233L31.4432 16.1875ZM28.2827 13.3466L27.829 14.2378L27.8355 14.241L28.2827 13.3466ZM19.5824 13.3821L20.0172 14.2827L20.0296 14.2765L19.5824 13.3821ZM16.2088 16.3651L17.0386 16.9233L17.0431 16.9163L16.2088 16.3651ZM14.7884 21.2301V22.2301H15.7524L15.7877 21.2667L14.7884 21.2301ZM0.299716 21.2301L-0.699972 21.2051L-0.725596 22.2301H0.299716V21.2301ZM3.70881 9.51136L4.52804 10.0848L4.5301 10.0819L3.70881 9.51136ZM12.267 2.58664L12.6595 3.50644L12.6647 3.5042L12.267 2.58664ZM36.5213 2.62216L36.1252 3.54038L36.1303 3.54254L36.5213 2.62216ZM45.044 9.33381L44.2254 9.90815L44.2254 9.90815L45.044 9.33381ZM46.7486 27.3381L45.8294 26.9441L45.8273 26.9491L46.7486 27.3381ZM42.9489 33.0199L43.656 33.727L43.661 33.7219L42.9489 33.0199ZM37.1605 37.4588L37.6718 38.3182L37.6723 38.3179L37.1605 37.4588ZM32.544 40.9389L31.8369 40.2318L31.83 40.2388L32.544 40.9389ZM29.8807 45.1293L28.9437 44.7796L28.9393 44.792L29.8807 45.1293ZM28.9929 50.9886L27.9929 50.9784V50.9886H28.9929ZM28.9929 52.196V53.196H29.9929V52.196H28.9929ZM16.4929 72.4375L15.7808 73.1396L15.7858 73.1446L15.7908 73.1496L16.4929 72.4375ZM14.0426 66.4006L15.0426 66.4107L15.0427 66.4005L15.0426 66.3904L14.0426 66.4006ZM16.4929 60.4347L15.7908 59.7225L15.7858 59.7276L16.4929 60.4347ZM28.4957 60.4347L27.7987 61.1517L27.7987 61.1517L28.4957 60.4347ZM31.0881 66.4006L32.088 66.4157L32.0881 66.403L32.088 66.3904L31.0881 66.4006ZM29.8452 70.6974L28.9946 70.1716L28.9919 70.176L29.8452 70.6974ZM26.7557 73.7869L27.2655 74.6473L27.2771 74.6402L26.7557 73.7869ZM16.5341 52.196V50.9886H14.5341V52.196H16.5341ZM16.5341 50.9944C16.5575 46.8941 16.9217 43.6948 17.5958 41.3581L15.6741 40.8038C14.9277 43.3914 14.558 46.7971 14.5341 50.9829L16.5341 50.9944ZM17.5933 41.3666C18.2941 39.0153 19.295 37.1718 20.5662 35.7929L19.0957 34.4373C17.5734 36.0886 16.4436 38.2224 15.6766 40.7953L17.5933 41.3666ZM20.5662 35.7929C21.8957 34.3507 23.5056 33.0328 25.4045 31.8432L24.3427 30.1483C22.3116 31.4208 20.5598 32.8492 19.0957 34.4373L20.5662 35.7929ZM25.4157 31.836C26.9195 30.8658 28.2735 29.8542 29.4749 28.7999L28.1558 27.2967C27.0371 28.2784 25.7633 29.2317 24.3315 30.1554L25.4157 31.836ZM29.4749 28.7999C30.7127 27.7137 31.7114 26.5016 32.4586 25.1618L30.7119 24.1876C30.086 25.3099 29.2381 26.3469 28.1558 27.2967L29.4749 28.7999ZM32.4625 25.1547C33.2356 23.7417 33.6151 22.1779 33.6151 20.4844H31.6151C31.6151 21.8685 31.3079 23.0982 30.708 24.1947L32.4625 25.1547ZM33.6151 20.4844C33.6151 18.6846 33.1824 17.0617 32.2875 15.6517L30.5989 16.7233C31.2665 17.7754 31.6151 19.0171 31.6151 20.4844H33.6151ZM32.2875 15.6517C31.4072 14.2646 30.2153 13.1949 28.7299 12.4522L27.8355 14.241C29.0016 14.8241 29.9166 15.6483 30.5989 16.7233L32.2875 15.6517ZM28.7364 12.4554C27.282 11.715 25.6804 11.3523 23.9503 11.3523V13.3523C25.3925 13.3523 26.6792 13.6524 27.829 14.2378L28.7364 12.4554ZM23.9503 11.3523C22.2566 11.3523 20.6475 11.7315 19.1352 12.4877L20.0296 14.2765C21.2635 13.6596 22.5663 13.3523 23.9503 13.3523V11.3523ZM19.1476 12.4815C17.6053 13.2261 16.3453 14.3444 15.3745 15.8138L17.0431 16.9163C17.8242 15.7342 18.8133 14.8638 20.0171 14.2827L19.1476 12.4815ZM15.3791 15.8069C14.3769 17.2966 13.8652 19.1102 13.789 21.1936L15.7877 21.2667C15.8535 19.4675 16.2888 18.0376 17.0385 16.9232L15.3791 15.8069ZM14.7884 20.2301H0.299716V22.2301H14.7884V20.2301ZM1.2994 21.2551C1.41414 16.6657 2.51261 12.964 4.52804 10.0848L2.88958 8.9379C0.596289 12.214 -0.577965 16.3249 -0.699972 21.2051L1.2994 21.2551ZM4.5301 10.0819C6.57467 7.13859 9.2772 4.94953 12.6595 3.50642L11.8746 1.66687C8.15462 3.25406 5.15166 5.68148 2.88752 8.94085L4.5301 10.0819ZM12.6647 3.5042C16.0774 2.02532 19.8583 1.27841 24.0213 1.27841V-0.721594C19.6142 -0.721594 15.5589 0.0703139 11.8694 1.66909L12.6647 3.5042ZM24.0213 1.27841C28.6222 1.27841 32.65 2.04125 36.1252 3.54037L36.9174 1.70395C33.1483 0.0780676 28.8427 -0.721594 24.0213 -0.721594V1.27841ZM36.1303 3.54254C39.5977 5.01563 42.2835 7.14033 44.2254 9.90815L45.8626 8.75946C43.6853 5.65607 40.6892 3.30633 36.9123 1.70177L36.1303 3.54254ZM44.2254 9.90815C46.1494 12.6504 47.1335 15.9813 47.1335 19.9517H49.1335C49.1335 15.6361 48.058 11.8884 45.8626 8.75946L44.2254 9.90815ZM47.1335 19.9517C47.1335 22.6104 46.6906 24.9348 45.8294 26.9441L47.6677 27.732C48.6532 25.4327 49.1335 22.8328 49.1335 19.9517H47.1335ZM45.8273 26.9491C44.9773 28.9624 43.7819 30.7503 42.2367 32.3179L43.661 33.7219C45.3829 31.9751 46.7207 29.9751 47.6698 27.727L45.8273 26.9491ZM42.2418 32.3128C40.6734 33.8812 38.8114 35.3113 36.6487 36.5997L37.6723 38.3179C39.9604 36.9548 41.9573 35.4257 43.656 33.727L42.2418 32.3128ZM36.6492 36.5994C34.7261 37.7435 33.1165 38.9523 31.8369 40.2318L33.2511 41.646C34.3864 40.5108 35.8544 39.3994 37.6718 38.3182L36.6492 36.5994ZM31.83 40.2388C30.5481 41.5463 29.5845 43.0625 28.9438 44.7797L30.8176 45.4788C31.3606 44.0236 32.1725 42.7463 33.2581 41.639L31.83 40.2388ZM28.9393 44.792C28.3223 46.5145 28.0174 48.5858 27.993 50.9784L29.9928 50.9988C30.0158 48.7513 30.3027 46.9164 30.8221 45.4665L28.9393 44.792ZM27.9929 50.9886V52.196H29.9929V50.9886H27.9929ZM28.9929 51.196H15.5341V53.196H28.9929V51.196ZM22.5653 73.9233C20.4598 73.9233 18.6881 73.1975 17.195 71.7254L15.7908 73.1496C17.6594 74.9919 19.936 75.9233 22.5653 75.9233V73.9233ZM17.205 71.7354C15.7333 70.2427 15.0216 68.4861 15.0426 66.4107L13.0427 66.3905C13.0163 69.0026 13.9382 71.2706 15.7808 73.1396L17.205 71.7354ZM15.0426 66.3904C15.0217 64.3421 15.7307 62.6111 17.2 61.1418L15.7858 59.7276C13.9407 61.5726 13.0162 63.8189 13.0427 66.4108L15.0426 66.3904ZM17.195 61.1468C18.6881 59.6747 20.4598 58.9489 22.5653 58.9489V56.9489C19.936 56.9489 17.6594 57.8803 15.7908 59.7226L17.195 61.1468ZM22.5653 58.9489C24.5381 58.9489 26.269 59.6645 27.7987 61.1517L29.1928 59.7177C27.3134 57.8904 25.0907 56.9489 22.5653 56.9489V58.9489ZM27.7987 61.1517C29.3174 62.6282 30.0672 64.3645 30.0881 66.4108L32.088 66.3904C32.0615 63.7965 31.0832 61.5555 29.1928 59.7177L27.7987 61.1517ZM30.0882 66.3854C30.0672 67.7713 29.7025 69.0265 28.9946 70.1716L30.6958 71.2233C31.5977 69.7642 32.0616 68.1548 32.088 66.4157L30.0882 66.3854ZM28.9919 70.176C28.2934 71.319 27.3773 72.2351 26.2342 72.9336L27.2771 74.6402C28.6909 73.7762 29.8345 72.6327 30.6985 71.2189L28.9919 70.176ZM26.2459 72.9266C25.1249 73.5909 23.9048 73.9233 22.5653 73.9233V75.9233C24.2562 75.9233 25.8296 75.4981 27.2655 74.6472L26.2459 72.9266Z" fill="#35DC32" mask="url(#path-1-outside-1_780_1552)"/>
</svg>
